<svg version="1.2" xmlns="http://www.w3.org/2000/svg" viewBox="0 0 78 111" width="78" height="111">
	<title>Layer</title>
	<style>
		.s0 { fill: #8390cd } 
		.s1 { fill: #c1e8fa } 
		.s2 { fill: #acd9ea } 
		.s3 { fill: #82c2de } 
		.s4 { fill: #def6ff } 
		.s5 { fill: #60acc6 } 
		.s6 { fill: #1d374e } 
		.s7 { fill: #c5ced7 } 
		.s8 { fill: #e1eaf3 } 
		.s9 { fill: #3998d8 } 
		.s10 { fill: #feb623 } 
		.s11 { fill: #c47f10 } 
		.s12 { fill: #ffaa83 } 
		.s13 { fill: #e29813 } 
		.s14 { fill: #120f1f } 
		.s15 { fill: #32293a } 
		.s16 { fill: #ffc255 } 
		.s17 { fill: #f79f7c } 
		.s18 { fill: #723e24 } 
	</style>
	<g id="Layer">
		<g id="-e-step_5">
			<g id="Layer">
				<path id="Layer" class="s0" d="m0.4 87.4l25.9 15 30.1-17.4-25.9-15z"/>
			</g>
			<g id="Layer">
				<g id="Layer">
					<path id="Layer" class="s1" d="m4.2 51.3l0.1 35.9 21.9 12.7-0.1-35.9z"/>
				</g>
				<g id="Layer">
					<g id="Layer">
						<path id="Layer" class="s2" d="m26.1 64l0.1 35.9 25.4-14.7-0.1-35.9z"/>
					</g>
				</g>
				<g id="Layer">
					<g id="Layer">
						<path id="Layer" class="s3" d="m26.1 64v5l25.4-14.8v-4.9z"/>
					</g>
				</g>
				<g id="Layer">
					<path id="Layer" class="s4" d="m4.2 51.3l21.9 12.7 25.4-14.7-21.9-12.7z"/>
				</g>
				<path id="Layer" class="s4" d="m32.4 79.6q0-0.1 0-0.3 0-0.1 0-0.1 0.1-0.2 0.1-0.4 0 0 0-0.1 0-0.1 0-0.2 0-0.2 0.1-0.4 0-0.1 0-0.2 0-0.2 0.1-0.3 0-0.2 0-0.3 0.1-0.1 0.1-0.2 0-0.2 0.1-0.3 0-0.1 0-0.2 0-0.1 0.1-0.2 0.1-0.4 0.2-0.7 0 0 0-0.1 0.1-0.3 0.2-0.7 0.1-0.1 0.1-0.1 0.1-0.3 0.3-0.6 0-0.1 0-0.1 0.1-0.3 0.3-0.7 0 0 0.1-0.1 0.1-0.3 0.2-0.5 0.1-0.1 0.1-0.2 0.2-0.3 0.3-0.6 0.1-0.1 0.1-0.1 0.2-0.3 0.3-0.6 0.1 0 0.1-0.1 0.2-0.3 0.5-0.6 0-0.1 0-0.1 0.3-0.4 0.5-0.7 0 0 0.1-0.1 0-0.1 0.1-0.1 0.1-0.2 0.2-0.3 0.1-0.1 0.2-0.2 0.1-0.1 0.2-0.2 0.2-0.2 0.3-0.4 0.1 0 0.1-0.1 0.2-0.2 0.4-0.4 0.1-0.1 0.3-0.3 0 0 0.1 0 0.1-0.2 0.3-0.4 0.1 0 0.1-0.1 0.2-0.1 0.3-0.2 0.1-0.1 0.1-0.1 0.2-0.1 0.3-0.2 0.1-0.1 0.1-0.1 0.2-0.1 0.3-0.2 0.1 0 0.1-0.1 0.2-0.1 0.3-0.2 0.1 0 0.1-0.1 0.2-0.1 0.4-0.2 0.2-0.1 0.4-0.2 0.1 0 0.1-0.1 0.2-0.1 0.4-0.1 0 0 0-0.1 0.2 0 0.4-0.1 0.1-0.1 0.3-0.1 0.1-0.1 0.1-0.1 0.2-0.1 0.5-0.1 0.1-0.1 0.2-0.1 0.1 0 0.2 0 0.1-0.1 0.3-0.1 0 0 0 0 0.2 0 0.4 0 0 0 0.1 0 0.1 0 0.2 0 0.1 0 0.1 0 0.2 0 0.3 0 0 0 0.1 0 0.1 0 0.3 0 0 0 0.1 0 0.1 0 0.2 0 0.2 0.1 0.4 0.1 0 0 0 0 0.2 0.1 0.4 0.2 0 0 0.1 0 0.1 0.1 0.3 0.2 0 0 0.1 0-0.8-0.4-1.6-0.9 0 0 0 0 0 0-0.1-0.1-0.1 0-0.3-0.1 0 0 0 0-0.1 0-0.1 0-0.2-0.1-0.4-0.2 0 0 0 0 0 0 0 0 0 0 0 0-0.1 0-0.3-0.1 0 0-0.1 0 0 0-0.1 0 0 0-0.1 0 0 0-0.1 0-0.1 0-0.3-0.1 0 0 0 0 0 0-0.1 0-0.1 0-0.2 0-0.1 0-0.1 0-0.1 0-0.1 0-0.1 0-0.2 0.1 0 0-0.1 0-0.2 0-0.3 0 0 0 0 0-0.2 0-0.4 0.1-0.1 0-0.1 0-0.2 0-0.3 0.1 0 0 0 0-0.2 0-0.4 0.1-0.1 0-0.1 0-0.2 0.1-0.4 0.2 0 0-0.1 0-0.1 0.1-0.3 0.1 0 0 0 0.1-0.2 0-0.3 0.1-0.1 0.1-0.1 0.1-0.2 0.1-0.4 0.2-0.2 0.1-0.4 0.2-0.1 0.1-0.2 0.1-0.1 0.1-0.2 0.2-0.1 0-0.2 0.1-0.1 0.1-0.2 0.2-0.1 0-0.2 0.1-0.1 0.1-0.2 0.2-0.1 0-0.2 0.1-0.1 0.1-0.2 0.2-0.1 0.1-0.1 0.1-0.2 0.2-0.4 0.3-0.1 0.1-0.1 0.1-0.1 0.1-0.2 0.3 0 0-0.1 0-0.2 0.2-0.4 0.4 0 0 0 0-0.2 0.3-0.4 0.5 0 0 0 0-0.1 0.1-0.2 0.2-0.1 0.1-0.2 0.2 0 0.1-0.1 0.2-0.1 0.1-0.2 0.2 0 0 0 0.1 0 0-0.1 0-0.2 0.3-0.4 0.7-0.1 0-0.1 0 0 0 0 0-0.2 0.4-0.4 0.7 0 0-0.1 0 0 0.1 0 0.1-0.2 0.3-0.4 0.6 0 0 0 0 0 0.1 0 0.1-0.2 0.3-0.4 0.6 0 0 0 0.1 0 0 0 0.1-0.2 0.2-0.3 0.5 0 0-0.1 0.1 0 0 0 0-0.1 0.3-0.3 0.7 0 0 0 0 0 0 0 0.1-0.1 0.3-0.3 0.5 0 0.1 0 0.1 0 0.1 0 0.1-0.2 0.4-0.3 0.7 0 0 0 0 0 0.1 0 0.1-0.1 0.3-0.2 0.7 0 0 0 0.1 0 0-0.1 0.1 0 0.1 0 0.2-0.1 0.1-0.1 0.3 0 0.1 0 0.2-0.1 0.1-0.1 0.1 0 0.1 0 0.2 0 0.1-0.1 0.3 0 0.1 0 0.2 0 0.2 0 0.3-0.1 0.1-0.1 0.2 0 0 0 0.1 0 0.1 0 0.1 0 0.2 0 0.4 0 0 0 0.1-0.1 0.2-0.1 0.3 0 0.1 0 0.2 0 0.2 0 0.4c0 2.7 1 4.5 2.5 5.4q0.7 0.5 1.5 0.9c-1.5-0.8-2.4-2.7-2.4-5.3q0-0.3 0-0.5 0-0.1 0-0.2z"/>
				<g id="Layer">
					<path id="Layer" class="s1" d="m40.7 65.8c4.7-2.7 8.4-0.5 8.4 4.8 0 5.3-3.7 11.8-8.3 14.4-4.6 2.7-8.4 0.6-8.4-4.7 0-5.4 3.7-11.8 8.3-14.5z"/>
				</g>
				<g id="Layer">
					<path id="Layer" class="s4" d="m40.7 68.2c3.6-2 6.4-0.4 6.4 3.7 0.1 4-2.8 8.9-6.3 11-3.5 2-6.4 0.4-6.4-3.7 0-4 2.8-9 6.3-11z"/>
				</g>
				<path id="Layer" class="s3" d="m40.7 68.2c-3.5 2-6.3 7-6.3 11 0 1.7 0.5 2.9 1.2 3.7 1 0.1 2.1-0.2 3.3-0.9 3.6-2 6.4-7 6.4-11 0-1.6-0.5-2.9-1.3-3.7-0.9-0.1-2.1 0.2-3.3 0.9z"/>
				<path id="Layer" class="s5" d="m34.4 79.2q0 1.1 0.2 1.9 0.8-0.2 1.7-0.7c3.5-2 6.4-7 6.4-11q0-1.1-0.3-1.9-0.8 0.2-1.7 0.7c-3.5 2-6.3 7-6.3 11z"/>
				<g id="Layer">
					<path id="Layer" class="s1" d="m27.7 63.9v3.6l6.7-3.8v-3.7z"/>
				</g>
				<g id="Layer">
					<path id="Layer" class="s4" d="m35.4 59.6v1.3l6.7-3.7v-1.5z"/>
				</g>
				<g id="Layer">
					<path id="Layer" class="s6" d="m37.2 58.6v1.3l3.4-1.9v-1.4z"/>
				</g>
				<g id="Layer">
					<path id="Layer" class="s4" d="m45.3 55.6q0-0.1 0-0.2 0 0 0 0 0.1-0.1 0.1-0.2 0 0 0 0 0.1-0.1 0.2-0.3 0 0 0 0 0-0.1 0.1-0.2 0 0 0 0 0.1-0.1 0.2-0.2 0 0 0 0 0-0.1 0.1-0.1 0-0.1 0.1-0.1 0.1 0 0.2-0.1 0-0.1 0.1-0.1 0.1 0 0.1 0 0.1 0 0.1 0 0 0 0 0 0.1 0 0.2 0 0 0 0 0 0.1 0 0.2 0 0 0 0 0l-0.4-0.2-0.2-0.1q0 0 0 0 0 0 0 0-0.1 0-0.1 0 0 0 0-0.1 0 0 0 0-0.1 0-0.1 0 0 0 0 0-0.1 0-0.1 0 0 0 0 0 0 0 0 0 0 0-0.1 0 0 0.1 0 0.1-0.1 0-0.1 0 0 0 0 0 0 0-0.1 0 0 0-0.1 0.1-0.1 0-0.2 0.1 0 0 0 0.1-0.1 0-0.1 0-0.1 0-0.1 0.1 0 0 0 0 0 0 0 0-0.1 0.1-0.1 0.1 0 0.1 0 0.1-0.1 0-0.1 0 0 0 0 0 0 0.1 0 0.1-0.1 0.1-0.1 0.1 0 0 0 0 0 0 0 0 0 0.1 0 0.1-0.1 0-0.1 0.1 0 0 0 0 0 0 0 0 0 0.1 0 0.1 0 0-0.1 0 0 0.1 0 0.1 0 0.1 0 0.1 0 0 0 0 0 0 0 0 0 0.1-0.1 0.2 0 0 0 0 0 0 0 0.1 0 0 0 0 0 0.1 0 0.2 0 0.5 0.3 0.6l0.6 0.3q-0.3-0.1-0.3-0.6 0-0.1 0-0.2 0 0 0-0.1z"/>
					<g id="Layer">
						<path id="Layer" class="s1" d="m46.3 54.2c0.5-0.3 0.9-0.1 0.9 0.6 0 0.6-0.4 1.4-0.9 1.7-0.6 0.3-1 0-1-0.6 0-0.6 0.4-1.4 1-1.7z"/>
					</g>
				</g>
				<g id="Layer">
					<path id="Layer" class="s4" d="m48.4 54q0-0.1 0-0.2 0 0 0.1 0 0-0.1 0-0.3 0.1-0.1 0.2-0.2 0 0 0 0 0-0.1 0.1-0.2 0 0 0 0 0.1-0.1 0.2-0.2 0 0 0 0 0.1-0.1 0.1-0.2 0 0 0.1 0 0.1-0.1 0.2-0.1 0.1-0.1 0.1-0.1 0.1 0 0.1 0 0.1-0.1 0.1-0.1 0 0 0.1 0 0 0 0.1 0 0 0 0 0 0.1 0 0.2 0.1 0 0 0 0l-0.4-0.2-0.2-0.1q0 0 0 0 0 0 0-0.1-0.1 0-0.1 0 0 0 0 0 0 0 0 0 0 0-0.1 0 0 0 0 0 0 0-0.1 0 0 0 0 0 0 0 0 0 0 0-0.1 0 0 0 0 0-0.1 0-0.1 0 0 0 0 0.1 0 0-0.1 0 0 0-0.1 0-0.1 0.1-0.2 0.2 0 0 0 0-0.1 0.1-0.1 0.1 0 0-0.1 0 0 0.1 0 0.1 0 0 0 0-0.1 0.1-0.1 0.1 0 0 0 0 0 0.1-0.1 0.1 0 0 0 0 0 0 0 0.1-0.1 0-0.1 0.1 0 0 0 0 0 0 0 0 0 0 0 0.1-0.1 0-0.1 0 0 0.1 0 0.1 0 0 0 0 0 0 0 0 0 0.1-0.1 0.1 0 0.1 0 0.1 0 0 0 0.1 0 0 0 0 0 0 0 0 0 0.1 0 0.1-0.1 0.1-0.1 0.1 0 0 0 0 0 0 0 0.1 0 0.1 0 0.1 0 0.5 0.3 0.7l0.6 0.3q-0.3-0.2-0.3-0.6 0-0.1 0-0.3 0 0 0 0z"/>
					<g id="Layer">
						<path id="Layer" class="s1" d="m49.4 52.6c0.5-0.4 1-0.1 1 0.5 0 0.7-0.5 1.4-1 1.7-0.6 0.4-1 0.1-1-0.5 0-0.7 0.4-1.4 1-1.7z"/>
					</g>
				</g>
				<g id="Layer">
					<g id="Layer">
						<g id="Layer">
							<path id="Layer" class="s7" d="m35.8 62.6l-0.1-0.1v-1.3l0.1 0.1z"/>
						</g>
						<g id="Layer">
							<path id="Layer" class="s7" d="m35.8 61.3l-0.1-0.1 0.4-0.2h0.2z"/>
						</g>
						<g id="Layer">
							<path id="Layer" class="s8" d="m36.3 61v1.3l-0.5 0.3v-1.3z"/>
						</g>
					</g>
				</g>
				<g id="Layer">
					<g id="Layer">
						<g id="Layer">
							<path id="Layer" class="s7" d="m36.8 62.1l-0.2-0.1v-1.3l0.2 0.1z"/>
						</g>
						<g id="Layer">
							<path id="Layer" class="s7" d="m36.8 60.8l-0.2-0.1 0.5-0.2 0.1 0.1z"/>
						</g>
						<g id="Layer">
							<path id="Layer" class="s8" d="m37.2 60.6v1.2l-0.4 0.3v-1.3z"/>
						</g>
					</g>
				</g>
				<g id="Layer">
					<g id="Layer">
						<g id="Layer">
							<path id="Layer" class="s7" d="m40.7 59.9h-0.1v-1.3l0.1 0.1z"/>
						</g>
						<g id="Layer">
							<path id="Layer" class="s7" d="m40.7 58.7l-0.1-0.1 0.4-0.3 0.2 0.1z"/>
						</g>
						<g id="Layer">
							<path id="Layer" class="s8" d="m41.2 58.4v1.3l-0.5 0.2v-1.2z"/>
						</g>
					</g>
				</g>
				<g id="Layer">
					<g id="Layer">
						<g id="Layer">
							<path id="Layer" class="s7" d="m41.6 59.5l-0.1-0.1v-1.3l0.1 0.1z"/>
						</g>
						<g id="Layer">
							<path id="Layer" class="s7" d="m41.6 58.2l-0.1-0.1 0.4-0.2h0.2z"/>
						</g>
						<g id="Layer">
							<path id="Layer" class="s8" d="m42.1 57.9v1.3l-0.5 0.3v-1.3z"/>
						</g>
					</g>
				</g>
			</g>
			<g id="Layer">
				<path id="Layer" class="s1" d="m4.2 15.3l0.1 35.9 21.9 12.7-0.1-35.9z"/>
			</g>
			<g id="Layer">
				<g id="Layer">
					<path id="Layer" class="s2" d="m26.1 28l0.1 35.9 25.4-14.7-0.1-35.9z"/>
				</g>
			</g>
			<g id="Layer">
				<g id="Layer">
					<path id="Layer" class="s3" d="m26.1 28v5l25.4-14.8v-4.9z"/>
				</g>
			</g>
			<g id="Layer">
				<path id="Layer" class="s4" d="m4.2 15.3l21.9 12.7 25.4-14.7-21.9-12.7z"/>
			</g>
			<g id="Layer">
				<path id="Layer" class="s1" d="m38.9 31.6c4.6-2.7 8.3-0.5 8.4 4.8 0 5.3-3.8 11.8-8.4 14.5-4.6 2.6-8.4 0.5-8.4-4.8 0-5.3 3.7-11.8 8.4-14.5z"/>
			</g>
			<g id="Layer">
				<path id="Layer" class="s3" d="m38.9 34c3.5-2 6.4-0.4 6.4 3.7 0 4-2.9 9-6.4 11-3.5 2-6.4 0.4-6.4-3.7 0-4 2.8-9 6.4-11z"/>
			</g>
			<g id="Layer">
				<path id="Layer" class="s1" d="m27.7 27.9v3.6l6.7-3.8v-3.7z"/>
			</g>
			<g id="Layer">
				<path id="Layer" class="s4" d="m35.4 23.6v1.3l6.7-3.7v-1.5z"/>
			</g>
			<g id="Layer">
				<path id="Layer" class="s6" d="m37.2 22.6v1.3l3.4-1.9v-1.4z"/>
			</g>
			<g id="Layer">
				<path id="Layer" class="s4" d="m45.3 19.6q0-0.1 0-0.2 0 0 0 0 0.1-0.1 0.1-0.2 0 0 0 0 0.1-0.1 0.2-0.3 0 0 0 0 0-0.1 0.1-0.2 0 0 0 0 0.1-0.1 0.2-0.2 0 0 0 0 0-0.1 0.1-0.1 0-0.1 0.1-0.1 0.1 0 0.2-0.1 0-0.1 0.1-0.1 0.1 0 0.1 0 0.1 0 0.1 0 0 0 0 0 0.1 0 0.2 0 0 0 0 0 0.1 0 0.2 0 0 0 0 0l-0.4-0.2-0.2-0.1q0 0 0 0 0 0 0 0-0.1 0-0.1 0 0 0 0-0.1 0 0 0 0-0.1 0-0.1 0 0 0 0 0-0.1 0-0.1 0 0 0 0 0 0 0 0 0 0 0-0.1 0 0 0.1 0 0.1-0.1 0-0.1 0 0 0 0 0 0 0-0.1 0 0 0-0.1 0.1-0.1 0-0.2 0.1 0 0 0 0.1-0.1 0-0.1 0-0.1 0-0.1 0.1 0 0 0 0 0 0 0 0-0.1 0.1-0.1 0.1 0 0.1 0 0.1-0.1 0-0.1 0 0 0 0 0 0 0.1 0 0.1-0.1 0.1-0.1 0.1 0 0 0 0 0 0 0 0 0 0.1 0 0.1-0.1 0-0.1 0.1 0 0 0 0 0 0 0 0 0 0.1 0 0.1 0 0-0.1 0 0 0.1 0 0.1 0 0.1 0 0.1 0 0 0 0 0 0 0 0 0 0.1-0.1 0.2 0 0 0 0 0 0 0 0.1 0 0 0 0 0 0.1 0 0.2 0 0.5 0.3 0.6l0.6 0.3q-0.3-0.1-0.3-0.6 0-0.1 0-0.2 0 0 0-0.1z"/>
				<g id="Layer">
					<path id="Layer" class="s1" d="m46.3 18.2c0.5-0.3 0.9-0.1 0.9 0.6 0 0.6-0.4 1.4-0.9 1.7-0.6 0.3-1 0-1-0.6 0-0.6 0.4-1.4 1-1.7z"/>
				</g>
			</g>
			<g id="Layer">
				<path id="Layer" class="s4" d="m48.4 18q0-0.1 0-0.2 0 0 0.1 0 0-0.1 0-0.3 0.1-0.1 0.2-0.2 0 0 0 0 0-0.1 0.1-0.2 0 0 0 0 0.1-0.1 0.2-0.2 0 0 0 0 0.1-0.1 0.1-0.2 0 0 0.1 0 0.1-0.1 0.2-0.1 0.1-0.1 0.1-0.1 0.1 0 0.1 0 0.1-0.1 0.1-0.1 0 0 0.1 0 0 0 0.1 0 0 0 0 0 0.1 0 0.2 0.1 0 0 0 0l-0.4-0.2-0.2-0.1q0 0 0 0 0 0 0-0.1-0.1 0-0.1 0 0 0 0 0 0 0 0 0 0 0-0.1 0 0 0 0 0 0 0-0.1 0 0 0 0 0 0 0 0 0 0 0-0.1 0 0 0 0 0-0.1 0-0.1 0 0 0 0 0.1 0 0-0.1 0 0 0-0.1 0-0.1 0.1-0.2 0.2 0 0 0 0-0.1 0.1-0.1 0.1 0 0-0.1 0 0 0.1 0 0.1 0 0 0 0-0.1 0.1-0.1 0.1 0 0 0 0 0 0.1-0.1 0.1 0 0 0 0 0 0 0 0.1-0.1 0-0.1 0.1 0 0 0 0 0 0 0 0 0 0 0 0.1-0.1 0-0.1 0 0 0.1 0 0.1 0 0 0 0 0 0 0 0 0 0.1-0.1 0.1 0 0.1 0 0.1 0 0 0 0.1 0 0 0 0 0 0 0 0 0 0.1 0 0.1-0.1 0.1-0.1 0.1 0 0 0 0 0 0 0 0.1 0 0.1 0 0.1 0 0.5 0.3 0.7l0.6 0.3q-0.3-0.2-0.3-0.6 0-0.1 0-0.3 0 0 0 0z"/>
				<g id="Layer">
					<path id="Layer" class="s1" d="m49.4 16.6c0.5-0.4 1-0.1 1 0.5 0 0.7-0.5 1.4-1 1.7-0.6 0.4-1 0.1-1-0.5 0-0.7 0.4-1.4 1-1.7z"/>
				</g>
			</g>
			<g id="Layer">
				<g id="Layer">
					<g id="Layer">
						<path id="Layer" class="s7" d="m35.8 26.6l-0.1-0.1v-1.3l0.1 0.1z"/>
					</g>
					<g id="Layer">
						<path id="Layer" class="s7" d="m35.8 25.3l-0.1-0.1 0.4-0.2h0.2z"/>
					</g>
					<g id="Layer">
						<path id="Layer" class="s8" d="m36.3 25v1.3l-0.5 0.3v-1.3z"/>
					</g>
				</g>
			</g>
			<g id="Layer">
				<g id="Layer">
					<g id="Layer">
						<path id="Layer" class="s7" d="m36.8 26.1l-0.2-0.1v-1.3l0.2 0.1z"/>
					</g>
					<g id="Layer">
						<path id="Layer" class="s7" d="m36.8 24.8l-0.2-0.1 0.5-0.2 0.1 0.1z"/>
					</g>
					<g id="Layer">
						<path id="Layer" class="s8" d="m37.2 24.6v1.2l-0.4 0.3v-1.3z"/>
					</g>
				</g>
			</g>
			<g id="Layer">
				<g id="Layer">
					<g id="Layer">
						<path id="Layer" class="s7" d="m40.7 23.9h-0.1v-1.3l0.1 0.1z"/>
					</g>
					<g id="Layer">
						<path id="Layer" class="s7" d="m40.7 22.7l-0.1-0.1 0.4-0.3 0.2 0.1z"/>
					</g>
					<g id="Layer">
						<path id="Layer" class="s8" d="m41.2 22.4v1.3l-0.5 0.2v-1.2z"/>
					</g>
				</g>
			</g>
			<g id="Layer">
				<g id="Layer">
					<g id="Layer">
						<path id="Layer" class="s7" d="m41.6 23.5l-0.1-0.1v-1.3l0.1 0.1z"/>
					</g>
					<g id="Layer">
						<path id="Layer" class="s7" d="m41.6 22.2l-0.1-0.1 0.4-0.2h0.2z"/>
					</g>
					<g id="Layer">
						<path id="Layer" class="s8" d="m42.1 21.9v1.3l-0.5 0.3v-1.3z"/>
					</g>
				</g>
			</g>
			<g id="Layer">
				<path id="Layer" class="s4" d="m45.3 51.5q0-0.1 0-0.3 0-0.1-0.1-0.1 0-0.2 0-0.3 0-0.1 0-0.2 0-0.1 0-0.2 0-0.1-0.1-0.3 0-0.1 0-0.2 0-0.1-0.1-0.3 0-0.1 0-0.2 0-0.1-0.1-0.2 0-0.1 0-0.3-0.1-0.1-0.1-0.2 0 0 0-0.1-0.1-0.4-0.2-0.7 0 0 0 0-0.1-0.4-0.3-0.7 0 0 0-0.1-0.1-0.3-0.2-0.6-0.1 0-0.1 0-0.1-0.3-0.2-0.6-0.1-0.1-0.1-0.2-0.1-0.2-0.3-0.4 0-0.1 0-0.2-0.2-0.3-0.3-0.5-0.1-0.1-0.1-0.2-0.2-0.2-0.3-0.4 0-0.1-0.1-0.2-0.2-0.3-0.4-0.5 0-0.1 0-0.1-0.2-0.3-0.5-0.6 0 0 0-0.1-0.1-0.1-0.2-0.1 0-0.2-0.1-0.3-0.1-0.1-0.2-0.1-0.1-0.1-0.1-0.2-0.2-0.2-0.4-0.4 0 0 0-0.1-0.2-0.2-0.4-0.4-0.1-0.1-0.3-0.2 0 0 0-0.1-0.2-0.1-0.4-0.3 0 0-0.1 0-0.1-0.2-0.2-0.3-0.1 0-0.1-0.1-0.2-0.1-0.3-0.1 0-0.1-0.1-0.1-0.1-0.1-0.2-0.2-0.1 0-0.2-0.1-0.1-0.1-0.2-0.2-0.1 0-0.1 0-0.2-0.2-0.4-0.3-0.2-0.1-0.3-0.1-0.1-0.1-0.1-0.1-0.2-0.1-0.3-0.1-0.1-0.1-0.1-0.1-0.1 0-0.3-0.1-0.2-0.1-0.3-0.1-0.1 0-0.1-0.1-0.2 0-0.4-0.1-0.1 0-0.3 0 0-0.1-0.1-0.1-0.1 0-0.3 0 0 0 0 0-0.2-0.1-0.3-0.1-0.1 0-0.1 0-0.2 0-0.3 0 0 0-0.1 0-0.1 0-0.2 0 0 0-0.1 0-0.1 0-0.2 0-0.1 0-0.1 0-0.1 0.1-0.2 0.1-0.2 0-0.4 0.1 0 0 0 0-0.2 0-0.3 0.1-0.1 0-0.1 0-0.2 0.1-0.3 0.2-0.1 0-0.1 0 0.7-0.4 1.4-0.8 0 0 0.1 0 0-0.1 0-0.1 0.2 0 0.3-0.1 0 0 0 0 0.1 0 0.1 0 0.2-0.1 0.3-0.2 0 0 0.1 0 0 0 0 0 0 0 0 0 0.1 0 0.2 0 0.1 0 0.1-0.1 0 0 0.1 0 0.1 0 0.1 0 0.1 0 0.1 0 0.1 0 0.2 0 0.1 0 0.1 0 0 0 0 0 0.2 0 0.3 0 0 0 0.1 0 0 0 0 0 0.1 0 0.2 0 0 0 0.1 0 0.1 0 0.3 0 0 0 0 0 0.2 0.1 0.4 0.1 0 0 0.1 0 0.1 0 0.2 0.1 0 0 0 0 0.2 0 0.4 0.1 0.1 0 0.1 0 0.2 0.1 0.3 0.2 0.1 0 0.1 0 0.1 0 0.3 0.1 0 0 0 0 0.1 0.1 0.3 0.2 0 0 0.1 0 0.2 0.1 0.3 0.2 0.2 0.1 0.4 0.2 0.1 0.1 0.1 0.1 0.1 0.1 0.3 0.2 0 0 0.1 0.1 0.1 0 0.2 0.1 0.1 0.1 0.2 0.1 0.1 0.1 0.2 0.2 0.1 0.1 0.1 0.1 0.1 0.1 0.3 0.2 0 0.1 0.1 0.1 0.1 0.2 0.3 0.3 0 0 0.1 0.1 0.1 0.1 0.2 0.2 0 0 0 0 0.2 0.2 0.4 0.4 0 0 0 0 0.2 0.2 0.4 0.4 0 0 0 0.1 0.1 0 0.2 0.1 0 0.1 0.1 0.2 0.1 0.1 0.2 0.2 0 0.1 0.1 0.2 0 0 0 0 0 0 0.1 0.1 0.2 0.2 0.4 0.5 0 0.1 0 0.1 0 0 0.1 0 0.2 0.3 0.3 0.6 0.1 0 0.1 0.1 0 0 0 0 0.2 0.3 0.3 0.5 0 0.1 0.1 0.1 0 0 0 0 0.1 0.3 0.3 0.6 0 0 0 0 0.1 0.1 0.1 0.1 0.1 0.3 0.2 0.5 0 0 0.1 0.1 0 0 0 0 0.1 0.3 0.2 0.6 0.1 0 0.1 0 0 0.1 0 0.1 0.1 0.3 0.2 0.5 0 0.1 0 0.1 0.1 0.1 0.1 0.1 0.1 0.3 0.2 0.6 0 0 0 0 0 0.1 0 0.1 0.1 0.3 0.2 0.6 0 0.1 0 0.1 0 0.1 0 0.1 0.1 0.1 0.1 0.2 0 0.1 0.1 0.3 0 0.1 0 0.2 0 0 0 0.1 0.1 0 0.1 0.1 0 0.1 0 0.3 0 0.1 0.1 0.2 0 0.2 0 0.3 0 0.1 0 0.2 0 0 0 0 0 0.1 0 0.2 0.1 0.1 0.1 0.2 0 0.1 0 0.2 0 0.1 0 0.3 0 0.1 0 0.1 0 0.2 0 0.4c0 2.4-0.8 4.1-2.2 4.9q-0.7 0.4-1.4 0.8c1.3-0.7 2.2-2.4 2.2-4.8q0-0.2 0-0.4 0-0.1 0-0.2z"/>
				<g id="Layer">
					<path id="Layer" class="s1" d="m37.7 38.9c-4.2-2.4-7.6-0.4-7.6 4.4 0 4.8 3.4 10.7 7.6 13.1 4.2 2.4 7.6 0.5 7.6-4.3 0-4.9-3.4-10.7-7.6-13.2z"/>
				</g>
				<g id="Layer">
					<path id="Layer" class="s4" d="m37.7 41.1c-3.2-1.8-5.8-0.3-5.8 3.3 0 3.7 2.6 8.2 5.8 10.1 3.2 1.8 5.8 0.3 5.8-3.4 0-3.6-2.6-8.1-5.8-10z"/>
				</g>
				<path id="Layer" class="s3" d="m37.7 41.1c3.2 1.9 5.8 6.4 5.8 10 0 1.5-0.4 2.7-1.2 3.3-0.8 0.1-1.9-0.1-3-0.7-3.2-1.9-5.7-6.4-5.7-10 0-1.5 0.4-2.7 1.1-3.4 0.9-0.1 1.9 0.2 3 0.8z"/>
				<path id="Layer" class="s9" d="m43.5 51.1q0 1-0.3 1.8-0.7-0.2-1.5-0.7c-3.2-1.8-5.8-6.3-5.7-10q0-1 0.2-1.7 0.7 0.2 1.5 0.6c3.2 1.9 5.8 6.4 5.8 10z"/>
			</g>
			<g id="Layer">
				<g id="Layer">
					<path id="Layer" class="s0" d="m54.3 97.5c-5.2 3.1-5.3 8 0 11.1 5.2 3 13.7 3 19 0 5.3-3.1 5.3-8 0.1-11.1-5.3-3-13.8-3-19.1 0z"/>
				</g>
				<path id="Layer" class="s10" d="m67.2 101.2c-0.1 0.1-4.7-0.1-3.7 1.5 0.7 1 1.6 1.2 2.3 1.2 0.7 0.1 1.9-0.3 2.3-0.1 0.3 0.2 1.8 1.2 2.7 0.2 0.2-0.2 0.3-0.8 0.2-1.2-0.1-0.4-3.3-1.7-3.8-1.6z"/>
				<path id="Layer" class="s11" d="m63.5 102.7c0.7 1 1.6 1.2 2.3 1.2 0.7 0.1 1.9-0.3 2.3-0.1 0.3 0.2 1.8 1.2 2.7 0.2 0.1-0.1 0.2-0.4 0.2-0.6-0.6 0.8-2.1 0.6-2.5 0.3-0.5-0.3-1.2-0.5-1.8-0.3-0.6 0.1-1.9-0.1-2.6-0.7-0.4-0.3-0.4-0.7-0.3-1-0.4 0.2-0.6 0.5-0.3 1z"/>
				<path id="Layer" class="s10" d="m60.6 104.2c-3.3-0.4-6.8 0.1-5.5 1.8 0.8 1.1 2 1.3 2.9 1.3 0.9 0 2.5-0.4 2.9-0.2 0.3 0.2 2.3 1.2 3.5 0.1 0.2-0.2 0.6-1.1 0.4-1.5-0.1-0.4-3.6-1.4-4.2-1.5z"/>
				<g id="Layer">
					<path id="Layer" class="s12" d="m51.8 45.7c0 0-2.4-1.7-3.8-0.9-1.5 0.9-1.6 1.3-0.8 1.4 0.8 0.2 3 0.7 2.7 0.9-0.3 0.2-1.1 0.3-0.9 0.6 0.2 0.3 2.5-0.1 2.5-0.1l1.3-1.3z"/>
					<g id="Layer">
						<g id="Layer">
							<path id="Layer" class="s13" d="m68.5 49.4c0 0 2.7-0.1 2.8 2.7 0.1 3-5.9 2-5.9 2 0 0-5.1-0.4-6.7-1-2.1-0.9-7.6-5.1-7.6-5.1 0 0 0.4-1.8 1.6-2.2 0 0 5.2 3.4 7.1 3.8 2.2 0.4 8.2-0.3 8.7-0.2z"/>
						</g>
					</g>
				</g>
				<path id="Layer" class="s14" d="m70.2 66.7c0 0 2.8 4.8 0.3 11.5 0 0-2 5.6-1.6 7.5 0.6 2.3 1.3 1.6 1.9 9.1 0.5 6.6 0.4 5.6 0.3 8 0 0.8-3.1 1.4-3.6-0.5-1.3-4.9-4.4-15.3-3.8-21.3 0.6-6 0.9-11.6 0.9-11.6 0 0 3.6-1 5.6-2.7z"/>
				<path id="Layer" class="s15" d="m66.2 70.4c0 0 2.8 4.3-1 10 0 0-3 6.3-2.6 8.5 0.5 2.2 1.2 2 1.9 8.8 0.5 4.3 0.8 5.4 0.5 8.2-0.2 1-4.1 1.1-4.3-0.4-0.8-5-4.6-15.8-4-21.8 0.5-6 1.7-12.7 1.7-12.7 0 0 5.2 0.8 7.8-0.6z"/>
				<path id="Layer" class="s10" d="m58.4 55.8c0 0-0.7-3.2 4.6-5.1 5.3-1.9 8.6-1.8 8.7 1.2 0.1 2.9-1.3 6.9-1.5 8.2-0.2 1.1-0.7 3.7 0.6 6.7 1.3 3.1 1.9 6-6.5 6.5-1.5 0.1-7 0.1-6.2-3.4 1-4.2 0.9-10.5 0.3-14.1z"/>
				<g id="Layer">
					<path id="Layer" class="s12" d="m43.7 48.6c0 0-2.1-2.1-1.5-3.7 0.6-1.5 1-1.7 1.2-0.9 0.3 0.7 1.2 2.8 1.3 2.5 0.2-0.4 0.2-1.2 0.5-1 0.3 0.1 0.3 2.5 0.3 2.5l-1.1 1.5z"/>
					<g id="Layer">
						<path id="Layer" class="s16" d="m60.5 52.8c0 0 2.8 0.2 2.3 3-0.5 3-6.1 1.3-6.1 1.3 0 0-5-1.1-6.4-1.9-2-1.1-6.5-6-6.5-6 0 0 0.7-1.7 1.9-2 0 0 4.5 4 6.3 4.7 2.1 0.7 8.1 0.8 8.5 0.9z"/>
					</g>
				</g>
				<path id="Layer" class="s12" d="m63.3 47.3c0 0 0.6 2.3-0.5 3.7-0.6 0.7 1.7 1.5 3.6 0.5 0 0 0.2-3.9 1.6-5.2z"/>
				<path id="Layer" class="s17" d="m63.4 49c0 0 1.4-0.3 2.2-0.7l0.1 0.1 0.4 0.6 0.2-0.4c0 0-0.4 2.4-3.2 1.9 0 0 0.3-0.6 0.3-1.5z"/>
				<path id="Layer" class="s11" d="m55.1 106c0.8 1.1 2 1.3 2.9 1.3 0.9 0 2.5-0.4 2.9-0.2 0.3 0.2 2.3 1.2 3.5 0.1 0.1-0.1 0.3-0.5 0.3-0.7-0.8 0.9-2.8 0.8-3.3 0.5-0.7-0.3-1.5-0.5-2.3-0.3-0.8 0.1-2.4 0-3.2-0.6-0.6-0.4-0.7-1.2-0.6-1.4-0.5 0.2-0.6 0.8-0.2 1.3z"/>
				<path id="Layer" class="s12" d="m63.2 38.3c0 0-2.1 1-2.6 3.9-0.4 2.6-1.2 5 0.1 6.1 1.4 1.2 6.3 0.9 7.9-2.5 1.7-3.4-0.4-9.1-5.4-7.5z"/>
				<path id="Layer" class="s18" d="m60 41.8c0 0.4 0.3 1.3 1.2 1.6 1.2 0.5 2.6 0.5 2.8 1.3 0.1 0.8-1.4 6.6-0.4 7.3 1.4 0.9 5-0.8 5.6-1.4 0.8-0.9 1.6-6.8 0-10.3 0 0-1.7-2.7-4.9-2.3 0 0-4.1 0.6-4.3 3.8z"/>
				<path id="Layer" class="s12" d="m65 46.7c-0.6 0.6-1.3 0.7-1.7 0.3-0.4-0.4-0.2-1.2 0.4-1.8 0.5-0.6 1.3-0.7 1.7-0.3 0.4 0.5 0.2 1.3-0.4 1.8z"/>
			</g>
		</g>
	</g>
</svg>