<svg version="1.2" xmlns="http://www.w3.org/2000/svg" viewBox="0 0 119 107" width="119" height="107">
	<title>Layer</title>
	<defs>
		<clipPath clipPathUnits="userSpaceOnUse" id="cp1">
			<path d="m56.9 54.22l-0.01 4.86c0 0.3-0.2 0.6-0.59 0.83-0.79 0.46-2.08 0.46-2.87 0-0.4-0.23-0.6-0.54-0.6-0.84l0.01-4.86c0 0.3 0.2 0.61 0.6 0.84 0.8 0.46 2.08 0.46 2.87 0 0.4-0.23 0.59-0.53 0.59-0.83z"/>
		</clipPath>
	</defs>
	<style>
		.s0 { fill: #3998d8 } 
		.s1 { fill: #ffaa83 } 
		.s2 { fill: #615a8e } 
		.s3 { fill: #484475 } 
		.s4 { fill: #120f1f } 
		.s5 { fill: #32293a } 
		.s6 { fill: #f29c79 } 
		.s7 { fill: #e29813 } 
		.s8 { fill: #feb623 } 
		.s9 { fill: #633521 } 
		.s10 { fill: #f74c72 } 
		.s11 { fill: #f79f7c } 
		.s12 { fill: #723e24 } 
		.s13 { fill: #ffc255 } 
		.s14 { fill: #8390cd } 
		.s15 { fill: #acd9ea } 
		.s16 { fill: #c1e8fa } 
		.s17 { fill: #82c2de } 
		.s18 { fill: #def6ff } 
		.s19 { fill: #ff4d75 } 
		.s20 { fill: #f77496 } 
		.s21 { fill: #211a28 } 
		.s22 { fill: #3d3447 } 
		.s23 { fill: #2c2635 } 
		.s24 { fill: #001c42 } 
		.s25 { fill: #fe2456 } 
		.s26 { fill: #1d96cb } 
		.s27 { fill: #feb624 } 
		.s28 { fill: #b3bf19 } 
		.s29 { fill: #edf4f8 } 
		.s30 { fill: #ffca6c } 
		.s31 { fill: #57b6ea } 
		.s32 { fill: #c7e8f2 } 
		.s33 { fill: #433a4c } 
		.s34 { fill: #ff5138 } 
		.s35 { fill: #e73a36 } 
		.s36 { fill: #1884aa } 
		.s37 { fill: #e03b66 } 
	</style>
	<g id="Layer">
		<g id="-e-step_7">
			<g id="Layer">
				<g id="Layer">
					<path id="Layer" class="s0" d="m76.4 73.4c5.3 3 5.4 8 0.1 11.1-5.3 3-13.9 3-19.2 0-5.3-3.1-5.3-8.1 0-11.1 5.2-3.1 13.8-3.1 19.1 0z"/>
				</g>
				<path id="Layer" class="s1" d="m70.8 47.2c0 0 1.1 11.2 0.7 13.6-0.4 2.5-1.3 15-1.3 15 0 0-0.3 0.4-0.9 0.4-1.3 0.1-1.5-0.3-1.5-0.3 0 0-2.3-10.3-0.9-13.9l-1.5-12v-1.7c0 0 4-0.5 5.4-1.1z"/>
				<path id="Layer" class="s2" d="m70 75.7c0 0-0.2-0.5-0.1-1.2 0 0-1.8 0.7-3 0.1 0 0 0.2 0.8 0 1.3-0.2 0.6 2.9 0.5 3.1-0.2z"/>
				<g id="Layer">
					<path id="Layer" class="s2" d="m67.8 75.8c0 0-1 1.7 0.1 2.2 1.2 0.5 1.2-0.3 3.2 1.5 2.1 1.8 4 1 4.3 0.7 0.6-0.9-0.5-1.9-5.1-4.4z"/>
					<path id="Layer" class="s3" d="m67.9 78c1.1 0.6 1.2-0.3 3.2 1.5 2.1 1.8 4 1 4.3 0.7q0.1-0.1 0.1-0.3c-2 0.8-3-0.3-3.9-0.9-0.9-0.8-1.6-1-2.9-1.3-1.4-0.3-0.9-1.4-0.9-1.4 0-0.2 0-1.3-0.2-1.3 0 1.2-0.8 2.3 0.3 3z"/>
				</g>
				<path id="Layer" class="s4" d="m71 45.4c0 0 1.8 9.2 1.2 15-0.6 5.7-1.2 12.1-1.1 15.4 0.1 1-4 2.2-4.3 0-0.3-2.8-1.5-10.4 0.1-13.8l-2.7-14.7c0 0 4.1 0.1 6.8-1.9z"/>
				<path id="Layer" class="s1" d="m65 48c0 0 1 12 0.6 14.6-0.3 2.5-1.3 16-1.3 16h-2.2c0 0-2.4-11.6-0.9-14.8l-1.5-12.7v-1.8c0 0 3.9-0.5 5.3-1.3z"/>
				<g id="Layer">
					<path id="Layer" class="s2" d="m61.9 78.1c0 0-1 1.6 0.1 2.1 1.2 0.6 1.2-0.2 3.3 1.6 2.1 1.8 4 1 4.3 0.7 0.6-1-0.5-2.4-5.2-4.9z"/>
					<path id="Layer" class="s3" d="m62 80.2c1.1 0.7 1.2-0.2 3.3 1.6 2.1 1.8 4 1 4.3 0.7q0-0.1 0-0.3c-1.9 0.8-3-0.3-3.9-1-0.8-0.7-1.6-1-2.9-1.3-1.4-0.3-0.9-1.4-0.9-1.4 0-0.2 0-1.3-0.2-1.3 0 1.3-0.9 2.4 0.3 3z"/>
				</g>
				<path id="Layer" class="s5" d="m59.2 46.2c0 0-1.9 2.8-0.5 9.6 1.4 6.9 1.9 8.9 1.9 8.9 0 0-0.3 0.8 0 6.3 0.3 5.1 0.3 4.8 0.4 7.2 0.1 1 4 1.5 4.2-0.6 0.4-4.4 0.7-15.8 0.7-15.8l1-10.9 4.1-5.5c0 0-9.2 2.6-11.8 0.8z"/>
				<g id="Layer">
					<path id="Layer" class="s1" d="m83.9 33.1c0 0 0.4-0.5 1.5-1 1.1-0.5 1.5-0.3 2.2-0.2 0.8 0.1 1.3 0.2 1.3 0.5-0.1 0.4-1.4 1.4-2.4 1.4-0.6 0.1-1.8 1.3-2.1 1.3-0.3 0.1-0.8-1.7-0.5-2z"/>
					<path id="Layer" class="s6" d="m84.4 35.1c0.3 0 1.5-1.2 2.1-1.3 0.7 0 1.6-0.5 2.1-0.9q-0.1 0-0.1-0.1c-0.2-0.1-0.6 0.2-0.9 0.2-0.4 0-1.3 0.3-1.9 0.4-0.7 0.1-1.6 1.1-1.6 1.1l-0.1 0.1c0.1 0.3 0.3 0.6 0.4 0.5z"/>
					<path id="Layer" class="s7" d="m67.2 27.4c0 0 1.1-2.9 3.7-0.8 1.7 1.3 5.6 7.5 6.5 7.8 0.5 0.2 6.6-1.8 6.6-1.8 0 0-0.6 1.2 1.1 2.6 0 0-7.4 4.9-9.2 3.6-3.1-2.1-9-8.2-8.7-11.4z"/>
				</g>
				<path id="Layer" class="s8" d="m59.1 29c0.2-0.2 9-3.8 10-3.1 0.6 0.5 0.8 1.5 1.9 4.5 0.5 1.5 0.7 3.3-0.1 4.9-1.4 3.1-1.2 4.7-1.1 5.6 0.1 1.3 1.2 4.5 1.2 4.5 0 0-6.3 4.6-12.2 1.7 0 0-0.1 0.3 0.5-3.8 1.1-7.6-3.4-12.1-0.2-14.3z"/>
				<g id="Layer">
					<path id="Layer" class="s9" d="m63.6 16.4c0 0-0.4-2.5-3.6-1.7-2.5 0.6-3.1 4.5-1.8 7.5 1.5 3.4 1.9 6.4 1.9 6.4 0 0 1.5-0.8 2.2-3.4 0.7-2.6 2-6.8 1.3-8.8z"/>
					<path id="Layer" class="s10" d="m63.2 16.5c0 0-0.4-0.8-1.4-0.6-1.4 0.4-1.3 1-1.1 1.6 0.2 0.5 2.5-1 2.5-1z"/>
					<g id="Layer">
						<path id="Layer" class="s11" d="m66.2 25c0 0-0.4 2.1 0 3.2 0.5 1.1-1.2 1.4-2 1.1-0.8-0.2-2.1-0.8-1.9-1.5 0.2-0.7 0.9-3 0.4-3.9-0.4-0.8 3.5 1.1 3.5 1.1z"/>
						<path id="Layer" class="s1" d="m62.2 18.5c0 0-2.4 2.4-1.8 4.9 0.4 1.4 2 2.3 2.9 3 0.9 0.7 3.2 2.3 4.1 0.7 0.9-1.7 2.1-6.5 0-8.6-2-2.1-5.2 0-5.2 0z"/>
						<path id="Layer" class="s12" d="m66.2 19.7c0 0-0.1 0.4-2.2 2-0.7 0.5-0.8 2.8-1.5 2.2-0.2-0.3-0.9-0.8-1-0.4-0.4 1.8 2.3 2.8 1 2.6-1-0.2-3.6-2.1-3.4-5.5 0.2-2.1 2.2-4.8 5.9-4 3.1 0.7 3.6 4.2 3.6 4.2 0 0-1.8-0.3-2.4-1.1z"/>
					</g>
				</g>
				<g id="Layer">
					<path id="Layer" class="s1" d="m62.7 46.5c0 0 0.7 0.1 1.7 0.8 1.1 0.6 1.1 1.1 1.5 1.7 0.3 0.7 0.5 1.3 0.2 1.4-0.3 0.2-1.9-0.4-2.5-1.2-0.4-0.5-2.1-0.8-2.3-1-0.3-0.3 1-1.8 1.4-1.7z"/>
					<path id="Layer" class="s6" d="m61.3 48.2c0.2 0.2 1.9 0.5 2.3 1 0.4 0.6 1.3 1.1 2 1.2q0 0 0 0c0-0.3-0.5-0.5-0.7-0.8-0.2-0.3-1-0.9-1.4-1.4-0.4-0.5-1.8-0.7-1.8-0.7h-0.2c-0.2 0.3-0.4 0.6-0.2 0.7z"/>
					<path id="Layer" class="s13" d="m59 29.2c0 0 2.3-0.5 2.2 1.8-0.1 2.2-4.2 9.5-4 10.5 0.1 0.5 6.1 4.8 6.1 4.8 0 0-1.5 0.1-1.7 2.5 0 0-8.5-3.6-8.4-5.9 0.1-4 2.9-12.1 5.8-13.7z"/>
				</g>
			</g>
			<g id="Layer">
				<g id="Layer">
					<path id="Layer" class="s14" d="m20 97l17.3 10.1 27.7-0.6 9-5.2 44.7-25.8-20.3-11.8-44.7 25.8-10.3-6z"/>
				</g>
				<path id="Layer" class="s15" d="m109.6 43.2l-37.5 21.6-7.5 4.4 0.1 33.8 7.5-4.4 37.5-21.6z"/>
				<g id="Layer">
					<path id="Layer" class="s16" d="m41.4 69.7l0.1 33.8 23.2-0.5-0.1-33.8z"/>
				</g>
				<g id="Layer">
					<path id="Layer" class="s17" d="m26.9 61.3l0.1 33.7 14.5 8.5-0.1-33.8z"/>
				</g>
				<g id="Layer">
					<path id="Layer" class="s18" d="m26.9 61.3l14.5 8.4 23.2-0.5 7.5-4.4 37.5-21.6-17-9.9-37.4 21.7-8.7-5.1z"/>
				</g>
			</g>
			<g id="Layer">
				<g id="Layer">
					<g id="Layer">
						<path id="Layer" class="s19" d="m82.7 49.3l5.1 3-2.2 3.4-0.2 0.1-3.9 2.2q-0.1 0-0.2-0.1c-1.5-0.9-4-0.9-5.5 0-1.6 0.9-1.6 2.4 0 3.3q0 0 0.1 0l-4.5 2.6-6 1.3-5.1-3 4.2-2.4-8.7-5.1 13.9-8.1 8.9 5.1z"/>
					</g>
				</g>
				<g id="Layer">
					<path id="Layer" class="s20" d="m71 56.2l-3.9 2.3-4.3-2.6 3.9-2.2z"/>
				</g>
			</g>
			<g id="Layer">
				<g id="Layer">
					<g id="Layer">
						<g id="Layer">
							<path id="Layer" class="s21" d="m87.2 49.3v0.6l2.3 1.3v-0.6z"/>
						</g>
						<g id="Layer">
							<path id="Layer" class="s5" d="m89.5 50.6v0.6l14.1-8.1v-0.6z"/>
						</g>
						<g id="Layer">
							<path id="Layer" class="s22" d="m87.2 49.3l2.3 1.3 14.1-8.1-2.3-1.3z"/>
						</g>
					</g>
				</g>
				<g id="Layer">
					<g id="Layer">
						<g id="Layer">
							<path id="Layer" class="s23" d="m91.3 44.9v2.8l1 0.5v-2.8z"/>
						</g>
						<g id="Layer">
							<path id="Layer" class="s21" d="m92.3 45.4v2.8l7.1-4.1v-2.8z"/>
						</g>
						<g id="Layer">
							<path id="Layer" class="s24" d="m91.3 44.9l1 0.5 7.1-4.1-0.9-0.6z"/>
						</g>
					</g>
				</g>
				<g id="Layer">
					<path id="Layer" class="s21" d="m87.1 48.9l-0.7-0.4v-13.2l0.7 0.4z"/>
				</g>
				<g id="Layer">
					<g id="Layer">
						<path id="Layer" class="s22" d="m87.1 35.7l-0.7-0.4 17.3-9.9 0.6 0.4z"/>
					</g>
					<g id="Layer">
						<path id="Layer" class="s5" d="m104.3 25.8l0.1 13.1-17.3 10v-13.2z"/>
					</g>
				</g>
			</g>
			<g id="Layer">
				<path id="Layer" class="s16" d="m33.2 60.1l9.7 5.6 11.4-6.5-9.8-5.7z"/>
			</g>
			<g id="Layer">
				<path id="Layer" class="s16" d="m49.4 63c1.6 0.9 1.7 2.5 0 3.5-1.7 1-4.4 1-6.1 0-1.7-1-1.7-2.6 0-3.5 1.7-1 4.4-1 6.1 0z"/>
			</g>
			<g id="Layer">
				<path id="Layer" class="s16" d="m56.9 58.1c1.7 1 1.7 2.6 0 3.5-1.7 1-4.4 1-6.1 0-1.7-0.9-1.7-2.5 0-3.5 1.7-1 4.4-1 6.1 0z"/>
			</g>
			<g id="Layer">
				<path id="Layer" class="s25" d="m41.1 46.6c0 0-1.1 5.1-2 7.8-0.7 2.1-1.4 6.7-0.5 7.9l4.7 1.8c0 0 1.8-11.9-2.2-17.5z"/>
				<path id="Layer" class="s19" d="m41.1 46.6l7.4-4.2c0 0 0.8 4.4 1.4 6.3 1.3 4.3 2.2 7.6 1.5 11.2l-8.1 4.2c0 0 0.3-7.1-1.1-10.7-0.8-1.9-1.5-5-1.1-6.8z"/>
				<path id="Layer" class="s18" d="m42.3 48.5l6-3.4c0 0 0.6 3.5 1.1 5.1 1 3.4 1.8 6.1 1.2 9l-6.5 3.4c0 0 0.2-5.7-0.9-8.7-0.6-1.5-1.2-4-0.9-5.4z"/>
				<path id="Layer" class="s26" d="m50.6 59.2c0.6-2.9-0.2-5.6-1.2-9-0.1-0.3-0.2-0.8-0.3-1.3-0.6 2.6-2.2 4.9-3.6 7.3-0.9 1.7-1.3 3.9-1.4 5.5 0 0.6 0 0.9 0 0.9z"/>
			</g>
			<g id="Layer">
				<path id="Layer" class="s27" d="m49.1 63.7q0 0 0 0-0.1 0-0.1 0.1 0 0 0 0 0 0 0 0.1-0.1 0-0.1 0 0 0.1 0 0.1 0 0-0.1 0 0 0.1 0 0.1 0 0 0 0-0.1 0.1-0.2 0.1 0 0 0 0 0 0.1-0.1 0.1 0 0 0 0-0.1 0.1-0.1 0.1-0.1 0.1-0.2 0.1-0.1 0-0.1 0 0 0.1-0.1 0.1-0.1 0-0.1 0-0.1 0-0.1 0.1-0.1 0-0.1 0 0 0-0.1 0-0.1 0-0.2 0.1 0 0-0.1 0 0 0-0.1 0-0.1 0-0.1 0-0.1 0-0.1 0-0.1 0-0.2 0 0 0-0.1 0.1-0.1 0-0.2 0 0 0 0 0-0.1 0-0.2 0 0 0-0.1-0.1-0.1 0-0.1 0-0.1 0-0.1 0-0.1 0-0.2 0 0 0 0 0-0.1 0-0.2 0-0.1-0.1-0.2-0.1 0 0-0.1 0-0.1 0-0.1-0.1-0.1 0-0.1 0-0.1 0-0.2 0 0-0.1 0-0.1-0.1 0-0.2-0.1-0.7-0.4-0.8-0.9 0.2 0.9 0.4 1.7 0 0.1 0 0.1 0 0 0 0 0 0 0 0.1 0 0 0 0 0.1 0 0.1 0.1 0 0 0 0 0 0.1 0.1 0.1 0 0 0 0 0.1 0.2 0.4 0.4 0.1 0 0.2 0.1 0 0 0.1 0 0 0 0.1 0 0 0.1 0.1 0.1 0 0 0.1 0 0 0 0.1 0 0 0.1 0.1 0.1 0 0 0 0 0.1 0 0.2 0 0 0 0 0 0.1 0 0.1 0 0.1 0 0.1 0 0 0 0 0 0.1 0 0.2 0.1 0 0 0 0 0 0 0.1 0 0 0 0.1 0 0 0 0 0 0.1 0 0.2 0 0 0 0 0 0 0 0.1 0 0-0.1 0.1-0.1 0 0 0.1 0 0 0 0 0 0.1 0 0.1 0 0.1 0 0.1 0 0.1 0 0.1 0 0.1 0 0.2-0.1 0 0 0 0 0 0 0 0 0.1 0 0.1 0 0.1 0 0.1 0 0-0.1 0.1-0.1 0 0 0.1 0 0 0 0 0 0.1-0.1 0.2-0.1 0.1-0.1 0.1-0.1 0 0 0 0 0 0 0 0 0.1 0 0.1-0.1 0 0 0.1 0 0 0 0-0.1 0.1 0 0.1 0 0 0 0 0 0 0 0-0.1 0 0 0.1 0 0 0 0 0 0-0.1 0-0.1 0 0 0 0 0 0 0.1-0.1 0 0 0 0 0 0 0-0.1 0 0 0 0 0 0 0 0 0 0 0-0.1 0.1-0.3 0.2-0.7 0.1-0.3 0.1-0.6 0.1-0.2 0.1-0.4 0 0.1 0 0.2z"/>
				<path id="Layer" class="s28" d="m49.1 56q0 0 0 0 0 0 0 0 0 0 0 0.1 0 0 0 0 0 0 0 0 0 0.1 0 0.1 0 0 0 0 0 0 0 0 0 0.1 0 0.1-0.1 0-0.1 0 0 0 0 0.1 0 0 0 0 0 0 0 0 0 0 0 0.1-0.1 0-0.1 0 0 0 0 0 0 0.1-0.1 0.1 0 0 0 0 0 0.1 0 0.1-0.1 0-0.1 0 0 0 0 0 0 0.1 0 0.1-0.1 0-0.1 0 0 0 0 0 0 0.1-0.1 0.1 0 0 0 0 0 0-0.1 0 0 0 0 0.1-0.1 0-0.2 0.1 0 0 0 0-0.1 0-0.2 0 0 0.1 0 0.1-0.1 0-0.2 0-0.1 0-0.2 0.1 0 0-0.1 0 0 0-0.1 0-0.1 0-0.1 0 0 0-0.1 0 0 0.1-0.1 0.1-0.1 0-0.1 0 0 0-0.1 0-0.1 0-0.2 0 0 0-0.1 0-0.1 0-0.1 0-0.1 0-0.1 0-0.1 0-0.2 0 0 0-0.1 0-0.1 0-0.1 0-0.1 0-0.1 0-0.1-0.1-0.2-0.1 0 0-0.1 0-0.1 0-0.1 0-0.1 0-0.2-0.1 0 0 0 0-0.1 0-0.2 0 0 0 0-0.1-0.1 0-0.2 0 0 0 0 0-0.1-0.1-0.2-0.1c-0.5-0.3-0.8-0.7-0.8-1.1v7.4c0 0.4 0.3 0.8 0.8 1.1q0.1 0.1 0.2 0.1 0 0 0 0 0.1 0.1 0.1 0.1 0.1 0 0.1 0 0 0 0 0 0.1 0 0.2 0.1 0 0 0 0 0 0 0.1 0 0 0 0 0 0.1 0 0.2 0.1 0 0 0 0 0.1 0 0.1 0 0.1 0 0.1 0 0.1 0 0.1 0 0 0 0.1 0 0 0 0.1 0 0 0 0 0 0.1 0 0.1 0 0.1 0 0.1 0.1 0.1 0 0.1 0 0 0 0.1 0 0 0 0.1 0 0 0 0.1 0 0 0 0 0 0.1-0.1 0.2-0.1 0 0 0.1 0 0 0 0 0 0 0 0 0 0.1 0 0.2 0 0.1 0 0.1 0 0 0 0 0 0 0 0.1 0 0.1 0 0.1-0.1 0.1 0 0.1 0 0.1 0 0.2 0 0 0 0 0 0.1-0.1 0.1-0.1 0.1 0 0.1 0 0.1 0 0.1-0.1 0.1 0 0.1 0 0.1 0 0.2-0.1 0 0 0 0 0 0 0 0 0 0 0.1-0.1 0 0 0 0 0 0 0 0 0.1 0 0.1 0 0-0.1 0-0.1 0 0 0.1 0 0 0 0 0 0 0 0 0 0-0.1 0-0.1 0.1 0 0.1 0 0 0 0 0 0-0.1 0.1-0.1 0 0 0 0 0 0 0 0 0-0.1 0-0.1 0 0 0.1 0 0 0 0-0.1 0 0 0 0 0 0 0 0 0 0 0 0 0-0.1 0-0.1 0 0 0 0 0.1 0 0.1 0 0 0 0 0 0-0.1 0-0.1 0 0 0 0 0 0 0-0.1 0 0 0 0 0 0 0 0 0 0 0 0 0 0 0-0.1 0 0 0 0 0 0 0 0 0 0 0 0 0-3.8 0-7.5 0 0 0 0.1z"/>
				<path id="Layer" class="s5" d="m49.1 56q0 0 0 0 0 0 0 0 0 0 0 0.1 0 0 0 0 0 0 0 0 0 0.1 0 0.1 0 0 0 0 0 0 0 0 0 0.1 0 0.1-0.1 0-0.1 0 0 0 0 0.1 0 0 0 0 0 0 0 0 0 0 0 0.1-0.1 0-0.1 0 0 0 0 0 0 0.1-0.1 0.1 0 0 0 0 0 0.1 0 0.1-0.1 0-0.1 0 0 0 0 0 0 0.1 0 0.1-0.1 0-0.1 0 0 0 0 0 0 0.1-0.1 0.1 0 0 0 0 0 0-0.1 0 0 0 0 0.1-0.1 0-0.2 0.1 0 0 0 0-0.1 0-0.2 0 0 0.1 0 0.1-0.1 0-0.2 0-0.1 0-0.2 0.1 0 0-0.1 0 0 0-0.1 0-0.1 0-0.1 0 0 0-0.1 0 0 0.1-0.1 0.1-0.1 0-0.1 0 0 0-0.1 0-0.1 0-0.2 0 0 0-0.1 0-0.1 0-0.1 0-0.1 0-0.1 0-0.1 0-0.2 0 0 0-0.1 0-0.1 0-0.1 0-0.1 0-0.1 0-0.1-0.1-0.2-0.1 0 0-0.1 0-0.1 0-0.1 0-0.1 0-0.2-0.1 0 0 0 0-0.1 0-0.2 0 0 0 0-0.1-0.1 0-0.2 0 0 0 0 0-0.1-0.1-0.2-0.1c-0.5-0.3-0.8-0.7-0.8-1.1v7.4c0 0.4 0.3 0.8 0.8 1.1q0.1 0.1 0.2 0.1 0 0 0 0 0.1 0.1 0.1 0.1 0.1 0 0.1 0 0 0 0 0 0.1 0 0.2 0.1 0 0 0 0 0 0 0.1 0 0 0 0 0 0.1 0 0.2 0.1 0 0 0 0 0.1 0 0.1 0 0.1 0 0.1 0 0.1 0 0.1 0 0 0 0.1 0 0 0 0.1 0 0 0 0 0 0.1 0 0.1 0 0.1 0 0.1 0.1 0.1 0 0.1 0 0 0 0.1 0 0 0 0.1 0 0 0 0.1 0 0 0 0 0 0.1-0.1 0.2-0.1 0 0 0.1 0 0 0 0 0 0 0 0 0 0.1 0 0.2 0 0.1 0 0.1 0 0 0 0 0 0 0 0.1 0 0.1 0 0.1-0.1 0.1 0 0.1 0 0.1 0 0.2 0 0 0 0 0 0.1-0.1 0.1-0.1 0.1 0 0.1 0 0.1 0 0.1-0.1 0.1 0 0.1 0 0.1 0 0.2-0.1 0 0 0 0 0 0 0 0 0 0 0.1-0.1 0 0 0 0 0 0 0 0 0.1 0 0.1 0 0-0.1 0-0.1 0 0 0.1 0 0 0 0 0 0 0 0 0 0-0.1 0-0.1 0.1 0 0.1 0 0 0 0 0 0-0.1 0.1-0.1 0 0 0 0 0 0 0 0 0-0.1 0-0.1 0 0 0.1 0 0 0 0-0.1 0 0 0 0 0 0 0 0 0 0 0 0 0-0.1 0-0.1 0 0 0 0 0.1 0 0.1 0 0 0 0 0 0-0.1 0-0.1 0 0 0 0 0 0 0-0.1 0 0 0 0 0 0 0 0 0 0 0 0 0 0 0-0.1 0 0 0 0 0 0 0 0 0 0 0 0 0-3.8 0-7.5 0 0 0 0.1z"/>
				<path id="Layer" class="s29" d="m44.7 62.6q0.1 0.1 0.2 0.1 0 0 0 0 0.1 0.1 0.1 0.1 0 0 0.1 0 0 0 0 0 0.1 0 0.2 0.1 0 0 0 0 0 0 0.1 0 0 0 0 0 0.1 0 0.2 0.1 0 0 0 0 0.1 0 0.1 0 0.1 0 0.1 0 0.1 0 0.1 0 0 0 0 0 0.1 0 0.2 0 0 0 0 0 0.1 0 0.1 0 0.1 0 0.1 0 0.1 0.1 0.1 0.1 0 0 0 0 0.1 0 0.2 0 0 0 0.1 0 0 0 0-0.1 0.1 0 0.2 0 0 0 0.1 0 0 0 0 0 0 0 0 0 0.1 0 0.2 0 0 0 0.1 0 0 0 0 0 0 0 0.1 0 0 0 0.1-0.1 0.1 0 0.1 0 0.1 0 0.1 0 0.1 0 0.1 0 0.1-0.1 0.1-0.1 0 0 0.1 0 0 0 0.1-0.1 0.1 0 0.1 0 0.1 0 0.2-0.1 0 0 0 0 0 0 0 0 0 0 0.1-0.1 0 0 0 0 0 0 0 0 0.1 0 0.1 0 0-0.1 0-0.1 0 0 0.1 0 0 0 0 0 0 0 0-0.1 0 0 0 0 0.1 0 0.1 0 0 0 0 0 0-0.1 0.1-0.1 0 0 0 0 0 0 0 0 0-0.1 0-0.1 0 0 0 0 0.1 0 0.1-0.1 0 0 0 0 0 0 0 0 0 0 0 0 0-0.1 0-0.1 0 0 0 0 0 0 0 0 0.1 0 0.1 0 0-0.1 0-0.1c0 0 0-0.3 0-0.3q0-0.9 0-1.9 0 0 0 0 0-0.1 0-0.1 0 0 0 0c0-1.2 0-1.4 0-1.4q0 0 0 0c0 0 0 0.2 0 0.2q0 0 0 0 0 0.1 0 0.1 0 0-0.1 0 0 0 0 0 0 0 0 0.1 0 0 0 0 0 0 0 0 0 0 0 0.1 0 0 0 0 0 0-0.1 0 0 0 0 0 0 0.1 0 0.1 0 0 0 0 0 0 0 0-0.1 0.1-0.1 0.1 0 0 0 0 0 0-0.1 0.1 0 0 0 0 0 0 0 0 0 0 0 0-0.1 0-0.1 0.1 0 0 0 0 0 0-0.1 0 0 0 0 0 0 0.1 0 0.1-0.1 0-0.1 0 0 0 0 0 0 0 0 0-0.1 0.1-0.2 0.1 0 0-0.1 0.1-0.1 0-0.1 0-0.1 0-0.1 0 0 0.1-0.1 0.1 0 0-0.1 0 0 0-0.1 0 0 0.1-0.1 0.1-0.1 0-0.1 0-0.1 0-0.1 0 0 0 0 0-0.1 0-0.1 0-0.1 0-0.2 0.1 0 0 0 0 0 0 0 0-0.1 0-0.1 0-0.1 0-0.2 0 0 0 0 0-0.1 0-0.1 0-0.1 0-0.2 0 0 0 0 0 0 0-0.1 0 0 0-0.1 0 0 0-0.1 0 0 0 0 0-0.1 0-0.2-0.1 0 0 0 0 0 0-0.1 0 0 0-0.1 0 0 0-0.1 0 0 0 0 0-0.1 0-0.2-0.1 0 0 0 0-0.1 0-0.1 0 0 0 0 0-0.1 0-0.2-0.1 0 0 0 0-0.1 0-0.1 0 0 0-0.1 0 0 0 0-0.1-0.1 0-0.2-0.1-0.7-0.3-0.8-0.8v3.4c0.1 0.4 0.3 0.7 0.8 0.9z"/>
				<path id="Layer" class="s27" d="m49.1 55.9q0 0 0 0 0 0 0-0.1 0 0 0 0 0 0 0 0 0 0 0-0.1 0 0 0 0l-0.3-1.7q0 0.1 0 0.1 0 0 0 0 0 0.1 0 0.1 0 0 0 0 0 0.1 0 0.1 0 0 0 0 0 0.1 0 0.1-0.1 0-0.1 0 0 0.1 0 0.1 0 0 0 0 0 0.1 0 0.1-0.1 0-0.1 0.1 0 0 0 0.1 0 0-0.1 0 0 0 0 0 0 0 0 0 0 0.1-0.1 0.1 0 0 0 0 0 0 0 0.1-0.1 0-0.1 0 0 0-0.1 0.1 0 0-0.1 0 0 0.1-0.1 0.1 0 0-0.1 0 0 0-0.1 0.1 0 0-0.1 0 0 0-0.1 0 0 0 0 0-0.1 0.1-0.2 0.1 0 0 0 0-0.1 0-0.2 0-0.1 0.1-0.2 0.1-0.1 0-0.2 0 0 0 0 0-0.1 0-0.2 0-0.1 0-0.1 0-0.1 0-0.1 0-0.1 0-0.1 0-0.1 0-0.1 0-0.1 0-0.1 0-0.1 0-0.2-0.1 0 0 0 0-0.1 0-0.2 0 0 0 0 0-0.1 0-0.2-0.1 0 0-0.1 0 0 0-0.1 0 0 0-0.1-0.1 0 0-0.1 0-0.1 0-0.2-0.1 0 0 0 0 0 0-0.1-0.1 0 0 0 0 0 0 0 0-0.1 0-0.1 0 0-0.1 0-0.1 0 0-0.1 0 0 0 0 0 0-0.1 0-0.1 0 0-0.1 0 0 0 0 0 0-0.1 0-0.1 0 0 0 0 0 0-0.1 0 0-0.1 0-0.1 0 0 0 0 0 0 0 0 0-0.1 0-0.1 0 0 0 0-0.1 0-0.1 0 0-0.1 0-0.1 0 0 0 0 0 0 0-0.1 0 0 0 0 0 0 0 0 0 0 0-0.1 0 0 0 0 0 0 0 0 0-0.1 0-0.1 0 0 0 0 0 0 0-0.1-0.2 0.9-0.4 1.7 0 0 0 0.1 0 0 0 0 0 0 0 0 0 0.1 0 0.1 0 0 0 0 0 0 0 0.1 0 0 0 0 0 0 0 0 0 0.1 0 0.1 0 0 0.1 0 0 0 0 0.1 0 0 0 0 0 0 0 0 0 0.1 0 0.1 0 0 0 0 0 0.1 0.1 0.1 0 0 0 0 0 0 0 0.1 0 0 0 0 0.1 0 0.1 0 0 0 0 0.1 0 0 0 0 0 0 0.1 0 0 0.1 0 0.1 0 0 0 0 0.1 0 0.1 0.1 0 0 0 0 0.1 0 0.1 0 0 0 0 0.1 0 0 0.1 0 0 0 0 0 0 0 0.1 0 0 0.1 0 0.1 0.1 0 0.2 0.1 0 0 0 0 0.1 0 0.1 0 0.1 0 0.1 0.1 0 0 0 0 0.1 0 0.2 0 0 0 0 0 0 0 0.1 0 0.1 0.1 0.2 0.1 0 0 0 0 0.1 0 0.2 0 0 0 0 0 0 0 0 0.1 0.1 0 0.2 0 0 0 0 0 0 0 0.1 0 0 0 0 0 0.1 0 0.1 0 0.1 0 0.1 0 0 0 0.1 0 0 0 0.1 0 0 0 0.1 0 0 0 0 0 0.1 0 0.2 0 0 0 0 0 0 0 0.1 0 0 0 0.1 0 0 0 0 0 0.2 0 0.3-0.1 0 0 0 0 0.1 0 0.2 0 0 0 0.1 0 0 0 0.1 0 0 0 0-0.1 0.1 0 0.1 0 0.1 0 0.1 0 0.1 0 0.1-0.1 0.1 0 0.1 0 0.1 0 0.1 0 0.1-0.1 0.2-0.1 0-0.1 0.1-0.1 0 0 0 0 0.1 0 0.1-0.1 0 0 0 0 0.1 0 0.1-0.1 0 0 0 0 0 0 0.1 0 0 0 0 0 0-0.1 0-0.1 0 0 0.1 0 0 0 0 0 0 0 0-0.1 0 0 0 0 0 0 0.1 0 0 0 0-0.1 0 0 0 0 0 0 0 0 0 0 0-0.1 0.1 0 0.1 0 0 0 0-0.1 0 0 0 0 0 0 0 0 0-0.1 0-0.1 0 0 0 0 0 0 0 0 0-0.1 0-0.1 0 0 0-0.1z"/>
				<path id="Layer" class="s30" d="m48.1 53.3c-0.9-0.5-2.3-0.5-3.2 0-0.8 0.5-0.8 1.3 0 1.8 0.9 0.5 2.4 0.5 3.2 0 0.9-0.5 0.9-1.3 0-1.8z"/>
			</g>
			<g id="Layer">
				<path id="Layer" class="s0" d="m56.9 59.2q0 0.1-0.1 0.1 0 0.1 0 0.1 0 0 0 0.1-0.1 0-0.1 0 0 0.1 0 0.1 0 0-0.1 0 0 0.1 0 0.1 0 0 0 0 0 0-0.1 0.1 0 0 0 0-0.1 0-0.1 0.1-0.1 0-0.1 0-0.1 0.1-0.2 0.1 0 0-0.1 0 0 0.1-0.1 0.1-0.1 0-0.1 0-0.1 0-0.2 0.1 0 0 0 0-0.1 0-0.2 0 0 0 0 0-0.1 0-0.3 0 0 0 0 0-0.1 0.1-0.3 0.1 0 0 0-0.1-0.1 0-0.2 0 0 0-0.1 0-0.1 0-0.1 0-0.1 0-0.1 0-0.1 0-0.3 0 0-0.1 0-0.1-0.1 0-0.3-0.1 0 0 0 0-0.2 0-0.3-0.1-0.5-0.3-0.6-0.7 0.1 0.5 0.2 1.1 0.1 0.4 0.5 0.6 0.2 0.1 0.3 0.2 0 0 0 0 0.1 0 0.3 0.1 0 0 0 0 0 0 0 0 0.1 0 0.2 0 0 0 0.1 0 0 0 0 0 0.1 0 0.2 0 0 0.1 0 0.1 0 0 0 0 0.1 0 0.2 0 0 0 0 0 0 0 0 0 0.2 0 0.3 0 0 0 0 0 0 0 0 0 0.1-0.1 0.2-0.1 0 0 0 0 0.1 0 0.1 0 0 0 0.1 0 0 0 0.1 0 0 0 0.1-0.1 0 0 0 0 0.1 0 0.1 0 0.1 0 0.1 0 0.1 0 0.1-0.1 0.1 0 0.2-0.1 0 0 0 0 0 0 0 0 0.1 0 0.1-0.1 0 0 0.1 0 0 0 0.1-0.1 0 0 0 0 0 0 0 0 0 0 0-0.1 0 0 0.1 0 0 0 0 0 0 0 0 0 0-0.1 0.1-0.1 0 0 0-0.1 0 0 0 0 0 0 0-0.1 0 0 0 0 0 0 0 0 0.1-0.6 0.2-1.1 0 0 0 0z"/>
				<g id="Layer">
					<path id="SVGID_00000148652113596353434950000016633628241988407713_" class="s5" d="m56.9 54.2v4.9c0 0.3-0.2 0.6-0.6 0.8-0.8 0.5-2.1 0.5-2.9 0-0.4-0.2-0.6-0.5-0.6-0.8v-4.9c0 0.3 0.2 0.6 0.6 0.8 0.8 0.5 2.1 0.5 2.9 0 0.4-0.2 0.6-0.5 0.6-0.8z"/>
					<g id="Clip-Path" clip-path="url(#cp1)">
						<g id="Layer">
							<path id="Layer" class="s5" d="m56.9 54.2v4.9q0 0 0 0v-4.9q0 0 0 0z"/>
							<path id="Layer" class="s5" d="m56.9 54.2v4.9q0 0.1 0 0.1v-4.8q0-0.1 0-0.2z"/>
							<path id="Layer" class="s5" d="m56.9 54.4v4.8q0 0.1-0.1 0.1l0.1-4.8q0-0.1 0-0.1z"/>
							<path id="Layer" class="s5" d="m56.9 54.5l-0.1 4.8q0 0.1 0 0.1v-4.8q0-0.1 0.1-0.1z"/>
							<path id="Layer" class="s5" d="m56.8 54.6v4.8q0 0.1-0.1 0.2v-4.9q0.1-0.1 0.1-0.1z"/>
							<path id="Layer" class="s5" d="m56.7 54.7v4.9q0 0-0.1 0.1v-4.9q0.1 0 0.1-0.1z"/>
							<path id="Layer" class="s5" d="m56.6 54.8v4.9q-0.1 0.1-0.3 0.2v-4.9q0.2-0.1 0.3-0.2z"/>
							<path id="Layer" class="s5" d="m56.3 55v4.9q0 0 0 0-0.2 0.1-0.4 0.2v-4.9q0.2 0 0.4-0.2 0 0 0 0z"/>
							<path id="Layer" class="s5" d="m55.9 55.2v4.9q-0.2 0.1-0.4 0.1v-4.9q0.2 0 0.4-0.1z"/>
							<path id="Layer" class="s5" d="m55.5 55.3v4.9q-0.2 0-0.3 0v-4.8q0.2 0 0.3-0.1z"/>
							<path id="Layer" class="s5" d="m55.2 55.4v4.8q-0.1 0-0.2 0v-4.8q0.1 0 0.2 0z"/>
							<path id="Layer" class="s5" d="m55 55.4v4.8q-0.1 0.1-0.2 0.1v-4.9q0.1 0 0.2 0z"/>
							<path id="Layer" class="s5" d="m54.8 55.4v4.9q-0.1-0.1-0.2-0.1v-4.8q0.1 0 0.2 0z"/>
							<path id="Layer" class="s5" d="m54.6 55.4v4.8q-0.1 0-0.2 0v-4.8q0.1 0 0.2 0z"/>
							<path id="Layer" class="s5" d="m54.4 55.4v4.8q-0.1 0-0.2 0v-4.9q0.1 0 0.2 0.1z"/>
							<path id="Layer" class="s5" d="m54.2 55.3v4.9q-0.1 0-0.2-0.1v-4.8q0.1 0 0.2 0z"/>
							<path id="Layer" class="s5" d="m54 55.3v4.8q-0.2 0-0.3-0.1v-4.8q0.2 0 0.3 0.1z"/>
							<path id="Layer" class="s5" d="m53.7 55.2v4.8q-0.1 0-0.3-0.1c-0.4-0.2-0.6-0.5-0.6-0.8v-4.9c0 0.3 0.2 0.6 0.6 0.8q0.2 0.1 0.3 0.2z"/>
						</g>
					</g>
				</g>
				<path id="Layer" class="s0" d="m56.9 54.2q0 0 0 0 0 0 0-0.1 0 0 0 0-0.1-0.5-0.2-1.1 0 0.1 0 0.1 0 0 0 0 0 0.1 0 0.1 0 0 0 0.1 0 0 0 0 0 0 0 0.1 0 0-0.1 0 0 0.1 0 0.1 0 0-0.1 0.1 0 0-0.1 0.1 0 0-0.1 0.1 0 0 0 0 0 0-0.1 0.1-0.1 0-0.2 0.1 0 0-0.1 0-0.1 0-0.2 0.1 0 0 0 0-0.1 0-0.2 0-0.1 0-0.1 0-0.1 0-0.2 0.1 0 0-0.1 0 0 0 0 0-0.1 0-0.2 0 0 0 0 0-0.1 0-0.2 0 0 0 0 0-0.1 0-0.2 0 0 0 0-0.1-0.1 0-0.1 0 0 0-0.1 0 0 0-0.1 0 0 0 0 0-0.1 0-0.1 0-0.1 0-0.1-0.1 0 0-0.1 0 0 0-0.1 0 0 0 0 0-0.1-0.1-0.2-0.1 0 0 0 0c-0.4-0.3-0.6-0.6-0.6-0.9l-0.2 1.1c0 0.3 0.2 0.7 0.6 0.9q0.1 0.1 0.1 0.1 0 0 0 0 0.1 0 0.2 0.1 0 0 0 0 0 0 0 0 0.1 0 0.1 0 0.1 0 0.1 0 0 0 0 0 0 0.1 0.1 0.1 0 0 0.1 0 0 0 0 0 0 0 0.1 0 0 0 0 0 0 0 0.1 0 0 0 0 0 0.1 0.1 0.1 0.1 0 0 0 0 0.1 0 0.1 0 0 0 0 0 0.1 0 0.1 0 0.1 0 0.1 0 0 0 0 0 0.1 0 0.2 0 0 0 0 0 0.1 0 0.2 0 0 0 0 0 0 0 0.1 0 0 0 0.1 0 0 0 0 0 0.1 0 0.2-0.1 0 0 0 0 0 0 0 0 0.1 0 0.3 0 0 0 0 0 0 0 0 0 0.1-0.1 0.2-0.1 0.1 0 0.1 0 0.1-0.1 0.2-0.2 0 0 0.1 0 0 0 0 0 0.1 0 0.1-0.1 0 0 0.1-0.1 0 0 0 0 0.1 0 0.1-0.1 0.1 0 0.1-0.1 0 0 0 0 0 0 0 0 0 0 0-0.1 0 0 0 0 0.1 0 0.1 0 0-0.1 0-0.1 0 0 0 0 0 0 0 0 0-0.1 0-0.1 0 0 0 0 0-0.1 0-0.1z"/>
				<g id="Layer">
					<path id="Layer" class="s31" d="m56.2 52.3c0.7 0.5 0.7 1.1 0 1.6-0.7 0.4-1.9 0.4-2.6 0-0.8-0.5-0.8-1.1 0-1.6 0.7-0.4 1.9-0.4 2.6 0z"/>
				</g>
				<g id="Layer">
					<path id="Layer" class="s0" d="m55.6 52.6c0.4 0.2 0.4 0.6 0 0.8-0.4 0.2-1.1 0.2-1.5 0-0.4-0.2-0.4-0.6 0-0.8 0.4-0.3 1.1-0.3 1.5 0z"/>
				</g>
				<path id="Layer" class="s0" d="m53.8 50.1h2.1v3h-2.1z"/>
				<g id="Layer">
					<path id="Layer" class="s32" d="m55.6 49.7c0.4 0.2 0.4 0.6 0 0.8-0.4 0.3-1.1 0.3-1.5 0-0.4-0.2-0.4-0.6 0-0.8 0.4-0.2 1.1-0.2 1.5 0z"/>
				</g>
				<g id="Layer">
					<path id="Layer" class="s5" d="m55.8 49.8c0.5 0.3 0.5 0.7 0 1-0.5 0.3-1.3 0.3-1.9 0-0.5-0.3-0.5-0.7 0-1 0.5-0.3 1.4-0.3 1.9 0z"/>
				</g>
				<path id="Layer" class="s5" d="m53.6 49.5h2.6v0.9h-2.6z"/>
				<g id="Layer">
					<path id="Layer" class="s33" d="m55.8 49.1c0.5 0.3 0.5 0.7 0 1-0.5 0.3-1.3 0.3-1.9 0-0.5-0.3-0.5-0.7 0-1 0.5-0.3 1.4-0.3 1.9 0z"/>
				</g>
			</g>
			<g id="Layer">
				<g id="Layer">
					<g id="Layer">
						<g id="Layer">
							<path id="Layer" class="s15" d="m1 25.7v1.8l8.2 4.8v-1.8z"/>
						</g>
						<g id="Layer">
							<path id="Layer" class="s16" d="m9.2 30.5v1.8l43.7-25.3v-1.8z"/>
						</g>
						<g id="Layer">
							<path id="Layer" class="s18" d="m1 25.7l8.2 4.8 43.7-25.3-8.2-4.7z"/>
						</g>
					</g>
				</g>
				<g id="Layer">
					<g id="Layer">
						<g id="Layer">
							<path id="Layer" class="s15" d="m1 41.8v1.8l8.2 4.8v-1.8z"/>
						</g>
						<g id="Layer">
							<path id="Layer" class="s16" d="m9.2 46.6v1.8l43.7-25.3v-1.8z"/>
						</g>
						<g id="Layer">
							<path id="Layer" class="s18" d="m1 41.8l8.2 4.8 43.7-25.3-8.2-4.7z"/>
						</g>
					</g>
				</g>
				<g id="Layer">
					<path id="Layer" class="s27" d="m21.3 21.9q0 0 0 0 0 0 0 0 0-0.1 0-0.1 0 0 0 0 0 0 0-0.1 0 0 0 0 0 0 0 0 0 0 0 0 0 0 0 0 0-0.1 0-0.1 0 0 0 0 0-0.1 0-0.1 0 0 0 0 0 0 0 0 0 0-0.1 0 0 0 0-0.1 0 0 0 0 0 0 0-0.1 0 0 0 0 0 0 0 0 0 0 0 0-0.1-0.1-0.1-0.1 0 0 0 0 0-0.1 0-0.1 0 0 0 0 0 0 0 0-0.1-0.1-0.1-0.1 0 0 0-0.1-0.1 0-0.1 0 0 0 0 0 0-0.1 0-0.1 0 0-0.1 0 0 0 0 0 0-0.1 0-0.1 0 0 0 0 0 0 0 0 0 0-0.1 0 0 0 0-0.1 0 0 0 0 0 0-0.1 0 0 0 0 0 0 0 0 0 0-0.1 0-0.1-0.1 0-0.1 0 0 0 0 0 0 0 0 0l-6.4-3.7q-0.1 0-0.1 0 0-0.1 0-0.1 0 0 0 0-0.1 0-0.1 0 0 0 0 0 0 0 0 0 0 0 0 0 0 0 0 0-0.1 0-0.1 0 0 0 0 0 0 0 0 0-0.1 0-0.1 0 0 0 0 0 0 0 0 0 0 0 0 0 0 0-0.1 0 0 0 0 0 0 0-0.1 0 0 0 0 0l-8.8 5.1q0 0 0.1 0 0 0 0 0 0.1 0 0.1 0 0 0 0 0 0.1 0 0.2 0 0 0 0 0 0.1 0 0.2 0.1l6.4 3.7q0.1 0 0.2 0.1 0 0 0 0 0 0.1 0.1 0.2 0 0 0 0 0.1 0 0.2 0.1 0 0 0 0 0 0 0 0 0 0.1 0.1 0.2 0 0 0 0 0.2 0.3 0.2 0.6 0 0 0 0 0 0.2 0 0.3 0 0.1 0 0.1 0 0 0 0 0 0.2-0.1 0.3 0 0-0.1 0.1l8.8-5.1q0.1-0.1 0.1-0.1 0-0.1 0-0.1 0 0 0.1 0 0 0 0-0.1 0 0 0 0 0 0 0-0.1 0 0 0 0 0 0 0 0 0 0 0 0 0 0 0 0 0-0.1 0-0.1 0 0 0 0 0 0 0-0.1 0 0 0 0z"/>
					<g id="Layer">
						<g id="Layer">
							<path id="Layer" class="s30" d="m11.7 25.6c0.5 0.3 0.8 0.9 0.8 1.5 0 0.5-0.4 0.7-0.8 0.4l-6.4-3.7c-0.5-0.2-0.9-0.9-0.9-1.4 0-0.6 0.4-0.8 0.9-0.5z"/>
						</g>
					</g>
					<path id="Layer" class="s34" d="m22 19.8q0 0 0 0 0-0.1 0-0.1 0 0 0 0 0-0.1 0-0.1 0 0 0 0 0 0 0-0.1 0 0 0 0 0 0 0 0 0-0.1 0-0.1 0 0 0 0 0 0 0 0 0 0 0 0 0-0.1 0-0.1 0 0-0.1 0 0 0 0-0.1 0 0 0 0 0 0 0 0 0 0 0 0 0-0.1 0-0.1 0 0 0 0-0.1-0.1-0.1-0.1 0 0 0 0 0 0 0 0 0-0.1 0-0.1 0 0-0.1-0.1 0 0 0 0 0 0 0 0 0-0.1-0.1-0.1 0 0 0 0 0 0 0-0.1 0 0-0.1 0 0 0 0 0 0 0 0 0 0 0 0 0 0-0.1 0-0.1-0.1 0-0.1 0 0 0 0 0 0 0 0-0.1 0 0 0 0-0.1 0-0.1 0 0 0 0 0 0 0-0.1 0 0-0.1 0-0.1 0 0 0 0l-6.4-3.7q0 0 0 0-0.1 0-0.1 0 0 0 0 0 0 0 0 0-0.1 0-0.1-0.1 0 0 0 0 0 0 0 0 0 0 0 0 0 0-0.1 0 0 0 0 0 0 0 0 0 0 0 0 0-0.1 0-0.1 0 0 0 0 0 0 0 0 0-0.1 0-0.1 0 0 0-0.1 0 0 0 0 0.1l-8.8 5.1q0-0.1 0.1-0.1 0 0 0 0 0.1 0 0.2 0 0 0 0 0 0 0 0.1 0.1 0 0 0 0 0.1 0 0.2 0l6.4 3.7q0.1 0.1 0.2 0.2 0 0 0 0 0.1 0 0.1 0.1 0 0 0 0 0.1 0.1 0.2 0.2 0 0 0 0 0 0 0 0 0 0.1 0.1 0.2 0 0 0 0 0.2 0.3 0.2 0.6 0 0 0 0 0.1 0.1 0.1 0.2 0 0.1-0.1 0.2 0 0 0 0 0 0.1-0.1 0.2 0 0.1-0.1 0.1l8.8-5.1q0.1 0 0.1-0.1 0 0 0 0 0.1 0 0.1-0.1 0 0 0 0 0 0 0-0.1 0 0 0 0 0 0 0 0 0 0 0 0 0 0 0 0 0-0.1 0-0.1 0 0 0 0 0 0 0-0.1 0 0 0 0 0 0 0 0z"/>
					<g id="Layer">
						<g id="Layer">
							<g id="Layer">
								<path id="Layer" class="s35" d="m12.4 23.4c0.5 0.3 0.9 1 0.8 1.5 0 0.5-0.3 0.8-0.8 0.5l-6.4-3.7c-0.5-0.3-0.9-0.9-0.9-1.5 0-0.5 0.4-0.7 0.9-0.5z"/>
							</g>
						</g>
					</g>
				</g>
				<g id="Layer">
					<path id="Layer" class="s26" d="m28 35.7q0 0 0-0.1 0 0 0 0 0 0 0 0 0-0.1 0-0.1 0 0 0 0 0 0 0 0 0 0 0 0 0 0 0-0.1 0 0 0 0 0 0 0-0.1 0 0 0 0 0 0 0 0 0 0 0 0 0 0 0 0 0-0.1 0-0.1 0 0-0.1 0 0 0 0-0.1 0 0 0 0 0 0 0 0 0 0 0 0 0 0 0-0.1 0 0 0 0 0 0 0 0-0.1-0.1-0.1-0.1 0 0 0 0 0 0 0-0.1 0 0 0 0 0 0-0.1-0.1 0 0 0 0 0 0 0 0 0-0.1-0.1-0.1 0 0 0 0 0 0 0-0.1 0 0-0.1 0 0 0 0 0 0 0 0 0 0 0 0 0 0-0.1 0-0.1 0 0-0.1 0 0 0 0 0 0 0 0-0.1 0 0 0 0-0.1 0-0.1 0 0 0 0 0 0 0 0 0-0.1-0.1-0.1-0.1 0 0 0 0l-6.3-3.6q0 0-0.1 0 0-0.1 0-0.1 0 0 0 0 0 0-0.1 0 0 0 0 0 0 0 0 0 0 0 0 0 0 0-0.1 0 0 0 0 0 0 0 0 0 0 0-0.1 0 0 0 0 0 0 0 0 0 0 0 0 0 0 0-0.1 0 0 0 0 0 0 0-0.1 0 0 0 0 0l-8.7 5.1q0-0.1 0.1-0.1 0.1 0 0.2 0 0 0 0 0 0 0 0.1 0 0.1 0.1 0.2 0.1l6.3 3.7q0.1 0 0.2 0.1 0 0 0 0 0.1 0.1 0.1 0.1 0 0 0.1 0 0 0.1 0.1 0.2 0 0 0 0 0 0 0 0 0.1 0.1 0.1 0.2 0 0 0 0 0.2 0.3 0.2 0.6 0 0 0 0 0.1 0.1 0.1 0.2 0 0.1-0.1 0.2 0 0 0 0 0 0.1-0.1 0.2 0 0.1-0.1 0.2l8.7-5.1q0.1 0 0.1-0.1 0 0 0 0 0.1-0.1 0.1-0.1 0 0 0 0 0-0.1 0-0.1 0 0 0 0 0 0 0 0 0 0 0 0 0-0.1 0-0.1 0 0 0 0 0 0 0 0 0-0.1 0-0.1 0 0 0 0 0 0 0 0z"/>
					<g id="Layer">
						<g id="Layer">
							<path id="Layer" class="s36" d="m18.5 39.3c0.5 0.2 0.9 0.9 0.9 1.4 0 0.6-0.4 0.8-0.9 0.5l-6.3-3.7c-0.5-0.2-0.9-0.9-0.9-1.4 0-0.5 0.4-0.8 0.9-0.5z"/>
						</g>
					</g>
					<path id="Layer" class="s19" d="m28.7 33.9q0-0.1 0-0.1 0 0 0 0 0 0 0-0.1 0 0 0 0 0 0 0 0 0-0.1 0-0.1 0 0 0 0 0 0 0 0 0-0.1 0-0.1 0 0 0 0 0 0 0-0.1 0 0 0 0 0 0 0 0-0.1 0-0.1 0 0 0 0-0.1 0 0 0 0 0 0 0 0 0-0.1 0-0.1 0 0 0 0 0 0 0 0 0 0 0 0-0.1 0-0.1-0.1 0 0 0 0 0 0 0-0.1 0 0 0 0 0 0 0 0-0.1 0-0.1-0.1 0 0-0.1-0.1 0 0 0 0 0 0 0 0 0 0 0-0.1 0 0-0.1 0 0 0 0 0 0 0 0-0.1 0 0 0 0 0 0 0 0 0 0-0.1 0 0 0 0-0.1 0 0 0 0-0.1 0-0.1 0 0 0 0 0 0 0 0 0 0-0.1-0.1-0.1 0 0 0 0 0 0 0 0 0 0 0 0l-6.5-3.8q-0.1 0-0.1 0 0 0 0 0 0 0 0 0-0.1 0-0.1 0 0-0.1 0-0.1 0 0 0 0 0 0 0 0 0 0 0 0-0.1 0-0.1 0 0 0 0 0 0 0 0 0-0.1 0-0.1 0 0 0 0 0 0 0 0 0 0 0-0.1 0 0 0 0 0-0.1 0-0.1 0 0 0-0.1 0.1l-8.9 5.1q0.1 0 0.2 0 0 0 0 0 0 0 0.1 0 0 0 0 0 0.1 0 0.2 0 0 0 0 0 0.1 0.1 0.1 0.1l6.6 3.8q0 0 0.1 0.1 0 0 0 0 0.1 0 0.2 0.1 0 0 0 0 0.1 0.1 0.1 0.2 0 0 0 0 0 0 0 0 0.1 0.1 0.2 0.2 0 0 0 0 0.1 0.3 0.2 0.6 0 0 0 0 0 0.1 0 0.2 0 0.1 0 0.2 0 0 0 0 0 0.2-0.1 0.3-0.1 0-0.1 0.1l8.9-5.2q0.1 0 0.1-0.1 0 0 0 0 0-0.1 0.1-0.1 0 0 0 0 0-0.1 0-0.1 0 0 0 0 0 0 0 0 0-0.1 0-0.1 0 0 0 0 0 0 0 0 0 0 0-0.1 0 0 0 0 0 0 0 0 0 0 0 0z"/>
					<g id="Layer">
						<g id="Layer">
							<g id="Layer">
								<path id="Layer" class="s37" d="m19 37.6c0.4 0.2 0.8 0.9 0.8 1.4 0 0.6-0.4 0.8-0.9 0.5l-6.5-3.7c-0.4-0.3-0.8-1-0.8-1.5 0-0.6 0.4-0.8 0.8-0.5z"/>
							</g>
						</g>
					</g>
				</g>
				<g id="Layer">
					<path id="Layer" class="s27" d="m46.3 23.4q0 0 0 0 0 0 0-0.1 0 0 0 0 0 0 0 0-0.1-0.1-0.1-0.1 0 0 0 0 0 0 0 0 0 0 0 0 0 0 0-0.1 0 0 0 0 0 0 0-0.1 0 0 0 0 0 0 0 0 0 0 0 0 0 0 0 0 0-0.1 0-0.1 0 0-0.1 0 0-0.1 0-0.1 0 0 0 0 0 0 0 0 0 0 0-0.1 0 0 0 0 0 0-0.1-0.1 0 0 0 0 0 0 0 0 0 0 0 0 0-0.1-0.1-0.1 0-0.1 0-0.1 0 0 0 0 0 0-0.1-0.1 0 0 0 0 0 0 0 0 0-0.1 0-0.1-0.1 0-0.1 0 0 0 0 0 0 0 0 0 0 0 0 0 0-0.1-0.1-0.1 0 0 0 0 0 0 0 0 0 0 0 0 0-0.1-0.1-0.1 0 0 0 0 0 0 0 0-0.1 0-0.1 0 0 0 0 0l-6.4-3.7q0-0.1 0-0.1 0 0-0.1 0 0 0 0 0 0 0 0 0 0 0-0.1 0 0 0 0 0 0 0 0 0 0 0 0 0 0 0 0 0-0.1-0.1-0.1-0.1 0 0 0 0 0 0 0 0 0 0 0 0 0 0 0 0-0.1 0-0.1 0 0 0 0 0-0.1 0-0.1 0 0 0.1 0 0.1-0.1 0-0.1 0l-8.8 5.1q0.1 0 0.1 0 0 0 0 0 0.1-0.1 0.2-0.1 0 0 0 0 0.1 0.1 0.1 0.1 0 0 0 0 0.1 0 0.2 0.1l6.4 3.7q0.1 0 0.2 0.1 0 0 0 0 0.1 0.1 0.1 0.1 0.1 0 0.1 0 0 0.1 0.1 0.2 0 0 0 0 0 0 0 0 0.1 0.1 0.1 0.2 0 0 0 0 0.2 0.3 0.3 0.6 0 0 0 0 0 0.1 0 0.2 0 0.1 0 0.2 0 0 0 0-0.1 0.2-0.1 0.2-0.1 0.1-0.2 0.2l8.8-5.1q0.1-0.1 0.1-0.2 0.1 0 0.1 0 0 0 0 0 0-0.1 0-0.1 0 0 0 0 0-0.1 0-0.1 0 0 0 0 0 0 0 0 0 0 0.1 0 0 0 0-0.1 0 0 0 0 0 0 0 0 0-0.1 0-0.1 0 0 0 0z"/>
					<g id="Layer">
						<g id="Layer">
							<path id="Layer" class="s30" d="m36.6 27.1c0.5 0.2 0.9 0.9 0.9 1.4 0 0.6-0.4 0.8-0.9 0.5l-6.4-3.7c-0.5-0.3-0.8-0.9-0.8-1.5 0-0.5 0.3-0.7 0.8-0.4z"/>
						</g>
					</g>
					<path id="Layer" class="s26" d="m47 21.3q0-0.1 0-0.1 0 0 0 0 0 0 0-0.1 0 0 0 0 0 0 0 0 0 0 0 0 0-0.1 0-0.1-0.1 0-0.1 0 0 0 0-0.1 0 0 0 0 0 0 0-0.1 0 0 0 0 0 0 0 0 0 0 0 0 0 0 0 0 0-0.1 0-0.1 0 0-0.1 0 0 0 0-0.1 0 0 0 0 0 0 0 0 0 0 0-0.1 0 0 0 0-0.1 0-0.1-0.1 0 0 0 0 0 0 0 0 0 0 0-0.1-0.1 0-0.1-0.1 0 0 0 0 0 0 0 0-0.1 0-0.1 0 0-0.1 0-0.1 0 0 0 0 0 0 0 0 0 0 0 0-0.1 0-0.1-0.1 0 0 0 0 0 0 0 0-0.1 0-0.1-0.1 0 0 0 0 0 0 0 0 0 0-0.1 0 0 0 0 0 0-0.1 0-0.1 0 0-0.1 0 0 0 0 0l-6.4-3.7q0 0 0 0 0 0 0 0-0.1 0-0.1-0.1 0 0 0 0 0 0-0.1 0 0 0 0 0 0 0 0 0 0 0 0 0 0 0 0 0 0 0-0.1 0 0 0 0 0 0 0 0 0 0 0 0 0-0.1 0-0.1 0 0 0 0 0 0 0-0.1 0 0 0 0 0-0.1 0-0.1 0l-8.8 5.1q0.1 0 0.1 0 0 0 0 0 0.1 0 0.2 0 0 0 0 0 0.1 0 0.1 0 0 0 0 0 0.1 0.1 0.2 0.1l6.4 3.7q0.1 0.1 0.2 0.1 0 0 0 0 0.1 0.1 0.2 0.2 0 0 0 0 0 0.1 0.1 0.1 0 0.1 0 0.1 0 0 0 0 0.1 0 0.1 0.1 0 0 0 0 0.2 0.4 0.3 0.7 0 0 0 0 0 0.1 0 0.2 0 0.1 0 0.2 0 0 0 0-0.1 0.1-0.1 0.2-0.1 0.1-0.2 0.1l8.8-5.1q0.1 0 0.2-0.1 0 0 0 0 0-0.1 0-0.1 0 0 0 0 0-0.1 0-0.1 0 0 0.1 0 0 0 0 0 0 0 0-0.1 0 0 0 0 0 0 0 0 0 0 0-0.1 0 0 0 0 0 0 0 0 0 0 0 0z"/>
					<g id="Layer">
						<g id="Layer">
							<path id="Layer" class="s36" d="m37.3 24.9c0.5 0.3 0.9 0.9 0.9 1.5 0 0.5-0.4 0.7-0.9 0.5l-6.4-3.7c-0.5-0.3-0.8-1-0.8-1.5 0-0.5 0.4-0.8 0.8-0.5z"/>
						</g>
					</g>
				</g>
			</g>
		</g>
	</g>
</svg>