<svg version="1.2" xmlns="http://www.w3.org/2000/svg" viewBox="0 0 95 96" width="95" height="96">
	<title>Layer</title>
	<style>
		.s0 { fill: #8390cd } 
		.s1 { fill: #ffaa83 } 
		.s2 { fill: #120f1f } 
		.s3 { fill: #32293a } 
		.s4 { fill: #f29c79 } 
		.s5 { fill: #fe2456 } 
		.s6 { fill: #ff4d75 } 
		.s7 { fill: #f79f7c } 
		.s8 { fill: #723e24 } 
		.s9 { fill: #f77496 } 
		.s10 { fill: #615a8e } 
		.s11 { fill: #484475 } 
		.s12 { fill: #acd9ea } 
		.s13 { fill: #c1e8fa } 
		.s14 { fill: #def6ff } 
		.s15 { fill: #1d96cb } 
		.s16 { fill: #1884aa } 
		.s17 { fill: #feb624 } 
		.s18 { fill: #ffca6c } 
		.s19 { fill: #e03b66 } 
	</style>
	<g id="Layer">
		<g id="-e-step_12">
			<path id="Layer" class="s0" d="m20.2 60.6l-0.2-0.1 34.5-20 40 23.1-19.9 11.6 0.2 0.1-34.5 20-40-23.1z"/>
			<g id="Layer">
				<path id="Layer" class="s1" d="m63.2 32.1c0 0-1.2 12.1-0.8 14.8 0.4 2.6 1.5 16.1 1.5 16.1 0 0 0.2 0.4 1 0.5 1.3 0.1 1.5-0.3 1.5-0.3 0 0 2.5-11.2 1-15.1l1.7-12.9v-1.8c0 0-4.4-0.6-5.9-1.3z"/>
				<path id="Layer" class="s2" d="m63 30.2c0 0-1.9 10-1.3 16.2 0.7 6.2 1.3 13 1.2 16.6-0.1 1.1 4.3 2.4 4.6 0 0.4-3 1.7-11.2-0.1-14.9l2.9-15.9c0 0-4.4 0.1-7.3-2z"/>
				<path id="Layer" class="s1" d="m69.5 33.1c0 0-1.1 12.8-0.7 15.6 0.4 2.8 1.4 17.3 1.4 17.3h2.4c0 0 2.5-12.5 0.9-16l1.6-13.7v-1.9c0 0-4.1-0.6-5.6-1.3z"/>
				<path id="Layer" class="s3" d="m75.7 31c0 0 2.1 3.1 0.5 10.5-1.5 7.3-2 9.5-2 9.5 0 0 0.4 0.9 0 6.8-0.3 5.5-0.3 5.2-0.5 7.8 0 1.1-4.3 1.6-4.5-0.7-0.3-4.7-0.8-17-0.8-17l-1-11.8-4.4-5.9c0 0 9.9 2.8 12.7 0.8z"/>
				<g id="Layer">
					<path id="Layer" class="s1" d="m50.9 26.6c0 0-0.7-0.2-2 0-1.2 0.2-1.5 0.6-2.1 1.1-0.6 0.5-1 0.9-0.8 1.2 0.3 0.3 2 0.4 3-0.1 0.5-0.3 2.3 0.1 2.6 0 0.4-0.1-0.3-2.1-0.7-2.2z"/>
					<path id="Layer" class="s4" d="m51.6 28.8c-0.3 0.1-2.1-0.3-2.6 0-0.7 0.4-1.8 0.5-2.5 0.3q0 0 0 0c0.1-0.3 0.7-0.3 1-0.5 0.3-0.1 1.3-0.4 2-0.7 0.6-0.3 2 0.1 2 0.1h0.1c0.1 0.4 0.2 0.7 0 0.8z"/>
					<path id="Layer" class="s5" d="m62.6 11.6c0 0-2.7-1.9-3.8 1.5-0.7 2.2-0.6 10-1.3 10.9-0.3 0.4-7 2.2-7 2.2 0 0 1.3 0.7 0.5 3 0 0 9.6 0.1 10.5-2.1 1.5-3.8 3.3-12.8 1.1-15.5z"/>
				</g>
				<path id="Layer" class="s6" d="m71.1 12.1c-0.3-0.1-10.5-1.7-11.3-0.7-0.6 0.7-0.5 1.8-0.9 5.2-0.1 1.7 0.1 3.6 1.3 5.1 2.3 2.9 2.4 4.7 2.6 5.6 0.2 1.4-0.2 5.1-0.2 5.1 0 0 7.7 3.3 13.3-1.3 0 0 0.1 0.2-1.5-3.8-3.1-7.8 0.6-13.6-3.3-15.2z"/>
				<g id="Layer">
					<g id="Layer">
						<path id="Layer" class="s7" d="m62.6 9.7c0 0 1 2.1 0.7 3.4-0.2 1.2 1.7 1.2 2.5 0.7 0.7-0.5 1.9-1.4 1.6-2.1-0.4-0.7-1.7-3-1.4-3.9 0.2-1-3.4 1.9-3.4 1.9z"/>
						<path id="Layer" class="s1" d="m65.2 1.9c0 0 3.1 1.9 3.1 4.7-0.1 1.6-1.5 2.9-2.3 3.9-0.8 1-2.8 3.2-4.2 1.7-1.4-1.5-3.7-6.2-2.1-9 1.6-2.7 5.5-1.3 5.5-1.3z"/>
						<path id="Layer" class="s8" d="m61.3 4.1c0 0 0.2 0.5 2.8 1.6 0.9 0.4 1.5 2.8 2 1.9 0.3-0.3 0.9-1 1-0.6 0.9 1.8 0.2 1.4-0.4 2.7-1 2.1 1.1 3.1 1.6 2.7 3.5-3.3 2.5-8 1.1-9.8-1.4-1.8-4-3.7-7.6-1.9-3.1 1.4-2.8 5.2-2.8 5.2 0 0 1.8-0.7 2.3-1.8z"/>
					</g>
				</g>
				<g id="Layer">
					<path id="Layer" class="s1" d="m66.7 31.2c0 0-0.7 0-1.9 0.6-1.1 0.7-1.2 1.2-1.7 1.9-0.4 0.7-0.7 1.2-0.3 1.5 0.3 0.2 2.1-0.4 2.8-1.2 0.4-0.5 2.3-0.8 2.6-1 0.3-0.2-1.1-1.9-1.5-1.8z"/>
					<path id="Layer" class="s4" d="m68.2 33c-0.3 0.2-2.2 0.5-2.6 1-0.5 0.6-1.5 1-2.2 1.2q0-0.1 0-0.1c0-0.3 0.5-0.5 0.7-0.8 0.3-0.2 1.2-0.8 1.7-1.4 0.5-0.5 2-0.6 2-0.6h0.1c0.3 0.3 0.4 0.6 0.3 0.7z"/>
					<path id="Layer" class="s9" d="m71.9 12.8c0 0-2.4-0.7-2.5 1.7-0.1 2.4 3.9 10.6 3.6 11.7-0.2 0.5-6.8 4.7-6.8 4.7 0 0 1.5 0.2 1.6 2.7 0 0 9.3-3.2 9.4-5.7 0.1-4.2-2.3-13.2-5.3-15.1z"/>
				</g>
			</g>
			<g id="Layer">
				<path id="Layer" class="s10" d="m64.1 62.9c0 0 0.1-0.6 0.1-1.3 0 0 1.9 0.8 3.2 0.1 0 0-0.2 0.8 0 1.4 0.3 0.7-3.1 0.6-3.3-0.2z"/>
				<g id="Layer">
					<path id="Layer" class="s10" d="m66.4 63c0 0 1.1 1.8-0.1 2.3-1.2 0.6-1.2-0.3-3.5 1.7-2.2 1.9-4.2 1.1-4.5 0.7-0.8-1 0.4-2 5.4-4.7z"/>
					<path id="Layer" class="s11" d="m66.3 65.3c-1.2 0.7-1.2-0.3-3.5 1.7-2.2 1.9-4.2 1.1-4.5 0.7q-0.1-0.1-0.1-0.2c2.1 0.7 3.2-0.4 4.1-1.1 1-0.8 1.8-1.1 3.2-1.4 1.5-0.3 0.9-1.5 0.9-1.5 0-0.2 0.1-1.4 0.2-1.4 0 1.3 1 2.5-0.3 3.2z"/>
				</g>
				<g id="Layer">
					<path id="Layer" class="s10" d="m72.8 65.5c0 0 1.1 1.7-0.1 2.3-1.3 0.5-1.3-0.3-3.5 1.6-2.3 2-4.4 1.2-4.7 0.8-0.7-1 0.5-2.6 5.6-5.3z"/>
					<path id="Layer" class="s11" d="m72.7 67.8c-1.2 0.6-1.3-0.3-3.5 1.6-2.3 2-4.3 1.2-4.7 0.8q0-0.1 0-0.3c2.1 0.8 3.2-0.3 4.2-1 0.9-0.8 1.7-1.1 3.2-1.4 1.4-0.4 0.9-1.6 0.9-1.6 0-0.2 0-1.4 0.2-1.4 0 1.4 0.9 2.6-0.3 3.3z"/>
				</g>
				<g id="Layer">
					<path id="Layer" class="s12" d="m40.1 87.6q0-0.2 0.1-0.5 0 0 0 0 0.1-0.3 0.2-0.6 0 0 0 0 0.1-0.2 0.3-0.5 0 0 0 0 0.1-0.3 0.3-0.5 0 0 0-0.1 0.2-0.2 0.4-0.4 0 0 0.1 0 0.1-0.2 0.3-0.3 0-0.1 0.1-0.1 0.2-0.2 0.4-0.3 0.2-0.2 0.5-0.2 0-0.1 0-0.1 0.2 0 0.4 0 0 0 0.1 0 0.1-0.1 0.3 0 0 0 0 0 0.2 0 0.4 0.1 0 0 0 0l-1.3-0.7q0-0.1-0.1-0.1 0 0-0.1 0-0.1 0-0.1 0 0 0 0 0 0-0.1 0-0.1-0.1 0-0.2 0-0.1 0-0.1 0-0.1 0-0.1 0 0 0 0 0-0.1 0-0.1 0-0.1 0.1-0.2 0.1-0.1 0-0.1 0 0 0-0.1 0 0 0.1-0.1 0.1-0.1 0-0.3 0.1-0.2 0.2-0.4 0.3-0.1 0.1-0.2 0.2-0.1 0-0.2 0.1 0 0.1-0.1 0.1 0 0.1 0 0.1-0.1 0.1-0.1 0.1-0.1 0.1-0.2 0.2-0.1 0.1-0.1 0.1 0 0 0 0.1 0 0-0.1 0 0 0.1-0.1 0.2-0.1 0.1-0.1 0.2 0 0.1 0 0.1 0 0-0.1 0 0 0.1 0 0.1-0.1 0.1-0.1 0.2-0.1 0.1-0.1 0.2 0 0 0 0 0 0 0 0-0.1 0.1-0.1 0.2-0.1 0.2-0.1 0.3 0 0 0 0.1 0 0 0 0-0.1 0.1-0.1 0.1 0 0.1 0 0.3 0 0-0.1 0.1 0 0.1 0 0.1 0 0 0 0.1 0 0.2 0 0.4c0 0.8 0.2 1.3 0.7 1.5l1.2 0.7c-0.4-0.2-0.7-0.7-0.7-1.4q0-0.3 0.1-0.6 0 0 0-0.1z"/>
					<g id="Layer">
						<path id="Layer" class="s13" d="m42.3 84.3c1.3-0.8 2.3-0.2 2.4 1.3 0 1.5-1.1 3.2-2.4 4-1.2 0.7-2.3 0.1-2.3-1.3 0-1.5 1-3.3 2.3-4z"/>
					</g>
					<g id="Layer">
						<path id="Layer" class="s12" d="m42.3 85.7c0.7-0.4 1.2-0.1 1.2 0.6 0 0.7-0.5 1.6-1.2 2-0.6 0.3-1.1 0.1-1.1-0.7 0-0.7 0.5-1.6 1.1-1.9z"/>
					</g>
				</g>
				<g id="Layer">
					<path id="Layer" class="s12" d="m19.5 76.4q0.1-0.3 0.1-0.5 0-0.1 0-0.1 0.1-0.3 0.2-0.5 0 0 0 0 0.2-0.3 0.3-0.6 0 0 0 0 0.2-0.3 0.4-0.5 0 0 0 0 0.1-0.2 0.3-0.4 0.1-0.1 0.1-0.1 0.1-0.2 0.3-0.3 0.1-0.1 0.1-0.1 0.2-0.2 0.5-0.3 0.2-0.1 0.4-0.2 0 0 0.1 0 0.2-0.1 0.4-0.1 0 0 0 0 0.2 0 0.4 0 0 0 0 0 0.2 0 0.3 0.1 0 0 0 0l-1.2-0.7q-0.1 0-0.2-0.1 0 0-0.1 0 0 0-0.1 0 0 0 0 0 0 0 0 0-0.1 0-0.1 0-0.1-0.1-0.2 0 0 0 0 0-0.1 0-0.1 0 0 0-0.1 0-0.1 0-0.2 0 0 0-0.1 0 0 0.1 0 0.1-0.1 0-0.1 0-0.2 0.1-0.4 0.2-0.2 0.1-0.4 0.3-0.1 0-0.1 0.1-0.1 0.1-0.2 0.2-0.1 0-0.1 0.1-0.1 0-0.1 0-0.1 0.1-0.1 0.1-0.1 0.1-0.2 0.3 0 0 0 0-0.1 0.1-0.1 0.1 0 0 0 0.1-0.1 0.1-0.2 0.2 0 0.1-0.1 0.2 0 0 0 0 0 0 0 0-0.1 0.1-0.1 0.2-0.1 0.1-0.1 0.2 0 0.1-0.1 0.1 0 0 0 0.1 0 0 0 0 0 0.1-0.1 0.2 0 0.1-0.1 0.2 0 0 0 0.1 0 0 0 0 0 0.1 0 0.1-0.1 0.2-0.1 0.3 0 0.1 0 0.2 0 0 0 0 0 0.1-0.1 0.1 0 0.2 0 0.5c0 0.7 0.3 1.2 0.7 1.5l1.2 0.7c-0.4-0.3-0.6-0.8-0.6-1.5q0-0.3 0-0.5 0-0.1 0-0.1z"/>
					<g id="Layer">
						<path id="Layer" class="s13" d="m21.8 73c1.2-0.8 2.3-0.2 2.3 1.3 0 1.5-1 3.3-2.3 4-1.3 0.7-2.3 0.2-2.3-1.3 0-1.5 1-3.3 2.3-4z"/>
					</g>
					<g id="Layer">
						<path id="Layer" class="s12" d="m21.8 74.4c0.6-0.4 1.1-0.1 1.1 0.6 0 0.8-0.5 1.6-1.1 2-0.7 0.4-1.2 0.1-1.2-0.6 0-0.8 0.5-1.6 1.2-2z"/>
					</g>
				</g>
				<g id="Layer">
					<path id="Layer" class="s12" d="m70.2 69.8q0.1-0.2 0.2-0.5 0 0 0 0 0.1-0.3 0.2-0.6 0 0 0 0 0.1-0.2 0.3-0.5 0 0 0 0 0.1-0.3 0.3-0.5 0 0 0-0.1 0.2-0.2 0.4-0.4 0 0 0-0.1 0.2-0.1 0.3-0.2 0.1-0.1 0.2-0.1 0.2-0.2 0.4-0.3 0.2-0.2 0.4-0.2 0.1-0.1 0.1-0.1 0.2 0 0.4-0.1 0 0 0 0 0.2 0 0.4 0.1 0 0 0 0 0.2 0 0.3 0.1 0 0 0 0l-1.2-0.7q-0.1-0.1-0.1-0.1-0.1 0-0.1 0-0.1 0-0.1-0.1 0 0 0 0-0.1 0-0.1 0 0 0-0.1 0-0.1 0-0.2 0 0 0 0 0 0 0-0.1 0 0 0 0 0-0.1 0.1-0.2 0.1-0.1 0-0.1 0-0.1 0-0.1 0-0.1 0.1-0.1 0.1-0.2 0-0.3 0.1-0.3 0.2-0.5 0.3 0 0.1-0.1 0.1-0.1 0.1-0.2 0.2-0.1 0.1-0.1 0.1 0 0.1-0.1 0.1 0 0.1-0.1 0.1-0.1 0.1-0.2 0.2 0 0.1 0 0.1 0 0-0.1 0.1 0 0 0 0-0.1 0.1-0.1 0.2-0.1 0.1-0.2 0.2 0 0 0 0.1 0 0 0 0 0 0.1-0.1 0.1 0 0.1-0.1 0.2 0 0.1-0.1 0.2 0 0 0 0 0 0 0 0 0 0.1-0.1 0.2 0 0.1 0 0.3 0 0-0.1 0.1 0 0 0 0 0 0.1 0 0.1 0 0.1-0.1 0.3 0 0 0 0.1 0 0.1 0 0.1 0 0 0 0.1-0.1 0.2-0.1 0.4c0.1 0.8 0.3 1.3 0.7 1.5l1.3 0.7c-0.5-0.2-0.7-0.7-0.7-1.5q0-0.2 0-0.5 0 0 0-0.1z"/>
					<g id="Layer">
						<path id="Layer" class="s13" d="m72.5 66.5c1.3-0.8 2.3-0.2 2.3 1.3 0 1.4-1 3.2-2.3 4-1.3 0.7-2.3 0.1-2.3-1.4 0-1.4 1-3.2 2.3-3.9z"/>
					</g>
					<g id="Layer">
						<path id="Layer" class="s12" d="m72.5 67.9c0.6-0.4 1.1-0.1 1.1 0.6 0 0.7-0.5 1.6-1.1 2-0.6 0.3-1.1 0-1.1-0.7 0-0.7 0.5-1.6 1.1-1.9z"/>
					</g>
				</g>
				<g id="Layer">
					<path id="Layer" class="s12" d="m74.8 63.1q0 0.1 0 0.3-0.1 0.1-0.1 0.2 0 0.2-0.1 0.3 0 0.1-0.1 0.2 0 0.2-0.1 0.3-0.1 0.1-0.1 0.2-0.1 0.2-0.2 0.3-0.1 0.1-0.2 0.2-0.2 0.2-0.4 0.4-0.1 0.1-0.1 0.2-0.2 0.1-0.3 0.2-0.1 0.1-0.3 0.2-0.1 0.1-0.3 0.2-0.2 0.2-0.3 0.3l-27.3 15.8q-0.4 0.2-0.9 0.4-0.1 0.1-0.3 0.2-0.3 0.1-0.7 0.2-0.1 0.1-0.2 0.1-0.3 0.1-0.5 0.2-0.2 0-0.4 0.1-0.2 0-0.5 0.1-0.1 0-0.3 0-0.5 0.1-1.1 0.2-0.1 0-0.3 0-0.3 0-0.6 0-0.2 0.1-0.4 0.1-0.3 0-0.5 0-0.2 0-0.4-0.1-0.3 0-0.5 0-0.2 0-0.4 0-0.2 0-0.5-0.1-0.2 0-0.4 0-0.2-0.1-0.5-0.1-0.2 0-0.4-0.1-0.2 0-0.5-0.1-0.2-0.1-0.3-0.1-0.5-0.2-1-0.3-0.1-0.1-0.2-0.1-0.6-0.3-1.2-0.6l-12.7-7.3c-1.8-1-2.7-2.4-2.7-3.8v1.5c0 1.4 0.9 2.7 2.7 3.8l12.7 7.3q0.6 0.3 1.3 0.6 0 0 0 0 0.1 0 0.1 0.1 0.5 0.1 1 0.3 0 0 0 0 0.2 0 0.3 0.1 0.3 0 0.5 0.1 0.1 0 0.2 0 0.1 0.1 0.2 0.1 0.3 0 0.5 0.1 0.1 0 0.2 0 0.1 0 0.2 0 0.2 0.1 0.5 0.1 0.1 0 0.2 0 0.1 0 0.2 0 0.2 0 0.5 0 0.1 0 0.2 0.1 0.1 0 0.2 0 0.2 0 0.5-0.1 0.1 0.1 0.2 0 0.1 0 0.2 0 0.3 0 0.6 0 0.1 0 0.3 0 0 0 0 0 0.6-0.1 1.1-0.2 0 0 0 0 0.2 0 0.3 0 0.3-0.1 0.5-0.2 0.2 0 0.4-0.1 0.2 0 0.5-0.1 0 0 0.1 0 0 0 0.1-0.1 0.4-0.1 0.7-0.3 0.2 0 0.3-0.1 0.4-0.2 0.9-0.4l27.2-15.9q0.1 0 0.2 0 0.1-0.1 0.2-0.2 0.2-0.1 0.3-0.2 0.2-0.1 0.3-0.2 0.1-0.1 0.3-0.2 0-0.1 0-0.1 0.1 0 0.1-0.1 0.2-0.2 0.4-0.4 0 0 0.1-0.1 0 0 0-0.1 0.2-0.1 0.3-0.3 0-0.1 0.1-0.1 0-0.1 0-0.1 0.1-0.1 0.1-0.3 0.1-0.1 0.1-0.2 0 0 0 0 0.1-0.2 0.1-0.3 0-0.1 0-0.2 0.1 0 0.1 0 0-0.2 0-0.3 0-0.1 0-0.2 0 0 0-0.1v-1.5q0 0.2 0 0.3z"/>
					<g id="Layer">
						<path id="Layer" class="s14" d="m72.1 59.1c3.6 2 3.6 5.4 0.1 7.5l-27.3 15.8c-3.6 2.1-9.4 2.1-13 0l-12.7-7.3c-3.5-2.1-3.6-5.4 0-7.5l27.3-15.9c3.6-2 9.3-2 12.9 0z"/>
					</g>
				</g>
				<g id="Layer">
					<g id="Layer">
						<path id="Layer" class="s13" d="m50.8 37.8c-0.1-3.6-1.3-6.1-3.4-7.3l-1.2-0.7c2.1 1.2 3.4 3.7 3.4 7.3v14.8l1.2 0.7z"/>
						<path id="Layer" class="s13" d="m40.8 29.2q0.5-0.3 1.1-0.5 0 0 0.1 0 0.4-0.2 0.9-0.3 0.2 0 0.5-0.1 0.3 0 0.6-0.1 0.2 0 0.4 0 0.4 0 0.8 0 0.1 0 0.2 0 0.5 0 0.9 0.1 0.1 0 0.3 0 0.3 0.1 0.7 0.2 0.1 0.1 0.2 0.1 0.4 0.2 0.8 0.4l-1.2-0.7q0 0-0.1 0-0.3-0.2-0.6-0.3-0.1 0-0.1-0.1-0.1 0-0.2 0-0.2-0.1-0.4-0.2-0.2 0-0.3 0-0.1-0.1-0.3-0.1 0 0-0.1 0-0.4-0.1-0.7-0.1-0.1 0-0.1 0-0.1 0-0.2 0-0.3 0-0.6 0-0.1 0-0.2 0-0.2 0-0.4 0-0.1 0.1-0.3 0.1-0.2 0-0.3 0-0.3 0.1-0.5 0.2-0.2 0-0.3 0-0.3 0.1-0.6 0.2-0.1 0-0.1 0-0.4 0.2-0.8 0.3-0.2 0.1-0.3 0.2-0.2 0-0.3 0.1-0.6 0.3-1.2 0.6l-7.3 4.3q-0.6 0.3-1.2 0.7-0.2 0.2-0.4 0.3-0.4 0.3-0.8 0.6-0.2 0.2-0.4 0.3-0.4 0.4-0.7 0.7-0.3 0.2-0.5 0.4-0.1 0.1-0.2 0.2-0.2 0.2-0.3 0.3-0.4 0.4-0.8 0.9-0.2 0.1-0.3 0.3-0.1 0.1-0.2 0.2-0.3 0.3-0.5 0.6-0.2 0.2-0.3 0.4-0.2 0.2-0.3 0.4-0.2 0.2-0.3 0.4-0.2 0.2-0.3 0.4-0.2 0.2-0.4 0.5-0.1 0.2-0.2 0.4 0 0.1-0.1 0.1-0.3 0.6-0.6 1.1-0.1 0-0.1 0.1-0.1 0.1-0.1 0.2-0.2 0.4-0.4 0.8-0.1 0.2-0.2 0.3-0.1 0.2-0.2 0.4-0.1 0.2-0.2 0.3-0.2 0.5-0.4 0.9 0 0.1-0.1 0.2 0 0 0 0-0.2 0.6-0.4 1.2-0.1 0.1-0.1 0.2-0.1 0.2-0.2 0.4-0.1 0.3-0.2 0.6 0 0.2-0.1 0.4-0.1 0.3-0.2 0.5 0 0.2-0.1 0.3 0 0.3-0.1 0.6-0.1 0.3-0.2 0.7 0 0.1 0 0.2-0.1 0.2-0.1 0.4-0.1 0.5-0.2 1 0 0.2 0 0.3-0.1 0.3-0.1 0.6 0 0.3 0 0.5-0.1 0.7-0.1 1.4l0.1 14.8 1.2 0.7-0.1-14.8q0-0.7 0.1-1.4 0-0.2 0-0.5 0.1-0.4 0.1-0.9 0.1-0.5 0.2-1 0.1-0.3 0.1-0.7 0.1-0.3 0.2-0.6 0.1-0.5 0.2-0.9 0.1-0.3 0.2-0.5 0.1-0.5 0.3-1 0.1-0.2 0.2-0.4 0.2-0.7 0.5-1.4 0.1-0.1 0.1-0.2 0.3-0.6 0.6-1.2 0.1-0.2 0.2-0.4 0.3-0.5 0.6-1.1 0-0.1 0.1-0.2 0.4-0.7 0.8-1.3 0.1-0.2 0.2-0.4 0.3-0.4 0.7-0.9 0.1-0.2 0.3-0.5 0.3-0.3 0.6-0.7 0.2-0.3 0.5-0.6 0.2-0.3 0.4-0.5 0.5-0.5 0.9-0.9 0.2-0.3 0.5-0.5 0.2-0.2 0.4-0.5 0.4-0.3 0.7-0.6 0.3-0.1 0.5-0.3 0.4-0.3 0.8-0.6 0.2-0.2 0.4-0.3 0.5-0.4 1.1-0.8l7.4-4.2q0.6-0.4 1.2-0.6 0.1-0.1 0.3-0.1z"/>
					</g>
					<g id="Layer">
						<path id="Layer" class="s12" d="m39.3 29.9c7-4 12.6-0.8 12.7 7.2v14.8l-1.2 0.7v-14.8c-0.1-7.2-5.2-10.2-11.5-6.5l-7.3 4.2c-6.3 3.7-11.4 12.5-11.4 19.7l0.1 14.8-1.2 0.7-0.1-14.8c0-8 5.6-17.7 12.5-21.7z"/>
					</g>
				</g>
				<g id="Layer">
					<path id="Layer" class="s15" d="m39.8 64.1q0-0.1 0-0.1 0 0 0-0.1 0 0 0 0 0-0.1 0.1-0.1 0 0 0-0.1 0 0 0 0 0 0 0 0 0 0 0 0 0-0.1 0-0.1 0 0 0-0.1 0 0 0 0 0-0.1 0-0.1 0 0 0 0 0 0 0 0 0.1 0 0.1-0.1 0 0 0-0.1 0 0 0 0 0 0 0-0.1 0.1 0 0.1 0 0 0 0 0 0 0 0 0 0-0.1 0-0.1 0 0 0-0.1 0.1 0 0.1-0.1 0 0 0 0 0-0.1 0-0.1 0 0 0 0 0.1-0.1 0.1-0.1 0.1-0.1 0.1-0.2 0 0 0 0 0.1 0 0.1 0 0-0.1 0-0.1 0.1 0 0.1-0.1 0 0 0 0 0 0 0 0 0.1 0 0.1 0 0-0.1 0-0.1 0 0 0.1 0 0-0.1 0-0.1 0 0 0.1 0 0-0.1 0-0.1 0 0 0 0 0.1 0 0.1 0 0-0.1 0-0.1 0.1 0 0.1 0 0 0 0.1 0 0 0 0-0.1l10.1-5.8q0 0 0 0 0 0 0.1 0 0 0 0-0.1 0 0 0.1 0 0 0 0 0 0 0 0 0 0 0 0 0 0.1 0 0.1 0 0 0 0 0 0.1 0 0.1 0 0-0.1 0.1-0.1 0 0 0 0 0 0 0 0 0 0 0 0 0 0 0.1 0 0 0 0 0 0.1 0 0.1 0.1 0.1 0 0.1 0 0.1 0 0.1 0l13.9 8.1q-0.1-0.1-0.2-0.1 0 0 0 0-0.1 0-0.3 0 0 0 0 0-0.1 0-0.2 0 0 0 0 0-0.2 0.1-0.3 0.2l-10.1 5.8q-0.1 0.1-0.3 0.2 0 0 0 0-0.1 0.1-0.2 0.2 0 0 0 0-0.1 0.1-0.2 0.3 0 0 0 0 0 0 0 0-0.1 0.1-0.2 0.3 0 0 0 0-0.3 0.5-0.4 1 0 0 0 0 0 0.1 0 0.3 0 0.1 0 0.3 0 0 0 0 0.1 0.2 0.2 0.3 0.1 0.2 0.2 0.2l-13.9-8q-0.1-0.1-0.2-0.2 0 0 0 0 0-0.1 0-0.1-0.1 0-0.1-0.1 0 0 0-0.1 0 0 0 0 0 0 0-0.1 0 0 0 0 0 0 0 0 0 0 0-0.1 0 0 0 0-0.1 0-0.1-0.1 0 0 0 0 0 0 0 0z"/>
					<g id="Layer">
						<g id="Layer">
							<path id="Layer" class="s16" d="m55 69.8c-0.7 0.4-1.3 1.4-1.3 2.3 0 0.8 0.6 1.2 1.3 0.8l10.1-5.9c0.7-0.4 1.3-1.4 1.3-2.3 0-0.8-0.6-1.2-1.3-0.7z"/>
						</g>
					</g>
					<path id="Layer" class="s17" d="m41.6 60.3q0 0 0 0 0-0.1 0-0.1 0 0 0 0 0-0.1 0-0.1 0 0 0-0.1 0 0 0 0 0 0 0 0 0 0 0 0 0 0 0-0.1 0 0 0 0 0.1-0.1 0.1-0.1 0 0 0 0 0 0 0-0.1 0 0 0 0 0 0 0 0 0 0 0-0.1 0 0 0 0 0.1-0.1 0.1-0.1 0 0 0 0 0 0 0 0 0 0 0 0 0-0.1 0-0.1 0 0 0-0.1 0.1 0 0.1 0 0-0.1 0-0.1 0 0 0 0 0 0 0 0 0.1-0.1 0.1-0.2 0.1 0 0.1-0.1 0 0 0 0 0 0 0 0 0.1-0.1 0.1-0.1 0 0 0-0.1 0.1 0 0.1 0 0 0 0 0 0 0 0 0 0 0 0-0.1 0.1 0 0.1 0 0 0 0-0.1 0.1 0 0.1 0 0 0 0 0 0 0 0 0 0.1-0.1 0.1-0.1 0 0 0 0 0.1 0 0.1 0 0-0.1 0-0.1 0 0 0 0l8.8-5q0-0.1 0-0.1 0.1 0 0.1 0 0 0 0 0 0.1 0 0.1 0 0 0 0 0 0 0 0 0 0 0 0.1 0 0-0.1 0-0.1 0 0 0 0 0.1 0 0.1 0 0 0 0 0 0.1 0 0.1 0 0 0 0 0 0 0 0 0 0.1 0 0.1 0 0 0 0.1 0 0 0 0 0 0.1 0.1 0.1 0.1l12.1 7q-0.1-0.1-0.2-0.1 0 0 0 0-0.1 0-0.2 0 0 0 0 0-0.1 0-0.2 0 0 0 0 0-0.2 0.1-0.3 0.1l-8.7 5.1q-0.2 0.1-0.3 0.2 0 0 0 0-0.1 0.1-0.2 0.2 0 0 0 0-0.1 0.1-0.2 0.2 0 0 0 0 0 0 0 0-0.1 0.1-0.1 0.3-0.1 0-0.1 0-0.2 0.4-0.3 0.8 0 0 0 0 0 0.2 0 0.3 0 0.1 0 0.3 0 0 0 0 0.1 0.1 0.2 0.3 0 0.1 0.1 0.1l-12-6.9q-0.1-0.1-0.2-0.2 0 0 0 0 0-0.1 0-0.1 0 0 0-0.1-0.1 0-0.1 0 0-0.1 0-0.1 0 0 0 0 0 0 0 0 0 0 0-0.1 0 0 0 0 0 0 0-0.1 0 0 0 0 0 0 0-0.1 0 0 0 0z"/>
					<g id="Layer">
						<g id="Layer">
							<path id="Layer" class="s18" d="m54.8 65.3c-0.7 0.4-1.2 1.3-1.2 2 0 0.7 0.5 1 1.2 0.7l8.7-5.1c0.7-0.4 1.2-1.3 1.2-2 0-0.7-0.5-1-1.2-0.7z"/>
						</g>
					</g>
					<path id="Layer" class="s6" d="m40.6 57.4q0 0 0-0.1 0 0 0 0 0-0.1 0-0.1 0 0 0 0 0-0.1 0-0.1 0 0 0 0 0 0 0-0.1 0 0 0 0 0.1 0 0.1-0.1 0 0 0 0 0-0.1 0-0.1 0 0 0 0 0 0 0 0 0 0 0-0.1 0 0 0 0 0.1 0 0.1-0.1 0 0 0 0 0-0.1 0-0.1 0 0 0 0 0 0 0 0 0 0 0 0 0-0.1 0.1-0.1 0 0 0-0.1 0 0 0-0.1 0 0 0 0 0.1 0 0.1 0 0 0 0-0.1 0.1-0.1 0.1-0.1 0 0 0 0 0-0.1 0.1-0.1 0 0 0 0 0-0.1 0.1-0.1 0 0 0 0 0-0.1 0-0.1 0 0 0 0 0 0 0 0 0.1 0 0.1 0 0-0.1 0.1-0.1 0 0 0 0 0-0.1 0-0.1 0 0 0.1 0 0 0 0 0 0 0 0.1-0.1 0 0 0 0 0 0 0.1 0 0 0 0 0l8.7-5.1q0.1 0 0.1 0 0 0 0 0 0 0 0.1-0.1 0 0 0 0 0 0 0.1 0 0 0 0 0 0 0 0 0 0 0 0 0 0 0 0.1 0 0 0 0 0 0 0 0.1 0 0 0 0 0 0 0 0 0 0 0 0 0 0 0 0.1 0 0 0 0 0 0.1 0 0.1 0 0 0 0.1 0 0 0 0.1 0l12 7q-0.1 0-0.2-0.1 0 0 0 0-0.1 0-0.2 0 0 0 0 0-0.1 0-0.2 0.1 0 0 0 0-0.1 0-0.2 0.1l-8.8 5.1q-0.1 0-0.2 0.1-0.1 0-0.1 0-0.1 0.1-0.2 0.2 0 0 0 0-0.1 0.1-0.2 0.2 0 0.1 0 0.1 0 0 0 0-0.1 0.1-0.1 0.2 0 0 0 0-0.3 0.4-0.4 0.9 0 0 0 0 0 0.1 0 0.3 0 0.1 0 0.2 0 0 0 0 0.1 0.2 0.2 0.3 0.1 0.1 0.2 0.2l-12-7q-0.2 0-0.2-0.2 0 0-0.1 0 0 0 0-0.1 0 0 0 0 0-0.1 0-0.1-0.1 0-0.1 0 0-0.1 0-0.1 0 0 0 0 0 0 0 0 0 0 0-0.1 0 0 0 0 0 0 0-0.1 0 0 0 0 0 0 0 0z"/>
					<g id="Layer">
						<g id="Layer">
							<g id="Layer">
								<path id="Layer" class="s19" d="m53.8 62.4c-0.7 0.3-1.2 1.2-1.2 2 0 0.7 0.5 1 1.2 0.6l8.7-5c0.7-0.4 1.2-1.3 1.2-2 0-0.8-0.5-1.1-1.2-0.7z"/>
							</g>
						</g>
					</g>
				</g>
				<g id="Layer">
					<path id="Layer" class="s15" d="m22.3 70.9q0 0 0 0 0-0.1 0-0.1 0 0 0-0.1 0 0 0 0 0-0.1 0-0.1 0 0 0 0 0 0 0 0 0 0 0-0.1 0 0 0 0 0-0.1 0-0.1 0.1 0 0.1-0.1 0 0 0 0 0 0 0 0 0 0 0 0 0-0.1 0-0.1 0 0 0-0.1 0 0 0.1 0 0-0.1 0-0.1 0 0 0-0.1 0 0 0 0 0 0 0 0 0 0 0 0 0-0.1 0.1-0.1 0 0 0-0.1 0 0 0.1-0.1 0 0 0 0 0 0 0 0 0-0.1 0.1-0.2 0 0 0.1-0.1 0 0 0 0 0 0 0-0.1 0 0 0.1 0 0 0 0-0.1 0 0 0.1 0 0 0 0 0 0 0 0-0.1 0 0 0 0 0.1 0 0.1 0 0-0.1 0-0.1 0.1 0 0.1-0.1 0 0 0 0 0.1 0 0.1 0 0 0 0 0 0.1-0.1 0.1-0.1 0 0 0 0 0.1 0 0.1-0.1 0 0 0 0l10.1-5.8q0 0 0 0 0.1 0 0.1 0 0-0.1 0.1-0.1 0 0 0 0 0 0 0.1 0 0 0 0 0 0 0 0 0 0 0 0 0 0 0 0.1 0 0-0.1 0-0.1 0.1 0 0.1 0 0 0 0 0 0 0 0 0 0 0 0.1 0 0 0 0 0 0 0 0.1 0 0 0 0.1 0 0 0 0 0.1 0.1 0 0.2 0l13.8 8.1q-0.1-0.1-0.2-0.1 0 0 0 0-0.1 0-0.2 0 0 0 0 0-0.2 0-0.3 0 0 0 0 0-0.1 0.1-0.3 0.1l-10.1 5.9q-0.1 0.1-0.2 0.2 0 0 0 0-0.1 0.1-0.3 0.2 0 0 0 0-0.1 0.1-0.2 0.3 0 0 0 0 0 0 0 0-0.1 0.1-0.2 0.3 0 0 0 0-0.3 0.5-0.4 0.9 0 0.1 0 0.1 0 0.1 0 0.3 0 0.1 0 0.3 0 0 0 0 0.1 0.2 0.2 0.3 0.1 0.2 0.2 0.2l-13.8-8q-0.1-0.1-0.2-0.2 0 0-0.1 0 0-0.1 0-0.1 0-0.1 0-0.1-0.1 0-0.1-0.1 0 0 0 0 0-0.1 0-0.1 0 0 0 0 0 0 0 0 0 0 0-0.1 0 0 0 0 0-0.1 0-0.1 0 0 0 0 0-0.1 0-0.1z"/>
					<g id="Layer">
						<g id="Layer">
							<path id="Layer" class="s16" d="m37.4 76.7c-0.7 0.4-1.3 1.4-1.3 2.3 0 0.8 0.6 1.2 1.3 0.7l10.1-5.8c0.8-0.4 1.4-1.4 1.4-2.3 0-0.8-0.6-1.2-1.4-0.8z"/>
						</g>
					</g>
					<path id="Layer" class="s17" d="m24 67.2q0 0 0 0 0-0.1 0-0.1 0 0 0-0.1 0 0 0 0 0 0 0-0.1 0 0 0 0 0 0 0 0 0.1 0 0.1 0 0-0.1 0-0.1 0 0 0 0 0-0.1 0-0.1 0 0 0-0.1 0 0 0 0 0 0 0 0 0 0 0 0 0-0.1 0.1-0.1 0 0 0 0 0-0.1 0-0.1 0 0 0 0 0-0.1 0-0.1 0 0 0 0 0 0 0 0 0.1 0 0.1-0.1 0 0 0 0 0-0.1 0.1-0.1 0 0 0 0 0 0 0 0 0-0.1 0.1-0.2 0 0 0-0.1 0 0 0 0 0.1 0 0.1-0.1 0 0 0 0 0 0 0.1-0.1 0 0 0 0 0 0 0 0 0 0 0 0 0.1-0.1 0.1-0.1 0 0 0 0 0 0 0.1-0.1 0 0 0 0 0 0 0 0 0.1 0 0.1-0.1 0 0 0 0 0 0 0.1 0 0 0 0-0.1 0 0 0.1 0 0 0 0 0l8.7-5.1q0.1 0 0.1 0 0 0 0 0 0.1 0 0.1 0 0 0 0 0 0.1-0.1 0.1-0.1 0 0 0 0 0 0 0 0 0 0 0 0 0 0 0.1 0 0 0 0 0 0 0 0.1 0 0 0 0 0 0 0 0 0 0 0 0.1 0 0 0 0 0 0.1 0 0.1 0 0 0 0.1 0 0 0 0.1 0.1l12 6.9q-0.1 0-0.2 0 0 0 0 0-0.1 0-0.2 0 0 0 0 0-0.1 0-0.2 0 0 0 0 0-0.1 0.1-0.2 0.1l-8.8 5.1q-0.1 0.1-0.2 0.1 0 0 0 0-0.1 0.1-0.2 0.2-0.1 0-0.1 0.1-0.1 0.1-0.1 0.2 0 0-0.1 0 0 0 0 0 0 0.1-0.1 0.2 0 0.1 0 0.1-0.3 0.4-0.3 0.8-0.1 0.2-0.1 0.3 0 0.1 0.1 0.2 0 0.2 0.1 0.4 0.1 0.1 0.2 0.1l-12-7q-0.1 0-0.2-0.1 0 0 0-0.1-0.1 0-0.1 0 0-0.1 0-0.1 0 0 0-0.1 0 0 0 0 0 0-0.1 0 0.1 0 0 0 0-0.1 0-0.1 0 0 0 0 0-0.1 0-0.1 0 0 0 0 0-0.1 0-0.1 0 0 0 0z"/>
					<g id="Layer">
						<g id="Layer">
							<path id="Layer" class="s18" d="m37.2 72.2c-0.6 0.4-1.2 1.3-1.2 2 0 0.7 0.6 1 1.2 0.7l8.8-5.1c0.6-0.4 1.1-1.3 1.1-2 0-0.7-0.5-1-1.1-0.7z"/>
						</g>
					</g>
					<path id="Layer" class="s6" d="m23 64.3q0-0.1 0-0.1 0 0 0 0 0-0.1 0-0.1 0.1 0 0.1-0.1 0 0 0 0 0 0 0 0 0 0 0-0.1 0 0 0 0 0-0.1 0-0.1 0 0 0-0.1 0 0 0 0 0 0 0 0 0 0 0 0 0 0 0.1-0.1 0 0 0 0 0-0.1 0-0.1 0 0 0-0.1 0 0 0 0 0 0 0 0 0 0 0 0 0.1 0 0.1-0.1 0 0 0 0 0-0.1 0-0.1 0.1 0 0.1-0.1 0 0 0 0 0 0 0 0 0-0.1 0.1-0.1 0-0.1 0-0.1 0.1 0 0.1 0 0-0.1 0-0.1 0 0 0-0.1 0.1 0 0.1 0 0 0 0-0.1 0 0 0 0 0.1 0 0.1 0 0 0 0 0 0 0 0-0.1 0.1 0 0.1 0 0 0 0-0.1 0.1 0 0.1 0 0 0 0 0 0 0 0 0 0.1-0.1 0.1-0.1 0 0 0 0 0.1 0 0.1 0 0 0 0 0l8.8-5.1q0 0 0 0 0 0 0.1 0 0-0.1 0-0.1 0 0 0 0 0.1 0 0.1 0 0 0 0 0 0 0 0 0 0 0 0 0 0.1 0 0.1 0 0 0 0 0 0.1-0.1 0.1-0.1 0 0 0 0 0 0 0 0 0 0 0 0 0.1 0 0.1 0 0 0 0.1 0 0 0 0 0 0.1 0.1 0.1 0.1 0.1 0 0.1 0l12 7q-0.1 0-0.2-0.1 0 0 0 0-0.1 0-0.2 0 0 0 0 0-0.1 0-0.2 0.1 0 0 0 0-0.1 0-0.2 0.1l-8.8 5q-0.1 0.1-0.2 0.2 0 0 0 0-0.1 0.1-0.2 0.2 0 0 0 0-0.1 0.1-0.2 0.2 0 0 0 0 0 0 0 0-0.1 0.2-0.2 0.3 0 0 0 0-0.2 0.4-0.3 0.9 0 0 0 0 0 0.1 0 0.2 0 0.2 0 0.3 0 0 0 0 0 0.2 0.1 0.3 0.1 0.1 0.2 0.2l-12-7q-0.1-0.1-0.2-0.2 0 0 0 0 0 0-0.1-0.1 0 0 0 0 0-0.1 0-0.1 0 0 0-0.1 0 0 0 0 0 0 0 0 0 0 0 0 0 0 0-0.1 0 0-0.1 0 0-0.1 0-0.1 0 0 0 0 0 0 0 0z"/>
					<g id="Layer">
						<g id="Layer">
							<g id="Layer">
								<path id="Layer" class="s19" d="m36.2 69.2c-0.6 0.4-1.1 1.3-1.1 2 0 0.8 0.5 1.1 1.1 0.7l8.8-5c0.6-0.4 1.1-1.3 1.1-2.1 0-0.7-0.5-1-1.1-0.6z"/>
							</g>
						</g>
					</g>
				</g>
				<g id="Layer">
					<path id="Layer" class="s12" d="m73.9 46.4q0 0.1-0.1 0.3 0 0.1 0 0.2 0 0.2-0.1 0.3 0 0.1-0.1 0.2 0 0.2-0.1 0.3-0.1 0.1-0.1 0.2-0.1 0.2-0.3 0.3 0 0.1-0.1 0.2-0.2 0.2-0.4 0.4-0.1 0.1-0.1 0.2-0.2 0.1-0.3 0.2-0.2 0.1-0.3 0.2-0.1 0.1-0.3 0.2-0.2 0.2-0.4 0.3l-27.2 15.8q-0.5 0.3-0.9 0.4-0.1 0.1-0.3 0.2-0.3 0.1-0.7 0.2-0.1 0.1-0.3 0.1-0.2 0.1-0.4 0.2-0.2 0-0.4 0.1-0.2 0-0.5 0.1-0.2 0-0.3 0-0.6 0.1-1.1 0.2-0.1 0-0.3 0-0.3 0-0.6 0.1-0.2 0-0.4 0-0.3 0-0.5 0-0.2 0-0.4 0-0.3-0.1-0.5-0.1-0.2 0-0.4 0-0.3 0-0.5-0.1-0.2 0-0.4 0-0.2-0.1-0.5-0.1-0.2 0-0.4-0.1-0.2 0-0.5-0.1-0.2-0.1-0.4-0.1-0.5-0.2-0.9-0.3-0.1-0.1-0.2-0.1-0.6-0.3-1.2-0.6l-12.7-7.3c-1.8-1-2.7-2.4-2.7-3.8v1.5c0 1.4 0.9 2.7 2.7 3.8l12.7 7.3q0.6 0.3 1.2 0.6 0.1 0 0.1 0 0 0 0.1 0.1 0.4 0.1 1 0.3 0 0 0 0 0.1 0 0.3 0.1 0.2 0.1 0.5 0.1 0.1 0 0.2 0.1 0.1 0 0.2 0 0.3 0 0.5 0.1 0.1 0 0.2 0 0.1 0 0.2 0 0.2 0.1 0.5 0.1 0.1 0 0.2 0 0.1 0 0.2 0 0.2 0 0.5 0 0.1 0.1 0.2 0.1 0.1 0 0.2 0 0.2 0 0.5 0 0.1 0 0.2 0 0.1-0.1 0.2-0.1 0.3 0 0.6 0 0.1 0 0.2 0 0.1 0 0.1 0 0.5-0.1 1.1-0.2 0 0 0 0 0.2 0 0.3 0 0.3-0.1 0.5-0.1 0.2-0.1 0.4-0.1 0.2-0.1 0.4-0.2 0.1 0 0.1 0 0.1 0 0.2-0.1 0.4-0.1 0.7-0.2 0.2-0.1 0.3-0.2 0.4-0.2 0.8-0.4l27.3-15.8q0.1-0.1 0.1-0.1 0.2-0.1 0.3-0.2 0.1-0.1 0.3-0.2 0.1-0.1 0.3-0.2 0.1-0.1 0.2-0.2 0.1 0 0.1-0.1 0.1 0 0.1-0.1 0.2-0.2 0.4-0.4 0 0 0.1-0.1 0 0 0-0.1 0.2-0.1 0.3-0.3 0-0.1 0-0.1 0.1-0.1 0.1-0.1 0-0.1 0.1-0.3 0-0.1 0.1-0.2 0 0 0 0 0-0.1 0.1-0.3 0-0.1 0-0.2 0 0 0 0 0.1-0.2 0.1-0.3 0-0.1 0-0.2 0 0 0-0.1v-1.5q0 0.2 0 0.3z"/>
					<g id="Layer">
						<path id="Layer" class="s14" d="m71.2 42.4c3.6 2 3.6 5.4 0 7.5l-27.2 15.8c-3.6 2.1-9.4 2.1-13 0l-12.7-7.3c-3.6-2.1-3.6-5.4 0-7.5l27.3-15.9c3.5-2 9.3-2 12.9 0z"/>
					</g>
				</g>
				<g id="Layer">
					<path id="Layer" class="s15" d="m40 45.1q0 0 0 0 0 0 0-0.1 0 0 0 0 0-0.1 0-0.1 0 0 0-0.1 0 0 0 0 0 0 0 0 0 0 0 0 0-0.1 0-0.1 0 0 0-0.1 0 0 0.1 0 0-0.1 0-0.1 0 0 0 0 0 0 0 0 0-0.1 0-0.1 0 0 0-0.1 0 0 0.1 0 0-0.1 0-0.1 0 0 0 0 0 0 0 0 0 0 0 0 0-0.1 0-0.1 0-0.1 0.1-0.1 0 0 0-0.1 0 0 0.1 0 0-0.1 0-0.1 0 0 0 0 0-0.1 0.1-0.1 0-0.1 0.1-0.2 0 0 0 0 0 0 0 0 0-0.1 0.1-0.1 0 0 0-0.1 0 0 0.1 0 0 0 0 0 0 0 0 0 0-0.1 0-0.1 0.1 0 0.1 0 0-0.1 0-0.1 0.1 0 0.1 0 0-0.1 0-0.1 0.1 0 0.1 0 0 0 0 0 0-0.1 0.1-0.1 0 0 0 0 0.1 0 0.1 0 0 0 0-0.1l10.1-5.8q0 0 0 0 0.1 0 0.1 0 0-0.1 0.1-0.1 0 0 0 0 0 0 0.1 0 0 0 0 0 0 0 0 0 0 0 0 0 0 0 0.1 0 0 0 0 0 0.1-0.1 0.1-0.1 0 0 0 0 0 0 0 0 0 0 0 0 0.1 0 0.1 0 0 0 0.1 0 0 0 0.1 0 0 0.1 0 0.1 0.1 0 0.2 0l13.8 8.1q-0.1-0.1-0.2-0.1 0 0 0 0-0.1 0-0.2 0 0 0 0 0-0.2 0-0.3 0 0 0 0 0-0.1 0.1-0.3 0.2l-10.1 5.8q-0.1 0.1-0.2 0.2 0 0 0 0-0.2 0.1-0.3 0.2 0 0 0 0-0.1 0.1-0.2 0.3 0 0 0 0 0 0 0 0-0.1 0.1-0.2 0.3 0 0 0 0-0.3 0.5-0.4 1 0 0 0 0 0 0.1 0 0.3 0 0.1 0 0.3 0 0 0 0 0.1 0.2 0.2 0.3 0.1 0.2 0.2 0.2l-13.8-8q-0.2-0.1-0.2-0.2-0.1 0-0.1 0 0-0.1 0-0.1 0-0.1 0-0.1-0.1 0-0.1-0.1 0 0 0 0 0 0 0-0.1 0 0 0 0 0 0 0 0 0 0 0-0.1 0 0 0 0 0 0 0-0.1 0 0 0 0 0 0 0-0.1z"/>
					<g id="Layer">
						<g id="Layer">
							<path id="Layer" class="s16" d="m55.1 50.9c-0.7 0.4-1.3 1.4-1.3 2.3 0 0.8 0.6 1.2 1.3 0.8l10.1-5.9c0.8-0.4 1.4-1.4 1.4-2.3 0-0.8-0.6-1.2-1.4-0.7z"/>
						</g>
					</g>
					<path id="Layer" class="s17" d="m41.7 41.4q0 0 0 0 0-0.1 0-0.1 0 0 0 0 0-0.1 0-0.1 0 0 0-0.1 0 0 0 0 0 0 0 0 0 0 0.1 0 0 0 0-0.1 0 0 0 0 0-0.1 0-0.1 0 0 0 0 0 0 0-0.1 0 0 0 0 0 0 0 0 0 0 0.1-0.1 0 0 0 0 0-0.1 0-0.1 0 0 0 0 0 0 0 0 0 0 0 0 0-0.1 0-0.1 0.1 0 0.1-0.1 0 0 0 0 0-0.1 0.1-0.1 0 0 0 0 0 0 0 0 0-0.1 0.1-0.2 0 0 0-0.1 0 0 0 0 0.1 0 0.1-0.1 0 0 0 0 0 0 0.1-0.1 0 0 0 0 0 0 0 0 0 0 0 0 0.1 0 0.1-0.1 0 0 0 0 0 0 0.1-0.1 0 0 0 0 0 0 0 0 0.1 0 0.1 0 0-0.1 0-0.1 0 0 0.1 0 0 0 0-0.1 0 0 0.1 0 0 0 0 0l8.7-5q0.1-0.1 0.1-0.1 0 0 0 0 0.1 0 0.1 0 0 0 0 0 0.1 0 0.1-0.1 0 0 0 0 0 0 0 0 0 0 0 0 0 0 0.1 0 0 0 0 0 0 0 0.1 0 0 0 0 0 0 0 0 0 0 0 0.1 0 0 0 0 0 0.1 0 0.1 0 0 0 0.1 0 0 0 0.1 0.1l12 7q-0.1-0.1-0.2-0.1 0 0 0 0-0.1 0-0.2 0 0 0 0 0-0.1 0-0.2 0 0 0 0 0-0.1 0.1-0.2 0.1l-8.8 5.1q-0.1 0.1-0.2 0.2 0 0 0 0-0.1 0.1-0.2 0.2-0.1 0-0.1 0-0.1 0.1-0.1 0.2-0.1 0-0.1 0 0 0 0 0 0 0.1-0.1 0.3 0 0 0 0-0.3 0.4-0.3 0.8 0 0 0 0-0.1 0.2-0.1 0.3 0 0.1 0.1 0.2 0 0.1 0 0.1 0 0.1 0.1 0.3 0.1 0.1 0.2 0.1l-12-6.9q-0.1-0.1-0.2-0.2 0 0 0 0-0.1-0.1-0.1-0.1 0 0 0-0.1 0 0 0 0 0-0.1 0-0.1-0.1 0-0.1 0 0 0 0 0 0 0 0-0.1 0 0 0 0 0 0 0-0.1 0 0 0 0 0 0 0-0.1 0 0 0 0z"/>
					<g id="Layer">
						<g id="Layer">
							<path id="Layer" class="s18" d="m54.9 46.4c-0.6 0.4-1.2 1.3-1.2 2 0 0.7 0.6 1 1.2 0.7l8.8-5.1c0.6-0.4 1.1-1.3 1.1-2 0-0.7-0.5-1-1.1-0.7z"/>
						</g>
					</g>
					<path id="Layer" class="s6" d="m40.7 38.5q0 0 0-0.1 0 0 0 0 0-0.1 0-0.1 0.1 0 0.1 0 0-0.1 0-0.1 0 0 0 0 0 0 0-0.1 0 0 0 0 0-0.1 0-0.1 0 0 0 0 0-0.1 0-0.1 0 0 0 0 0 0 0 0 0 0 0.1-0.1 0 0 0 0 0-0.1 0-0.1 0 0 0 0 0-0.1 0-0.1 0 0 0 0 0 0 0 0 0.1 0 0.1 0 0-0.1 0-0.1 0 0 0-0.1 0.1 0 0.1-0.1 0 0 0 0 0 0 0 0 0-0.1 0.1-0.1 0-0.1 0-0.1 0.1 0 0.1 0 0-0.1 0-0.1 0 0 0 0 0.1-0.1 0.1-0.1 0 0 0-0.1 0 0 0 0 0 0 0.1 0 0 0 0 0 0 0 0 0 0.1-0.1 0.1-0.1 0 0 0 0 0.1-0.1 0.1-0.1 0 0 0 0 0 0 0 0 0.1 0 0.1-0.1 0 0 0 0 0.1 0 0.1 0 0 0 0 0l8.8-5.1q0 0 0 0 0 0 0.1 0 0 0 0-0.1 0 0 0 0 0.1 0 0.1 0 0 0 0 0 0 0 0 0 0 0 0 0 0.1 0 0.1 0 0 0 0 0 0.1 0 0.1 0 0 0 0 0 0 0 0 0 0 0 0 0 0.1-0.1 0.1-0.1 0 0 0.1 0.1 0 0 0 0 0.1 0 0.1 0 0 0 0.1 0l12 7q-0.1 0-0.2-0.1 0 0 0 0-0.1 0-0.2 0 0 0 0 0-0.1 0-0.2 0.1 0 0 0 0-0.1 0-0.2 0.1l-8.8 5.1q-0.1 0-0.2 0.1 0 0 0 0-0.1 0.1-0.2 0.2 0 0 0 0-0.1 0.1-0.2 0.2 0 0.1 0 0.1 0 0 0 0-0.1 0.1-0.2 0.2 0 0 0 0-0.2 0.4-0.3 0.9 0 0 0 0 0 0.1 0 0.3 0 0.1 0 0.2 0 0 0 0 0 0.2 0.1 0.3 0.1 0.1 0.2 0.2l-12-7q-0.1-0.1-0.2-0.2 0 0 0 0 0 0-0.1-0.1 0 0 0 0 0-0.1 0-0.1 0 0 0 0 0-0.1 0-0.1 0 0 0 0 0 0 0 0 0 0 0-0.1-0.1 0-0.1 0 0 0 0-0.1 0 0 0 0 0 0 0 0z"/>
					<g id="Layer">
						<g id="Layer">
							<g id="Layer">
								<path id="Layer" class="s19" d="m53.9 43.5c-0.6 0.3-1.1 1.2-1.1 2 0 0.7 0.5 1 1.1 0.6l8.8-5c0.6-0.4 1.1-1.3 1.1-2 0-0.8-0.5-1.1-1.1-0.7z"/>
							</g>
						</g>
					</g>
				</g>
				<g id="Layer">
					<path id="Layer" class="s15" d="m22.4 52q0 0 0 0 0-0.1 0-0.1 0 0 0-0.1 0 0 0 0 0-0.1 0-0.1 0 0 0 0 0 0 0 0 0 0 0-0.1 0 0 0.1 0 0-0.1 0-0.1 0 0 0-0.1 0 0 0 0 0 0 0 0 0 0 0 0 0-0.1 0-0.1 0 0 0.1-0.1 0 0 0 0 0-0.1 0-0.1 0 0 0-0.1 0 0 0 0 0 0 0 0 0.1 0 0.1 0 0-0.1 0-0.1 0 0 0-0.1 0.1 0 0.1-0.1 0 0 0 0 0 0 0 0 0.1-0.1 0.1-0.2 0 0 0.1-0.1 0 0 0 0 0 0 0.1-0.1 0 0 0 0 0 0 0.1-0.1 0 0 0 0 0 0 0 0 0-0.1 0-0.1 0 0 0.1 0 0 0 0 0 0.1-0.1 0.1-0.1 0 0 0-0.1 0.1 0 0.1 0 0 0 0 0 0 0 0.1 0 0-0.1 0-0.1 0 0 0.1 0 0 0 0-0.1 0 0 0 0l10.1-5.8q0.1 0 0.1 0 0 0 0 0 0.1-0.1 0.1-0.1 0 0 0 0 0.1 0 0.1 0 0 0 0 0 0 0 0 0 0 0 0.1 0 0 0 0-0.1 0 0 0.1 0 0 0 0 0 0 0 0.1 0 0 0 0 0 0 0 0 0 0 0 0 0 0.1 0 0.1 0 0.1 0 0.1 0 0 0 0.1 0.1 0 0 0.1 0l13.8 8q-0.1 0-0.2 0 0 0 0 0-0.1 0-0.2 0 0 0 0 0-0.1 0-0.2 0-0.1 0-0.1 0-0.1 0.1-0.2 0.1l-10.1 5.9q-0.2 0.1-0.3 0.2 0 0 0 0-0.1 0.1-0.2 0.2 0 0 0 0-0.2 0.1-0.3 0.3 0 0 0 0 0 0 0 0-0.1 0.1-0.2 0.3 0 0 0 0-0.2 0.4-0.3 0.9 0 0.1 0 0.1-0.1 0.1 0 0.3 0 0.1 0 0.3 0 0 0 0 0 0.2 0.1 0.3 0.1 0.2 0.2 0.2l-13.8-8q-0.1-0.1-0.2-0.2 0 0 0 0-0.1-0.1-0.1-0.1 0-0.1 0-0.1 0 0 0-0.1 0 0-0.1 0 0-0.1 0-0.1 0 0 0 0 0 0 0 0 0 0 0-0.1 0 0 0 0 0-0.1 0-0.1 0 0 0-0.1 0 0 0 0z"/>
					<g id="Layer">
						<g id="Layer">
							<path id="Layer" class="s16" d="m37.6 57.8c-0.8 0.4-1.4 1.4-1.4 2.3 0 0.8 0.6 1.2 1.4 0.7l10.1-5.8c0.7-0.4 1.3-1.5 1.3-2.3 0-0.8-0.6-1.2-1.3-0.8z"/>
						</g>
					</g>
					<path id="Layer" class="s17" d="m24.2 48.3q0 0 0 0 0-0.1 0-0.1 0 0 0-0.1 0 0 0 0 0 0 0-0.1 0 0 0 0 0 0 0 0 0 0 0 0 0-0.1 0-0.1 0 0 0-0.1 0 0 0 0 0 0 0-0.1 0 0 0 0 0.1 0 0 0 0.1 0 0.1 0 0-0.1 0-0.1 0 0 0-0.1 0 0 0 0 0 0 0.1-0.1 0 0 0 0 0 0 0 0 0 0 0 0 0-0.1 0-0.1 0 0 0 0 0.1-0.1 0.1-0.1 0 0 0 0 0 0 0 0 0-0.1 0.1-0.2 0 0 0.1-0.1 0 0 0 0 0 0 0-0.1 0 0 0.1 0 0 0 0-0.1 0 0 0.1 0 0 0 0 0 0 0 0 0 0-0.1 0-0.1 0 0 0 0 0.1 0 0.1-0.1 0 0 0.1 0 0 0 0 0 0 0 0-0.1 0 0 0.1 0 0 0 0 0 0 0 0.1-0.1 0 0 0 0 0 0 0 0l8.8-5.1q0 0 0 0 0 0 0.1 0 0 0 0 0 0 0 0.1 0 0-0.1 0-0.1 0 0 0 0 0 0 0 0 0 0 0.1 0 0 0 0 0 0 0 0.1 0 0 0 0 0 0 0 0 0 0 0 0.1 0 0 0 0 0 0 0 0.1 0 0 0 0 0 0.1 0 0.1 0 0.1 0 0.1 0.1l12 6.9q-0.1 0-0.1 0-0.1 0 0 0-0.1 0-0.2 0 0 0-0.1 0-0.1 0-0.2 0 0 0 0 0-0.1 0.1-0.2 0.1l-8.8 5.1q-0.1 0.1-0.2 0.1 0 0 0 0-0.1 0.1-0.2 0.2 0 0 0 0.1-0.1 0.1-0.2 0.2 0 0 0 0 0 0 0 0-0.1 0.1-0.2 0.2 0 0 0 0.1-0.2 0.4-0.3 0.8 0 0.1 0 0.3 0 0.1 0 0.2 0 0 0 0 0 0.2 0.1 0.4 0.1 0.1 0.2 0.1l-12-7q-0.1 0-0.2-0.1 0 0 0-0.1 0 0 0 0-0.1-0.1-0.1-0.1 0 0 0-0.1 0 0 0 0 0 0 0 0 0 0 0 0 0-0.1 0-0.1 0 0 0 0 0-0.1 0-0.1 0 0 0 0 0-0.1 0-0.1 0 0 0 0z"/>
					<g id="Layer">
						<g id="Layer">
							<path id="Layer" class="s18" d="m37.3 53.3c-0.6 0.4-1.1 1.3-1.1 2 0 0.7 0.5 1 1.1 0.7l8.8-5.1c0.6-0.4 1.2-1.3 1.2-2 0-0.7-0.6-1-1.2-0.7z"/>
						</g>
					</g>
					<path id="Layer" class="s6" d="m23.2 45.4q0-0.1 0-0.1 0 0 0 0 0-0.1 0-0.1 0 0 0-0.1 0 0 0 0 0 0 0 0 0 0 0-0.1 0 0 0 0 0-0.1 0-0.1 0 0 0.1-0.1 0 0 0 0 0 0 0 0 0 0 0 0 0-0.1 0-0.1 0 0 0 0 0-0.1 0-0.1 0 0 0.1-0.1 0 0 0 0 0 0 0 0 0 0 0 0 0 0 0-0.1 0 0 0 0 0-0.1 0.1-0.1 0 0 0-0.1 0 0 0 0 0 0 0 0 0.1-0.1 0.1-0.1 0-0.1 0.1-0.1 0 0 0 0 0-0.1 0-0.1 0.1 0 0.1-0.1 0 0 0 0 0 0 0.1-0.1 0 0 0 0 0 0 0 0 0 0 0 0 0 0 0.1-0.1 0 0 0 0 0 0 0.1-0.1 0 0 0 0 0 0 0 0 0 0 0.1 0 0-0.1 0-0.1 0 0 0.1 0 0 0 0 0 0 0 0 0l8.8-5.1q0 0 0 0 0.1 0 0.1-0.1 0 0 0 0 0.1 0 0.1 0 0 0 0 0 0 0 0 0 0 0 0 0 0.1 0 0.1 0 0 0 0 0 0 0 0.1-0.1 0 0 0 0 0 0 0.1 0 0 0 0 0 0 0 0 0 0 0 0 0 0.1 0 0.1 0 0 0 0.1 0 0 0.1 0 0.1 0.1 0 0.1 0l12 7q0-0.1-0.1-0.1 0 0 0 0-0.1 0-0.2 0 0 0 0 0-0.1 0-0.2 0.1 0 0-0.1 0-0.1 0-0.2 0.1l-8.7 5q-0.2 0.1-0.3 0.2 0 0 0 0-0.1 0.1-0.2 0.2 0 0 0 0-0.1 0.1-0.2 0.2 0 0 0 0 0 0 0 0-0.1 0.2-0.2 0.3 0 0 0 0-0.2 0.4-0.3 0.9 0 0 0 0 0 0.1 0 0.2 0 0.2 0 0.3 0 0 0 0 0.1 0.2 0.2 0.3 0 0.1 0.1 0.2l-12-7q-0.1-0.1-0.2-0.2 0 0 0 0 0 0 0-0.1 0 0-0.1 0 0-0.1 0-0.1 0 0 0-0.1 0 0 0 0 0 0 0 0 0 0 0 0 0 0 0-0.1 0 0 0 0 0-0.1 0-0.1 0 0 0 0 0 0 0 0z"/>
					<g id="Layer">
						<g id="Layer">
							<g id="Layer">
								<path id="Layer" class="s19" d="m36.3 50.3c-0.6 0.4-1.1 1.3-1.1 2 0 0.8 0.5 1.1 1.2 0.7l8.7-5.1c0.7-0.3 1.2-1.2 1.2-2 0-0.7-0.5-1-1.2-0.6z"/>
							</g>
						</g>
					</g>
				</g>
				<g id="Layer">
					<g id="Layer">
						<path id="Layer" class="s13" d="m72.5 49.5c0-3.6-1.3-6.1-3.3-7.3l-1.2-0.7c2 1.2 3.3 3.7 3.3 7.3l0.1 14.8 1.2 0.7z"/>
						<path id="Layer" class="s13" d="m62.5 40.9q0.6-0.3 1.1-0.5 0.1 0 0.1 0 0.5-0.1 0.9-0.2 0.3-0.1 0.5-0.2 0.4 0 0.7-0.1 0.2 0 0.4 0 0.4 0 0.8 0 0.1 0 0.1 0 0.5 0 1 0.1 0.1 0 0.2 0.1 0.4 0 0.7 0.2 0.1 0 0.2 0 0.4 0.2 0.8 0.4l-1.2-0.7q0 0 0 0-0.3-0.2-0.7-0.3 0 0-0.1-0.1-0.1 0-0.2 0-0.2-0.1-0.3-0.1-0.2-0.1-0.4-0.1-0.1-0.1-0.2-0.1-0.1 0-0.1 0-0.4-0.1-0.8-0.1 0 0 0 0-0.1 0-0.2 0-0.3 0-0.6 0-0.1 0-0.2 0-0.2 0-0.4 0.1-0.2 0-0.4 0-0.1 0-0.3 0.1-0.2 0-0.5 0.1-0.1 0-0.3 0-0.3 0.1-0.6 0.2 0 0-0.1 0-0.4 0.2-0.7 0.3-0.2 0.1-0.4 0.2-0.1 0-0.2 0.1-0.6 0.3-1.2 0.6l-7.4 4.3q-0.6 0.3-1.2 0.7-0.2 0.2-0.4 0.3-0.4 0.3-0.8 0.6-0.2 0.2-0.4 0.4-0.3 0.3-0.7 0.6-0.2 0.2-0.4 0.4-0.2 0.1-0.3 0.2-0.1 0.2-0.3 0.3-0.4 0.4-0.8 0.9-0.1 0.1-0.3 0.3-0.1 0.1-0.2 0.2-0.2 0.3-0.5 0.6-0.1 0.2-0.3 0.4-0.1 0.2-0.2 0.4-0.2 0.2-0.4 0.4-0.1 0.2-0.2 0.4-0.2 0.2-0.4 0.5-0.1 0.2-0.2 0.4-0.1 0.1-0.1 0.2-0.4 0.5-0.7 1 0 0.1 0 0.1-0.1 0.1-0.2 0.2-0.2 0.4-0.4 0.8-0.1 0.2-0.2 0.3-0.1 0.2-0.2 0.4 0 0.2-0.1 0.4-0.2 0.4-0.4 0.8-0.1 0.1-0.1 0.2 0 0 0 0.1-0.3 0.5-0.5 1.1 0 0.1-0.1 0.2 0 0.2-0.1 0.4-0.1 0.3-0.2 0.6-0.1 0.2-0.2 0.4 0 0.3-0.1 0.5-0.1 0.2-0.1 0.3-0.1 0.3-0.2 0.6 0 0.3-0.1 0.7 0 0.1-0.1 0.2 0 0.2 0 0.4-0.1 0.6-0.2 1.1 0 0.1-0.1 0.2 0 0.3 0 0.6-0.1 0.3-0.1 0.5 0 0.7 0 1.4v14.8l1.2 0.7v-14.8q0-0.7 0-1.4 0-0.2 0.1-0.5 0-0.4 0.1-0.9 0-0.5 0.1-1 0.1-0.3 0.2-0.6 0.1-0.4 0.1-0.7 0.1-0.4 0.3-0.9 0.1-0.2 0.1-0.5 0.2-0.5 0.4-1 0-0.2 0.1-0.4 0.3-0.7 0.6-1.4 0-0.1 0.1-0.2 0.2-0.6 0.5-1.2 0.1-0.2 0.2-0.4 0.3-0.5 0.6-1.1 0.1-0.1 0.2-0.2 0.3-0.7 0.7-1.3 0.2-0.2 0.3-0.4 0.3-0.4 0.6-0.9 0.2-0.2 0.4-0.4 0.2-0.4 0.5-0.8 0.3-0.3 0.5-0.6 0.3-0.2 0.5-0.5 0.4-0.5 0.8-0.9 0.3-0.3 0.6-0.5 0.2-0.2 0.4-0.4 0.3-0.4 0.7-0.6 0.2-0.2 0.4-0.4 0.4-0.3 0.8-0.6 0.2-0.1 0.4-0.3 0.6-0.4 1.2-0.7l7.4-4.3q0.6-0.3 1.1-0.6 0.2-0.1 0.3-0.1z"/>
					</g>
					<g id="Layer">
						<path id="Layer" class="s12" d="m61.1 41.6c6.9-4 12.6-0.8 12.6 7.2l0.1 14.8-1.2 0.7-0.1-14.8c0-7.2-5.1-10.2-11.4-6.5l-7.4 4.2c-6.3 3.7-11.4 12.5-11.3 19.7v14.8l-1.2 0.7v-14.8c-0.1-8 5.6-17.7 12.5-21.7z"/>
					</g>
				</g>
			</g>
		</g>
	</g>
</svg>