<svg version="1.2" xmlns="http://www.w3.org/2000/svg" viewBox="0 0 104 105" width="104" height="105">
	<title>Layer</title>
	<style>
		.s0 { fill: #8390cd } 
		.s1 { fill: #c1e8fa } 
		.s2 { fill: #def6ff } 
		.s3 { fill: #27202d } 
		.s4 { fill: #f74c72 } 
		.s5 { fill: #f7668b } 
		.s6 { fill: #feb623 } 
		.s7 { fill: #e29813 } 
		.s8 { fill: #ff5138 } 
		.s9 { fill: #e83421 } 
		.s10 { fill: #ffaa83 } 
		.s11 { fill: #615a8e } 
		.s12 { fill: #484475 } 
		.s13 { fill: #120f1f } 
		.s14 { fill: #32293a } 
		.s15 { fill: #f29c79 } 
		.s16 { fill: #2686bc } 
		.s17 { fill: #3998d8 } 
		.s18 { fill: #f79f7c } 
		.s19 { fill: #723e24 } 
		.s20 { fill: #4fb4ed } 
		.s21 { fill: #82c2de } 
	</style>
	<g id="Layer">
		<g id="-e-step_14">
			<g id="Layer">
				<path id="Layer" class="s0" d="m104.1 90.5l-24.5 14.2-79.4-45.8 24.4-14.2z"/>
			</g>
			<g id="Layer">
				<path id="Layer" class="s1" d="m86 92.7q0 0 0 0-0.1 0.3-0.3 0.6 0 0 0 0.1-0.2 0.2-0.5 0.5 0 0 0 0-0.3 0.3-0.7 0.5-0.4 0.2-0.8 0.4-0.1 0-0.2 0.1-0.3 0-0.6 0.1-0.2 0.1-0.5 0.2-0.4 0-0.7 0.1-0.1 0-0.2 0-0.5 0-0.9 0-0.1 0.1-0.2 0.1-0.5-0.1-0.9-0.1-0.1 0-0.2 0-0.4-0.1-0.9-0.2-0.1 0-0.1 0-0.4-0.1-0.8-0.3-0.1 0-0.2 0-0.4-0.2-0.8-0.4c-1.1-0.6-1.7-1.5-1.7-2.3v1.4c0 0.9 0.6 1.7 1.7 2.4q0.4 0.2 0.8 0.4 0 0 0 0 0.1 0 0.2 0 0.2 0.1 0.5 0.2 0.1 0 0.3 0.1 0 0 0.1 0 0.1 0 0.2 0 0.2 0.1 0.5 0.1 0.1 0 0.2 0.1 0.1 0 0.2 0 0.1 0 0.2 0 0.3 0 0.5 0 0.1 0 0.2 0 0.1 0 0.2 0 0.1 0 0.2 0 0.3 0 0.6 0 0.1 0 0.1 0 0.1 0 0.2-0.1 0.2 0 0.5 0 0.1 0 0.2-0.1 0.3 0 0.5-0.1 0.2 0 0.3-0.1 0.1 0 0.3-0.1 0.1 0 0.2-0.1 0.4-0.1 0.8-0.3 0-0.1 0-0.1 0.4-0.2 0.7-0.4 0 0 0-0.1 0 0 0.1 0 0.2-0.2 0.3-0.4 0 0 0.1-0.1 0 0 0-0.1 0.1 0 0.1-0.1 0.1-0.2 0.2-0.3 0-0.1 0-0.1 0 0 0 0 0.1-0.2 0.1-0.3 0-0.1 0-0.3 0 0 0 0v-1.5q0 0.3-0.1 0.6z"/>
				<g id="Layer">
					<path id="Layer" class="s2" d="m84.5 89.8c2.2 1.2 2.2 3.3 0 4.6-2.2 1.3-5.8 1.3-8 0-2.2-1.3-2.2-3.4 0-4.6 2.2-1.3 5.7-1.3 8 0z"/>
				</g>
			</g>
			<g id="Layer">
				<path id="Layer" class="s1" d="m79.6 37.4h1.8v55.4h-1.8z"/>
			</g>
			<g id="Layer">
				<path id="Layer" class="s1" d="m29.6 57.7q0 0 0 0.1-0.1 0.2-0.2 0.5-0.1 0-0.1 0.1-0.2 0.3-0.5 0.5 0 0 0 0.1-0.3 0.2-0.7 0.4-0.4 0.2-0.8 0.4-0.1 0.1-0.2 0.1-0.3 0.1-0.5 0.2-0.3 0-0.6 0.1-0.3 0.1-0.7 0.1-0.1 0-0.2 0-0.4 0.1-0.9 0.1-0.1 0-0.2 0-0.4 0-0.9-0.1-0.1 0-0.1 0-0.5 0-1-0.1 0-0.1-0.1-0.1-0.4-0.1-0.8-0.2-0.1 0-0.1-0.1-0.5-0.1-0.9-0.4c-1.1-0.6-1.7-1.5-1.7-2.3v1.5c0 0.8 0.6 1.7 1.7 2.3q0.4 0.2 0.8 0.4 0 0 0.1 0 0 0 0.1 0.1 0.2 0.1 0.5 0.1 0.1 0.1 0.3 0.1 0.1 0 0.1 0 0.1 0.1 0.2 0.1 0.3 0 0.5 0.1 0.2 0 0.3 0 0 0 0.1 0 0.1 0 0.2 0 0.3 0.1 0.6 0.1 0 0 0.1 0 0.1 0 0.2 0 0.1 0 0.2 0 0.3 0 0.7-0.1 0 0 0 0 0.1 0 0.2 0 0.2 0 0.5-0.1 0.1 0 0.2 0 0.3-0.1 0.6-0.2 0.1 0 0.3 0 0.1-0.1 0.2-0.1 0.1-0.1 0.2-0.1 0.4-0.2 0.8-0.4 0 0 0.1 0 0.3-0.2 0.6-0.5 0 0 0 0 0.1 0 0.1-0.1 0.2-0.1 0.3-0.3 0.1-0.1 0.1-0.1 0-0.1 0.1-0.1 0-0.1 0.1-0.2 0.1-0.1 0.1-0.3 0 0 0 0 0-0.1 0-0.1 0.1-0.1 0.1-0.2 0-0.2 0-0.3 0-0.1 0-0.1v-1.5q0 0.3-0.1 0.6z"/>
				<g id="Layer">
					<path id="Layer" class="s2" d="m28.1 54.8c2.2 1.3 2.2 3.4 0 4.6-2.2 1.3-5.8 1.3-8 0-2.2-1.2-2.2-3.3 0-4.6 2.2-1.3 5.8-1.3 8 0z"/>
				</g>
			</g>
			<g id="Layer">
				<path id="Layer" class="s1" d="m23.2 2.4h1.8v55.5h-1.8z"/>
			</g>
			<g id="Layer">
				<g id="Layer">
					<path id="Layer" class="s3" d="m28.1 18q1.3-0.7 2.6-1.3-0.2 0.4-0.5 0.7-1.1 0.5-2.1 1.1-1 0.5-1.8 1.1-0.3 0-0.5 0 0.9-0.7 1.9-1.3 0.2-0.1 0.4-0.2 0 0 0-0.1z"/>
				</g>
				<g id="Layer">
					<path id="Layer" class="s3" d="m27.4 12q0.1 0 0.2-0.1c0.8-0.4 1.3 0.1 1.4 0.2l-0.3 0.4c0 0-0.5-0.4-1.2-0.1q0 0-0.1 0-0.4 0.3-0.9 0.9c-0.3 0.6-0.8 1.6-0.6 2.3 0.1 0.6 0.8 0.8 2 0.4h0.2v2.1q-0.2 0.1-0.4 0.2v-1.8q-1.9 0.6-2.2-0.6c-0.2-0.9 0.4-2.2 0.8-2.8q0.5-0.8 1.1-1.1z"/>
				</g>
				<g id="Layer">
					<g id="Layer">
						<path id="Layer" class="s4" d="m32 14.9l3.3-0.8c6.7-0.5 7.8 4.5 7.9 4.8l-4.4 4.6-2.4-0.7 0.5 20.7-15.9 8.9v-20.5l-2 3.5-3.8 0.3 0.8-5.1c1.6-5.9 8.7-11.1 9.1-11.3q0.3 0.2 0.7 0.3 0.2 0 0.5 0c0.6 0.1 1.2-0.1 1.8-0.5 0.8-0.4 1.5-1 2.1-1.7q0.3-0.3 0.5-0.7c0.8-0.9 1.3-1.8 1.3-1.8z"/>
					</g>
				</g>
			</g>
			<path id="Layer" class="s5" d="m23.9 29.3l4.4-3.1c0 0 0.8 6.4-2 7.2-2.8 0.8-3.1-3.6-2.4-4.1z"/>
			<g id="Layer">
				<g id="Layer">
					<path id="Layer" class="s3" d="m36.9 23q1.3-0.8 2.6-1.3-0.3 0.3-0.6 0.7-1 0.4-2 1-1 0.6-1.9 1.2-0.2 0-0.5-0.1 0.9-0.7 1.9-1.3 0.2-0.1 0.4-0.2 0 0 0.1 0z"/>
				</g>
				<g id="Layer">
					<path id="Layer" class="s3" d="m36.1 17q0.1-0.1 0.2-0.1c0.8-0.4 1.4 0.1 1.4 0.1l-0.3 0.4c0 0-0.5-0.4-1.1-0.1q-0.1 0-0.1 0.1-0.5 0.2-0.9 0.9c-0.4 0.5-0.8 1.6-0.7 2.2 0.2 0.7 0.9 0.9 2.1 0.5h0.1v2q-0.2 0.1-0.4 0.2l0.1-1.7q-2 0.5-2.2-0.7c-0.2-0.8 0.4-2.1 0.8-2.7q0.5-0.8 1-1.1z"/>
				</g>
				<g id="Layer">
					<path id="Layer" class="s6" d="m40.8 19.9l3.2-0.8c6.7-0.5 7.9 4.5 7.9 4.7l-4.4 4.6-2.4-0.7 0.6 20.8-16 8.9 0.1-20.6-2 3.6-3.8 0.3 0.7-5.1c1.6-5.9 8.8-11.1 9.1-11.4q0.4 0.2 0.7 0.3 0.3 0.1 0.5 0.1c0.6 0 1.3-0.2 1.9-0.5 0.7-0.4 1.4-1.1 2-1.7q0.3-0.4 0.6-0.7c0.8-1 1.3-1.8 1.3-1.8z"/>
				</g>
			</g>
			<path id="Layer" class="s7" d="m32.5 34.6l4.3-3.1c0 0 0.9 6.4-1.9 7.2-2.8 0.8-3.2-3.6-2.4-4.1z"/>
			<g id="Layer">
				<g id="Layer">
					<path id="Layer" class="s3" d="m44.7 27.6q1.4-0.8 2.7-1.3-0.3 0.3-0.6 0.7-1 0.4-2.1 1-0.9 0.6-1.8 1.2-0.3 0-0.5-0.1 0.9-0.6 1.9-1.3 0.2-0.1 0.4-0.2 0 0 0 0z"/>
				</g>
				<g id="Layer">
					<path id="Layer" class="s3" d="m44 21.6q0.1-0.1 0.2-0.1c0.8-0.4 1.4 0.1 1.4 0.1l-0.3 0.4c0 0-0.5-0.4-1.1-0.1q-0.1 0.1-0.2 0.1-0.4 0.2-0.8 0.9c-0.4 0.5-0.9 1.6-0.7 2.3 0.1 0.6 0.9 0.8 2.1 0.4h0.1v2q-0.2 0.1-0.4 0.2v-1.7q-1.9 0.5-2.2-0.6c-0.2-0.9 0.5-2.2 0.8-2.8q0.6-0.8 1.1-1.1z"/>
				</g>
				<g id="Layer">
					<path id="Layer" class="s8" d="m48.7 24.5l3.2-0.8c6.7-0.5 7.9 4.5 7.9 4.8l-4.4 4.5-2.4-0.7 0.6 20.8-16 8.9 0.1-20.6-2 3.6-3.9 0.3 0.8-5.1c1.6-5.9 8.8-11.1 9.1-11.4q0.4 0.2 0.7 0.3 0.2 0.1 0.5 0.1c0.6 0 1.3-0.2 1.9-0.5 0.7-0.4 1.4-1.1 2-1.7q0.3-0.4 0.6-0.7c0.8-1 1.2-1.8 1.3-1.8z"/>
				</g>
			</g>
			<path id="Layer" class="s9" d="m40.3 39.2l4.4-3.1c0 0 0.9 6.4-1.9 7.2-2.8 0.8-3.2-3.6-2.5-4.1z"/>
			<g id="Layer">
				<g id="Layer">
					<path id="Layer" class="s0" d="m47.8 87.9c5.7 3.3 5.7 8.7 0.1 12-5.7 3.3-15 3.3-20.7 0-5.8-3.3-5.8-8.7-0.1-12 5.7-3.3 15-3.3 20.7 0z"/>
				</g>
				<path id="Layer" class="s10" d="m41.7 59.7c0 0 1.2 12.1 0.8 14.7-0.4 2.6-1.5 16.2-1.5 16.2 0 0-0.2 0.4-0.9 0.4-1.4 0.2-1.6-0.3-1.6-0.3 0 0-2.5-11.1-1-15l-1.7-13v-1.8c0 0 4.4-0.5 5.9-1.2z"/>
				<path id="Layer" class="s11" d="m40.9 90.4c0 0-0.2-0.5-0.2-1.2 0 0-1.9 0.8-3.1 0.1 0 0 0.1 0.8-0.1 1.4-0.2 0.6 3.1 0.6 3.4-0.3z"/>
				<g id="Layer">
					<path id="Layer" class="s11" d="m38.5 90.6c0 0-1.1 1.8 0.1 2.3 1.2 0.6 1.2-0.3 3.5 1.6 2.2 2 4.3 1.2 4.6 0.8 0.7-1-0.5-2-5.5-4.7z"/>
					<path id="Layer" class="s12" d="m38.6 92.9c1.2 0.7 1.2-0.3 3.5 1.6 2.2 2 4.2 1.2 4.6 0.8q0-0.1 0-0.3c-2.1 0.8-3.2-0.3-4.1-1-1-0.8-1.8-1.1-3.2-1.4-1.4-0.3-0.9-1.5-0.9-1.5 0-0.2 0-1.4-0.2-1.4 0 1.3-0.9 2.5 0.3 3.2z"/>
				</g>
				<path id="Layer" class="s13" d="m41.9 57.8c0 0 1.9 9.9 1.3 16.1-0.7 6.2-1.3 13.1-1.1 16.6 0 1.2-4.4 2.5-4.7 0-0.4-2.9-1.7-11.1 0.1-14.8l-2.9-15.9c0 0 4.4 0.1 7.3-2z"/>
				<path id="Layer" class="s10" d="m35.4 60.6c0 0 1.2 12.9 0.8 15.7-0.5 2.8-1.5 17.3-1.5 17.3h-2.4c0 0-2.5-12.5-0.9-16l-1.6-13.7v-1.9c0 0 4.1-0.6 5.6-1.4z"/>
				<g id="Layer">
					<path id="Layer" class="s11" d="m32.1 93c0 0-1.1 1.8 0.2 2.4 1.2 0.5 1.2-0.3 3.4 1.6 2.3 2 4.4 1.2 4.7 0.8 0.7-1-0.5-2.6-5.5-5.3z"/>
					<path id="Layer" class="s12" d="m32.3 95.4c1.1 0.6 1.2-0.3 3.4 1.6 2.3 2 4.4 1.2 4.7 0.8q0-0.1 0.1-0.3c-2.2 0.8-3.3-0.3-4.2-1.1-1-0.7-1.8-1-3.3-1.4-1.4-0.3-0.9-1.5-0.9-1.5 0-0.2 0-1.4-0.2-1.4 0 1.4-0.9 2.6 0.4 3.3z"/>
				</g>
				<path id="Layer" class="s14" d="m29.2 58.6c0 0-2 3.1-0.5 10.4 1.5 7.4 2 9.6 2 9.6 0 0-0.3 0.9 0 6.8 0.4 5.5 0.4 5.1 0.5 7.8 0 1.1 4.3 1.5 4.5-0.7 0.4-4.7 0.8-17 0.8-17l1-11.8 4.4-5.9c0 0-9.9 2.8-12.7 0.8z"/>
				<g id="Layer">
					<path id="Layer" class="s10" d="m52 49.5c0 0 0.6-0.4 1.9-0.5 1.3 0 1.6 0.3 2.3 0.6 0.7 0.4 1.3 0.7 1.1 1-0.2 0.4-1.9 0.9-2.9 0.6-0.6-0.2-2.2 0.6-2.6 0.6-0.4 0-0.2-2.1 0.2-2.3z"/>
					<path id="Layer" class="s15" d="m51.8 51.8c0.4 0 2-0.8 2.6-0.6 0.7 0.2 1.8 0 2.4-0.2q0-0.1 0-0.1c-0.1-0.2-0.7-0.1-1-0.2-0.4-0.1-1.4-0.1-2.1-0.3-0.7-0.1-2 0.6-2 0.6h-0.1c0 0.4 0.1 0.8 0.2 0.8z"/>
					<path id="Layer" class="s16" d="m37.1 37.6c0 0 2.2-2.5 4.1 0.6 1.2 1.9 2.9 9.6 3.7 10.3 0.4 0.3 7.4 0.5 7.4 0.5 0 0-1.1 1 0.2 3.1 0 0-9.3 2.3-10.7 0.3-2.3-3.3-6.1-11.7-4.7-14.8z"/>
				</g>
				<path id="Layer" class="s17" d="m29 40c0.3-0.1 9.8-4 10.9-3.2 0.7 0.5 0.8 1.6 2 4.8 0.5 1.7 0.7 3.5 0 5.2-1.6 3.5-1.4 5.2-1.3 6.1 0.1 1.4 1.3 4.9 1.3 4.9 0 0-6.7 5-13.2 1.8 0 0-0.1 0.3 0.6-4.1 1.2-8.2-3.7-13-0.3-15.5z"/>
				<g id="Layer">
					<g id="Layer">
						<path id="Layer" class="s18" d="m36.8 35.7c0 0-0.5 2.3 0 3.5 0.5 1.2-1.3 1.6-2.2 1.3-0.9-0.3-2.2-0.9-2-1.7 0.1-0.8 0.9-3.3 0.4-4.2-0.5-0.9 3.8 1.1 3.8 1.1z"/>
						<path id="Layer" class="s10" d="m32.4 28.8c0 0-2.6 2.5-1.9 5.2 0.4 1.5 2.1 2.5 3.1 3.3 1 0.8 3.4 2.5 4.5 0.7 1-1.8 2.2-6.9 0-9.2-2.3-2.3-5.7 0-5.7 0z"/>
						<path id="Layer" class="s19" d="m36.7 30c0 0-0.1 0.5-2.3 2.2-0.8 0.6-0.8 3.1-1.6 2.3-0.3-0.2-1-0.8-1.1-0.4-0.5 2 0.2 1.5 1.1 2.6 1.4 1.8-0.4 3.3-1 3-4.2-2.4-4.3-7.2-3.4-9.3 1-2 3.1-4.5 7.1-3.6 3.3 0.7 3.8 4.4 3.8 4.4 0 0-1.9-0.3-2.6-1.2z"/>
					</g>
				</g>
				<g id="Layer">
					<path id="Layer" class="s10" d="m34.6 58.3c0 0 0.7-0.1 1.9 0.6 1.1 0.7 1.2 1.1 1.6 1.8 0.5 0.7 0.7 1.3 0.4 1.5-0.4 0.2-2.1-0.3-2.8-1.1-0.5-0.5-2.3-0.8-2.6-1-0.3-0.2 1-1.9 1.5-1.8z"/>
					<path id="Layer" class="s15" d="m33.1 60.1c0.3 0.2 2.1 0.5 2.6 1 0.5 0.6 1.5 1 2.2 1.1q0 0 0 0c0-0.3-0.5-0.5-0.8-0.8-0.2-0.3-1.1-0.9-1.6-1.4-0.5-0.5-2-0.6-2-0.6h-0.2c-0.2 0.3-0.3 0.6-0.2 0.7z"/>
					<path id="Layer" class="s20" d="m29.4 39.9c0 0 2.4-0.7 2.5 1.7 0 2.4-3.9 10.6-3.6 11.6 0.1 0.6 6.8 4.8 6.8 4.8 0 0-1.5 0.2-1.6 2.7 0 0-9.3-3.2-9.4-5.7-0.2-4.3 2.2-13.3 5.3-15.1z"/>
				</g>
			</g>
			<g id="Layer">
				<g id="Layer">
					<path id="Layer" class="s3" d="m60.3 36.1q1.3-0.8 2.6-1.3-0.3 0.3-0.6 0.7-1 0.4-2 1-1 0.6-1.9 1.2-0.2 0-0.5-0.1 1-0.7 2-1.3 0.1-0.1 0.3-0.2 0 0 0.1 0z"/>
				</g>
				<g id="Layer">
					<path id="Layer" class="s3" d="m59.6 30.1q0-0.1 0.1-0.1c0.8-0.4 1.4 0.1 1.4 0.1l-0.3 0.4c0 0-0.5-0.4-1.1-0.1q-0.1 0-0.1 0.1-0.5 0.2-0.9 0.9c-0.4 0.5-0.8 1.6-0.7 2.2 0.2 0.7 0.9 0.8 2.1 0.5h0.1v2q-0.2 0.1-0.3 0.2v-1.7q-2 0.5-2.2-0.7c-0.2-0.9 0.4-2.2 0.8-2.7q0.5-0.8 1.1-1.1z"/>
				</g>
				<g id="Layer">
					<path id="Layer" class="s13" d="m64.2 32.9l2.8-0.6c5.3 1.1 7.5 5.9 7.5 5.9l-3.6 3.3-2.4-0.7 0.6 20.8-16 8.9 0.1-20.6-2 3.6-3.8 0.3 0.7-5.2c1.6-5.8 8.8-11 9.2-11.3q0.3 0.2 0.6 0.3 0.3 0.1 0.5 0.1c0.6 0 1.3-0.2 1.9-0.5 0.7-0.5 1.4-1.1 2-1.7q0.3-0.4 0.6-0.7c0.8-1 1.3-1.8 1.3-1.9z"/>
				</g>
			</g>
			<path id="Layer" class="s14" d="m55.9 47.7l4.3-3.2c0 0 0.9 6.5-1.9 7.3-2.8 0.7-3.1-3.6-2.4-4.1z"/>
			<g id="Layer">
				<path id="Layer" class="s21" d="m82.3 27.5l-43.8-25.3q-0.3-0.2-0.7-0.4-0.2-0.1-0.3-0.1-0.2-0.1-0.5-0.2 0 0 0 0-0.6-0.3-1.2-0.4 0 0-0.1-0.1-0.1 0-0.2 0-0.4-0.1-0.7-0.2-0.1 0-0.2 0-0.1-0.1-0.2-0.1-0.3 0-0.6-0.1-0.1 0-0.2 0-0.1 0-0.3 0-0.2-0.1-0.5-0.1-0.1 0-0.3 0-0.1 0-0.2 0-0.3-0.1-0.5-0.1-0.2 0-0.3 0-0.1 0-0.2 0-0.3 0-0.6 0-0.1 0-0.3 0-0.1 0-0.2 0-0.3 0-0.7 0.1-0.1 0-0.3 0 0 0 0 0-0.7 0.1-1.3 0.2 0 0 0 0-0.2 0-0.3 0.1-0.3 0-0.6 0.1-0.2 0-0.4 0.1-0.3 0.1-0.6 0.2-0.1 0-0.1 0-0.1 0-0.2 0.1-0.4 0.1-0.8 0.3-0.2 0-0.3 0.1-0.6 0.2-1 0.5-0.1 0-0.2 0.1-0.1 0.1-0.2 0.2-0.2 0.1-0.4 0.2-0.2 0.1-0.3 0.2-0.2 0.2-0.3 0.3-0.1 0-0.1 0.1-0.2 0.2-0.4 0.4 0 0 0 0-0.2 0.2-0.3 0.3 0 0 0 0.1-0.2 0.2-0.3 0.4 0 0-0.1 0.1 0 0 0 0.1-0.1 0.2-0.2 0.3 0 0.1-0.1 0.2 0 0 0 0.1 0 0.1-0.1 0.3 0 0.1 0 0.2 0 0 0 0.1-0.1 0.1-0.1 0.3 0 0.1 0 0.2 0 0.1 0 0.1 0 0.6 0 1.3 0-0.2 0-0.3 0-0.2 0.1-0.4 0-0.1 0-0.2 0.1-0.2 0.1-0.4 0.1-0.1 0.1-0.2 0.1-0.2 0.2-0.3 0-0.2 0.1-0.3 0.1-0.2 0.3-0.3 0.1-0.1 0.1-0.3 0.2-0.2 0.5-0.4 0.1-0.1 0.2-0.2 0.1-0.1 0.3-0.3 0.1-0.1 0.3-0.2 0.2-0.1 0.4-0.3 0.2-0.1 0.4-0.2 0.4-0.3 1-0.5 0.1-0.1 0.3-0.2 0.4-0.1 0.8-0.3 0.1 0 0.3-0.1 0.3-0.1 0.5-0.1 0.2-0.1 0.5-0.1 0.2-0.1 0.5-0.2 0.2 0 0.4 0 0.6-0.1 1.2-0.2 0.2 0 0.4 0 0.4-0.1 0.7-0.1 0.3 0 0.5 0 0.3 0 0.6 0 0.2 0 0.5 0 0.2 0 0.5 0 0.2 0.1 0.5 0.1 0.3 0 0.5 0 0.3 0.1 0.5 0.1 0.3 0 0.6 0.1 0.2 0 0.4 0.1 0.3 0.1 0.7 0.2 0.1 0 0.3 0 0.6 0.2 1.1 0.4 0.3 0.1 0.6 0.3 0.1 0 0.3 0.1 0.4 0.2 0.7 0.4l43.8 25.3c2.1 1.2 3.1 2.7 3.1 4.3v-1.2c0.1-1.6-1-3.2-3.1-4.4z"/>
				<g id="Layer">
					<path id="Layer" fill-rule="evenodd" class="s2" d="m82.9 27.2c4.4 2.5 4.4 6.7 0 9.3-4.4 2.5-11.6 2.5-16 0l-43.8-25.3c-4.5-2.6-4.5-6.8-0.1-9.3 4.4-2.6 11.6-2.6 16.1 0zm-15.5 9c4.2 2.4 10.9 2.4 15 0 4.1-2.4 4.1-6.3-0.1-8.7l-43.8-25.3c-4.1-2.4-10.8-2.4-14.9 0-4.1 2.4-4.1 6.3 0 8.7z"/>
				</g>
				<path id="Layer" class="s1" d="m86.2 32.2q0 0.2 0 0.3-0.1 0.2-0.1 0.3-0.1 0.2-0.1 0.4-0.1 0.1-0.1 0.2-0.1 0.2-0.2 0.4-0.1 0.1-0.1 0.3-0.2 0.2-0.3 0.4-0.2 0.1-0.3 0.3 0 0.1-0.1 0.1-0.2 0.3-0.5 0.5-0.1 0.1-0.3 0.3-0.2 0.1-0.3 0.2-0.2 0.2-0.4 0.3-0.2 0.1-0.5 0.3-0.5 0.3-1 0.5-0.2 0.1-0.4 0.2-0.4 0.1-0.8 0.3-0.2 0-0.4 0.1-0.3 0.1-0.6 0.2-0.2 0-0.4 0.1-0.3 0.1-0.6 0.1-0.2 0.1-0.5 0.1-0.6 0.1-1.3 0.2-0.2 0-0.4 0-0.3 0.1-0.7 0.1-0.3 0-0.5 0-0.3 0-0.7 0-0.2 0-0.5 0-0.3 0-0.6-0.1-0.2 0-0.5 0-0.3 0-0.5-0.1-0.3 0-0.6 0-0.3-0.1-0.6-0.1-0.2-0.1-0.4-0.1-0.4-0.1-0.7-0.2-0.2-0.1-0.4-0.1-0.7-0.2-1.2-0.4-0.3-0.1-0.6-0.3-0.2 0-0.3-0.1-0.4-0.2-0.8-0.4l-43.8-25.3c-2.3-1.3-3.4-3-3.4-4.7q0 0.6 0 1.3c0 1.7 1.1 3.4 3.4 4.7l43.8 25.3q0.4 0.2 0.8 0.4 0.1 0.1 0.3 0.1 0.2 0.1 0.5 0.2 0 0 0 0.1 0.6 0.2 1.3 0.4 0 0 0.1 0 0.1 0 0.3 0.1 0.3 0.1 0.7 0.1 0.1 0.1 0.2 0.1 0.1 0 0.2 0 0.3 0.1 0.6 0.1 0.2 0.1 0.3 0.1 0.1 0 0.3 0 0.2 0.1 0.5 0.1 0.2 0 0.3 0 0.1 0 0.2 0 0.3 0 0.6 0.1 0.2 0 0.3 0 0.1 0 0.2 0 0.4 0 0.7 0 0.1 0 0.3 0 0.1 0 0.2 0 0.3-0.1 0.7-0.1 0.2 0 0.3 0 0.1 0 0.1 0 0.7-0.1 1.3-0.2 0.1 0 0.1 0 0.2-0.1 0.4-0.1 0.3-0.1 0.6-0.1 0.2-0.1 0.4-0.2 0.3 0 0.6-0.1 0.1 0 0.2-0.1 0.1 0 0.2 0 0.4-0.2 0.8-0.4 0.2 0 0.4-0.1 0.5-0.3 1-0.5 0.1-0.1 0.2-0.1 0.1-0.1 0.3-0.2 0.2-0.2 0.4-0.3 0.1-0.1 0.3-0.3 0.2-0.1 0.3-0.2 0.1-0.1 0.1-0.1 0.2-0.2 0.4-0.4 0.1-0.1 0.1-0.1 0.1-0.1 0.2-0.2 0-0.1 0.1-0.2 0.1-0.2 0.3-0.4 0 0 0.1-0.1 0-0.1 0-0.1 0.1-0.2 0.2-0.4 0-0.1 0.1-0.2 0 0 0 0 0-0.2 0.1-0.4 0-0.1 0.1-0.2 0 0 0-0.1 0-0.2 0-0.3 0-0.2 0-0.3 0 0 0-0.1 0-0.6 0-1.3 0 0.2 0 0.4z"/>
			</g>
			<path id="Layer" class="s3" d="m35.9 17.6c0 0-1 0.9-1.3 2.2l-0.3 0.2c0 0 0.3-1.9 1.6-2.9z"/>
			<path id="Layer" class="s3" d="m43.8 22.2c0 0-1 0.9-1.3 2.2l-0.3 0.2c0 0 0.3-1.9 1.6-2.8z"/>
			<path id="Layer" class="s3" d="m59.3 30.7c0 0-1 0.9-1.3 2.2l-0.3 0.2c0 0 0.3-1.9 1.6-2.9z"/>
			<path id="Layer" class="s3" d="m27.1 12.6c0 0-1 0.9-1.2 2.3l-0.4 0.1c0 0 0.4-1.8 1.6-2.8z"/>
		</g>
	</g>
</svg>