<svg version="1.2" xmlns="http://www.w3.org/2000/svg" viewBox="0 0 72 86" width="72" height="86">
	<title>Layer</title>
	<defs>
		<linearGradient id="g1" x2="1" gradientUnits="userSpaceOnUse" gradientTransform="matrix(-3.963,24.869,-1.322,-0.211,13.631,5.416)">
			<stop offset="0" stop-color="#fa5fc8"/>
			<stop offset="1" stop-color="#b161cb"/>
		</linearGradient>
	</defs>
	<style>
		.s0 { fill: #8390cd } 
		.s1 { fill: #615a8e } 
		.s2 { fill: #484475 } 
		.s3 { fill: #120f1f } 
		.s4 { fill: #32293a } 
		.s5 { fill: #def6ff } 
		.s6 { fill: #acd9ea } 
		.s7 { fill: #88c5d8 } 
		.s8 { fill: #3998d8 } 
		.s9 { fill: #e29813 } 
		.s10 { fill: #723e24 } 
		.s11 { fill: #d8e9eb } 
		.s12 { fill: #ebf7fc } 
		.s13 { fill: #d3edf5 } 
		.s14 { fill: #b4dadf } 
		.s15 { fill: #ffaa83 } 
		.s16 { fill: #f29c79 } 
		.s17 { fill: #ef2e61 } 
		.s18 { fill: #ff4d75 } 
		.s19 { fill: url(#g1) } 
		.s20 { fill: #f79f7c } 
		.s21 { fill: #f77496 } 
	</style>
	<g id="Layer">
		<g id="-e-step_6">
			<g id="Layer">
				<path id="Layer" class="s0" d="m15.3 59.6l-0.1-0.1 26.3-15.3 30.6 17.7-15.2 8.8 0.1 0.1-26.3 15.3-30.6-17.7z"/>
			</g>
			<g id="Layer">
				<path id="Layer" class="s0" d="m26.9 54.9c5.3 3.1 5.3 8.1 0 11.1-5.2 3.1-13.8 3.1-19.1 0-5.3-3-5.3-8-0.1-11.1 5.3-3 13.9-3 19.2 0z"/>
			</g>
			<path id="Layer" class="s1" d="m28.7 54.1c0 0-0.2-0.5-0.1-1.1 0 0-1.8 0.7-3 0 0 0 0.2 0.8 0 1.4-0.3 0.5 2.8 0.5 3.1-0.3z"/>
			<g id="Layer">
				<path id="Layer" class="s1" d="m18.3 57.4c0 0-1 1.6 0.1 2.2 1.1 0.5 1.1-0.3 3.2 1.5 2.1 1.8 4 1 4.2 0.6 0.7-0.9-0.4-1.8-5-4.3z"/>
				<path id="Layer" class="s2" d="m18.4 59.6c1.1 0.5 1.1-0.3 3.2 1.5 2.1 1.8 4 1 4.3 0.6q0 0 0-0.2c-1.9 0.7-3-0.3-3.8-1-0.9-0.7-1.6-1-3-1.3-1.3-0.3-0.8-1.3-0.8-1.3 0-0.3-0.1-1.3-0.2-1.4 0 1.3-0.9 2.4 0.3 3.1z"/>
			</g>
			<path id="Layer" class="s3" d="m22.2 26.2c0 0 1 10 0.4 15.8-0.6 5.7-1.2 12.1-1 15.3 0 1.1-4 2.3-4.3 0-0.4-2.7-1.6-10.3 0.1-13.7l-2.7-14.7c0 0 4.8-0.7 7.5-2.7z"/>
			<path id="Layer" class="s1" d="m22.5 56.5c0 0-0.2-0.5-0.1-1.2 0 0-1.8 0.7-3 0.1 0 0 0.2 0.8 0 1.3-0.2 0.6 2.8 0.5 3.1-0.2z"/>
			<g id="Layer">
				<path id="Layer" class="s1" d="m12.4 59.7c0 0-1 1.6 0.1 2.1 1.1 0.5 1.1-0.3 3.2 1.6 2.1 1.8 4 1 4.3 0.6 0.7-0.9-0.4-2.4-5.1-4.9z"/>
				<path id="Layer" class="s2" d="m12.5 61.8c1.1 0.6 1.1-0.3 3.2 1.6 2.1 1.8 4 1 4.3 0.6q0.1 0 0.1-0.2c-2 0.7-3-0.3-3.9-1-0.9-0.7-1.6-1-3-1.3-1.3-0.3-0.8-1.4-0.8-1.4 0-0.2 0-1.3-0.2-1.3 0 1.3-0.9 2.4 0.3 3z"/>
			</g>
			<path id="Layer" class="s4" d="m10.2 27.5c0 0-2.4 3.2-1 10 1.4 6.8 1.9 8.8 1.9 8.8 0 0-0.4 0.8 0 6.3 0.3 5.1 0.3 4.7 0.4 7.2 0.1 1 4 1.5 4.2-0.6 0.3-4.4 0.7-15.8 0.7-15.8l1-10.9 4.8-6.2c0-0.1-9.4 3-12 1.2z"/>
			<g id="Layer">
				<path id="Layer" class="s5" d="m26.5 78.8l29.9-45.6 1.2 0.8-29.8 45.6z"/>
			</g>
			<g id="Layer">
				<path id="Layer" class="s5" d="m29.6 50.3l0.5-1.4 29.1 10.7-0.5 1.4z"/>
			</g>
			<g id="Layer">
				<path id="Layer" class="s5" d="m15.4 72l29.8-45.6 1.3 0.8-29.8 45.6z"/>
			</g>
			<g id="Layer">
				<path id="Layer" class="s5" d="m18.5 43.4l0.5-1.4 29.1 10.8-0.6 1.4z"/>
			</g>
			<g id="Layer">
				<path id="Layer" class="s6" d="m67.5 27q0 0.1 0 0.3-0.1 0.2-0.2 0.4 0 0.2-0.1 0.3 0 0.2-0.1 0.3-0.1 0.3-0.2 0.5-0.2 0.3-0.4 0.7-0.1 0-0.1 0.1-0.3 0.3-0.6 0.6 0 0.1-0.1 0.1-0.2 0.3-0.6 0.6 0 0.1-0.1 0.1-0.4 0.3-0.8 0.6 0 0.1-0.1 0.1-0.4 0.3-0.9 0.6l-41 23.8q-0.6 0-1.1 0-0.5 0-1.1 0 0 0-0.1 0-0.5-0.1-1-0.2-0.6 0-1.1-0.1-0.6-0.1-1.1-0.3-0.1 0-0.1-0.1-0.5-0.1-1-0.3-0.2-0.1-0.5-0.2-0.1 0-0.3-0.1-0.4-0.2-0.7-0.4l-8.9-5.1c-2-1.2-3-2.8-3-4.4v1.6c0 1.7 1 3.3 3 4.4l8.9 5.2q0.3 0.2 0.7 0.4 0.2 0 0.3 0.1 0.2 0.1 0.4 0.1 0.1 0.1 0.1 0.1 0.5 0.2 0.9 0.3 0.1 0 0.2 0 0 0.1 0 0.1 1 0.2 2.1 0.4 0 0 0 0 0.3 0 0.5 0 0.3 0.1 0.6 0.1 0 0 0 0 0.1 0 0.1 0 0.6 0.1 1.1 0.1 0 0 0 0 0.5 0 1.1 0l40.9-23.8q0.1-0.1 0.2-0.1 0.4-0.3 0.8-0.5 0.1-0.1 0.1-0.1 0.4-0.3 0.8-0.6 0.1-0.1 0.1-0.1 0.1-0.1 0.2-0.2 0.3-0.2 0.4-0.4 0.1-0.1 0.1-0.1 0.3-0.3 0.5-0.5 0-0.1 0.1-0.2 0 0 0.1-0.1 0.2-0.3 0.4-0.6 0 0 0 0 0.1-0.3 0.2-0.5 0.1-0.1 0.1-0.3 0 0 0 0 0.1-0.2 0.1-0.3 0.1-0.2 0.1-0.4 0.1-0.1 0.1-0.1 0-0.1 0-0.3 0-0.2 0-0.4 0 0 0-0.1 0-0.8 0-1.6 0 0.2 0 0.5z"/>
			</g>
			<g id="Layer">
				<g id="Layer">
					<path id="Layer" class="s7" d="m64.5 22.1c4.5 2.6 3.9 7.2-1.3 10.2l-41 23.8c-3.1 0.1-6-0.5-8.1-1.7l-8.9-5.1c-2-1.2-3-2.8-3-4.4l41.2-24c5.3-3 13.2-3.4 17.7-0.8z"/>
				</g>
			</g>
			<g id="Layer">
				<g id="Layer">
					<path id="Layer" class="s8" d="m47.3 29.4l5 2.9-2.2 3.4-0.1 0.1-3.9 2.2q0-0.1-0.1-0.1c-1.5-0.9-4-0.9-5.5 0-1.5 0.9-1.5 2.3 0 3.2q0.1 0 0.1 0l-4.4 2.5-5.9 1.4-5.1-3 4.2-2.4-8.5-5 13.7-7.9 8.7 5z"/>
				</g>
				<g id="Layer">
					<path id="Layer" class="s9" d="m35.8 36.2l-3.8 2.2-4.3-2.5 3.8-2.2z"/>
				</g>
			</g>
			<path id="Layer" class="s10" d="m16.3 3.4c0 0-3.2 7.5-2.4 8.8 1 1.4 1.8 3.1 1.8 3.1 0 0 3.2-5.5 2.9-6.5-0.3-1.1-2.3-5.4-2.3-5.4z"/>
			<g id="Layer">
				<path id="Layer" class="s11" d="m31 32.3c0 0 6.8 1.7 10-5.2l-2.3-1.1-7.7 5.7c0 0 0 0.6 0 0.6z"/>
				<path id="Layer" class="s12" d="m31 31.7c0 0 1.1-7.9 9.6-9.6l0.4 5c0 0-4.3 5.8-10 4.6z"/>
				<path id="Layer" class="s13" d="m34.9 29.3c0 0 3-0.4 4.1-2.6v-2.5c0 0-4.6 2.2-4.1 5.1z"/>
				<path id="Layer" class="s12" d="m40.6 22.1l1-0.2 0.3 3.6-1 0.9z"/>
				<path id="Layer" class="s14" d="m39 26.7c0 0-1.3 2.5-4.1 2.6 0 0 0.7-2.4 2-2.9 1.4-0.6 2.1 0.3 2.1 0.3z"/>
				<path id="Layer" class="s12" d="m37.9 26.8c0 0.3-0.4 0.5-0.8 0.5-0.4 0-0.7-0.2-0.7-0.5 0-0.2 0.3-0.4 0.7-0.4 0.4 0 0.8 0.2 0.8 0.4z"/>
			</g>
			<g id="Layer">
				<path id="Layer" class="s15" d="m34.4 22.2c0 0 0.5-0.4 1.7-0.4 1.1 0 1.4 0.3 2 0.7 0.6 0.3 1 0.6 0.9 0.9-0.2 0.3-1.7 0.7-2.6 0.4-0.5-0.2-2 0.4-2.3 0.3-0.3 0 0-1.8 0.3-1.9z"/>
				<path id="Layer" class="s16" d="m34.1 24.1c0.3 0.1 1.8-0.5 2.3-0.3 0.6 0.2 1.6 0.1 2.1-0.1q0-0.1 0-0.1c-0.1-0.2-0.6-0.1-0.9-0.2-0.3-0.1-1.2-0.2-1.8-0.4-0.5-0.1-1.7 0.4-1.7 0.4l-0.1 0.1c-0.1 0.3 0 0.6 0.1 0.6z"/>
				<path id="Layer" class="s17" d="m21.9 11.1c0 0 2-2.1 3.5 0.6 1 1.8 2.2 8.6 2.8 9.2 0.4 0.4 6.5 0.8 6.5 0.8 0 0-1 0.8 0 2.7 0 0-8.3 1.6-9.4-0.1-1.9-3.1-4.8-10.6-3.4-13.2z"/>
			</g>
			<g id="Layer">
				<path id="Layer" class="s18" d="m14.2 10.7c0.9-0.5 9.6-1.1 10.5-0.2 0.5 0.6 0.6 0.7 1.1 4 0.2 1.6-0.2 3.4-1.3 4.8-2 2.8-2.1 4.4-2.2 5.3-0.2 1.3 0.7 3.6 0.2 4.7-0.6 1.4-11.2 2.6-12.5-1 0-0.1-0.5-0.3 1.3-3.5 3.7-6.8-0.5-12.1 2.9-14.1z"/>
				<path id="Layer" class="s19" d="m10 28.3q0 0 0 0z"/>
			</g>
			<g id="Layer">
				<path id="Layer" class="s20" d="m21.9 8.4c0 0-0.8 1.8-0.5 2.9 0.2 1-1.4 1-2.1 0.6-0.6-0.4-1.7-1.1-1.4-1.7 0.3-0.6 1.4-2.6 1.1-3.4-0.3-0.8 2.9 1.6 2.9 1.6z"/>
				<path id="Layer" class="s15" d="m19.5 1.8c0 0-2.6 1.7-2.5 4.1 0.1 1.3 1.3 2.4 2 3.2 0.7 0.8 2.1 2.6 3.6 1.9 1.5-0.9 2.9-5.7 1.6-8.2-1.2-2.5-4.7-1-4.7-1z"/>
				<path id="Layer" class="s10" d="m24 3.7c0 0-0.1 1.5-3.5 1.3-0.8-0.1-1.2 2.4-1.7 1.7-0.2-0.3-0.7-0.9-0.8-0.6-0.7 1.7 1 1.5 0.6 2.7-1.1 2.7-3.4-2.6-2.2-5.7 0.9-2.3 2.8-3.9 6-2.7 3.2 1.3 2.3 4.5 2.3 4.5 0 0-0.1-1.1-0.7-1.2z"/>
			</g>
			<g id="Layer">
				<path id="Layer" class="s15" d="m18.2 26.6c0 0 0.6 0 1.5 0.6 1 0.6 1.1 1 1.4 1.6 0.4 0.6 0.6 1.1 0.3 1.2-0.3 0.2-1.8-0.2-2.4-1-0.3-0.4-1.9-0.6-2.1-0.8-0.3-0.2 0.9-1.6 1.3-1.6z"/>
				<path id="Layer" class="s16" d="m16.9 28.2c0.2 0.2 1.8 0.4 2.1 0.8 0.5 0.5 1.4 0.9 1.9 1q0 0 0 0c0-0.2-0.4-0.4-0.6-0.7-0.2-0.2-1-0.7-1.4-1.2-0.4-0.4-1.7-0.6-1.7-0.6h-0.1c-0.2 0.3-0.3 0.6-0.2 0.7z"/>
				<path id="Layer" class="s21" d="m13.9 11c0 0 2.1-0.6 2.1 1.5 0.1 2-2.8 9-2.5 9.9 0.1 0.4 5.1 4 5.1 4 0 0-1.3 0.2-1.4 2.3 0 0-7.9-2.8-7.9-4.9-0.1-3.7 2-11.3 4.6-12.8z"/>
			</g>
			<path id="Layer" class="s1" d="m16 70.3l2.1 1.2c0 0-1.2 2-2.3 1.6-1.1-0.4-0.4-2.1 0.2-2.8z"/>
			<path id="Layer" class="s1" d="m27 77.4l2.1 1.1c0 0-1.2 2-2.3 1.7-1.1-0.4-0.4-2.2 0.2-2.8z"/>
			<path id="Layer" class="s1" d="m57.6 61.1l0.6-2.4c0 0 2.2 0.7 2.1 1.8-0.1 1.2-1.9 0.9-2.7 0.6z"/>
			<path id="Layer" class="s1" d="m46.2 54.1l0.5-2.3c0 0 2.2 0.6 2.2 1.8-0.1 1.2-2 0.9-2.7 0.5z"/>
		</g>
	</g>
</svg>