<svg version="1.2" xmlns="http://www.w3.org/2000/svg" viewBox="0 0 125 115" width="125" height="115">
	<title>Layer</title>
	<defs>
		<linearGradient id="g1" x2="1" gradientUnits="userSpaceOnUse" gradientTransform="matrix(5.759,30.317,-4.119,.782,110.946,38.813)">
			<stop offset="0" stop-color="#fa5fc8"/>
			<stop offset="1" stop-color="#b161cb"/>
		</linearGradient>
	</defs>
	<style>
		.s0 { fill: #8390cd } 
		.s1 { fill: #c1e8fa } 
		.s2 { fill: #def6ff } 
		.s3 { fill: #acd9ea } 
		.s4 { fill: #82c2de } 
		.s5 { fill: #1d374e } 
		.s6 { fill: #c5ced7 } 
		.s7 { fill: #e1eaf3 } 
		.s8 { fill: #60acc6 } 
		.s9 { fill: #bcbcb1 } 
		.s10 { fill: #ffffff } 
		.s11 { fill: #cecfc2 } 
		.s12 { fill: #fefefe } 
		.s13 { fill: #e29813 } 
		.s14 { fill: #1d96cb } 
		.s15 { fill: #a0a095 } 
		.s16 { fill: #656f72 } 
		.s17 { fill: #41b1d8 } 
		.s18 { fill: #7cddf7 } 
		.s19 { fill: #feb624 } 
		.s20 { fill: #b3bf19 } 
		.s21 { fill: #32293a } 
		.s22 { fill: #edf4f8 } 
		.s23 { fill: #ffca6c } 
		.s24 { fill: #ff4d75 } 
		.s25 { fill: #c47f10 } 
		.s26 { fill: #ff83a4 } 
		.s27 { fill: #ff5138 } 
		.s28 { fill: #1884aa } 
		.s29 { fill: #3998d8 } 
		.s30 { fill: #723e24 } 
		.s31 { fill: #ffaa83 } 
		.s32 { fill: #615a8e } 
		.s33 { fill: #484475 } 
		.s34 { fill: #120f1f } 
		.s35 { fill: #f29c79 } 
		.s36 { fill: #feb623 } 
		.s37 { fill: url(#g1) } 
		.s38 { fill: #f79f7c } 
		.s39 { fill: #ffc255 } 
	</style>
	<g id="Layer">
		<g id="-e-step_1">
			<g id="Layer">
				<path id="Layer" class="s0" d="m58.9 62.7l30.4 17.7 35.4-20.4-30.4-17.7z"/>
			</g>
			<g id="Layer">
				<path id="Layer" class="s0" d="m27.5 80.6l30.5 17.7 35.4-20.5-30.5-17.7z"/>
			</g>
			<g id="Layer">
				<path id="Layer" class="s0" d="m0 96.5l30.5 17.7 35.3-20.4-30.4-17.7z"/>
			</g>
			<g id="Layer">
				<g id="Layer">
					<g id="Layer">
						<path id="Layer" class="s1" d="m90.7 77.3l-25.5-14.8-0.1-45.9 25.4 14.8z"/>
					</g>
					<g id="Layer">
						<path id="Layer" class="s2" d="m90.5 31.4l-25.4-14.8 28-16.2 25.4 14.8z"/>
					</g>
					<g id="Layer">
						<path id="Layer" class="s3" d="m118.5 15.2l0.2 45.9-28 16.2-0.2-45.9z"/>
					</g>
				</g>
			</g>
			<g id="Layer">
				<g id="Layer">
					<g id="Layer">
						<path id="Layer" class="s4" d="m90.5 31.4v5.5l28-16.2v-5.4z"/>
					</g>
				</g>
				<g id="Layer">
					<path id="Layer" class="s1" d="m92.3 31.2v4.1l7.4-4.2v-4.1z"/>
				</g>
				<g id="Layer">
					<path id="Layer" class="s2" d="m100.8 26.5v1.5l7.4-4.1v-1.6z"/>
				</g>
				<g id="Layer">
					<path id="Layer" class="s5" d="m102.8 25.4v1.5l3.7-2.1v-1.5z"/>
				</g>
				<g id="Layer">
					<path id="Layer" class="s2" d="m111.7 22.2q0-0.1 0-0.2 0.1 0 0.1-0.1 0-0.1 0.1-0.2 0 0 0 0 0-0.2 0.1-0.3 0 0 0 0 0.1-0.1 0.1-0.2 0 0 0.1 0 0-0.1 0.1-0.2 0-0.1 0.1-0.1 0 0 0.1-0.1 0 0 0.1-0.1 0.1 0 0.2-0.1 0.1-0.1 0.2-0.1 0 0 0 0 0.1 0 0.2 0 0 0 0 0 0.1-0.1 0.2 0 0 0 0 0 0.1 0 0.1 0 0 0 0 0l-0.3-0.2-0.3-0.1q0 0 0 0 0 0 0-0.1-0.1 0-0.1 0 0 0 0 0 0 0 0 0 0 0-0.1 0 0 0 0 0-0.1 0-0.1 0 0 0 0 0 0 0 0 0-0.1 0-0.1 0 0 0-0.1 0 0 0 0 0 0 0-0.1 0.1 0 0 0 0-0.1 0-0.2 0-0.1 0.1-0.2 0.2 0 0 0 0-0.1 0.1-0.1 0.1 0 0.1-0.1 0.1 0 0 0 0 0 0 0 0.1-0.1 0-0.1 0.1 0 0-0.1 0 0 0 0 0 0 0 0 0.1 0 0-0.1 0.1 0 0 0 0.1 0 0 0 0 0 0 0 0 0 0-0.1 0 0 0.1 0 0.1 0 0.1-0.1 0.1 0 0 0 0 0 0 0 0 0 0.1 0 0.1 0 0.1 0 0.1 0 0.1-0.1 0.1 0 0 0 0 0 0 0 0 0 0.1 0 0.2 0 0 0 0 0 0.1 0 0.1 0 0 0 0 0 0.1 0 0.2 0 0.6 0.3 0.7l0.6 0.4q-0.3-0.2-0.3-0.7 0-0.1 0-0.3 0 0 0 0z"/>
					<g id="Layer">
						<path id="Layer" class="s1" d="m112.8 20.6c0.6-0.3 1.1-0.1 1.1 0.6 0 0.7-0.5 1.6-1.1 1.9-0.6 0.4-1.1 0.1-1.1-0.6 0-0.7 0.5-1.5 1.1-1.9z"/>
					</g>
				</g>
				<g id="Layer">
					<path id="Layer" class="s2" d="m115.1 20.4q0-0.1 0.1-0.2 0-0.1 0-0.1 0-0.1 0.1-0.2 0-0.2 0.1-0.3 0 0 0 0 0.1-0.1 0.2-0.2 0 0 0 0 0.1-0.1 0.1-0.2 0.1-0.1 0.1-0.1 0 0 0.1-0.1 0 0 0.1-0.1 0.1 0 0.2-0.1 0.1-0.1 0.2-0.1 0 0 0 0 0.1 0 0.2 0 0 0 0 0 0.1-0.1 0.2 0 0 0 0 0 0.1 0 0.2 0 0 0-0.1 0l-0.3-0.2-0.3-0.1q0 0 0 0 0 0 0-0.1 0 0-0.1 0 0 0 0 0 0 0 0 0 0 0 0 0-0.1 0-0.1 0 0 0-0.1 0 0 0 0 0 0 0 0 0 0 0-0.1 0 0 0 0 0-0.1 0-0.1 0 0 0 0 0.1-0.1 0-0.1 0-0.1 0-0.1 0-0.1 0.1-0.2 0.2-0.1 0-0.1 0 0 0.1-0.1 0.1 0 0.1 0 0.1-0.1 0-0.1 0 0 0 0 0.1-0.1 0-0.1 0.1 0 0 0 0 0 0 0 0-0.1 0-0.1 0.1 0 0 0 0.1-0.1 0-0.1 0.1 0 0 0 0 0 0 0 0 0 0-0.1 0 0 0.1 0 0.1 0 0.1 0 0.1 0 0 0 0 0 0 0 0-0.1 0.1-0.1 0.1 0 0.1 0 0.1 0 0.1 0 0.1 0 0 0 0 0 0-0.1 0 0 0.1 0 0.2 0 0 0 0 0 0.1 0 0.1 0 0 0 0 0 0.1 0 0.2 0 0.6 0.3 0.7l0.6 0.4q-0.3-0.2-0.3-0.7 0-0.1 0-0.3 0 0 0 0z"/>
					<g id="Layer">
						<path id="Layer" class="s1" d="m116.2 18.8c0.6-0.3 1.1-0.1 1.1 0.6 0 0.7-0.5 1.6-1.1 1.9-0.6 0.4-1.1 0.1-1.1-0.6 0-0.7 0.5-1.5 1.1-1.9z"/>
					</g>
				</g>
				<g id="Layer">
					<g id="Layer">
						<g id="Layer">
							<path id="Layer" class="s6" d="m101.3 29.8l-0.2-0.1v-1.4l0.2 0.1z"/>
						</g>
						<g id="Layer">
							<path id="Layer" class="s6" d="m101.3 28.4l-0.2-0.1 0.5-0.2 0.2 0.1z"/>
						</g>
						<g id="Layer">
							<path id="Layer" class="s7" d="m101.8 28.2v1.4l-0.5 0.2v-1.4z"/>
						</g>
					</g>
				</g>
				<g id="Layer">
					<g id="Layer">
						<g id="Layer">
							<path id="Layer" class="s6" d="m102.3 29.3l-0.1-0.1v-1.4l0.1 0.1z"/>
						</g>
						<g id="Layer">
							<path id="Layer" class="s6" d="m102.3 27.9l-0.1-0.1 0.4-0.3 0.2 0.1z"/>
						</g>
						<g id="Layer">
							<path id="Layer" class="s7" d="m102.8 27.6v1.4l-0.5 0.3v-1.4z"/>
						</g>
					</g>
				</g>
				<g id="Layer">
					<g id="Layer">
						<g id="Layer">
							<path id="Layer" class="s6" d="m106.7 26.9l-0.2-0.1v-1.4l0.2 0.1z"/>
						</g>
						<g id="Layer">
							<path id="Layer" class="s6" d="m106.7 25.5l-0.2-0.1 0.5-0.2 0.1 0.1z"/>
						</g>
						<g id="Layer">
							<path id="Layer" class="s7" d="m107.1 25.3v1.4l-0.4 0.2v-1.4z"/>
						</g>
					</g>
				</g>
				<g id="Layer">
					<g id="Layer">
						<g id="Layer">
							<path id="Layer" class="s6" d="m107.7 26.4l-0.2-0.1v-1.4l0.2 0.1z"/>
						</g>
						<g id="Layer">
							<path id="Layer" class="s6" d="m107.7 25l-0.2-0.1 0.5-0.3 0.2 0.1z"/>
						</g>
						<g id="Layer">
							<path id="Layer" class="s7" d="m108.2 24.7v1.4l-0.5 0.3v-1.4z"/>
						</g>
					</g>
				</g>
			</g>
			<path id="Layer" class="s8" d="m90.7 77.3l28-16.2v-4.6l-28.1 16.2z"/>
			<path id="Layer" class="s4" d="m65.2 62.5l25.5 14.8-0.1-5.2-25.4-14.2z"/>
			<g id="Layer">
				<g id="Layer">
					<g id="Layer">
						<path id="Layer" class="s1" d="m61.7 94.4l-25.4-14.8-0.1-46 25.4 14.8z"/>
					</g>
					<g id="Layer">
						<path id="Layer" class="s2" d="m61.6 48.4l-25.4-14.8 28-16.1 25.4 14.8z"/>
					</g>
					<g id="Layer">
						<path id="Layer" class="s3" d="m89.6 32.3l0.2 45.9-28.1 16.2-0.1-46z"/>
					</g>
				</g>
			</g>
			<g id="Layer">
				<g id="Layer">
					<g id="Layer">
						<path id="Layer" class="s4" d="m61.6 48.5v5.4l28-16.2v-5.4z"/>
					</g>
				</g>
				<g id="Layer">
					<path id="Layer" class="s1" d="m63.4 48.3v4l7.4-4.1v-4.1z"/>
				</g>
				<g id="Layer">
					<path id="Layer" class="s2" d="m71.9 43.6v1.5l7.4-4.1v-1.6z"/>
				</g>
				<g id="Layer">
					<path id="Layer" class="s5" d="m73.9 42.5v1.5l3.7-2.1v-1.6z"/>
				</g>
				<g id="Layer">
					<path id="Layer" class="s2" d="m82.8 39.3q0-0.2 0-0.3 0 0 0.1 0 0-0.1 0-0.3 0 0 0 0 0.1-0.1 0.2-0.2 0 0 0 0 0.1-0.1 0.1-0.3 0 0 0 0 0.1-0.1 0.2-0.2 0 0 0 0 0.1-0.1 0.2-0.1 0-0.1 0-0.1 0.2-0.1 0.3-0.1 0.1-0.1 0.2-0.1 0 0 0 0 0.1-0.1 0.2-0.1 0 0 0 0 0.1 0 0.2 0 0 0 0 0 0.1 0 0.1 0.1 0 0 0 0l-0.3-0.2-0.3-0.2q0 0 0 0 0 0 0 0-0.1 0-0.1 0 0 0 0 0 0 0 0 0-0.1 0-0.1 0 0 0 0 0-0.1 0-0.1 0 0 0 0 0 0 0 0 0-0.1 0-0.1 0 0 0-0.1 0 0 0 0 0 0 0-0.1 0 0 0 0 0-0.1 0.1-0.2 0.1-0.1 0.1-0.2 0.1 0 0.1 0 0.1-0.1 0-0.1 0.1 0 0-0.1 0 0 0.1 0 0.1 0 0 0 0-0.1 0.1-0.1 0.1 0 0-0.1 0.1 0 0 0 0 0 0 0 0 0 0.1-0.1 0.1 0 0.1 0 0.1 0 0 0 0 0 0 0 0-0.1 0.1-0.1 0.1 0 0 0 0.1 0 0-0.1 0.1 0 0 0 0 0 0 0 0 0 0 0 0.1 0 0 0 0.1 0 0-0.1 0 0 0.1 0 0.1 0 0 0 0 0 0.1 0 0.1 0 0.1 0 0.1 0 0 0 0 0 0.1 0 0.1 0 0.1 0 0.2 0 0.5 0.3 0.7l0.6 0.3q-0.3-0.1-0.3-0.7 0-0.1 0-0.2 0 0 0 0z"/>
					<g id="Layer">
						<path id="Layer" class="s1" d="m83.9 37.7c0.6-0.4 1-0.1 1 0.6 0.1 0.7-0.4 1.5-1 1.9-0.6 0.3-1.1 0-1.1-0.7 0-0.6 0.4-1.5 1.1-1.8z"/>
					</g>
				</g>
				<g id="Layer">
					<path id="Layer" class="s2" d="m86.2 37.5q0-0.2 0.1-0.3 0 0 0 0 0-0.1 0.1-0.3 0-0.1 0.1-0.2 0 0 0 0 0.1-0.2 0.2-0.3 0 0 0 0 0-0.1 0.1-0.2 0.1 0 0.1 0 0-0.1 0.1-0.1 0-0.1 0.1-0.1 0.1-0.1 0.2-0.1 0.1-0.1 0.2-0.1 0 0 0 0 0.1-0.1 0.2-0.1 0 0 0 0 0.1 0 0.2 0 0 0 0 0 0.1 0 0.2 0.1 0 0-0.1 0l-0.3-0.2-0.3-0.2q0 0 0 0 0 0 0 0 0 0-0.1 0 0 0 0 0 0 0 0 0 0 0 0 0-0.1 0-0.1 0 0 0-0.1 0 0 0 0 0 0 0 0 0 0 0-0.1 0 0 0-0.1 0 0 0 0 0 0 0 0 0-0.1 0-0.1 0-0.1 0.1-0.1 0.1-0.1 0.1-0.2 0.2-0.1 0-0.1 0 0 0-0.1 0.1 0 0 0 0-0.1 0.1-0.1 0.1 0 0 0 0-0.1 0.1-0.1 0.1 0 0 0 0.1 0 0 0 0-0.1 0-0.1 0 0 0.1 0 0.1-0.1 0.1-0.1 0.1 0 0 0 0 0 0 0 0 0 0.1 0 0.1-0.1 0.1-0.1 0.1 0 0 0 0.1 0 0 0 0 0 0 0 0-0.1 0-0.1 0.1 0 0 0 0.1 0 0 0 0 0 0.1 0 0.1 0 0 0 0-0.1 0.1-0.1 0.1 0 0.1 0 0.1 0 0 0 0 0 0.1 0 0.1 0 0.1 0 0.2 0 0.5 0.3 0.7l0.6 0.3q-0.3-0.1-0.3-0.7 0-0.1 0-0.2 0 0 0 0z"/>
					<g id="Layer">
						<path id="Layer" class="s1" d="m87.3 35.9c0.6-0.4 1.1-0.1 1.1 0.6 0 0.7-0.5 1.5-1.1 1.9-0.6 0.3-1.1 0-1.1-0.7 0-0.6 0.5-1.5 1.1-1.8z"/>
					</g>
				</g>
				<g id="Layer">
					<g id="Layer">
						<g id="Layer">
							<path id="Layer" class="s6" d="m72.4 46.9l-0.2-0.1v-1.4l0.2 0.1z"/>
						</g>
						<g id="Layer">
							<path id="Layer" class="s6" d="m72.4 45.5l-0.2-0.1 0.5-0.3 0.2 0.1z"/>
						</g>
						<g id="Layer">
							<path id="Layer" class="s7" d="m72.9 45.2v1.4l-0.5 0.3v-1.4z"/>
						</g>
					</g>
				</g>
				<g id="Layer">
					<g id="Layer">
						<g id="Layer">
							<path id="Layer" class="s6" d="m73.4 46.4l-0.1-0.1-0.1-1.4 0.2 0.1z"/>
						</g>
						<g id="Layer">
							<path id="Layer" class="s6" d="m73.4 45l-0.2-0.1 0.5-0.3 0.2 0.1z"/>
						</g>
						<g id="Layer">
							<path id="Layer" class="s7" d="m73.9 44.7v1.4l-0.5 0.3v-1.4z"/>
						</g>
					</g>
				</g>
				<g id="Layer">
					<g id="Layer">
						<g id="Layer">
							<path id="Layer" class="s6" d="m77.8 44l-0.2-0.1v-1.4l0.2 0.1z"/>
						</g>
						<g id="Layer">
							<path id="Layer" class="s6" d="m77.8 42.6l-0.2-0.1 0.5-0.3 0.1 0.1z"/>
						</g>
						<g id="Layer">
							<path id="Layer" class="s7" d="m78.2 42.3v1.4l-0.4 0.3v-1.4z"/>
						</g>
					</g>
				</g>
				<g id="Layer">
					<g id="Layer">
						<g id="Layer">
							<path id="Layer" class="s6" d="m78.8 43.5l-0.2-0.1v-1.4l0.2 0.1z"/>
						</g>
						<g id="Layer">
							<path id="Layer" class="s6" d="m78.8 42.1l-0.2-0.1 0.5-0.3 0.2 0.1z"/>
						</g>
						<g id="Layer">
							<path id="Layer" class="s7" d="m79.3 41.8v1.4l-0.5 0.3v-1.4z"/>
						</g>
					</g>
				</g>
			</g>
			<path id="Layer" class="s8" d="m61.7 94.4l28.1-16.2v-4.7l-28.1 15.7z"/>
			<path id="Layer" class="s4" d="m36.3 79.6l25.4 14.8v-5.2l-25.4-14.2z"/>
			<g id="Layer">
				<g id="Layer">
					<g id="Layer">
						<g id="Layer">
							<path id="Layer" class="s1" d="m32.2 111.8l-25.5-14.8-0.1-45.9 25.5 14.8z"/>
						</g>
						<g id="Layer">
							<path id="Layer" class="s2" d="m32.1 65.9l-25.5-14.8 28-16.2 25.5 14.8z"/>
						</g>
						<g id="Layer">
							<path id="Layer" class="s3" d="m60.1 49.7l0.1 45.9-28 16.2-0.1-45.9z"/>
						</g>
					</g>
				</g>
				<g id="Layer">
					<path id="Layer" class="s2" d="m39.3 86.4q0-0.2 0-0.3 0-0.1 0-0.2 0.1-0.2 0.1-0.3 0-0.1 0-0.2 0-0.1 0-0.3 0.1-0.1 0.1-0.3 0-0.1 0-0.3 0.1-0.1 0.1-0.3 0-0.1 0.1-0.3 0-0.1 0-0.2 0-0.2 0.1-0.3 0-0.1 0-0.2 0.1-0.1 0.1-0.2 0.1-0.4 0.2-0.8 0 0 0.1-0.1 0.1-0.3 0.2-0.7 0.1-0.1 0.1-0.2 0.1-0.3 0.2-0.6 0.1-0.1 0.1-0.1 0.1-0.4 0.3-0.7 0-0.1 0.1-0.2 0.1-0.2 0.3-0.5 0-0.1 0-0.2 0.2-0.3 0.4-0.6 0.1-0.1 0.1-0.2 0.2-0.2 0.3-0.5 0.1-0.1 0.1-0.2 0.3-0.3 0.5-0.7 0 0 0.1-0.1 0.2-0.3 0.4-0.6 0.1-0.1 0.1-0.1 0.1-0.1 0.2-0.2 0.1-0.2 0.2-0.3 0.1-0.1 0.2-0.2 0.1-0.1 0.2-0.2 0.2-0.3 0.4-0.5 0 0 0 0 0.2-0.2 0.5-0.5 0.1-0.1 0.3-0.3 0 0 0 0 0.2-0.2 0.4-0.4 0.1 0 0.1-0.1 0.2-0.1 0.3-0.2 0.1-0.1 0.2-0.2 0.1-0.1 0.2-0.2 0.1 0 0.2-0.1 0.1-0.1 0.3-0.2 0 0 0.1-0.1 0.2-0.1 0.3-0.2 0.1 0 0.1-0.1 0.3-0.1 0.5-0.2 0.2-0.1 0.4-0.2 0-0.1 0.1-0.1 0.2-0.1 0.4-0.2 0 0 0 0 0.2-0.1 0.4-0.2 0.2 0 0.4-0.1 0 0 0.1 0 0.2-0.1 0.4-0.2 0.2 0 0.3-0.1 0.1 0 0.2 0 0.2 0 0.4-0.1 0 0 0 0 0.2 0 0.3 0 0.1 0 0.1 0 0.2 0 0.3 0 0.1 0 0.1 0 0.2 0 0.3 0 0 0 0.1 0 0.1 0 0.3 0 0 0 0.1 0 0.1 0 0.2 0 0.2 0.1 0.4 0.2 0.1 0 0.1 0 0.2 0 0.4 0.1 0 0 0.1 0 0.1 0.1 0.3 0.2 0.1 0 0.1 0.1-0.8-0.5-1.7-1 0 0 0 0 0 0-0.1-0.1-0.1 0-0.3-0.1 0 0-0.1-0.1 0 0 0 0-0.2-0.1-0.4-0.1 0 0 0 0 0 0 0 0 0 0 0 0-0.2-0.1-0.3-0.1-0.1 0-0.1 0-0.1 0-0.1 0-0.1-0.1-0.2-0.1 0 0-0.1 0-0.1 0-0.3 0 0 0 0 0 0 0-0.1 0-0.1 0-0.3 0 0 0-0.1 0 0 0-0.1 0 0 0-0.1 0-0.1 0-0.1 0-0.2 0-0.4 0.1 0 0 0 0-0.2 0-0.4 0-0.1 0.1-0.1 0.1-0.2 0-0.3 0 0 0 0 0-0.3 0.1-0.5 0.2-0.1 0-0.1 0-0.2 0.1-0.4 0.2 0 0 0 0-0.2 0.1-0.4 0.1 0 0 0 0.1-0.2 0-0.4 0.1 0 0.1-0.1 0.1-0.2 0.1-0.4 0.2-0.2 0.1-0.4 0.3-0.1 0-0.2 0.1-0.1 0.1-0.2 0.2-0.1 0-0.2 0.1-0.1 0.1-0.3 0.2 0 0-0.1 0.1-0.2 0.1-0.3 0.2-0.1 0-0.1 0.1-0.2 0.1-0.3 0.2-0.1 0.1-0.1 0.1-0.2 0.2-0.4 0.4-0.1 0-0.1 0.1-0.1 0.1-0.3 0.2 0 0 0 0.1-0.2 0.2-0.5 0.4 0 0 0 0-0.2 0.3-0.4 0.5 0 0 0 0.1-0.1 0.1-0.2 0.1-0.1 0.1-0.2 0.2-0.1 0.2-0.2 0.3-0.1 0.1-0.1 0.2-0.1 0-0.1 0 0 0.1 0 0.1-0.3 0.3-0.5 0.7 0 0-0.1 0 0 0.1 0 0.1-0.2 0.3-0.4 0.6-0.1 0.1-0.1 0.1 0 0.1 0 0.1-0.2 0.3-0.4 0.6 0 0 0 0.1 0 0-0.1 0-0.1 0.3-0.3 0.7 0 0-0.1 0 0 0.1 0 0.1-0.2 0.3-0.3 0.6 0 0 0 0.1-0.1 0-0.1 0-0.1 0.4-0.3 0.7 0 0 0 0 0 0.1 0 0.1-0.2 0.3-0.3 0.6 0 0.1 0 0.1 0 0.1-0.1 0.1-0.1 0.4-0.2 0.8 0 0 0 0 0 0 0 0-0.2 0.4-0.3 0.8 0 0 0 0.1 0 0 0 0.1-0.1 0.1-0.1 0.2 0 0.2-0.1 0.3 0 0.1 0 0.3 0 0-0.1 0.1 0 0.1 0 0.1 0 0.2 0 0.4-0.1 0.1-0.1 0.2 0 0.2 0 0.4-0.1 0.1-0.1 0.2 0 0 0 0 0 0.1 0 0.2 0 0.2 0 0.3 0 0.1 0 0.2-0.1 0.2-0.1 0.4 0 0 0 0.1 0 0.3 0 0.5c0 2.8 1 4.8 2.6 5.7q0.9 0.5 1.7 1c-1.6-0.9-2.6-2.9-2.6-5.7q0-0.3 0-0.5 0-0.1 0-0.2z"/>
					<g id="Layer">
						<path id="Layer" class="s1" d="m48.2 71.7c4.9-2.9 8.9-0.6 8.9 5.1 0 5.6-3.9 12.5-8.9 15.4-4.9 2.8-8.9 0.5-8.9-5.1 0-5.7 4-12.6 8.9-15.4z"/>
					</g>
					<g id="Layer">
						<path id="Layer" class="s2" d="m48.2 74.2c3.7-2.1 6.8-0.4 6.8 3.9 0 4.3-3 9.6-6.8 11.8-3.7 2.1-6.8 0.4-6.8-3.9 0-4.3 3-9.6 6.8-11.8z"/>
					</g>
					<path id="Layer" class="s4" d="m48.2 74.2c-3.8 2.2-6.8 7.5-6.8 11.8 0 1.7 0.5 3 1.4 3.8 1 0.2 2.2-0.1 3.5-0.9 3.7-2.1 6.7-7.4 6.7-11.7 0-1.7-0.5-3.1-1.3-3.9-1-0.1-2.2 0.2-3.5 0.9z"/>
					<path id="Layer" class="s8" d="m41.4 86q0 1.1 0.3 2 0.8-0.2 1.8-0.8c3.7-2.1 6.7-7.4 6.7-11.7q0-1.1-0.3-2-0.8 0.2-1.7 0.7c-3.8 2.2-6.8 7.5-6.8 11.8z"/>
				</g>
				<g id="Layer">
					<g id="Layer">
						<g id="Layer">
							<path id="Layer" class="s4" d="m32.1 65.9v5.5l28-16.3-0.1-5.4z"/>
						</g>
					</g>
					<g id="Layer">
						<path id="Layer" class="s1" d="m33.9 65.7v4l7.3-4.1v-4.1z"/>
					</g>
					<g id="Layer">
						<path id="Layer" class="s2" d="m42.4 61v1.5l7.3-4.1v-1.6z"/>
					</g>
					<g id="Layer">
						<path id="Layer" class="s5" d="m44.3 59.9v1.5l3.7-2.1v-1.5z"/>
					</g>
					<g id="Layer">
						<path id="Layer" class="s2" d="m53.2 56.7q0.1-0.1 0.1-0.2 0-0.1 0-0.1 0-0.1 0.1-0.2 0 0 0 0 0.1-0.2 0.1-0.3 0 0 0 0 0.1-0.1 0.2-0.2 0 0 0 0 0.1-0.1 0.2-0.2 0-0.1 0-0.1 0.1 0 0.1-0.1 0.1 0 0.1-0.1 0.1 0 0.2-0.1 0.1-0.1 0.2-0.1 0 0 0 0 0.1 0 0.2 0 0 0 0-0.1 0.1 0 0.2 0.1 0 0 0 0 0.1 0 0.2 0 0 0 0 0l-0.4-0.2-0.2-0.1q0 0 0 0-0.1-0.1-0.1-0.1 0 0-0.1 0 0 0 0 0 0 0 0 0 0 0 0 0 0 0-0.1 0 0 0-0.1 0 0 0 0 0 0 0 0 0 0 0 0 0-0.1 0-0.1 0-0.1 0-0.1 0 0 0 0 0 0 0.1-0.1 0.1 0 0-0.1 0-0.1 0.1-0.2 0.2-0.1 0-0.1 0 0 0.1-0.1 0.1 0 0 0 0.1 0 0-0.1 0 0 0 0 0.1 0 0-0.1 0.1 0 0 0 0 0 0 0 0 0 0-0.1 0.1 0 0 0 0.1-0.1 0-0.1 0 0 0 0 0.1 0 0 0 0 0 0 0 0-0.1 0.1-0.1 0.1 0 0.1 0 0.1 0 0 0 0 0 0 0 0 0 0.1-0.1 0.1 0 0.1 0 0.1 0 0.1 0 0.1 0 0 0 0 0 0 0 0-0.1 0.1-0.1 0.2 0 0 0 0 0 0.1 0 0.1 0 0 0 0 0 0.1 0 0.2 0 0.5 0.3 0.7l0.6 0.4q-0.3-0.2-0.3-0.7 0-0.1 0-0.3 0 0 0 0z"/>
						<g id="Layer">
							<path id="Layer" class="s1" d="m54.3 55.1c0.6-0.3 1.1-0.1 1.1 0.6 0 0.7-0.5 1.6-1.1 1.9-0.6 0.4-1.1 0.1-1.1-0.6 0-0.7 0.5-1.6 1.1-1.9z"/>
						</g>
					</g>
					<g id="Layer">
						<path id="Layer" class="s2" d="m56.7 54.9q0-0.1 0-0.2 0-0.1 0-0.1 0.1-0.1 0.1-0.2 0.1-0.2 0.1-0.3 0 0 0 0 0.1-0.1 0.2-0.2 0 0 0 0 0.1-0.1 0.2-0.2 0-0.1 0-0.1 0.1 0 0.1-0.1 0.1 0 0.1-0.1 0.1 0 0.2-0.1 0.1-0.1 0.2-0.1 0 0 0.1 0 0.1 0 0.1 0 0 0 0.1 0 0-0.1 0.1 0 0 0 0 0 0.1 0 0.2 0 0 0 0 0l-0.4-0.2-0.2-0.1q0 0 0 0 0-0.1-0.1-0.1 0 0 0 0-0.1 0-0.1 0 0 0 0 0 0 0 0 0 0 0-0.1 0 0 0 0 0 0 0-0.1 0 0 0 0 0 0 0 0 0-0.1 0-0.1 0 0 0-0.1 0 0 0 0 0.1 0 0 0 0-0.1 0-0.2 0-0.1 0.1-0.2 0.2 0 0-0.1 0 0 0.1-0.1 0.1 0 0 0 0.1 0 0 0 0-0.1 0-0.1 0.1 0 0-0.1 0.1 0 0 0 0 0 0 0 0 0 0 0 0.1-0.1 0-0.1 0.1 0 0-0.1 0 0 0.1 0 0.1 0 0 0 0 0 0 0 0 0 0.1-0.1 0.1 0 0.1 0 0.1 0 0 0 0 0 0 0 0 0 0.1 0 0.1-0.1 0.1-0.1 0.1 0 0.1 0 0.1 0 0 0 0 0 0 0 0 0 0.1 0 0.2 0 0-0.1 0 0 0.1 0 0.1 0 0 0 0 0 0.1 0 0.2 0 0.6 0.3 0.7l0.6 0.4q-0.3-0.2-0.3-0.7 0-0.1 0-0.3 0.1 0 0.1 0z"/>
						<g id="Layer">
							<path id="Layer" class="s1" d="m57.7 53.3c0.6-0.4 1.1-0.1 1.1 0.6 0 0.7-0.5 1.6-1.1 1.9-0.6 0.4-1.1 0.1-1.1-0.6 0-0.7 0.5-1.6 1.1-1.9z"/>
						</g>
					</g>
					<g id="Layer">
						<g id="Layer">
							<g id="Layer">
								<path id="Layer" class="s6" d="m42.8 64.3l-0.1-0.1v-1.4l0.1 0.1z"/>
							</g>
							<g id="Layer">
								<path id="Layer" class="s6" d="m42.8 62.9l-0.1-0.1 0.4-0.2h0.2z"/>
							</g>
							<g id="Layer">
								<path id="Layer" class="s7" d="m43.3 62.6v1.4l-0.5 0.3v-1.4z"/>
							</g>
						</g>
					</g>
					<g id="Layer">
						<g id="Layer">
							<g id="Layer">
								<path id="Layer" class="s6" d="m43.9 63.8l-0.2-0.1v-1.4l0.1 0.1z"/>
							</g>
							<g id="Layer">
								<path id="Layer" class="s6" d="m43.8 62.4l-0.1-0.1 0.5-0.3 0.1 0.1z"/>
							</g>
							<g id="Layer">
								<path id="Layer" class="s7" d="m44.3 62.1v1.4l-0.4 0.3-0.1-1.4z"/>
							</g>
						</g>
					</g>
					<g id="Layer">
						<g id="Layer">
							<g id="Layer">
								<path id="Layer" class="s6" d="m48.2 61.4l-0.2-0.1v-1.4l0.2 0.1z"/>
							</g>
							<g id="Layer">
								<path id="Layer" class="s6" d="m48.2 60l-0.2-0.1 0.5-0.2h0.2z"/>
							</g>
							<g id="Layer">
								<path id="Layer" class="s7" d="m48.7 59.7v1.4l-0.5 0.3v-1.4z"/>
							</g>
						</g>
					</g>
					<g id="Layer">
						<g id="Layer">
							<g id="Layer">
								<path id="Layer" class="s6" d="m49.2 60.9l-0.1-0.1v-1.4l0.1 0.1z"/>
							</g>
							<g id="Layer">
								<path id="Layer" class="s6" d="m49.2 59.5l-0.1-0.1 0.4-0.3 0.2 0.1z"/>
							</g>
							<g id="Layer">
								<path id="Layer" class="s7" d="m49.7 59.2v1.4l-0.5 0.3v-1.4z"/>
							</g>
						</g>
					</g>
				</g>
				<path id="Layer" class="s8" d="m32.2 111.8l28-16.2v-4.6l-28 15.6z"/>
				<path id="Layer" class="s4" d="m6.7 97l25.5 14.8v-5.2l-25.5-14.2z"/>
			</g>
			<g id="Layer">
				<g id="Layer">
					<path id="Layer" class="s1" d="m21.5 47.4l6.3 3.7 10.3-6-6.2-3.6z"/>
				</g>
				<g id="Layer">
					<g id="Layer">
						<path id="Layer" class="s9" d="m29.1 51.7l-2.7-1.6v-13.1l2.6 1.5z"/>
					</g>
					<g id="Layer">
						<path id="Layer" class="s10" d="m29 38.5l-2.6-1.5 8.6-5 2.7 1.5z"/>
					</g>
					<g id="Layer">
						<path id="Layer" class="s11" d="m37.7 33.5v13.2l-8.6 5-0.1-13.2z"/>
					</g>
					<g id="Layer">
						<path id="Layer" class="s12" d="m37 35v11l-7.2 4.1v-10.9z"/>
					</g>
					<path id="Layer" class="s13" d="m29.8 50.1l7.2-4.1v-8c0 0-1.7 1.4-1.7 3.7-0.1 2.3-2.1 5-3.5 6-1.4 0.9-2 2.4-2 2.4z"/>
					<path id="Layer" class="s14" d="m29.8 42.4c0 0 2 0.3 2.7 1.9 0.8 1.6 1.8 1.8 2.4 1.9 0.7 0.1 2.1-0.2 2.1-0.2l-7.2 4.1z"/>
					<path id="Layer" class="s15" d="m26.7 37.8c0 0 0.5 3.4 1.9 1.1z"/>
					<g id="Layer">
						<g id="Layer">
							<g id="Layer">
								<path id="Layer" fill-rule="evenodd" class="s16" d="m32.3 38.7l0.2 0.7-0.2 0.1v-0.2l-0.3 0.1v0.3l-0.2 0.1 0.2-1zm-0.2 0.6l0.2-0.1v-0.1q-0.1-0.1-0.1-0.2 0 0.1 0 0.2z"/>
							</g>
							<g id="Layer">
								<path id="Layer" class="s16" d="m31.8 38.9l-0.2 1-0.2 0.1v-0.3q0-0.1-0.1-0.3 0 0.2 0 0.3l-0.1 0.4-0.2 0.1-0.1-0.7 0.1-0.1 0.1 0.3q0 0.2 0 0.3 0.1-0.2 0.1-0.4l0.1-0.3 0.1-0.1 0.1 0.3q0 0.1 0 0.2 0.1-0.1 0.1-0.3v-0.4z"/>
							</g>
						</g>
						<g id="Layer">
							<path id="Layer" class="s16" d="m32.9 38.3q0.1-0.1 0.2-0.1l-0.1 0.2q0 0-0.1 0.1-0.1 0-0.1 0.1 0 0.1 0.1 0.1 0.2-0.1 0.2 0.1c0 0.1-0.1 0.3-0.3 0.4q-0.1 0.1-0.2 0.1v-0.2q0.1 0 0.2 0 0.1-0.1 0.1-0.2 0-0.1-0.1 0-0.2 0-0.2-0.2c0-0.1 0.1-0.3 0.3-0.4z"/>
						</g>
						<g id="Layer">
							<path id="Layer" fill-rule="evenodd" class="s16" d="m34.3 39.1q0.1 0.1 0.1 0.3 0 0.2-0.1 0.4-0.1 0.2-0.4 0.3-0.1 0.1-0.2 0.1v-0.8q0.1-0.1 0.3-0.2 0.2-0.1 0.3-0.1zm-0.3 0.8q0.2-0.1 0.2-0.4 0-0.3-0.2-0.1-0.1 0-0.1 0v0.6z"/>
						</g>
						<g id="Layer">
							<path id="Layer" class="s16" d="m33.9 37.8v0.8l-0.2 0.1v-0.3l-0.3 0.1v0.4l-0.2 0.1v-0.9l0.2-0.1v0.4l0.3-0.2v-0.3z"/>
						</g>
						<g id="Layer">
							<path id="Layer" class="s16" d="m34.2 37.6v0.8l-0.2 0.1v-0.8z"/>
						</g>
						<g id="Layer">
							<path id="Layer" class="s16" d="m35 37.1v0.9l-0.2 0.1-0.2-0.3q0-0.1-0.1-0.2 0 0.2 0 0.4v0.2l-0.1 0.1v-0.8l0.2-0.1 0.1 0.2q0.1 0.1 0.1 0.2 0-0.2 0-0.3v-0.3z"/>
						</g>
						<g id="Layer">
							<path id="Layer" class="s16" d="m35.5 36.8q0.2-0.1 0.2-0.1v0.2q0 0-0.2 0c-0.1 0.1-0.2 0.3-0.2 0.5q0 0.2 0.2 0.1 0.1 0 0.1-0.1v-0.1h-0.1v-0.1l0.3-0.2v0.5c-0.1 0-0.2 0.1-0.3 0.2q-0.2 0.1-0.3 0-0.1 0-0.1-0.2c0-0.3 0.2-0.6 0.4-0.7z"/>
						</g>
						<g id="Layer">
							<path id="Layer" fill-rule="evenodd" class="s16" d="m31.7 40.6q0.1 0 0.1 0.1 0 0.2-0.1 0.3-0.1 0.1-0.2 0.2h-0.1v0.4l-0.1 0.1v-0.9q0-0.1 0.2-0.1 0.1-0.1 0.2-0.1zm-0.2 0.5q0.1-0.1 0.1-0.3 0-0.1-0.1 0h-0.1v0.3z"/>
						</g>
						<g id="Layer">
							<path id="Layer" fill-rule="evenodd" class="s16" d="m32.2 40.2c0.3-0.1 0.4 0 0.4 0.2 0 0.3-0.1 0.6-0.4 0.7-0.2 0.1-0.3 0-0.3-0.2 0-0.3 0.1-0.6 0.3-0.7zm0 0.7c0.2 0 0.2-0.2 0.2-0.4 0-0.1 0-0.2-0.2-0.1-0.1 0-0.1 0.2-0.1 0.4q0 0.2 0.1 0.1z"/>
						</g>
						<g id="Layer">
							<path id="Layer" class="s16" d="m33.6 39.4l-0.2 1-0.1 0.1-0.1-0.3q0-0.1 0-0.3h-0.1q0 0.2 0 0.3l-0.1 0.4-0.1 0.1-0.2-0.7 0.2-0.1v0.3q0 0.1 0.1 0.3 0-0.2 0-0.4l0.1-0.4 0.1-0.1 0.1 0.4q0 0.1 0 0.2h0.1q0-0.1 0-0.3l0.1-0.4z"/>
						</g>
						<g id="Layer">
							<path id="Layer" class="s16" d="m35 38.6v0.2l-0.3 0.2v0.1l0.3-0.1v0.1l-0.3 0.2v0.2l0.3-0.2v0.2l-0.5 0.3v-0.9z"/>
						</g>
						<g id="Layer">
							<path id="Layer" fill-rule="evenodd" class="s16" d="m35.6 38.9c0.1 0.1 0.1 0.2 0.1 0.2l-0.2 0.1q0 0 0-0.2 0-0.1-0.1-0.1l-0.1 0.1v0.3l-0.2 0.1v-0.8q0.1-0.1 0.3-0.2 0.1-0.1 0.2-0.1 0.1 0.1 0.1 0.2c0 0.1-0.1 0.2-0.2 0.3q0.1 0 0.1 0.1zm-0.2-0.1q0.1-0.1 0.1-0.2 0-0.1-0.1-0.1-0.1 0.1-0.1 0.1v0.2z"/>
						</g>
					</g>
					<g id="Layer">
						<g id="Layer">
							<path id="Layer" class="s17" d="m31.2 42.7c0.4-0.2 0.6-0.1 0.6 0.3 0 0.3-0.2 0.8-0.5 0.9-0.4 0.2-0.6 0.1-0.6-0.3 0-0.3 0.2-0.8 0.5-0.9z"/>
						</g>
						<g id="Layer">
							<path id="Layer" class="s18" d="m31.5 42.7c0.1 0 0.2 0 0.2 0.1 0 0.2-0.1 0.3-0.2 0.4-0.1 0-0.2 0-0.2-0.2 0-0.1 0.1-0.2 0.2-0.3z"/>
						</g>
					</g>
					<g id="Layer">
						<path id="Layer" class="s17" d="m35.3 40.6c0.2-0.1 0.4 0 0.4 0.3 0 0.2-0.2 0.5-0.4 0.6-0.2 0.2-0.4 0.1-0.4-0.2 0-0.2 0.2-0.5 0.4-0.7z"/>
					</g>
					<g id="Layer">
						<path id="Layer" class="s18" d="m35.4 40.7q0.1-0.1 0.1 0.1c0 0 0 0.1-0.1 0.2q-0.1 0-0.1-0.1c0-0.1 0-0.2 0.1-0.2z"/>
					</g>
					<g id="Layer">
						<path id="Layer" class="s17" d="m33.5 45.3c0.4-0.2 0.7-0.1 0.7 0.3 0 0.4-0.3 0.9-0.7 1.1-0.3 0.2-0.6 0-0.6-0.4 0-0.4 0.3-0.8 0.6-1z"/>
					</g>
					<g id="Layer">
						<path id="Layer" class="s18" d="m33.7 45.3c0.2 0 0.3 0 0.3 0.1 0 0.2-0.1 0.3-0.2 0.4-0.2 0.1-0.3 0-0.3-0.1 0-0.2 0.1-0.3 0.2-0.4z"/>
					</g>
					<g id="Layer">
						<path id="Layer" class="s17" d="m34.8 43.2c0.2-0.1 0.3 0 0.3 0.3 0 0.2-0.2 0.4-0.4 0.5-0.2 0.1-0.3 0-0.3-0.2 0-0.2 0.2-0.5 0.4-0.6z"/>
					</g>
					<g id="Layer">
						<path id="Layer" class="s18" d="m34.7 43.4q0.1 0 0.1 0.1c0 0.1-0.1 0.1-0.1 0.2q-0.1 0-0.1-0.1c0-0.1 0-0.2 0.1-0.2z"/>
					</g>
				</g>
			</g>
			<g id="Layer">
				<path id="Layer" class="s1" d="m29.4 51.8c1.7 0.9 1.7 2.5 0 3.5-1.7 0.9-4.4 0.9-6.1 0-1.7-1-1.7-2.6 0-3.5 1.7-1 4.4-1 6.1 0z"/>
			</g>
			<g id="Layer">
				<path id="Layer" class="s19" d="m29.1 52.4q0 0.1 0 0.1 0 0-0.1 0.1 0 0 0 0 0 0 0 0.1 0 0 0 0-0.1 0-0.1 0.1 0 0 0 0-0.1 0.1-0.1 0.1 0 0 0 0-0.1 0.1-0.1 0.1 0 0 0 0-0.1 0.1-0.1 0.1-0.1 0-0.1 0 0 0.1-0.1 0.1-0.1 0.1-0.2 0.1 0 0-0.1 0 0 0.1-0.1 0.1 0 0-0.1 0 0 0-0.1 0.1 0 0-0.1 0 0 0-0.1 0 0 0-0.1 0.1-0.1 0-0.1 0-0.1 0-0.2 0 0 0-0.1 0-0.1 0-0.1 0-0.1 0-0.2 0 0 0 0 0-0.1 0.1-0.2 0.1-0.1 0-0.1 0-0.1 0-0.2-0.1 0 0 0 0-0.1 0-0.2 0 0 0-0.1 0-0.1 0-0.2 0 0 0 0 0-0.1 0-0.2-0.1-0.1 0-0.2 0 0 0-0.1 0 0 0-0.1-0.1 0 0-0.1 0-0.1 0-0.1-0.1-0.1 0-0.1 0-0.1 0-0.2-0.1-0.7-0.4-0.8-0.9 0.2 0.9 0.4 1.7 0 0.1 0 0.1 0 0 0 0 0 0 0.1 0.1 0 0 0 0 0 0 0 0.1 0 0 0 0 0.1 0.1 0.1 0.1 0 0 0 0 0.2 0.2 0.4 0.4 0.1 0 0.2 0.1 0 0 0.1 0 0 0 0.1 0 0 0.1 0.1 0.1 0 0 0.1 0 0 0 0.1 0 0 0 0.1 0.1 0 0 0 0 0.1 0 0.2 0 0 0 0 0 0.1 0 0.2 0 0 0 0 0 0 0 0 0 0.1 0 0.2 0 0 0 0.1 0 0 0.1 0 0.1 0.1 0 0.1 0 0 0 0 0 0.1 0 0.2 0 0 0 0-0.1 0.1 0 0.1 0 0.1 0 0.1 0 0.1 0 0.1 0 0 0 0.1 0 0 0 0 0 0.1 0 0.2 0 0 0 0 0 0.1 0 0.2-0.1 0 0 0 0 0.1 0 0.1 0 0 0 0 0 0.1 0 0.1-0.1 0.1 0 0.1 0 0.1 0 0.1 0 0 0 0.1 0 0.1-0.1 0.1-0.1 0.1-0.1 0.1-0.1 0 0 0.1 0 0 0 0 0 0-0.1 0.1-0.1 0 0 0 0 0 0 0.1-0.1 0 0 0 0 0 0 0 0 0 0 0-0.1 0.1 0 0.1 0 0 0 0-0.1 0 0 0 0 0.1 0 0.1 0 0 0 0-0.1 0 0 0 0 0 0 0-0.1 0 0 0 0 0 0 0 0 0.1 0 0.1-0.1 0-0.3 0.1-0.7 0.1-0.3 0.2-0.6 0-0.2 0-0.4 0 0.1 0 0.1z"/>
				<path id="Layer" class="s20" d="m29.2 44.7q0 0.1 0 0.1 0 0 0 0 0 0 0 0.1-0.1 0-0.1 0 0 0 0 0 0 0 0 0.1 0 0 0 0 0 0 0 0 0 0.1 0 0.1 0 0 0 0 0 0-0.1 0 0 0.1 0 0.1 0 0 0 0 0 0 0 0.1 0 0-0.1 0 0 0 0 0 0 0.1 0 0.1 0 0-0.1 0 0 0.1 0 0.1 0 0 0 0-0.1 0-0.1 0 0 0.1 0 0.1 0 0-0.1 0 0 0 0 0 0 0 0 0.1-0.1 0-0.1 0 0 0 0 0-0.1 0-0.1 0.1-0.1 0-0.2 0 0 0.1 0 0.1-0.1 0-0.2 0 0 0 0 0.1-0.1 0-0.2 0-0.1 0-0.1 0.1-0.1 0-0.1 0-0.1 0-0.2 0 0 0-0.1 0 0 0 0 0-0.1 0.1-0.2 0.1 0 0-0.1 0 0 0-0.1 0-0.1 0-0.1 0-0.1 0-0.2 0 0 0-0.1 0-0.1 0-0.1 0-0.1 0-0.1 0-0.1 0-0.2 0 0 0-0.1 0-0.1 0-0.1-0.1-0.1 0-0.2 0 0 0-0.1 0 0 0-0.1 0-0.1-0.1-0.1-0.1-0.1 0-0.1 0-0.1 0-0.1 0-0.1 0-0.1-0.1-0.1 0-0.1 0-0.1 0-0.1 0-0.1-0.1-0.2-0.1c-0.5-0.3-0.8-0.7-0.8-1.1v7.4c0 0.4 0.3 0.8 0.8 1.1q0.1 0.1 0.2 0.1 0 0 0.1 0 0 0.1 0.1 0.1 0 0 0 0 0 0 0 0 0.1 0 0.2 0.1 0 0 0.1 0 0 0 0 0 0 0 0.1 0 0 0 0.1 0 0 0.1 0.1 0.1 0 0 0 0 0.1 0 0.2 0 0 0 0 0 0 0 0.1 0 0 0 0.1 0 0 0 0.1 0 0 0 0 0 0.1 0 0.2 0 0 0 0 0 0.1 0 0.1 0 0.1 0.1 0.1 0 0.1 0 0.1 0 0 0 0 0 0.1 0 0.2 0 0.1 0 0.1 0 0 0 0 0 0 0 0.1 0 0.1 0 0.2 0 0 0 0 0 0 0 0 0 0.1 0 0.1 0 0.1 0 0.1-0.1 0.1 0 0.2 0 0 0 0.1 0 0 0 0 0 0.1-0.1 0.2-0.1 0 0 0 0 0.1 0 0.2-0.1 0 0 0 0 0.1 0 0.2-0.1 0 0 0 0 0 0 0 0 0.1 0 0.1-0.1 0 0 0 0 0.1 0 0.1 0 0 0 0 0 0-0.1 0.1-0.1 0 0 0 0 0 0 0 0 0 0 0-0.1 0.1 0 0.1 0 0 0 0 0 0 0 0 0 0.1-0.1 0.1-0.1 0 0 0 0 0 0 0 0 0-0.1 0.1-0.1 0 0 0 0 0 0 0-0.1 0 0 0 0 0 0 0 0 0 0 0 0 0.1-0.1 0.1-0.1 0 0 0 0 0 0 0 0 0 0 0-0.1 0 0 0 0 0 0 0 0 0 0 0-0.1 0 0 0 0 0 0 0 0 0 0 0 0 0 0 0-0.1 0 0 0 0 0 0 0 0 0 0 0-0.1 0.1-3.7 0.1-7.4 0 0 0 0z"/>
				<path id="Layer" class="s21" d="m29.2 44.7q0 0.1 0 0.1 0 0 0 0 0 0 0 0.1-0.1 0-0.1 0 0 0 0 0 0 0 0 0.1 0 0 0 0 0 0 0 0 0 0.1 0 0.1 0 0 0 0 0 0-0.1 0 0 0.1 0 0.1 0 0 0 0 0 0 0 0.1 0 0-0.1 0 0 0 0 0 0 0.1 0 0.1 0 0-0.1 0 0 0.1 0 0.1 0 0 0 0-0.1 0-0.1 0 0 0.1 0 0.1 0 0-0.1 0 0 0 0 0 0 0 0 0.1-0.1 0-0.1 0 0 0 0 0-0.1 0-0.1 0.1-0.1 0-0.2 0 0 0.1 0 0.1-0.1 0-0.2 0 0 0 0 0.1-0.1 0-0.2 0-0.1 0-0.1 0.1-0.1 0-0.1 0-0.1 0-0.2 0 0 0-0.1 0 0 0 0 0-0.1 0.1-0.2 0.1 0 0-0.1 0 0 0-0.1 0-0.1 0-0.1 0-0.1 0-0.2 0 0 0-0.1 0-0.1 0-0.1 0-0.1 0-0.1 0-0.1 0-0.2 0 0 0-0.1 0-0.1 0-0.1-0.1-0.1 0-0.2 0 0 0-0.1 0 0 0-0.1 0-0.1-0.1-0.1-0.1-0.1 0-0.1 0-0.1 0-0.1 0-0.1 0-0.1-0.1-0.1 0-0.1 0-0.1 0-0.1 0-0.1-0.1-0.2-0.1c-0.5-0.3-0.8-0.7-0.8-1.1v7.4c0 0.4 0.3 0.8 0.8 1.1q0.1 0.1 0.2 0.1 0 0 0.1 0 0 0.1 0.1 0.1 0 0 0 0 0 0 0 0 0.1 0 0.2 0.1 0 0 0.1 0 0 0 0 0 0 0 0.1 0 0 0 0.1 0 0 0.1 0.1 0.1 0 0 0 0 0.1 0 0.2 0 0 0 0 0 0 0 0.1 0 0 0 0.1 0 0 0 0.1 0 0 0 0 0 0.1 0 0.2 0 0 0 0 0 0.1 0 0.1 0 0.1 0.1 0.1 0 0.1 0 0.1 0 0 0 0 0 0.1 0 0.2 0 0.1 0 0.1 0 0 0 0 0 0 0 0.1 0 0.1 0 0.2 0 0 0 0 0 0 0 0 0 0.1 0 0.1 0 0.1 0 0.1-0.1 0.1 0 0.2 0 0 0 0.1 0 0 0 0 0 0.1-0.1 0.2-0.1 0 0 0 0 0.1 0 0.2-0.1 0 0 0 0 0.1 0 0.2-0.1 0 0 0 0 0 0 0 0 0.1 0 0.1-0.1 0 0 0 0 0.1 0 0.1 0 0 0 0 0 0-0.1 0.1-0.1 0 0 0 0 0 0 0 0 0 0 0-0.1 0.1 0 0.1 0 0 0 0 0 0 0 0 0 0.1-0.1 0.1-0.1 0 0 0 0 0 0 0 0 0-0.1 0.1-0.1 0 0 0 0 0 0 0-0.1 0 0 0 0 0 0 0 0 0 0 0 0 0.1-0.1 0.1-0.1 0 0 0 0 0 0 0 0 0 0 0-0.1 0 0 0 0 0 0 0 0 0 0 0-0.1 0 0 0 0 0 0 0 0 0 0 0 0 0 0 0-0.1 0 0 0 0 0 0 0 0 0 0 0-0.1 0.1-3.7 0.1-7.4 0 0 0 0z"/>
				<path id="Layer" class="s22" d="m24.7 51.4q0.1 0.1 0.2 0.1 0 0 0 0 0.1 0.1 0.2 0.1 0 0 0 0 0 0 0 0 0.1 0 0.2 0.1 0 0 0 0 0.1 0 0.1 0 0 0 0.1 0 0 0 0.1 0 0 0.1 0.1 0.1 0 0 0 0 0.1 0 0.2 0 0 0 0 0 0 0 0.1 0 0 0 0.1 0 0 0 0.1 0 0 0 0 0 0.1 0 0.2 0 0 0 0 0 0.1 0 0.1 0 0 0 0.1 0 0.1 0 0.1 0 0 0 0 0 0.1 0 0.2 0 0 0 0.1 0 0 0 0 0 0 0 0.1 0 0.1 0 0.1 0 0.1 0 0.1 0 0 0 0 0 0.1 0 0.1 0 0.1-0.1 0.1-0.1 0.1 0 0.1 0 0.1 0 0.2 0 0 0 0 0 0.1-0.1 0.2-0.1 0 0 0 0 0.1 0 0.2-0.1 0 0 0 0 0.1 0 0.2-0.1 0 0 0 0 0 0 0 0 0.1 0 0.1-0.1 0 0 0 0 0 0 0.1 0 0 0 0 0 0-0.1 0-0.1 0.1 0 0.1 0 0 0 0 0 0 0 0-0.1 0 0 0.1 0 0 0 0 0 0 0 0 0 0.1-0.1 0.1-0.1 0 0 0 0 0 0 0 0 0-0.1 0.1-0.1 0 0 0 0 0 0 0-0.1 0 0 0 0 0 0 0 0 0 0 0 0 0-0.1 0.1-0.1 0 0 0 0 0 0 0 0 0 0 0-0.1 0 0 0 0c0 0 0.1-0.3 0.1-0.3q-0.1-0.9-0.1-1.9 0 0 0 0 0-0.1 0.1-0.1 0 0 0 0c0-1.2 0-1.4 0-1.4q0 0 0 0c0 0-0.1 0.2-0.1 0.2q0 0 0 0 0 0.1 0 0.1 0 0 0 0 0 0 0 0 0 0 0 0.1-0.1 0-0.1 0 0 0 0 0 0 0 0 0 0 0.1 0 0.1 0 0 0 0 0 0 0 0-0.1 0.1-0.1 0.1 0 0 0 0 0 0 0 0 0 0-0.1 0.1 0 0 0 0 0 0 0 0.1-0.1 0-0.1 0 0 0 0 0 0 0 0 0 0 0-0.1 0.1 0 0 0 0 0 0 0 0-0.1 0-0.1 0 0 0.1 0 0.1 0 0-0.1 0 0 0 0 0 0 0 0 0-0.1 0.1-0.2 0.1 0 0 0 0.1-0.1 0-0.2 0 0 0 0 0-0.1 0.1-0.2 0.1 0 0 0 0-0.1 0-0.2 0 0 0.1-0.1 0.1 0 0-0.1 0 0 0-0.1 0 0 0 0 0 0 0-0.1 0 0 0-0.1 0.1-0.1 0-0.1 0 0 0 0 0-0.1 0-0.1 0-0.1 0-0.2 0 0 0 0 0 0 0-0.1 0-0.1 0-0.1 0 0 0-0.1 0 0 0 0 0-0.1 0-0.2 0 0 0 0 0-0.1 0-0.1 0-0.1 0-0.1-0.1-0.1 0-0.1 0 0 0 0 0-0.1 0-0.2 0 0 0 0 0-0.1 0-0.1 0-0.1 0-0.1-0.1-0.1 0-0.1 0 0 0-0.1 0 0 0 0 0-0.1 0-0.2-0.1 0 0 0 0 0 0 0 0-0.1 0-0.2 0 0 0 0-0.1-0.1 0-0.2-0.1-0.6-0.3-0.8-0.8v3.4c0.1 0.3 0.4 0.7 0.8 0.9z"/>
				<path id="Layer" class="s19" d="m29.2 44.7q0 0 0 0 0 0 0-0.1 0 0 0 0 0 0 0 0 0 0-0.1-0.1 0 0 0 0l-0.3-1.7q0 0.1 0 0.1 0 0 0 0 0 0.1 0 0.1 0 0 0 0 0 0.1 0 0.1 0 0 0 0 0 0.1 0 0.1 0 0 0 0 0 0.1-0.1 0.1 0 0 0 0 0 0.1 0 0.1 0 0 0 0-0.1 0.1-0.1 0.1 0 0.1 0 0.1 0 0-0.1 0 0 0 0 0 0 0.1 0 0.1 0 0 0 0-0.1 0-0.1 0.1 0 0 0 0-0.1 0-0.2 0.1 0 0 0 0-0.1 0-0.2 0.1 0 0 0 0-0.1 0-0.2 0.1 0 0 0 0-0.1 0-0.1 0-0.1 0-0.1 0-0.1 0.1-0.1 0.1-0.1 0-0.1 0-0.1 0-0.2 0-0.1 0-0.2 0.1-0.1 0-0.1 0-0.1 0-0.1 0-0.1 0-0.2 0 0 0-0.1 0 0 0-0.1 0-0.1 0-0.1 0-0.1 0-0.1 0-0.1 0-0.1 0-0.1-0.1-0.1-0.1-0.1 0-0.1 0-0.1 0-0.2 0 0 0 0 0-0.1 0-0.2-0.1 0 0 0 0-0.1 0-0.2 0 0 0-0.1-0.1 0 0 0 0-0.1 0-0.2-0.1-0.1 0-0.1 0 0 0 0-0.1-0.1 0-0.1 0 0 0 0 0 0 0-0.1-0.1 0 0 0 0 0 0 0 0 0 0-0.1 0 0-0.1 0-0.1 0 0 0 0 0 0-0.1 0 0-0.1 0-0.1 0 0 0 0 0 0 0 0 0-0.1-0.1-0.1 0 0 0 0 0 0 0 0 0-0.1 0-0.1 0 0 0 0 0 0 0 0 0-0.1-0.1-0.1 0 0 0 0 0 0 0-0.1 0 0 0 0 0 0 0 0 0 0 0-0.1 0 0 0 0 0 0 0 0 0-0.1 0-0.1 0 0 0 0 0 0 0-0.1-0.2 0.9-0.3 1.7 0 0 0 0.1 0 0 0 0 0 0 0 0 0 0.1-0.1 0.1 0 0 0.1 0 0 0 0 0.1 0 0 0 0 0 0 0 0 0 0.1 0 0.1 0 0 0 0 0 0 0 0.1 0 0 0 0 0 0 0 0 0 0.1 0 0.1 0.1 0 0.1 0 0 0 0 0.1 0 0 0 0 0 0 0 0 0 0.1 0.1 0.1 0 0 0 0 0 0 0 0.1 0 0 0.1 0 0 0 0 0 0 0.1 0 0.1 0 0 0.1 0 0 0 0 0 0 0.1 0.1 0.1 0 0 0 0 0 0 0 0.1 0.1 0 0.1 0 0 0 0 0 0.1 0 0.1 0 0 0.1 0 0.1 0.1 0 0.2 0.1 0 0 0 0 0.1 0 0.1 0 0.1 0 0.2 0.1 0 0 0 0 0 0 0.1 0 0 0 0.1 0 0 0 0 0 0.1 0.1 0.2 0.1 0 0 0 0 0.1 0 0.2 0 0 0 0 0 0 0 0.1 0 0 0.1 0.1 0.1 0 0 0 0 0.1 0 0.1 0 0 0 0.1 0 0 0 0.1 0 0 0 0 0 0.1 0 0.1 0 0 0 0.1 0 0 0 0.1 0 0 0 0 0 0.1 0 0.2 0 0 0 0 0 0 0 0.1 0 0.1 0 0.2 0 0 0 0 0 0.1 0 0.2-0.1 0 0 0 0 0.1 0 0.2 0 0.1 0 0.1 0 0.1 0 0.1 0 0-0.1 0.1-0.1 0 0 0 0 0.1 0 0.2 0 0 0 0-0.1 0.1 0 0.2 0 0 0 0 0 0.1-0.1 0.2-0.1 0.1-0.1 0.1-0.1 0 0 0 0 0.1 0 0.1-0.1 0 0 0.1 0 0 0 0.1-0.1 0 0 0 0 0 0 0 0 0 0 0 0 0-0.1 0.1-0.1 0 0 0 0 0 0 0 0 0 0 0-0.1 0 0 0 0 0.1 0 0.1 0 0 0 0-0.1 0 0 0 0 0 0 0 0 0.1 0 0.1-0.1 0 0 0 0 0-0.1 0-0.1 0 0 0 0 0 0 0 0 0-0.1 0.1-0.1 0 0 0 0 0 0 0 0 0-0.1 0-0.1 0-0.1 0-0.1z"/>
				<path id="Layer" class="s23" d="m28.2 42.1c-0.9-0.5-2.4-0.5-3.2 0-0.9 0.5-0.9 1.3 0 1.8 0.9 0.5 2.3 0.5 3.2 0 0.8-0.5 0.8-1.3 0-1.8z"/>
			</g>
			<g id="Layer">
				<g id="Layer">
					<path id="Layer" class="s1" d="m54 28.8c-4.9 2.8-4.9 7.4-0.1 10.2 4.8 2.8 12.7 2.8 17.6 0 4.8-2.8 4.9-7.4 0-10.2-4.8-2.8-12.7-2.8-17.5 0z"/>
				</g>
				<g id="Layer">
					<g id="Layer">
						<path id="Layer" class="s24" d="m56.2 30.1c-3.6 2.1-3.6 5.5 0 7.6 3.6 2 9.4 2 13 0 3.6-2.1 3.6-5.5 0-7.6-3.5-2.1-9.4-2.1-13 0z"/>
					</g>
					<path id="Layer" class="s24" d="m76.3 29.2l-4.8 6.3h-17.6l-4.7-6.3z"/>
					<g id="Layer">
						<path id="Layer" class="s25" d="m53.6 25.3c-5.1 2.3-5.1 6.1-0.1 8.5 5.1 2.3 13.2 2.3 18.3 0 5.1-2.4 5.1-6.2 0.1-8.5-5.1-2.3-13.2-2.3-18.3 0z"/>
					</g>
					<g id="Layer">
						<g id="Layer">
							<path id="Layer" class="s26" d="m53 22.3c-5.3 3.1-5.4 8.1 0 11.2 5.3 3.1 14 3.1 19.4 0 5.4-3.1 5.4-8.1 0.1-11.2-5.4-3.1-14.1-3.1-19.5 0z"/>
						</g>
					</g>
					<g id="Layer">
						<path id="Layer" class="s24" d="m53.1 21c-5.4 3.1-5.4 8.1-0.1 11.2 5.3 3.1 14 3.1 19.3 0 5.4-3.1 5.4-8.1 0.1-11.2-5.3-3.1-14-3.1-19.3 0z"/>
					</g>
					<g id="Layer">
						<path id="Layer" class="s26" d="m54 21.4c-4.9 2.8-4.9 7.4-0.1 10.2 4.8 2.8 12.7 2.8 17.6 0 4.8-2.8 4.9-7.4 0-10.2-4.8-2.8-12.7-2.8-17.5 0z"/>
					</g>
					<path id="Layer" class="s27" d="m63.6 24.9c0 0-4.4-6.5-7.4-6.3-3.1 0.3-6.4 3.4-6.8 4.3-0.3 1 7 6.1 9.4 6.6 2.3 0.5 9.3 0.8 8.1-1.6-1.1-2.4-2.3-1.7-3.3-3z"/>
					<path id="Layer" class="s21" d="m67.1 20.9c0 0-0.6-0.7-1.6-1-0.9-0.2-1.8-0.3-3.3 0-1.5 0.3-2.1 0.4-2.9 1-0.7 0.5 1 3 1.7 3.4 0.7 0.3 7-1.5 6.1-3.4z"/>
					<path id="Layer" class="s19" d="m71.5 20.9c0 0-2.9-1.5-4.7-0.6-1.8 1-5.8 1.3-6.5 3.3-0.7 1.9-1.5 2.8-1.7 4.3-0.2 1.5 2.1 4.4 5.6 3.5 3.6-1 4.9-2.4 7.3-3.9 2.4-1.5 4.4-4.2 0-6.6z"/>
					<path id="Layer" class="s14" d="m73.5 27.9c0 0-0.7-2.5-2.7-2.6-2.1-0.1-3.8-0.3-5.6 0-1.7 0.3-4.2 0.9-5.5 1.9-1.4 1-4.2 2.1-4.3 2.7-0.1 0.6-1 3.4 8 2.8 8.9-0.5 10.4-4 10.1-4.8z"/>
					<path id="Layer" class="s21" d="m60.3 27.9c0 0-0.1-2.6-2.1-2.4-2 0.3-6.6-1.4-7-0.5-0.4 0.8-0.8 5.7 4.6 6.5 5.3 0.9 4.8-2.4 4.5-3.6z"/>
					<path id="Layer" class="s14" d="m73.5 27.9c0 0-0.7-2.5-2.7-2.6-2.1-0.1-3.8-0.3-5.6 0-1.7 0.3-4.2 0.9-5.5 1.9-1.4 1-4.2 2.1-4.3 2.7-0.1 0.6-1 3.4 8 2.8 8.9-0.5 10.4-4 10.1-4.8z"/>
					<path id="Layer" class="s28" d="m63.4 32.7c-7 0.5-8-1.1-8.1-2.2 6.1 2.9 13.4 0.3 15.8-1 1.6-0.8 1.8-2.2 1.8-2.9 0.4 0.6 0.6 1.3 0.6 1.3 0.3 0.8-1.2 4.3-10.1 4.8z"/>
				</g>
			</g>
			<g id="Layer">
				<g id="Layer">
					<path id="Layer" class="s1" d="m76.3 54.7c4.7-2.7 8.4-0.5 8.4 4.8 0.1 5.3-3.7 11.8-8.3 14.4-4.6 2.7-8.4 0.6-8.4-4.7 0-5.4 3.7-11.8 8.3-14.5z"/>
				</g>
				<g id="Layer">
					<path id="Layer" class="s2" d="m76.4 57.1c3.5-2 6.3-0.4 6.4 3.7 0 4-2.9 8.9-6.4 11-3.5 2-6.4 0.4-6.4-3.7 0-4 2.8-9 6.4-11z"/>
				</g>
				<path id="Layer" class="s4" d="m76.4 57.1c-3.6 2-6.4 7-6.4 11 0 1.7 0.5 2.9 1.3 3.7 0.9 0.1 2-0.2 3.2-0.9 3.6-2 6.4-7 6.4-11 0-1.6-0.5-2.9-1.3-3.7-0.9-0.1-2 0.2-3.2 0.9z"/>
			</g>
			<path id="Layer" class="s29" d="m80.6 76.1q0 0 0.1 0 0.3 0 0.7 0.1c-0.5-0.1-0.8-0.1-0.8-0.1z"/>
			<g id="Layer">
				<g id="Layer">
					<path id="Layer" class="s2" d="m96.6 54.2q0-0.2 0-0.4 0-0.1 0-0.2 0-0.1 0.1-0.3 0-0.1 0-0.2 0-0.1 0-0.2 0-0.2 0.1-0.4 0-0.1 0-0.2 0-0.2 0.1-0.4 0-0.1 0-0.3 0.1-0.1 0.1-0.2 0-0.1 0.1-0.3 0-0.1 0-0.2 0.1-0.1 0.1-0.2 0.1-0.4 0.2-0.8 0 0 0 0 0.2-0.4 0.3-0.8 0-0.1 0.1-0.2 0.1-0.3 0.2-0.6 0.1 0 0.1-0.1 0.1-0.3 0.3-0.7 0 0 0.1-0.1 0.1-0.3 0.2-0.6 0.1-0.1 0.1-0.1 0.2-0.4 0.4-0.7 0-0.1 0.1-0.1 0.1-0.3 0.3-0.6 0.1-0.1 0.1-0.2 0.2-0.3 0.5-0.6 0-0.1 0-0.1 0.3-0.4 0.5-0.7 0.1 0 0.1-0.1 0.1-0.1 0.2-0.2 0.1-0.1 0.2-0.3 0.1-0.1 0.2-0.2 0-0.1 0.1-0.2 0.3-0.2 0.5-0.4 0-0.1 0-0.1 0.2-0.2 0.4-0.4 0.2-0.2 0.3-0.3 0.1-0.1 0.1-0.1 0.2-0.2 0.4-0.4 0.1 0 0.1-0.1 0.2-0.1 0.3-0.2 0.1-0.1 0.2-0.1 0.1-0.1 0.2-0.2 0.1-0.1 0.2-0.1 0.1-0.1 0.3-0.2 0-0.1 0.1-0.1 0.1-0.1 0.3-0.2 0.1-0.1 0.1-0.1 0.2-0.2 0.5-0.3 0.2-0.1 0.4-0.2 0 0 0.1-0.1 0.2-0.1 0.3-0.1 0.1-0.1 0.1-0.1 0.2 0 0.4-0.1 0.2-0.1 0.4-0.2 0 0 0 0 0.3-0.1 0.5-0.2 0.2 0 0.3 0 0.1 0 0.1-0.1 0.2 0 0.4 0 0 0 0.1 0 0.1-0.1 0.3-0.1 0.1 0 0.1 0 0.2 0 0.3 0 0 0 0.1 0 0.1 0 0.3 0 0 0 0.1 0 0.1 0 0.3 0 0 0 0.1 0 0.1 0.1 0.2 0.1 0.2 0 0.4 0.1 0 0 0 0 0.3 0.1 0.4 0.1 0.1 0.1 0.2 0.1 0.1 0.1 0.3 0.1 0 0.1 0.1 0.1-0.8-0.5-1.7-1 0 0 0 0-0.1 0-0.1 0-0.1-0.1-0.3-0.2 0 0-0.1 0 0 0 0 0-0.2-0.1-0.4-0.2 0 0 0 0 0 0 0 0-0.1 0-0.1 0-0.1 0-0.3-0.1 0 0-0.1 0 0 0 0 0-0.1 0-0.2 0-0.1 0-0.1 0-0.1-0.1-0.3-0.1 0 0 0 0-0.1 0-0.1 0-0.1 0-0.3 0 0 0-0.1 0 0 0-0.1 0-0.1 0-0.1 0-0.1 0-0.2 0.1-0.1 0-0.3 0 0 0 0 0-0.2 0-0.4 0.1-0.1 0-0.2 0-0.1 0-0.2 0.1 0 0 0 0-0.3 0-0.5 0.1-0.1 0-0.1 0.1-0.2 0-0.4 0.1 0 0-0.1 0-0.1 0.1-0.3 0.2 0 0 0 0-0.2 0.1-0.4 0.2-0.1 0-0.1 0-0.2 0.1-0.4 0.3-0.2 0.1-0.4 0.2-0.1 0.1-0.2 0.1-0.1 0.1-0.3 0.2 0 0-0.1 0.1-0.2 0.1-0.3 0.2-0.1 0-0.1 0.1-0.2 0.1-0.3 0.2-0.1 0.1-0.2 0.1-0.1 0.2-0.3 0.3 0 0-0.1 0.1-0.2 0.1-0.4 0.3 0 0.1 0 0.1-0.2 0.1-0.3 0.3 0 0 0 0-0.3 0.2-0.5 0.5 0 0 0 0-0.2 0.2-0.4 0.4 0 0.1-0.1 0.1 0 0.1-0.1 0.2-0.1 0.1-0.2 0.2-0.1 0.1-0.2 0.2-0.1 0.1-0.2 0.2 0 0.1 0 0.1 0 0 0 0-0.3 0.4-0.5 0.7-0.1 0-0.1 0.1 0 0 0 0-0.2 0.3-0.5 0.7 0 0 0 0 0 0.1-0.1 0.1-0.1 0.3-0.3 0.6 0 0.1-0.1 0.1 0 0 0 0-0.2 0.4-0.3 0.7-0.1 0-0.1 0 0 0.1 0 0.2-0.2 0.2-0.3 0.5 0 0.1-0.1 0.1 0 0 0 0.1-0.2 0.3-0.3 0.7 0 0 0 0 0 0-0.1 0.1-0.1 0.3-0.2 0.6 0 0 0 0.1-0.1 0-0.1 0.1-0.1 0.3-0.2 0.7 0 0 0 0-0.1 0-0.1 0.1-0.1 0.4-0.2 0.7 0 0.1 0 0.1 0 0.1 0 0.1-0.1 0.1-0.1 0.3 0 0.1-0.1 0.3 0 0.1 0 0.2-0.1 0.1-0.1 0.2 0 0 0 0.1 0 0.1-0.1 0.3 0 0.1 0 0.3 0 0.1-0.1 0.3 0 0.1 0 0.2 0 0 0 0.1 0 0 0 0.1 0 0.2 0 0.4-0.1 0.1-0.1 0.1 0 0.2 0 0.4 0 0.1 0 0.1 0 0.3 0 0.5c0 2.8 1 4.8 2.6 5.7q0.8 0.5 1.7 1c-1.6-0.9-2.6-2.9-2.6-5.7q0-0.2 0-0.5 0-0.1 0-0.1z"/>
					<g id="Layer">
						<path id="Layer" class="s1" d="m105.5 39.4c4.9-2.8 8.9-0.5 8.9 5.1 0 5.7-4 12.6-8.9 15.4-4.9 2.8-8.9 0.6-8.9-5.1 0-5.7 3.9-12.5 8.9-15.4z"/>
					</g>
					<g id="Layer">
						<path id="Layer" class="s2" d="m105.5 42c3.7-2.2 6.8-0.5 6.8 3.9 0 4.3-3 9.5-6.8 11.7-3.7 2.2-6.8 0.4-6.8-3.9 0-4.3 3-9.6 6.8-11.7z"/>
					</g>
					<path id="Layer" class="s4" d="m105.5 42c-3.8 2.1-6.8 7.4-6.8 11.7 0 1.7 0.5 3.1 1.3 3.9 1.1 0.1 2.3-0.2 3.5-0.9 3.8-2.2 6.8-7.4 6.8-11.8 0-1.7-0.5-3-1.3-3.8-1.1-0.2-2.3 0.1-3.5 0.9z"/>
					<path id="Layer" class="s8" d="m98.7 53.7q0 1.1 0.3 2 0.8-0.2 1.7-0.7c3.8-2.2 6.8-7.4 6.8-11.8q0-1.1-0.3-2-0.8 0.2-1.7 0.8c-3.8 2.1-6.8 7.4-6.8 11.7z"/>
				</g>
				<g id="Layer">
					<path id="Layer" class="s0" d="m98.3 94.6c-5.5 3.1-5.5 8.2-0.1 11.4 5.4 3.1 14.2 3.1 19.6 0 5.5-3.2 5.5-8.3 0.1-11.4-5.4-3.2-14.2-3.2-19.6 0z"/>
				</g>
				<path id="Layer" class="s30" d="m107.9 45.2c0 0 1 1.2 1.8 2.8 0.8 1.6 0 4.8 0 4.8 0 0-3.7-5.8-3.4-6.9 0.4-1.1 1.6-0.7 1.6-0.7z"/>
				<path id="Layer" class="s31" d="m104 67.7c0 0-1.1 11.6-0.7 14.1 0.4 2.4 1.4 15.3 1.4 15.3 0 0 0.2 0.4 0.9 0.4 1.3 0.2 1.5-0.3 1.5-0.3 0 0 2.3-10.6 0.9-14.2l1.6-12.3v-1.8c0 0-4.1-0.5-5.6-1.2z"/>
				<path id="Layer" class="s32" d="m104.8 97c0 0 0.2-0.5 0.2-1.2 0 0 1.8 0.7 3 0 0 0-0.2 0.9 0 1.4 0.3 0.6-2.9 0.5-3.2-0.2z"/>
				<g id="Layer">
					<path id="Layer" class="s32" d="m107.1 97.1c0 0 1 1.7-0.1 2.2-1.2 0.5-1.2-0.3-3.3 1.6-2.1 1.8-4.1 1.1-4.4 0.7-0.6-1 0.5-1.9 5.2-4.5z"/>
					<path id="Layer" class="s33" d="m107 99.3c-1.1 0.6-1.2-0.3-3.3 1.6-2.1 1.8-4.1 1-4.4 0.7q0-0.1 0-0.3c2 0.8 3-0.3 3.9-1 0.9-0.7 1.7-1 3-1.3 1.4-0.3 0.9-1.4 0.9-1.4 0-0.2 0-1.4 0.2-1.4 0 1.3 0.9 2.4-0.3 3.1z"/>
				</g>
				<path id="Layer" class="s34" d="m103.1 65.1c0 0-1.1 10.3-0.5 16.2 0.7 5.9 1.3 12.4 1.1 15.8 0 1.1 4.1 2.3 4.4 0 0.4-2.8 1.6-10.7-0.1-14.1l2.8-15.1c0 0-4.9-0.8-7.7-2.8z"/>
				<path id="Layer" class="s31" d="m110 68.7c0 0-1.1 12.2-0.7 14.8 0.4 2.7 1.4 16.4 1.4 16.4h2.3c0 0 2.4-11.8 0.8-15.1l1.6-13.1v-1.8c0 0-4-0.5-5.4-1.2z"/>
				<g id="Layer">
					<path id="Layer" class="s32" d="m113.1 99.4c0 0 1.1 1.7-0.1 2.2-1.1 0.6-1.1-0.2-3.3 1.6-2.1 1.9-4.1 1.1-4.4 0.7-0.7-0.9 0.5-2.4 5.2-5z"/>
					<path id="Layer" class="s33" d="m113 101.6c-1.1 0.7-1.1-0.2-3.3 1.6-2.1 1.9-4.1 1.1-4.4 0.7q-0.1-0.1-0.1-0.2c2 0.7 3.1-0.3 4-1 0.9-0.8 1.7-1.1 3.1-1.4 1.3-0.3 0.8-1.4 0.8-1.4 0-0.2 0.1-1.4 0.2-1.4 0 1.3 0.9 2.5-0.3 3.1z"/>
				</g>
				<path id="Layer" class="s21" d="m115.9 66.7c0 0 2 3 0.5 9.9-1.4 7-1.9 9.1-1.9 9.1 0 0 0.3 0.9 0 6.4-0.3 5.3-0.3 5-0.5 7.5 0 1-4.1 1.5-4.2-0.7-0.4-4.4-0.8-16.1-0.8-16.1l-1-11.2-4.9-6.5c0 0 10.2 3.5 12.8 1.6z"/>
				<g id="Layer">
					<path id="Layer" class="s31" d="m89.2 59.2c0 0-0.5-0.4-1.7-0.4-1.1 0-1.4 0.3-2 0.6-0.6 0.3-1 0.6-0.9 0.9 0.2 0.3 1.7 0.7 2.6 0.4 0.5-0.2 1.9 0.5 2.2 0.4 0.3 0 0.1-1.8-0.2-1.9z"/>
					<path id="Layer" class="s35" d="m89.4 61.1c-0.3 0.1-1.7-0.6-2.2-0.4-0.7 0.2-1.6 0.1-2.2-0.1q0-0.1 0.1-0.1c0.1-0.2 0.6-0.1 0.8-0.2 0.3-0.1 1.3-0.1 1.8-0.3 0.6-0.1 1.8 0.4 1.8 0.4l0.1 0.1c0 0.3 0 0.6-0.2 0.6z"/>
					<path id="Layer" class="s13" d="m101.9 48.5c0 0-2-2.2-3.5 0.5-1 1.8-2.4 8.5-3.1 9.1-0.3 0.3-6.4 0.7-6.4 0.7 0 0 1 0.8 0 2.6 0 0 8.1 1.8 9.2 0.1 2-3 5.1-10.4 3.8-13z"/>
				</g>
				<g id="Layer">
					<path id="Layer" class="s36" d="m111.1 47.9c-1-0.6-10.4-0.9-11.3 0.1-0.5 0.6-0.7 0.7-1.1 4.3-0.1 1.7 0.4 3.7 1.6 5.2 2.3 2.9 2.4 4.7 2.5 5.6 0.2 1.4-0.6 3.9-0.1 5 0.8 1.6 12.2 2.5 13.5-1.4 0.1-0.1 0.5-0.4-1.5-3.8-4.2-7.2 0.2-13-3.6-15z"/>
					<path id="Layer" class="s37" d="m116.2 66.7q0 0 0 0 0 0 0 0z"/>
				</g>
				<g id="Layer">
					<path id="Layer" class="s38" d="m102.7 45.6c0 0 0.9 1.9 0.7 3.1-0.2 1.1 1.5 1.1 2.2 0.6 0.8-0.4 1.8-1.2 1.5-1.9-0.3-0.6-1.5-2.7-1.3-3.6 0.3-0.9-3.1 1.8-3.1 1.8z"/>
					<path id="Layer" class="s31" d="m105.1 38.4c0 0 2.9 1.7 2.9 4.3-0.1 1.4-1.4 2.7-2.1 3.6-0.7 0.9-2.1 2.9-3.8 2.1-1.7-0.9-3.3-6.1-2-8.8 1.2-2.7 5-1.2 5-1.2z"/>
					<path id="Layer" class="s30" d="m100.3 40.6c0 0 0.1 1.6 3.8 1.3 0.9-0.1 1.4 2.6 1.9 1.7 0.2-0.3 0.7-0.9 0.9-0.6 0.8 1.8-1.1 1.7-0.6 2.9 1.3 2.9 3.6-2.9 2.2-6.2-1-2.4-3.1-4.2-6.6-2.7-3.4 1.5-2.3 5-2.3 5 0 0 0.1-1.3 0.7-1.4z"/>
				</g>
				<path id="Layer" class="s29" d="m77.7 63.5c0 0 2.7-3.5 7.2-3.7 4.4-0.2 5.4 1 8.8 0.3 3.5-0.8 7.9-2.8 8.8 0.5 0.9 3.2 2 2.2 3.5 3.4 3.6 3-14.8 13.8-21.5 12-6.7-1.8-13.5-9.3-6.8-12.5z"/>
				<path id="Layer" class="s21" d="m108.2 45.6c0 0-0.9 0.3-1.9-0.3 0 0-0.2 0.4 0.4 1.4 0 0 1.4-0.1 2-0.4 0.7-0.3-0.2-0.6-0.5-0.7z"/>
				<path id="Layer" class="s24" d="m77.6 70.2c0 0 3.4-7.5 7.1-6.8 3.7 0.6 10.7 1.6 13.3 0.5 2.5-1.2 4.8-1.8 6.6-1.1 1.8 0.7 5.1 4 1.8 5.2-3.2 1.2-17.8 9.8-23.5 8.6-5.8-1.2-7.1-4.4-5.3-6.4z"/>
				<g id="Layer">
					<path id="Layer" class="s31" d="m107.4 65.1c0 0-0.7 0-1.7 0.7-1 0.7-1.1 1.1-1.5 1.7-0.4 0.7-0.6 1.2-0.2 1.4 0.3 0.2 1.9-0.3 2.5-1.1 0.4-0.5 2-0.8 2.3-1 0.3-0.3-1-1.8-1.4-1.7z"/>
					<path id="Layer" class="s35" d="m108.8 66.8c-0.3 0.2-1.9 0.5-2.3 1-0.4 0.5-1.4 1-2 1.1q0 0 0 0c0-0.3 0.5-0.5 0.7-0.8 0.1-0.2 1-0.8 1.4-1.3 0.4-0.5 1.8-0.7 1.8-0.7h0.1c0.3 0.3 0.4 0.6 0.3 0.7z"/>
					<path id="Layer" class="s39" d="m111.4 48.1c0 0-2.2-0.5-2.2 1.7 0 2.2 3.3 9.6 3.1 10.6-0.1 0.5-5.4 4.5-5.4 4.5 0 0 1.4 0.1 1.5 2.4 0 0 8.5-3.3 8.5-5.5-0.1-4-2.6-12.1-5.5-13.7z"/>
				</g>
			</g>
			<path id="Layer" class="s24" d="m79.8 66.2c0 0-3.9 3.1-3.6 4.3 0.2 1.3 4.4 6.5 7.1 6.9 0 0 2-4.5-3.5-11.2z"/>
			<g id="Layer">
				<path id="Layer" class="s2" d="m85.7 75.8q0-0.1-0.1-0.3 0-0.1 0-0.2 0-0.2 0-0.3 0-0.1 0-0.2 0-0.1-0.1-0.3 0-0.1 0-0.3 0-0.1-0.1-0.3 0-0.1 0-0.3-0.1-0.1-0.1-0.3 0-0.1 0-0.2-0.1-0.2-0.1-0.3 0-0.1-0.1-0.2 0-0.1 0-0.2-0.1-0.4-0.3-0.8 0 0 0-0.1-0.1-0.3-0.3-0.7 0-0.1 0-0.2-0.1-0.3-0.3-0.6 0-0.1 0-0.1-0.2-0.4-0.3-0.7-0.1-0.1-0.1-0.2-0.1-0.2-0.3-0.5 0-0.1-0.1-0.2-0.2-0.3-0.3-0.6-0.1-0.1-0.1-0.2-0.2-0.2-0.4-0.5 0-0.1-0.1-0.2-0.2-0.3-0.4-0.7-0.1 0-0.1-0.1-0.2-0.3-0.5-0.6 0-0.1-0.1-0.1 0-0.1-0.1-0.2-0.1-0.2-0.2-0.3-0.1-0.1-0.2-0.2-0.1-0.1-0.2-0.2-0.2-0.2-0.4-0.5 0 0 0 0-0.3-0.2-0.5-0.5-0.1-0.1-0.3-0.3 0 0-0.1 0-0.2-0.2-0.4-0.4 0 0-0.1-0.1-0.1-0.1-0.3-0.2 0-0.1-0.1-0.1-0.1-0.2-0.3-0.3-0.1 0-0.1-0.1-0.2-0.1-0.3-0.2-0.1 0-0.2-0.1-0.1-0.1-0.2-0.2-0.1 0-0.2-0.1-0.2-0.1-0.4-0.2-0.2-0.1-0.4-0.2-0.1-0.1-0.1-0.1-0.2-0.1-0.4-0.2 0 0 0 0-0.2-0.1-0.4-0.2-0.2 0-0.4-0.1 0 0-0.1 0-0.2-0.1-0.5-0.2-0.1 0-0.3-0.1 0 0-0.1 0-0.2 0-0.4-0.1 0 0 0 0-0.2 0-0.4 0 0 0-0.1 0-0.1 0-0.2 0-0.1 0-0.1 0-0.2 0-0.3 0-0.1 0-0.1 0-0.2 0-0.3 0-0.1 0-0.1 0-0.1 0-0.2 0-0.3 0.1-0.5 0.2 0 0 0 0-0.2 0-0.4 0.1-0.1 0-0.1 0-0.2 0.1-0.3 0.2-0.1 0-0.1 0.1 0.8-0.5 1.6-1 0.1 0 0.1 0 0 0 0-0.1 0.2 0 0.4-0.1 0 0 0-0.1 0.1 0 0.1 0 0.2 0 0.4-0.1 0 0 0 0 0 0 0 0 0 0 0 0 0.2-0.1 0.3-0.1 0.1 0 0.1 0 0 0 0.1 0 0.1 0 0.2-0.1 0 0 0 0 0.2 0 0.3 0 0.1 0 0.1 0 0 0 0.1 0 0.1 0 0.2 0 0.1 0 0.1 0 0.1 0 0.1 0 0.1 0 0.2 0 0.1 0 0.1 0 0.2 0 0.4 0.1 0 0 0 0 0.2 0 0.4 0 0.1 0.1 0.1 0.1 0.1 0 0.3 0 0 0 0 0 0.2 0.1 0.5 0.2 0 0 0.1 0 0.2 0.1 0.4 0.2 0 0 0 0 0.2 0.1 0.3 0.1 0.1 0 0.1 0.1 0.2 0 0.4 0.1 0 0.1 0.1 0.1 0.2 0.1 0.4 0.2 0.2 0.1 0.4 0.3 0.1 0 0.1 0.1 0.2 0.1 0.3 0.2 0.1 0 0.2 0.1 0.1 0.1 0.2 0.2 0.1 0 0.2 0.1 0.1 0.1 0.3 0.2 0 0 0.1 0.1 0.2 0.1 0.3 0.2 0.1 0.1 0.1 0.1 0.2 0.2 0.4 0.4 0 0 0.1 0.1 0.1 0.1 0.2 0.2 0.1 0 0.1 0.1 0.2 0.2 0.4 0.4 0 0 0.1 0 0.2 0.3 0.4 0.5 0 0 0 0.1 0.1 0.1 0.2 0.2 0.1 0.1 0.2 0.2 0 0.1 0.1 0.2 0.1 0.1 0.2 0.2 0 0 0 0 0.1 0.1 0.1 0.1 0.2 0.3 0.5 0.7 0 0 0 0 0 0.1 0.1 0.1 0.2 0.3 0.4 0.6 0 0.1 0.1 0.1 0 0.1 0 0.1 0.2 0.3 0.4 0.6 0 0 0 0.1 0 0 0 0 0.2 0.3 0.4 0.7 0 0 0 0 0.1 0.1 0.1 0.1 0.1 0.3 0.3 0.6 0 0 0 0.1 0 0 0 0 0.2 0.4 0.4 0.7 0 0 0 0 0 0.1 0 0.1 0.1 0.3 0.3 0.6 0 0.1 0 0.1 0 0.1 0 0.1 0.2 0.4 0.3 0.8 0 0 0 0 0 0 0 0 0.1 0.4 0.2 0.8 0.1 0.1 0.1 0.1 0 0 0 0.1 0 0.1 0.1 0.2 0 0.2 0 0.3 0.1 0.1 0.1 0.3 0 0 0 0.1 0 0.1 0 0.1 0.1 0.2 0.1 0.4 0 0.1 0.1 0.2 0 0.2 0 0.4 0 0.1 0 0.2 0 0 0 0 0.1 0.1 0.1 0.2 0 0.2 0 0.3 0 0.1 0 0.2 0 0.2 0 0.4 0 0 0 0.1 0.1 0.3 0.1 0.5c-0.1 2.8-1 4.8-2.6 5.7q-0.9 0.5-1.7 1c1.6-0.9 2.6-2.9 2.6-5.7q0-0.3 0-0.5 0-0.1 0-0.2z"/>
				<g id="Layer">
					<path id="Layer" class="s1" d="m76.8 61.1c-4.9-2.9-8.9-0.6-8.9 5.1-0.1 5.6 3.9 12.5 8.8 15.4 5 2.8 9 0.5 9-5.1 0-5.7-4-12.6-8.9-15.4z"/>
				</g>
				<g id="Layer">
					<path id="Layer" class="s2" d="m76.8 63.6c-3.8-2.1-6.8-0.4-6.8 3.9 0 4.3 3 9.6 6.7 11.8 3.8 2.1 6.9 0.4 6.9-3.9 0-4.3-3.1-9.6-6.8-11.8z"/>
				</g>
				<path id="Layer" class="s4" d="m76.8 63.6c3.7 2.2 6.8 7.5 6.8 11.8 0 1.7-0.5 3-1.4 3.9-1 0.1-2.2-0.2-3.5-1-3.7-2.1-6.8-7.4-6.8-11.7 0-1.7 0.5-3.1 1.4-3.9 1-0.1 2.2 0.2 3.5 0.9z"/>
				<path id="Layer" class="s29" d="m83.6 75.4q0 1.1-0.3 2-0.9-0.2-1.8-0.8c-3.7-2.1-6.8-7.4-6.8-11.7q0-1.1 0.3-2 0.9 0.2 1.8 0.7c3.7 2.2 6.8 7.5 6.8 11.8z"/>
			</g>
		</g>
	</g>
</svg>