<svg version="1.2" xmlns="http://www.w3.org/2000/svg" viewBox="0 0 36 79" width="36" height="79">
	<title>Layer</title>
	<defs>
		<linearGradient id="g1" x2="1" gradientUnits="userSpaceOnUse" gradientTransform="matrix(1.252,27.821,-9.124,.411,5.839,8.241)">
			<stop offset="0" stop-color="#fa5fc8"/>
			<stop offset="1" stop-color="#b161cb"/>
		</linearGradient>
	</defs>
	<style>
		.s0 { fill: #8390cd } 
		.s1 { fill: #723e24 } 
		.s2 { fill: #ffaa83 } 
		.s3 { fill: #615a8e } 
		.s4 { fill: #484475 } 
		.s5 { fill: #120f1f } 
		.s6 { fill: #32293a } 
		.s7 { fill: #f29c79 } 
		.s8 { fill: #fe2456 } 
		.s9 { fill: #ff4d75 } 
		.s10 { fill: url(#g1) } 
		.s11 { fill: #f79f7c } 
		.s12 { fill: #feb623 } 
		.s13 { fill: #e29813 } 
		.s14 { fill: #1884aa } 
		.s15 { fill: #f77496 } 
	</style>
	<g id="Layer">
		<g id="-e-step_13">
			<g id="Layer">
				<path id="Layer" class="s0" d="m26.1 64c5.9 3.5 6 9 0.1 12.4-5.9 3.4-15.4 3.4-21.3 0-5.9-3.4-6-8.9-0.1-12.4 5.9-3.4 15.4-3.4 21.3 0z"/>
			</g>
			<path id="Layer" class="s1" d="m10.3 10.2c0 0-0.8 1.5-1.2 3.3-0.5 1.8 1.2 4.8 1.2 4.8 0 0 2.3-6.7 1.7-7.7-0.6-1.1-1.7-0.4-1.7-0.4z"/>
			<path id="Layer" class="s2" d="m19.9 34.9c0 0 1.2 12.5 0.8 15.2-0.5 2.7-1.5 16.7-1.5 16.7 0 0-0.3 0.4-1 0.5-1.5 0.1-1.6-0.4-1.6-0.4 0 0-2.6-11.5-1.1-15.5l-1.7-13.3v-1.9c0 0 4.5-0.6 6.1-1.3z"/>
			<path id="Layer" class="s3" d="m19 66.6c0 0-0.2-0.5-0.1-1.3 0 0-2 0.9-3.3 0.1 0 0 0.1 0.9-0.1 1.5-0.2 0.7 3.2 0.6 3.5-0.3z"/>
			<g id="Layer">
				<path id="Layer" class="s3" d="m16.6 66.8c0 0-1.2 1.8 0.1 2.4 1.2 0.5 1.2-0.3 3.5 1.7 2.4 2 4.5 1.2 4.8 0.7 0.7-1-0.5-2-5.7-4.8z"/>
				<path id="Layer" class="s4" d="m16.7 69.2c1.2 0.6 1.2-0.3 3.6 1.7 2.3 2 4.4 1.1 4.7 0.7q0.1 0 0.1-0.2c-2.2 0.8-3.4-0.3-4.3-1.1-1-0.8-1.8-1.1-3.3-1.5-1.5-0.3-0.9-1.5-0.9-1.5 0-0.2-0.1-1.5-0.3-1.5 0 1.4-0.9 2.7 0.4 3.4z"/>
			</g>
			<path id="Layer" class="s5" d="m20.9 32.1c0 0 1.2 11.1 0.5 17.5-0.7 6.4-1.3 13.5-1.2 17.1 0.1 1.2-4.5 2.6-4.8 0-0.4-3-1.7-11.5 0.1-15.3l-3-16.3c0 0 5.4-0.9 8.4-3z"/>
			<path id="Layer" class="s2" d="m13.4 35.9c0 0 1.2 13.3 0.7 16.1-0.4 2.9-1.5 17.9-1.5 17.9h-2.4c0 0-2.6-12.9-1-16.5l-1.6-14.2v-1.9c0 0 4.3-0.6 5.8-1.4z"/>
			<g id="Layer">
				<path id="Layer" class="s3" d="m10 69.3c0 0-1.1 1.8 0.1 2.4 1.3 0.6 1.3-0.3 3.6 1.7 2.4 2 4.5 1.2 4.8 0.8 0.7-1-0.5-2.7-5.7-5.5z"/>
				<path id="Layer" class="s4" d="m10.1 71.7c1.2 0.7 1.3-0.3 3.6 1.7 2.4 2 4.5 1.2 4.8 0.8q0.1-0.1 0.1-0.3c-2.2 0.9-3.4-0.3-4.3-1.1-1-0.8-1.9-1.1-3.4-1.4-1.5-0.4-0.9-1.6-0.9-1.6 0-0.2-0.1-1.4-0.2-1.5 0 1.5-1 2.7 0.3 3.4z"/>
			</g>
			<path id="Layer" class="s6" d="m7 33.8c0 0-2.1 3.2-0.6 10.8 1.6 7.5 2.1 9.8 2.1 9.8 0 0-0.3 0.9 0 7 0.4 5.7 0.4 5.3 0.5 8.1 0.1 1.1 4.5 1.6 4.7-0.7 0.3-4.9 0.8-17.6 0.8-17.6l1-12.1 5.4-7c0 0-11 3.7-13.9 1.7z"/>
			<g id="Layer">
				<path id="Layer" class="s2" d="m30.3 24.9c0 0 0.6-0.3 1.9-0.3 1.2 0.1 1.5 0.4 2.2 0.8 0.7 0.4 1.1 0.7 1 1-0.2 0.4-2 0.8-2.9 0.4-0.6-0.2-2.2 0.4-2.6 0.3-0.3 0 0-2 0.4-2.2z"/>
				<path id="Layer" class="s7" d="m29.9 27.1c0.4 0.1 2-0.5 2.6-0.3 0.7 0.3 1.8 0.1 2.4-0.1q0 0 0 0c-0.2-0.3-0.7-0.2-1-0.3-0.3-0.1-1.4-0.2-2-0.4-0.7-0.2-2 0.3-2 0.3l-0.1 0.1c-0.1 0.4 0 0.7 0.1 0.7z"/>
				<path id="Layer" class="s8" d="m16.7 12.3c0 0 2.3-2.3 3.9 0.8 1 2 2.1 9.6 2.9 10.3 0.3 0.4 7.1 1.1 7.1 1.1 0 0-1.1 0.8-0.1 3 0 0-9.2 1.6-10.4-0.5-2-3.4-5.1-11.8-3.4-14.7z"/>
			</g>
			<g id="Layer">
				<path id="Layer" class="s9" d="m7.6 13.7c0.9-0.8 10.3-3.4 11.4-2.6 0.7 0.6 0.9 0.6 2.2 4.1 0.5 1.7 0.5 3.8-0.4 5.5-1.6 3.6-1.3 5.4-1.2 6.3 0.1 1.4 1.6 3.8 1.3 5.1-0.4 1.7-11.6 5.3-13.9 1.7 0 0-0.6-0.3 0.6-4.1 2.6-8.2-3.2-13.1 0-16z"/>
				<path id="Layer" class="s10" d="m7 33.8q0 0 0 0 0 0 0 0z"/>
			</g>
			<g id="Layer">
				<path id="Layer" class="s11" d="m15.6 9.4c0 0-0.5 2.1 0 3.3 0.4 1.1-1.3 1.5-2.1 1.2-0.8-0.3-2.1-0.9-1.9-1.6 0.1-0.7 0.9-3.1 0.4-4-0.5-0.8 3.6 1.1 3.6 1.1z"/>
				<path id="Layer" class="s2" d="m11.4 2.8c0 0-2.5 2.4-1.8 5 0.4 1.4 2 2.3 2.9 3.1 1 0.7 2.8 2.4 4.3 1.2 1.5-1.3 1.9-6.9 0-9.3-1.9-2.4-5.4 0-5.4 0z"/>
				<path id="Layer" class="s1" d="m16.8 3.8c0 0 0.2 1.7-3.5 2.2-1 0.1-0.8 2.9-1.5 2.2-0.3-0.2-1-0.8-1.1-0.4-0.4 2 1.5 1.4 1.3 2.8-0.5 3.2-4.3-2.1-3.7-5.7 0.5-2.7 2.2-4.9 6-4.3 3.8 0.7 3.5 4.4 3.5 4.4 0 0-0.4-1.3-1-1.2z"/>
			</g>
			<path id="Layer" class="s9" d="m10.1 10.7c0 0 0.9 0.1 1.8-0.7 0 0 0.3 0.3-0.1 1.4 0 0-1.4 0.3-2.1 0.2-0.7-0.2 0.1-0.7 0.4-0.9z"/>
			<g id="Layer">
				<g id="Layer">
					<path id="Layer" class="s12" d="m32.2 34.7c0 2.1-3 3.8-6.6 3.8-3.6 0-6.6-1.7-6.6-3.8 0-2.1 3-3.8 6.6-3.8 3.6 0 6.6 1.7 6.6 3.8z"/>
				</g>
				<g id="Layer">
					<g id="Layer">
						<path id="Layer" class="s13" d="m30.2 31.4q-0.3-0.1-0.5-0.2-0.1-0.1-0.2-0.1-0.1-0.1-0.3-0.1 0 0 0 0-0.3-0.2-0.7-0.3 0 0-0.1 0 0 0-0.1 0-0.2-0.1-0.4-0.1-0.1-0.1-0.1-0.1-0.1 0-0.2 0-0.2 0-0.3-0.1-0.1 0-0.2 0-0.1 0-0.1 0-0.2 0-0.4 0 0 0-0.1 0-0.1-0.1-0.2-0.1-0.1 0-0.3 0-0.1 0-0.2 0 0 0-0.1 0-0.2 0-0.4 0-0.1 0-0.1 0-0.1 0-0.1 0-0.3 0-0.5 0.1-0.1 0-0.2 0 0 0 0 0-0.4 0-0.8 0.1 0 0 0 0-0.1 0-0.2 0-0.2 0.1-0.4 0.1-0.1 0-0.2 0.1-0.2 0-0.4 0.1 0 0 0 0-0.1 0-0.2 0-0.2 0.1-0.5 0.2-0.1 0.1-0.2 0.1-0.3 0.2-0.6 0.3 0 0 0 0.1-0.1 0-0.2 0.1-0.1 0.1-0.2 0.1-0.1 0.1-0.2 0.2-0.1 0.1-0.2 0.1 0 0.1-0.1 0.1 0 0 0 0-0.2 0.2-0.3 0.3 0 0.1-0.1 0.1 0 0 0 0.1-0.1 0.1-0.2 0.2 0 0.1 0 0.1 0 0-0.1 0.1 0 0.1-0.1 0.2 0 0 0 0.1 0 0 0 0-0.1 0.1-0.1 0.2 0 0.1 0 0.1 0 0.1 0 0.1 0 0.1 0 0.2-0.1 0.1-0.1 0.1 0 0 0 0.1v0.8q0-0.1 0.1-0.2 0-0.1 0-0.2 0-0.1 0-0.2 0-0.1 0.1-0.2 0 0 0-0.1 0.1-0.1 0.1-0.2 0.1-0.1 0.1-0.2 0.1-0.1 0.2-0.2 0-0.1 0.1-0.1 0.1-0.2 0.3-0.3 0-0.1 0.1-0.1 0.1-0.1 0.2-0.2 0.1-0.1 0.1-0.1 0.2-0.1 0.3-0.2 0.1-0.1 0.2-0.2 0.3-0.1 0.6-0.3 0.1 0 0.2 0 0.3-0.1 0.5-0.2 0.1-0.1 0.2-0.1 0.2-0.1 0.4-0.1 0.1 0 0.2-0.1 0.2 0 0.4 0 0.1-0.1 0.2-0.1 0.4-0.1 0.8-0.1 0.1 0 0.2 0 0.2 0 0.5 0 0.1 0 0.2-0.1 0.2 0 0.4 0 0.1 0 0.3 0.1 0.2 0 0.3 0 0.2 0 0.3 0 0.2 0 0.4 0 0.1 0.1 0.2 0.1 0.2 0 0.4 0 0.1 0.1 0.3 0.1 0.2 0 0.4 0.1 0.1 0 0.2 0.1 0.4 0.1 0.7 0.2 0.2 0.1 0.3 0.1 0.1 0.1 0.2 0.1 0.2 0.1 0.5 0.3c1.2 0.7 1.9 1.7 1.9 2.6v-0.8c0-1-0.6-1.9-1.9-2.7z"/>
					</g>
					<g id="Layer">
						<path id="Layer" class="s13" d="m32.6 34.3q0 0.1 0 0.2-0.1 0.1-0.1 0.2 0 0.1 0 0.2-0.1 0.1-0.1 0.2-0.1 0.1-0.1 0.2-0.1 0.1-0.1 0.2-0.1 0.1-0.2 0.2 0 0.1-0.1 0.2-0.1 0.1-0.3 0.3-0.1 0-0.1 0.1-0.1 0.1-0.2 0.2-0.1 0.1-0.2 0.1-0.1 0.1-0.3 0.2-0.1 0.1-0.2 0.2-0.4 0.2-0.7 0.3-0.1 0.1-0.2 0.1-0.3 0.1-0.6 0.2-0.1 0-0.2 0.1-0.1 0-0.3 0.1-0.2 0-0.3 0.1-0.2 0-0.4 0-0.1 0.1-0.2 0.1-0.4 0.1-0.9 0.1-0.1 0-0.2 0-0.2 0-0.5 0.1-0.1 0-0.3 0-0.2 0-0.4 0-0.1 0-0.3 0-0.2-0.1-0.3-0.1-0.2 0-0.4 0-0.1 0-0.3 0-0.2-0.1-0.3-0.1-0.2 0-0.4 0-0.2-0.1-0.3-0.1-0.2 0-0.4-0.1-0.2 0-0.3-0.1-0.4-0.1-0.7-0.2-0.2-0.1-0.4-0.2-0.1 0-0.2-0.1-0.2-0.1-0.5-0.2c-1.4-0.8-2.1-1.9-2.1-2.9v0.8c0 1 0.7 2.1 2.1 2.9q0.3 0.1 0.5 0.3 0.1 0 0.2 0.1 0.2 0 0.3 0.1 0 0 0.1 0 0.3 0.1 0.7 0.3 0 0 0.1 0 0.1 0 0.2 0 0.2 0.1 0.4 0.1 0.1 0 0.1 0.1 0.1 0 0.2 0 0.2 0 0.4 0.1 0 0 0.1 0 0.1 0 0.2 0 0.2 0 0.3 0 0.1 0 0.2 0.1 0.1 0 0.1 0 0.2 0 0.4 0 0.1 0 0.2 0 0.1 0 0.1 0 0.2 0 0.4 0 0.1 0 0.2 0 0.1 0 0.1 0 0.3 0 0.5-0.1 0.1 0 0.2 0 0 0 0 0 0.5 0 0.8-0.1 0.1 0 0.1 0 0.1 0 0.2 0 0.2-0.1 0.4-0.1 0.1-0.1 0.3-0.1 0.2 0 0.3-0.1 0.1 0 0.1 0 0.1 0 0.1-0.1 0.3-0.1 0.6-0.2 0.1 0 0.2-0.1 0.3-0.1 0.7-0.3 0 0 0 0 0.1-0.1 0.2-0.2 0.2 0 0.3-0.1 0.1-0.1 0.2-0.2 0.1-0.1 0.2-0.2 0 0 0 0 0.2-0.1 0.3-0.3 0 0 0 0 0.1-0.1 0.2-0.2 0 0 0 0 0.1-0.2 0.2-0.3 0 0 0-0.1 0.1 0 0.1 0 0-0.2 0.1-0.3 0 0 0-0.1 0 0 0.1 0 0-0.1 0-0.3 0 0 0.1-0.1 0 0 0 0 0-0.1 0-0.3 0 0 0-0.1 0 0 0-0.1v-0.8q0 0.1 0 0.2z"/>
					</g>
					<g id="Layer">
						<g id="Layer">
							<path id="Layer" fill-rule="evenodd" class="s12" d="m30.5 31.2c2.8 1.6 2.8 4.2 0.1 5.8-2.8 1.6-7.2 1.6-10 0-2.7-1.6-2.8-4.2 0-5.8 2.7-1.6 7.2-1.6 9.9 0zm-9.5 5.6c2.5 1.4 6.7 1.4 9.2 0 2.5-1.5 2.5-3.9 0-5.4-2.6-1.5-6.7-1.5-9.3 0-2.5 1.5-2.5 3.9 0.1 5.4z"/>
						</g>
					</g>
				</g>
				<g id="Layer">
					<path id="Layer" class="s13" d="m25.2 16.4h0.7l0.1 8.2h-0.6z"/>
				</g>
				<g id="Layer">
					<path id="Layer" class="s13" d="m18.8 18.6l0.5-0.3 3 6.1-0.6 0.3z"/>
				</g>
				<g id="Layer">
					<path id="Layer" class="s13" d="m28.6 24.4l3.5-6.1 0.6 0.3-3.5 6.1z"/>
				</g>
				<path id="Layer" class="s14" d="m19.4 34.7c0 0-0.1-2.8 1.3-3.3 1.4-0.5 1.4-1.1 1.6-2.3 0.2-1.1 0.2-3.3 2-3.2 1.7 0.1 4.5 1.6 4.8 3.8 0.3 2.1 1.1 3.5 1.9 4.2 1.6 1.2-1 2.8-1.9 3.2-0.9 0.4-8.5 1.5-9.4-1.6z"/>
				<path id="Layer" class="s6" d="m20.5 34.1c-0.1-0.7 0.4-1.4 1.8-1.9 1.4-0.5 2.7-1.3 2.9-2.4 0.3-1.2 0.5-3.2 2.2-3.1 1.8 0.1 3.4 1.7 3.7 3.8 0.2 2.2-0.9 2.7-0.1 3.4 1.6 1.2-1 2.8-1.9 3.2-0.9 0.4-7 1.6-7.9-1.5 0 0-0.7-1.1-0.7-1.5z"/>
				<g id="Layer">
					<g id="Layer">
						<path id="Layer" class="s13" d="m30.6 24.9q-0.2-0.2-0.5-0.3-0.1 0-0.2-0.1-0.1 0-0.3-0.1 0 0 0 0-0.4-0.2-0.8-0.3 0 0-0.1 0-0.1 0-0.2 0-0.2-0.1-0.4-0.1-0.1-0.1-0.1-0.1-0.1 0-0.2 0-0.2 0-0.4-0.1-0.1 0-0.1 0-0.1 0-0.2 0-0.2 0-0.4-0.1 0 0-0.1 0-0.1 0-0.2 0-0.2 0-0.3 0-0.1 0-0.2 0-0.1 0-0.2 0-0.2 0-0.4 0-0.1 0-0.2 0 0 0-0.1 0-0.2 0-0.5 0-0.1 0-0.2 0 0 0 0 0-0.5 0.1-0.9 0.2 0 0 0 0-0.1 0-0.2 0-0.2 0.1-0.4 0.1-0.2 0-0.3 0.1-0.2 0-0.4 0.1 0 0-0.1 0 0 0-0.1 0.1-0.3 0.1-0.6 0.2-0.1 0-0.2 0.1-0.3 0.1-0.6 0.3-0.1 0-0.1 0-0.1 0.1-0.2 0.2-0.1 0.1-0.3 0.1-0.1 0.1-0.2 0.2-0.1 0.1-0.2 0.2 0 0 0 0-0.1 0.1-0.1 0.1-0.2 0.2-0.3 0.3 0 0.1-0.1 0.1 0 0 0 0.1-0.1 0.1-0.2 0.2 0 0.1-0.1 0.1 0 0.1 0 0.1 0 0.1-0.1 0.2 0 0.1-0.1 0.1 0 0.1 0 0.1 0 0.1 0 0.2-0.1 0.1-0.1 0.1 0 0.1 0 0.1 0 0.1 0 0.2 0 0.1 0 0.2 0 0 0 0v0.9q0-0.1 0-0.2 0-0.1 0-0.2 0-0.1 0.1-0.2 0-0.1 0-0.2 0.1-0.1 0.1-0.2 0-0.1 0.1-0.2 0-0.1 0.1-0.2 0.1-0.1 0.2-0.2 0-0.1 0.1-0.2 0.1-0.1 0.3-0.3 0 0 0.1-0.1 0.1-0.1 0.2-0.2 0.1-0.1 0.2-0.1 0.2-0.1 0.3-0.2 0.1-0.1 0.3-0.2 0.3-0.2 0.6-0.3 0.1-0.1 0.2-0.1 0.3-0.1 0.6-0.2 0.1-0.1 0.2-0.1 0.2-0.1 0.4-0.1 0.1-0.1 0.3-0.1 0.2 0 0.4-0.1 0.1 0 0.2 0 0.4-0.1 0.9-0.1 0.1-0.1 0.2-0.1 0.3 0 0.5 0 0.2 0 0.3 0 0.2 0 0.4 0 0.2 0 0.3 0 0.2 0 0.4 0 0.2 0 0.3 0 0.2 0.1 0.4 0.1 0.2 0 0.3 0 0.2 0.1 0.4 0.1 0.2 0 0.3 0.1 0.2 0 0.5 0.1 0.1 0 0.2 0 0.4 0.2 0.8 0.3 0.1 0.1 0.3 0.1 0.1 0.1 0.2 0.1 0.3 0.2 0.5 0.3c1.5 0.8 2.2 1.9 2.2 3v-0.9c0-1.1-0.7-2.2-2.2-3z"/>
					</g>
					<g id="Layer">
						<path id="Layer" class="s13" d="m33.3 28.1q0 0.1 0 0.2 0 0.1-0.1 0.2 0 0.1 0 0.3-0.1 0.1-0.1 0.2-0.1 0.1-0.1 0.2-0.1 0.1-0.1 0.2-0.1 0.1-0.2 0.2-0.1 0.1-0.1 0.2-0.2 0.2-0.4 0.4 0 0-0.1 0.1-0.1 0.1-0.2 0.2-0.1 0.1-0.3 0.1-0.1 0.1-0.2 0.2-0.2 0.1-0.3 0.2-0.4 0.2-0.8 0.4-0.1 0-0.2 0.1-0.3 0.1-0.6 0.2-0.1 0.1-0.2 0.1-0.2 0-0.4 0.1-0.2 0-0.3 0.1-0.2 0-0.5 0.1-0.1 0-0.2 0-0.5 0.1-0.9 0.2-0.2 0-0.3 0-0.3 0-0.5 0-0.2 0-0.3 0-0.3 0-0.5 0-0.2 0-0.3 0-0.2 0-0.4 0-0.2 0-0.4 0-0.2-0.1-0.4-0.1-0.2 0-0.3 0-0.2-0.1-0.4-0.1-0.2 0-0.4-0.1-0.2 0-0.4-0.1-0.2 0-0.3-0.1-0.4-0.1-0.8-0.2-0.2-0.1-0.4-0.2-0.1 0-0.2-0.1-0.3-0.1-0.6-0.3c-1.5-0.9-2.3-2-2.3-3.2v0.9c0 1.2 0.8 2.4 2.3 3.2q0.3 0.2 0.6 0.3 0.1 0.1 0.2 0.1 0.1 0.1 0.3 0.2 0 0 0.1 0 0.4 0.1 0.8 0.3 0 0 0.1 0 0.1 0 0.2 0 0.2 0.1 0.4 0.2 0.1 0 0.2 0 0.1 0 0.2 0 0.2 0.1 0.4 0.1 0 0 0.1 0 0.1 0 0.2 0 0.2 0.1 0.4 0.1 0.1 0 0.2 0 0.1 0 0.2 0 0.2 0 0.4 0 0.1 0 0.2 0 0 0 0.1 0 0.2 0 0.4 0 0.1 0 0.2 0 0.1 0 0.2 0 0.2 0 0.5 0 0.1 0 0.2 0 0 0 0.1 0 0.4-0.1 0.9-0.1 0-0.1 0-0.1 0.1 0 0.3 0 0.2-0.1 0.4-0.1 0.1 0 0.3-0.1 0.2 0 0.4-0.1 0 0 0.1 0 0 0 0.1-0.1 0.3-0.1 0.6-0.2 0.1 0 0.2-0.1 0.4-0.2 0.8-0.4 0 0 0.1 0 0.1-0.1 0.2-0.2 0.1 0 0.2-0.1 0.1-0.1 0.3-0.2 0.1-0.1 0.2-0.2 0 0 0 0 0.2-0.2 0.3-0.3 0-0.1 0.1-0.1 0-0.1 0.1-0.2 0 0 0.1 0 0.1-0.2 0.2-0.3 0-0.1 0-0.1 0-0.1 0.1-0.1 0-0.1 0.1-0.2 0-0.1 0-0.2 0 0 0 0 0.1-0.1 0.1-0.3 0 0 0.1-0.1 0 0 0 0 0-0.2 0-0.3 0-0.1 0-0.2 0 0 0 0v-0.9q0 0.1 0 0.2z"/>
					</g>
					<g id="Layer">
						<g id="Layer">
							<path id="Layer" fill-rule="evenodd" class="s12" d="m31 24.7c3.1 1.7 3.1 4.6 0.1 6.3-3 1.8-8 1.8-11 0-3-1.7-3-4.6 0-6.3 3-1.8 7.9-1.8 10.9 0zm-10.5 6.1c2.8 1.6 7.4 1.6 10.2 0 2.8-1.6 2.8-4.3-0.1-5.9-2.8-1.6-7.3-1.6-10.1 0-2.8 1.6-2.8 4.3 0 5.9z"/>
						</g>
					</g>
				</g>
				<g id="Layer">
					<g id="Layer">
						<path id="Layer" class="s13" d="m31.4 17.3q-0.3-0.2-0.6-0.3-0.1 0-0.2-0.1-0.2-0.1-0.4-0.2 0 0-0.1 0-0.4-0.1-0.8-0.3-0.1 0-0.1 0-0.1 0-0.2 0-0.3-0.1-0.5-0.2-0.1 0-0.2 0-0.1 0-0.2 0-0.2-0.1-0.4-0.1-0.1 0-0.2 0-0.1-0.1-0.2-0.1-0.2 0-0.4 0-0.1 0-0.2 0-0.1 0-0.2 0-0.2-0.1-0.4-0.1-0.1 0-0.2 0-0.1 0-0.2 0-0.2 0-0.4 0-0.1 0-0.2 0-0.1 0-0.2 0-0.3 0-0.5 0.1-0.1 0-0.3 0 0 0 0 0-0.5 0-1 0.1 0 0 0 0-0.2 0.1-0.3 0.1-0.2 0-0.4 0.1-0.2 0-0.4 0.1-0.2 0-0.4 0.1 0 0-0.1 0 0 0.1-0.1 0.1-0.3 0.1-0.7 0.2-0.1 0.1-0.2 0.1-0.4 0.2-0.8 0.4 0 0-0.1 0.1-0.1 0-0.2 0.1-0.1 0.1-0.3 0.2-0.1 0.1-0.2 0.2-0.1 0.1-0.3 0.2 0 0 0 0 0 0.1-0.1 0.1-0.2 0.2-0.3 0.4-0.1 0.1-0.1 0.1 0 0-0.1 0.1-0.1 0.1-0.2 0.3 0 0 0 0.1-0.1 0-0.1 0 0 0.2-0.1 0.3 0 0.1-0.1 0.2 0 0 0 0 0 0.1-0.1 0.3 0 0 0 0.1 0 0 0 0.1 0 0.1 0 0.2 0 0.1-0.1 0.2 0 0 0 0.1v1q0-0.1 0.1-0.2 0-0.2 0-0.3 0-0.1 0-0.2 0.1-0.1 0.1-0.3 0.1-0.1 0.1-0.2 0.1-0.1 0.1-0.2 0.1-0.1 0.1-0.2 0.1-0.1 0.2-0.3 0.1-0.1 0.2-0.1 0.1-0.2 0.3-0.4 0.1-0.1 0.1-0.2 0.2-0.1 0.3-0.2 0.1-0.1 0.2-0.1 0.2-0.1 0.3-0.2 0.2-0.1 0.3-0.2 0.4-0.3 0.8-0.4 0.1-0.1 0.2-0.1 0.3-0.2 0.7-0.3 0.1 0 0.2-0.1 0.2 0 0.5-0.1 0.1 0 0.3-0.1 0.2 0 0.4-0.1 0.2 0 0.3 0 0.5-0.1 1-0.2 0.1 0 0.2 0 0.3 0 0.6 0 0.2 0 0.4 0 0.2 0 0.4 0 0.2 0 0.4 0 0.2 0 0.4 0 0.2 0 0.4 0 0.2 0.1 0.4 0.1 0.2 0 0.4 0 0.2 0.1 0.4 0.1 0.2 0 0.4 0.1 0.2 0 0.5 0.1 0.1 0 0.3 0.1 0.4 0.1 0.8 0.3 0.2 0.1 0.4 0.1 0.2 0.1 0.3 0.1 0.3 0.2 0.6 0.4c1.6 0.9 2.4 2.1 2.4 3.4v-1.1c0-1.2-0.8-2.5-2.4-3.4z"/>
					</g>
					<g id="Layer">
						<path id="Layer" class="s13" d="m34.4 21q0 0.1 0 0.2 0 0.2-0.1 0.3 0 0.1-0.1 0.2 0 0.1 0 0.3-0.1 0.1-0.2 0.2 0 0.1-0.1 0.2-0.1 0.2-0.2 0.3-0.1 0.1-0.2 0.2-0.1 0.2-0.3 0.4-0.1 0.1-0.2 0.2-0.1 0.1-0.2 0.2-0.2 0.1-0.3 0.2-0.1 0.1-0.3 0.2-0.2 0.1-0.3 0.2-0.4 0.2-0.9 0.4-0.1 0.1-0.2 0.1-0.4 0.2-0.7 0.3-0.2 0.1-0.3 0.1-0.2 0.1-0.4 0.1-0.2 0.1-0.4 0.1-0.2 0.1-0.5 0.1-0.1 0.1-0.3 0.1-0.5 0.1-1 0.1-0.2 0-0.3 0.1-0.3 0-0.6 0-0.2 0-0.4 0-0.3 0-0.5 0-0.2 0-0.4 0-0.2 0-0.5 0-0.2 0-0.4-0.1-0.2 0-0.4 0-0.2 0-0.4-0.1-0.2 0-0.5 0-0.2-0.1-0.4-0.1-0.2-0.1-0.5-0.2-0.2 0-0.3 0-0.5-0.2-1-0.4-0.2-0.1-0.4-0.2-0.1 0-0.2-0.1-0.4-0.1-0.7-0.3c-1.7-1-2.6-2.3-2.6-3.6v1c0 1.3 0.9 2.6 2.6 3.7q0.3 0.1 0.7 0.3 0.1 0 0.2 0.1 0.2 0.1 0.4 0.2 0 0 0 0 0.5 0.2 1 0.3 0 0 0.1 0 0.1 0.1 0.2 0.1 0.3 0.1 0.6 0.1 0 0 0.1 0.1 0.1 0 0.2 0 0.2 0 0.5 0.1 0.1 0 0.2 0 0.1 0 0.2 0 0.2 0.1 0.4 0.1 0.1 0 0.2 0 0.1 0 0.2 0 0.3 0 0.5 0 0.1 0 0.2 0 0.1 0 0.2 0 0.2 0 0.5 0 0.1 0 0.2 0 0.1 0 0.2 0 0.3 0 0.6 0 0.1 0 0.2 0 0 0 0.1 0 0.5-0.1 1-0.2 0 0 0 0 0.2 0 0.3 0 0.3-0.1 0.5-0.1 0.2-0.1 0.4-0.1 0.2-0.1 0.4-0.2 0.1 0 0.1 0 0.1 0 0.2-0.1 0.3-0.1 0.7-0.2 0.1-0.1 0.2-0.1 0.5-0.2 0.9-0.5 0 0 0.1 0 0.1-0.1 0.2-0.2 0.2-0.1 0.3-0.2 0.1-0.1 0.3-0.2 0.1-0.1 0.2-0.2 0.1 0 0.1 0 0.1-0.2 0.3-0.4 0 0 0.1 0 0-0.1 0.1-0.2 0.1-0.1 0.1-0.1 0.1-0.2 0.2-0.3 0-0.1 0.1-0.2 0 0 0 0 0.1-0.2 0.1-0.3 0.1-0.1 0.1-0.2 0 0 0 0 0.1-0.2 0.1-0.3 0-0.1 0.1-0.2 0 0 0 0 0-0.2 0-0.3 0-0.1 0-0.2 0 0 0-0.1v-1q0 0.1 0 0.3z"/>
					</g>
					<g id="Layer">
						<g id="Layer">
							<path id="Layer" fill-rule="evenodd" class="s12" d="m31.8 17.1c3.5 2 3.5 5.2 0.1 7.2-3.5 2-9.1 2-12.6 0-3.4-2-3.5-5.2 0-7.2 3.4-2.1 9.1-2.1 12.5 0zm-12 7c3.2 1.8 8.4 1.8 11.6 0 3.2-1.9 3.2-4.9 0-6.8-3.3-1.8-8.5-1.8-11.7 0-3.2 1.9-3.1 4.9 0.1 6.8z"/>
						</g>
					</g>
				</g>
				<g id="Layer">
					<path id="Layer" class="s13" d="m25.2 26.2h0.7v12.3h-0.7z"/>
				</g>
				<g id="Layer">
					<path id="Layer" class="s13" d="m30.1 37.5l0.6-12.2h0.7l-0.6 12.2z"/>
				</g>
				<g id="Layer">
					<g id="Layer">
						<path id="Layer" class="s13" d="m32.5 35.8l-0.3-0.3 1.3-12.4h0.6z"/>
					</g>
				</g>
				<g id="Layer">
					<path id="Layer" class="s13" d="m19.7 25.3h0.7l1 12.2-0.7 0.1z"/>
				</g>
				<g id="Layer">
					<g id="Layer">
						<path id="Layer" class="s13" d="m18.6 35.6l-1.9-13.7 0.4 0.4 1.8 13.1z"/>
					</g>
				</g>
			</g>
			<g id="Layer">
				<path id="Layer" class="s2" d="m17.2 29.3c0 0 0.7-0.2 1.9 0 1.3 0.3 1.5 0.7 2.1 1.2 0.6 0.4 1 0.9 0.8 1.2-0.3 0.3-2 0.4-2.9-0.2-0.6-0.3-2.3 0-2.6-0.1-0.4-0.1 0.3-2 0.7-2.1z"/>
				<path id="Layer" class="s7" d="m16.5 31.4c0.3 0.1 2-0.2 2.6 0.1 0.6 0.4 1.7 0.5 2.3 0.4q0-0.1 0-0.1c0-0.2-0.6-0.2-0.9-0.4-0.3-0.2-1.3-0.5-1.9-0.8-0.6-0.3-2 0-2 0l-0.1 0.1c-0.1 0.4-0.2 0.7 0 0.7z"/>
				<path id="Layer" class="s15" d="m7 14.5c0 0 1.9-1.4 2.7 0.8 0.8 2.1 0.5 10.5 1.1 11.3 0.2 0.5 6.8 2.3 6.8 2.3 0 0-1.2 0.7-0.6 3 0 0-9.3-0.1-10.1-2.3-1.5-3.8-2.1-12.5 0.1-15.1z"/>
			</g>
		</g>
	</g>
</svg>