<svg version="1.2" xmlns="http://www.w3.org/2000/svg" viewBox="0 0 81 87" width="81" height="87">
	<title>Layer</title>
	<style>
		.s0 { fill: #8390cd } 
		.s1 { fill: #feb623 } 
		.s2 { fill: #e29813 } 
		.s3 { fill: #ff4d75 } 
		.s4 { fill: #32293a } 
		.s5 { fill: #bcbcb1 } 
		.s6 { fill: #ffffff } 
		.s7 { fill: #cecfc2 } 
		.s8 { fill: #fefefe } 
		.s9 { fill: #1d96cb } 
		.s10 { fill: #a0a095 } 
		.s11 { fill: #656f72 } 
		.s12 { fill: #41b1d8 } 
		.s13 { fill: #7cddf7 } 
		.s14 { fill: #fe2456 } 
		.s15 { fill: #b3bf19 } 
		.s16 { fill: #edf4f8 } 
	</style>
	<g id="Layer">
		<g id="-e-step_4">
			<g id="Layer">
				<path id="Layer" class="s0" d="m8.3 47.3c-10.5 6.1-10.6 15.9-0.2 22 10.5 6 27.4 6 37.9 0 10.5-6.1 10.5-15.9 0.1-22-10.4-6-27.4-6-37.8 0z"/>
			</g>
			<g id="Layer">
				<g id="Layer">
					<path id="Layer" class="s1" d="m45.1 55.7c0 6.1-8.5 11-19 11-10.5 0-19-4.9-19-11 0-6.2 8.5-11.1 19-11.1 10.5 0 19 4.9 19 11.1z"/>
				</g>
				<g id="Layer">
					<g id="Layer">
						<path id="Layer" class="s2" d="m39.3 46.2q-0.7-0.4-1.4-0.8-0.3-0.1-0.5-0.2-0.4-0.2-0.8-0.3-0.1-0.1-0.2-0.1-0.9-0.4-2-0.6 0-0.1-0.1-0.1-0.3-0.1-0.6-0.1-0.5-0.2-1.1-0.3-0.1 0-0.3-0.1-0.2 0-0.5-0.1-0.5-0.1-1-0.1-0.2-0.1-0.4-0.1-0.2 0-0.4-0.1-0.5 0-1-0.1-0.2 0-0.4 0-0.2 0-0.5 0-0.4-0.1-0.9-0.1-0.2 0-0.5 0-0.2 0-0.4 0-0.5 0-1 0-0.3 0-0.5 0-0.2 0-0.3 0-0.6 0-1.3 0.1-0.2 0-0.5 0-0.1 0-0.2 0.1-1.1 0.1-2.1 0.3-0.1 0-0.1 0-0.3 0-0.7 0.1-0.5 0.1-1 0.2-0.4 0.1-0.7 0.2-0.5 0.2-1 0.3-0.1 0-0.2 0.1-0.2 0-0.3 0.1-0.8 0.2-1.5 0.5-0.3 0.2-0.6 0.3-0.9 0.4-1.7 0.9-0.1 0-0.3 0.1-0.2 0.2-0.4 0.3-0.4 0.3-0.7 0.5-0.3 0.2-0.5 0.4-0.3 0.2-0.6 0.5-0.1 0-0.1 0.1-0.1 0.1-0.2 0.2-0.5 0.4-0.8 0.8-0.1 0.1-0.2 0.2-0.1 0.1-0.1 0.2-0.3 0.3-0.5 0.7-0.1 0.1-0.2 0.2 0 0.1 0 0.2-0.2 0.3-0.3 0.6-0.1 0.2-0.2 0.3 0 0.1 0 0.1-0.1 0.3-0.2 0.6 0 0.2-0.1 0.4 0 0 0 0.1 0 0.3-0.1 0.6 0 0.2 0 0.4 0 0.1 0 0.1v2.4q0-0.2 0-0.5 0.1-0.3 0.1-0.6 0.1-0.3 0.1-0.5 0.1-0.3 0.2-0.6 0.1-0.2 0.2-0.4 0.1-0.3 0.3-0.6 0.1-0.2 0.2-0.4 0.2-0.4 0.5-0.7 0.1-0.2 0.3-0.4 0.3-0.4 0.8-0.8 0.1-0.2 0.3-0.3 0.2-0.3 0.5-0.5 0.3-0.2 0.6-0.4 0.3-0.3 0.7-0.5 0.3-0.2 0.7-0.4 0.8-0.5 1.7-0.9 0.3-0.2 0.6-0.3 0.7-0.3 1.5-0.5 0.2-0.1 0.5-0.2 0.5-0.2 1-0.3 0.4-0.1 0.7-0.2 0.5-0.1 1.1-0.2 0.3-0.1 0.7-0.2 1-0.1 2.1-0.3 0.3 0 0.7 0 0.6-0.1 1.3-0.1 0.4 0 0.8 0 0.5 0 1 0 0.5 0 0.9 0 0.5 0 1 0 0.4 0.1 0.8 0.1 0.5 0.1 1 0.1 0.4 0.1 0.8 0.1 0.5 0.1 1 0.2 0.4 0.1 0.8 0.2 0.6 0.1 1.2 0.3 0.3 0.1 0.6 0.1 1.1 0.3 2 0.7 0.5 0.2 1 0.4 0.2 0.1 0.5 0.2 0.7 0.4 1.4 0.8c3.7 2.1 5.5 4.9 5.5 7.7v-2.4c0-2.8-1.8-5.6-5.5-7.7z"/>
					</g>
					<g id="Layer">
						<path id="Layer" class="s2" d="m46.2 54.5q0 0.4 0 0.7-0.1 0.3-0.2 0.5 0 0.3-0.1 0.6-0.1 0.3-0.3 0.5-0.1 0.3-0.2 0.6-0.2 0.3-0.3 0.5-0.2 0.4-0.5 0.7-0.2 0.2-0.3 0.4-0.4 0.5-0.9 1-0.2 0.1-0.3 0.3-0.3 0.2-0.6 0.5-0.3 0.2-0.6 0.4-0.4 0.3-0.7 0.5-0.4 0.3-0.8 0.5-0.9 0.6-1.9 1-0.3 0.1-0.6 0.2-0.8 0.4-1.6 0.6-0.3 0.1-0.6 0.3-0.5 0.1-1 0.2-0.4 0.2-0.8 0.3-0.6 0.1-1.2 0.2-0.4 0.1-0.7 0.2-1.2 0.2-2.4 0.3-0.3 0-0.6 0-0.7 0.1-1.5 0.1-0.4 0-0.8 0.1-0.6 0-1.1 0-0.5 0-1-0.1-0.5 0-1 0-0.5-0.1-0.9-0.1-0.6 0-1.1-0.1-0.4-0.1-0.9-0.1-0.5-0.1-1-0.2-0.5-0.1-0.9-0.2-0.6-0.1-1.2-0.3-0.4-0.1-0.8-0.2-1.1-0.3-2.1-0.7-0.6-0.2-1.1-0.5-0.2-0.1-0.5-0.2-0.7-0.4-1.5-0.8c-4-2.3-6-5.3-6-8.4v2.4c0 3.1 2 6.1 6 8.4q0.7 0.4 1.5 0.8 0.3 0.1 0.6 0.2 0.4 0.2 0.8 0.4 0.1 0 0.2 0.1 1 0.4 2.1 0.7 0.1 0 0.2 0.1 0.3 0 0.5 0.1 0.7 0.1 1.3 0.3 0.2 0 0.3 0.1 0.3 0 0.5 0.1 0.6 0.1 1.1 0.1 0.2 0.1 0.5 0.1 0.2 0.1 0.5 0.1 0.4 0 0.9 0.1 0.3 0 0.5 0 0.3 0.1 0.5 0.1 0.5 0 1 0 0.3 0 0.5 0 0.2 0.1 0.4 0 0.6 0.1 1.2 0 0.2 0 0.5 0 0.2 0 0.4 0 0.6 0 1.3-0.1 0.3 0 0.6 0 0.1 0 0.2 0 1.1-0.2 2.3-0.3 0-0.1 0.1-0.1 0.3 0 0.7-0.1 0.5-0.1 1.1-0.2 0.4-0.1 0.7-0.3 0.6-0.1 1.1-0.3 0.1 0 0.2 0 0.2-0.1 0.4-0.2 0.8-0.2 1.6-0.6 0.3-0.1 0.6-0.2 1-0.5 1.9-1 0.1-0.1 0.2-0.1 0.3-0.2 0.5-0.4 0.4-0.2 0.8-0.5 0.3-0.2 0.5-0.4 0.4-0.3 0.7-0.5 0-0.1 0.1-0.1 0.4-0.4 0.7-0.8 0.1-0.1 0.2-0.1 0.2-0.3 0.4-0.5 0-0.1 0.1-0.2 0.3-0.3 0.5-0.7 0.1-0.2 0.2-0.3 0-0.1 0-0.2 0.2-0.3 0.3-0.6 0.1-0.2 0.2-0.4 0 0 0.1-0.1 0.1-0.3 0.1-0.6 0.1-0.2 0.1-0.4 0.1-0.1 0.1-0.1 0-0.3 0-0.7 0.1-0.2 0.1-0.4 0-0.1 0-0.2v-2.3q0 0.2-0.1 0.5z"/>
					</g>
					<g id="Layer">
						<g id="Layer">
							<path id="Layer" fill-rule="evenodd" class="s1" d="m40.3 45.6c8 4.6 8 12 0.1 16.6-7.9 4.6-20.8 4.6-28.8 0-7.9-4.6-8-12-0.1-16.6 7.9-4.6 20.8-4.6 28.8 0zm-27.6 16c7.3 4.3 19.3 4.3 26.6 0 7.4-4.2 7.3-11.2 0-15.4-7.4-4.3-19.4-4.3-26.7 0-7.4 4.2-7.3 11.2 0.1 15.4z"/>
						</g>
					</g>
				</g>
				<g id="Layer">
					<path id="Layer" class="s2" d="m25 2.9l1.9-0.1 0.4 23.6h-1.8z"/>
				</g>
				<g id="Layer">
					<path id="Layer" class="s2" d="m6.2 9.1l1.7-0.8 8.5 17.7-1.7 0.8z"/>
				</g>
				<g id="Layer">
					<path id="Layer" class="s2" d="m34.8 26l10-17.8 1.6 0.9-9.9 17.8z"/>
				</g>
				<path id="Layer" class="s3" d="m8 55.7c0 0-0.3-8.2 3.8-9.7 4-1.4 4-3 4.6-6.4 0.6-3.4 0.8-9.7 5.8-9.4 4.9 0.3 13.2 4.7 14 10.9 0.7 6.3 3 10.2 5.5 12.2 4.5 3.6-3 8.1-5.5 9.3-2.6 1.1-24.6 4.3-27.1-4.8z"/>
				<path id="Layer" class="s4" d="m11.2 53.9c-0.2-1.9 1.1-4.1 5.2-5.5 4.1-1.5 8-3.6 8.6-7 0.6-3.4 1.4-9 6.4-8.8 4.9 0.3 9.7 4.7 10.5 11 0.8 6.2-2.7 7.7-0.2 9.7 4.5 3.6-3 8.1-5.5 9.3-2.6 1.1-20.3 4.6-22.8-4.5 0 0-2.1-3-2.2-4.2z"/>
				<g id="Layer">
					<g id="Layer">
						<path id="Layer" class="s2" d="m40.6 27.3q-0.7-0.4-1.5-0.8-0.3-0.1-0.5-0.2-0.5-0.2-1-0.4 0 0-0.1-0.1-1.1-0.4-2.2-0.7-0.1 0-0.2-0.1-0.3 0-0.6-0.1-0.6-0.2-1.2-0.3-0.2-0.1-0.4-0.1-0.2-0.1-0.5-0.1-0.5-0.1-1.1-0.2-0.2 0-0.4-0.1-0.3 0-0.5 0-0.5-0.1-1-0.1-0.3-0.1-0.6-0.1-0.2 0-0.4 0-0.5 0-1-0.1-0.3 0-0.6 0-0.2 0-0.4 0-0.6 0-1.2 0-0.3 0-0.5 0-0.2 0-0.4 0-0.7 0.1-1.4 0.1-0.3 0-0.6 0.1 0 0-0.1 0-1.2 0.1-2.4 0.3 0 0-0.1 0-0.4 0.1-0.7 0.2-0.6 0.1-1.1 0.2-0.4 0.1-0.9 0.3-0.5 0.1-1 0.2-0.1 0.1-0.3 0.1-0.1 0.1-0.3 0.2-0.9 0.2-1.7 0.6-0.2 0.1-0.5 0.2-1.1 0.5-2 1-0.1 0.1-0.2 0.2-0.3 0.1-0.6 0.3-0.4 0.3-0.7 0.5-0.3 0.2-0.6 0.5-0.3 0.2-0.6 0.5-0.1 0.1-0.2 0.1-0.1 0.1-0.2 0.2-0.5 0.5-0.9 1-0.1 0.1-0.2 0.2 0 0.1-0.1 0.2-0.3 0.4-0.5 0.7-0.1 0.2-0.2 0.3 0 0.1-0.1 0.2-0.1 0.3-0.3 0.6-0.1 0.2-0.2 0.4 0 0.1 0 0.1-0.1 0.4-0.2 0.7 0 0.2-0.1 0.4 0 0 0 0.1-0.1 0.3-0.1 0.7 0 0.2 0 0.4 0 0.1 0 0.2v2.6q0-0.3 0-0.6 0-0.3 0.1-0.7 0-0.2 0.1-0.5 0.1-0.3 0.2-0.6 0.1-0.3 0.2-0.5 0.2-0.4 0.3-0.7 0.2-0.2 0.3-0.4 0.2-0.4 0.5-0.8 0.2-0.2 0.3-0.4 0.4-0.5 0.9-0.9 0.2-0.2 0.3-0.4 0.4-0.2 0.7-0.5 0.3-0.2 0.6-0.4 0.3-0.3 0.7-0.6 0.4-0.2 0.8-0.5 0.9-0.5 2-0.9 0.2-0.2 0.5-0.3 0.8-0.3 1.7-0.6 0.3-0.1 0.6-0.2 0.5-0.2 1.1-0.3 0.4-0.1 0.8-0.2 0.5-0.2 1.1-0.3 0.4-0.1 0.8-0.2 1.2-0.2 2.4-0.3 0.3 0 0.7 0 0.7-0.1 1.4-0.1 0.5-0.1 0.9-0.1 0.6 0 1.2 0 0.4 0 0.9 0.1 0.6 0 1.1 0 0.5 0 0.9 0.1 0.5 0 1.1 0.1 0.4 0.1 0.9 0.1 0.6 0.1 1.1 0.2 0.5 0.1 0.9 0.2 0.6 0.2 1.3 0.3 0.3 0.1 0.7 0.2 1.1 0.4 2.2 0.8 0.5 0.2 1 0.4 0.3 0.1 0.6 0.3 0.8 0.3 1.5 0.7c4.1 2.4 6.2 5.5 6.1 8.6v-2.6c0.1-3.1-2-6.2-6.1-8.6z"/>
					</g>
					<g id="Layer">
						<path id="Layer" class="s2" d="m48.3 36.5q0 0.4-0.1 0.8 0 0.2-0.1 0.5-0.1 0.4-0.2 0.7-0.1 0.3-0.2 0.5-0.2 0.4-0.4 0.7-0.1 0.3-0.3 0.6-0.2 0.3-0.5 0.7-0.2 0.3-0.4 0.5-0.4 0.5-0.9 1-0.2 0.2-0.4 0.4-0.3 0.3-0.7 0.5-0.3 0.3-0.6 0.5-0.4 0.3-0.8 0.5-0.4 0.3-0.8 0.6-1.1 0.6-2.2 1.1-0.3 0.1-0.6 0.3-0.9 0.3-1.8 0.6-0.3 0.1-0.6 0.2-0.6 0.2-1.1 0.4-0.5 0.1-0.9 0.2-0.7 0.2-1.3 0.3-0.4 0.1-0.8 0.1-1.3 0.3-2.6 0.4-0.3 0-0.7 0.1-0.8 0-1.6 0.1-0.5 0-0.9 0-0.7 0-1.3 0-0.5 0-1 0-0.6-0.1-1.1-0.1-0.6 0-1.1-0.1-0.5 0-1.1-0.1-0.5-0.1-1-0.1-0.6-0.1-1.2-0.3-0.5 0-0.9-0.1-0.7-0.2-1.4-0.4-0.4-0.1-0.8-0.2-1.2-0.4-2.4-0.8-0.6-0.2-1.1-0.5-0.3-0.1-0.6-0.2-0.8-0.4-1.6-0.9c-4.4-2.5-6.7-5.9-6.6-9.2l-0.1 2.6c0 3.3 2.2 6.7 6.7 9.2q0.7 0.5 1.6 0.9 0.3 0.1 0.6 0.3 0.5 0.2 1 0.4 0 0 0.1 0 1.2 0.5 2.4 0.8 0.1 0.1 0.2 0.1 0.3 0.1 0.6 0.1 0.7 0.2 1.4 0.4 0.2 0 0.3 0.1 0.3 0 0.6 0.1 0.6 0.1 1.2 0.2 0.2 0 0.5 0.1 0.2 0 0.5 0 0.6 0.1 1.1 0.2 0.3 0 0.5 0 0.3 0 0.5 0 0.6 0.1 1.2 0.1 0.3 0 0.6 0 0.2 0 0.4 0 0.6 0 1.2 0 0.3 0 0.6 0 0.2 0 0.4 0 0.8 0 1.5-0.1 0.3 0 0.6 0 0.1-0.1 0.2-0.1 1.3-0.1 2.6-0.3 0 0 0.1 0 0.4-0.1 0.7-0.2 0.7-0.1 1.3-0.3 0.4-0.1 0.8-0.2 0.6-0.1 1.2-0.3 0.1-0.1 0.2-0.1 0.2-0.1 0.4-0.1 0.9-0.4 1.8-0.7 0.3-0.1 0.6-0.3 1.1-0.5 2.1-1.1 0.2 0 0.3-0.1 0.3-0.2 0.6-0.4 0.4-0.3 0.8-0.5 0.3-0.3 0.6-0.5 0.4-0.3 0.7-0.6 0.1-0.1 0.1-0.1 0.5-0.4 0.9-0.8 0-0.1 0.1-0.2 0.2-0.3 0.4-0.5 0.1-0.1 0.2-0.2 0.3-0.4 0.5-0.8 0.1-0.2 0.2-0.4 0.1 0 0.1-0.1 0.2-0.4 0.3-0.7 0.2-0.2 0.2-0.4 0.1-0.1 0.1-0.2 0.1-0.3 0.2-0.6 0-0.3 0.1-0.5 0-0.1 0-0.1 0.1-0.4 0.1-0.7 0-0.3 0.1-0.5 0-0.1 0-0.2v-2.6q0 0.3-0.1 0.6z"/>
					</g>
					<g id="Layer">
						<g id="Layer">
							<path id="Layer" fill-rule="evenodd" class="s1" d="m41.8 26.7c8.7 5 8.8 13.3 0.1 18.3-8.8 5.1-23 5.1-31.7 0-8.8-5-8.9-13.3-0.1-18.3 8.7-5.1 22.9-5.1 31.7 0zm-30.5 17.7c8.1 4.6 21.3 4.6 29.4 0 8.1-4.7 8.1-12.4-0.1-17.1-8.1-4.7-21.3-4.7-29.4 0-8.1 4.7-8 12.4 0.1 17.1z"/>
						</g>
					</g>
				</g>
				<g id="Layer">
					<g id="Layer">
						<path id="Layer" class="s2" d="m42.7 5.4q-0.8-0.5-1.7-0.9-0.3-0.1-0.6-0.3-0.5-0.2-1.1-0.4-0.1-0.1-0.1-0.1-1.3-0.5-2.6-0.8-0.1-0.1-0.2-0.1-0.3-0.1-0.6-0.2-0.7-0.2-1.4-0.3-0.3-0.1-0.5-0.1-0.3-0.1-0.6-0.1-0.6-0.1-1.2-0.2-0.3-0.1-0.5-0.1-0.3-0.1-0.6-0.1-0.6-0.1-1.2-0.1-0.2-0.1-0.5-0.1-0.3 0-0.6 0-0.6-0.1-1.1-0.1-0.4 0-0.7 0-0.2 0-0.5 0-0.6 0-1.3 0-0.3 0-0.6 0-0.2 0-0.4 0-0.8 0.1-1.6 0.1-0.3 0-0.7 0.1-0.1 0-0.2 0-1.3 0.1-2.7 0.4 0 0-0.1 0-0.4 0.1-0.8 0.2-0.6 0.1-1.3 0.2-0.5 0.2-0.9 0.3-0.7 0.2-1.3 0.3-0.1 0.1-0.2 0.1-0.2 0.1-0.4 0.2-1 0.3-1.9 0.7-0.3 0.1-0.7 0.3-1.1 0.5-2.2 1.1-0.2 0.1-0.3 0.2-0.3 0.2-0.6 0.4-0.5 0.3-0.9 0.5-0.3 0.3-0.6 0.6-0.4 0.3-0.8 0.6 0 0-0.1 0.1-0.1 0.1-0.2 0.2-0.6 0.6-1.1 1.1-0.1 0.2-0.2 0.3-0.1 0.1-0.1 0.2-0.3 0.4-0.6 0.8-0.1 0.2-0.2 0.4-0.1 0.1-0.1 0.2-0.2 0.3-0.4 0.7-0.1 0.2-0.2 0.4 0 0.1 0 0.2-0.1 0.3-0.2 0.7-0.1 0.2-0.1 0.5-0.1 0-0.1 0.1 0 0.4 0 0.8c-0.1 0.1-0.1 0.3-0.1 0.5q0 0.1 0 0.2v3c0-0.3 0-0.5 0-0.7q0.1-0.4 0.1-0.8 0.1-0.3 0.2-0.6 0.1-0.3 0.2-0.7 0.1-0.3 0.2-0.6 0.2-0.4 0.4-0.7 0.1-0.3 0.3-0.5 0.3-0.5 0.6-0.9 0.1-0.2 0.3-0.5 0.5-0.5 1-1 0.2-0.2 0.4-0.4 0.4-0.3 0.8-0.6 0.3-0.3 0.6-0.5 0.5-0.3 0.9-0.6 0.4-0.3 0.9-0.6 1.1-0.6 2.2-1.1 0.4-0.2 0.7-0.3 0.9-0.4 1.9-0.7 0.3-0.1 0.6-0.3 0.7-0.1 1.3-0.3 0.4-0.1 0.9-0.2 0.6-0.2 1.3-0.3 0.5-0.1 0.9-0.2 1.4-0.3 2.7-0.4 0.4 0 0.8-0.1 0.9 0 1.7-0.1 0.5 0 1 0 0.7 0 1.3 0 0.6 0 1.1 0 0.6 0 1.3 0.1 0.5 0 1 0.1 0.6 0 1.2 0.1 0.5 0.1 1.1 0.2 0.6 0.1 1.3 0.2 0.4 0.1 0.9 0.2 0.8 0.2 1.5 0.4 0.4 0.1 0.8 0.2 1.3 0.3 2.6 0.8 0.6 0.3 1.1 0.5 0.4 0.2 0.7 0.3 0.9 0.4 1.7 0.9c4.7 2.7 7 6.3 7 9.8v-3c0-3.6-2.3-7.1-7-9.8z"/>
					</g>
					<g id="Layer">
						<path id="Layer" class="s2" d="m51.5 15.9q0 0.5-0.1 0.9-0.1 0.3-0.1 0.6-0.1 0.4-0.3 0.8-0.1 0.3-0.2 0.6-0.2 0.4-0.4 0.8-0.2 0.3-0.4 0.6-0.2 0.4-0.6 0.9-0.2 0.2-0.4 0.5-0.5 0.6-1.1 1.2-0.2 0.2-0.4 0.4-0.4 0.3-0.8 0.6-0.3 0.3-0.7 0.6-0.4 0.3-0.9 0.6c-0.3 0.2-0.6 0.4-1 0.6q-1.1 0.7-2.4 1.3-0.3 0.1-0.7 0.3-1 0.4-2 0.7-0.4 0.2-0.8 0.3-0.6 0.2-1.3 0.3-0.5 0.2-1 0.3-0.7 0.2-1.4 0.3-0.5 0.1-1 0.2-1.4 0.3-2.9 0.4-0.4 0.1-0.8 0.1-0.9 0.1-1.9 0.1-0.5 0-1 0-0.7 0.1-1.5 0.1-0.5-0.1-1.1-0.1-0.7 0-1.3 0-0.6-0.1-1.2-0.1-0.7-0.1-1.3-0.2-0.6-0.1-1.1-0.1-0.7-0.2-1.4-0.3-0.5-0.1-1.1-0.2-0.8-0.2-1.5-0.4-0.5-0.1-0.9-0.2-1.4-0.4-2.8-1-0.6-0.2-1.3-0.5-0.3-0.2-0.6-0.3-1-0.5-1.9-1c-5-2.9-7.6-6.7-7.5-10.5l-0.1 3c0 3.8 2.6 7.6 7.6 10.5q0.9 0.6 1.9 1 0.3 0.2 0.7 0.3 0.5 0.3 1.1 0.5 0.1 0 0.1 0.1 1.4 0.5 2.8 0.9 0.1 0 0.2 0.1 0.3 0 0.6 0.1 0.8 0.2 1.7 0.4 0.2 0.1 0.4 0.1 0.3 0.1 0.6 0.1 0.7 0.1 1.3 0.3 0.3 0 0.6 0.1 0.3 0 0.6 0 0.7 0.1 1.3 0.2 0.3 0 0.6 0 0.3 0 0.6 0.1 0.6 0 1.3 0 0.3 0 0.6 0.1 0.3 0 0.5 0 0.7 0 1.4 0 0.4 0 0.8 0 0.2-0.1 0.4-0.1 0.8 0 1.7-0.1 0.3 0 0.7 0 0.1-0.1 0.2-0.1 1.5-0.1 2.9-0.4 0.1 0 0.2 0 0.4-0.1 0.8-0.2 0.7-0.1 1.4-0.3 0.5-0.1 1-0.2 0.7-0.2 1.3-0.4 0.2-0.1 0.3-0.1 0.2-0.1 0.5-0.2 1-0.3 2-0.7 0.3-0.2 0.7-0.3 1.3-0.6 2.4-1.3 0.2-0.1 0.3-0.1 0.4-0.3 0.7-0.5 0.5-0.3 0.9-0.6 0.4-0.3 0.7-0.6 0.4-0.3 0.8-0.6 0.1-0.1 0.2-0.1 0.5-0.5 0.9-1 0.1-0.1 0.2-0.2 0.2-0.3 0.5-0.6 0-0.1 0.1-0.2 0.4-0.5 0.6-0.9c0.1-0.1 0.2-0.3 0.3-0.4q0-0.1 0.1-0.2 0.2-0.4 0.4-0.8 0.1-0.2 0.2-0.4 0-0.1 0-0.2 0.1-0.4 0.2-0.8 0.1-0.2 0.2-0.5 0-0.1 0-0.1 0.1-0.4 0.1-0.8 0-0.3 0.1-0.6 0-0.1 0-0.2v-3q0 0.4-0.1 0.7z"/>
					</g>
					<g id="Layer">
						<g id="Layer">
							<path id="Layer" fill-rule="evenodd" class="s1" d="m44 4.6c10 5.8 10.1 15.2 0.1 21-9.9 5.8-26.2 5.8-36.2 0-10-5.8-10.1-15.2-0.1-21 9.9-5.7 26.2-5.7 36.2 0zm-34.8 20.3c9.3 5.3 24.4 5.3 33.6 0 9.3-5.4 9.2-14.1-0.1-19.5-9.3-5.4-24.4-5.4-33.6 0-9.3 5.4-9.2 14.1 0.1 19.5z"/>
						</g>
					</g>
				</g>
				<g id="Layer">
					<path id="Layer" class="s2" d="m25 31.2h1.9v35.5h-1.9z"/>
				</g>
				<g id="Layer">
					<path id="Layer" class="s2" d="m39.1 63.7l1.7-35.4 1.9 0.1-1.7 35.4z"/>
				</g>
				<g id="Layer">
					<g id="Layer">
						<path id="Layer" class="s2" d="m45.9 58.7l-0.8-0.7 3.7-36 1.8 0.2z"/>
					</g>
				</g>
				<g id="Layer">
					<path id="Layer" class="s2" d="m9.1 28.5l1.8-0.1 3 35.4-1.9 0.1z"/>
				</g>
				<g id="Layer">
					<g id="Layer">
						<path id="Layer" class="s2" d="m5.9 58.1l-5.5-39.5 1.1 1.2 5.2 38z"/>
					</g>
				</g>
			</g>
			<g id="Layer">
				<g id="Layer">
					<path id="Layer" class="s0" d="m34.8 68.8l17.2 10 28.6-16.5-17.2-10z"/>
				</g>
				<g id="Layer">
					<g id="Layer">
						<path id="Layer" class="s5" d="m55.7 80.5l-7.4-4.4-0.2-36.3 7.5 4.3z"/>
					</g>
					<g id="Layer">
						<path id="Layer" class="s6" d="m55.6 44.1l-7.5-4.3 24-13.8 7.4 4.3z"/>
					</g>
					<g id="Layer">
						<path id="Layer" class="s7" d="m79.5 30.3l0.1 36.3-23.9 13.9-0.1-36.4z"/>
					</g>
					<g id="Layer">
						<path id="Layer" class="s8" d="m77.5 34.5l0.1 30.2-19.9 11.4-0.1-30.2z"/>
					</g>
					<path id="Layer" class="s2" d="m57.7 76.1l19.9-11.4-0.1-22.1c0 0-4.5 3.9-4.7 10.3-0.2 6.4-5.8 13.8-9.6 16.5-3.9 2.6-5.5 6.7-5.5 6.7z"/>
					<path id="Layer" class="s9" d="m57.6 54.9c0 0 5.5 0.7 7.6 5.2 2 4.5 4.8 4.9 6.6 5.1 1.8 0.3 5.8-0.5 5.8-0.5l-19.9 11.4z"/>
					<path id="Layer" class="s10" d="m49 42c0 0 1.5 9.5 5.3 3.1z"/>
					<g id="Layer">
						<g id="Layer">
							<g id="Layer">
								<path id="Layer" fill-rule="evenodd" class="s11" d="m64.5 44.5l0.6 2-0.5 0.3-0.2-0.5-0.6 0.4-0.1 0.6-0.5 0.3 0.6-2.7zm-0.5 1.7l0.5-0.3-0.2-0.4c0-0.1-0.1-0.3-0.1-0.4 0 0.2 0 0.3-0.1 0.5z"/>
							</g>
							<g id="Layer">
								<path id="Layer" class="s11" d="m63.2 45.3l-0.5 2.6-0.5 0.3-0.2-0.9c0-0.2-0.1-0.4-0.1-0.7 0 0.3-0.1 0.6-0.1 0.8l-0.2 1.2-0.5 0.3-0.5-2.1 0.5-0.3 0.1 0.9q0.1 0.4 0.2 0.7 0-0.4 0.1-0.9l0.2-1 0.5-0.3 0.1 0.9q0.1 0.3 0.2 0.7 0-0.4 0.1-0.9l0.1-1.1z"/>
							</g>
						</g>
						<g id="Layer">
							<path id="Layer" class="s11" d="m66.2 43.5q0.3-0.2 0.5-0.2l-0.1 0.5c-0.1 0-0.2 0-0.4 0.2-0.2 0.1-0.4 0.2-0.3 0.4 0 0.1 0.1 0.1 0.3 0.1q0.6-0.1 0.6 0.4c0 0.4-0.3 0.9-0.9 1.2-0.2 0.1-0.4 0.2-0.5 0.2l0.1-0.5q0.2 0 0.5-0.2c0.2-0.1 0.3-0.2 0.3-0.4 0-0.2-0.1-0.2-0.4-0.1-0.3 0-0.5-0.1-0.5-0.4 0-0.4 0.3-0.9 0.8-1.2z"/>
						</g>
						<g id="Layer">
							<path id="Layer" fill-rule="evenodd" class="s11" d="m70 45.8c0.2 0.1 0.4 0.3 0.4 0.7 0 0.5-0.2 0.8-0.4 1.2q-0.3 0.5-0.9 0.8-0.4 0.2-0.6 0.3v-2.3q0.3-0.2 0.7-0.5c0.3-0.2 0.6-0.3 0.8-0.2zm-0.8 2.2c0.4-0.2 0.7-0.6 0.7-1.2 0-0.5-0.3-0.6-0.7-0.4q-0.1 0.1-0.2 0.2v1.5z"/>
						</g>
						<g id="Layer">
							<path id="Layer" class="s11" d="m68.9 42v2.4l-0.5 0.2v-0.9l-0.8 0.4v1l-0.4 0.3-0.1-2.4 0.5-0.3v0.9l0.8-0.4v-0.9z"/>
						</g>
						<g id="Layer">
							<path id="Layer" class="s11" d="m69.8 41.5v2.3l-0.5 0.3v-2.4z"/>
						</g>
						<g id="Layer">
							<path id="Layer" class="s11" d="m72 40.2v2.4l-0.5 0.3-0.5-0.7c-0.1-0.2-0.2-0.4-0.3-0.6q0 0.4 0 1v0.7l-0.4 0.3v-2.4l0.5-0.3 0.4 0.6c0.2 0.2 0.3 0.4 0.4 0.6q-0.1-0.4-0.1-1v-0.6z"/>
						</g>
						<g id="Layer">
							<path id="Layer" class="s11" d="m73.5 39.3c0.3-0.2 0.5-0.2 0.6-0.2l-0.1 0.5c-0.1 0-0.3 0-0.5 0.1-0.4 0.3-0.7 0.7-0.7 1.2 0 0.5 0.3 0.6 0.7 0.4q0.1-0.1 0.2-0.2v-0.5l-0.3 0.2v-0.4l0.8-0.4v1.2c-0.2 0.2-0.4 0.4-0.7 0.5q-0.6 0.4-0.9 0.2-0.3-0.2-0.3-0.7c0-0.8 0.5-1.5 1.2-1.9z"/>
						</g>
						<g id="Layer">
							<path id="Layer" fill-rule="evenodd" class="s11" d="m62.9 49.8c0.2 0.1 0.3 0.2 0.3 0.5q0 0.3-0.2 0.6-0.3 0.4-0.7 0.7h-0.2v0.9l-0.4 0.3v-2.4q0.2-0.1 0.6-0.4 0.4-0.2 0.6-0.2zm-0.6 1.3c0.2-0.1 0.4-0.3 0.4-0.6q0-0.3-0.4-0.1l-0.2 0.1v0.7z"/>
						</g>
						<g id="Layer">
							<path id="Layer" fill-rule="evenodd" class="s11" d="m64.4 48.8c0.7-0.4 1-0.1 1 0.6 0 0.8-0.4 1.5-1 1.8-0.6 0.4-1 0.1-1-0.6 0-0.7 0.4-1.5 1-1.8zm0 2c0.3-0.2 0.5-0.6 0.5-1.1 0-0.4-0.2-0.7-0.5-0.5-0.3 0.2-0.5 0.6-0.5 1.1 0 0.5 0.2 0.7 0.5 0.5z"/>
						</g>
						<g id="Layer">
							<path id="Layer" class="s11" d="m68.2 46.6l-0.5 2.7-0.5 0.3-0.2-0.9c0-0.3-0.1-0.5-0.1-0.7 0 0.3-0.1 0.5-0.1 0.8l-0.2 1.1-0.5 0.3-0.5-2.1 0.5-0.3 0.1 0.9c0.1 0.3 0.1 0.6 0.2 0.8q0-0.4 0.1-0.9l0.2-1.1 0.5-0.3 0.2 0.9q0 0.4 0.1 0.7 0-0.4 0.1-0.8l0.2-1.1z"/>
						</g>
						<g id="Layer">
							<path id="Layer" class="s11" d="m72 44.4v0.5l-0.8 0.4v0.5l0.8-0.4v0.4l-0.8 0.5v0.5l0.9-0.5v0.5l-1.4 0.7v-2.3z"/>
						</g>
						<g id="Layer">
							<path id="Layer" fill-rule="evenodd" class="s11" d="m73.8 45.1c0.1 0.2 0.1 0.5 0.2 0.5l-0.5 0.3q0 0-0.1-0.4c-0.1-0.3-0.2-0.3-0.4-0.2l-0.1 0.1v0.9l-0.5 0.2v-2.3q0.3-0.2 0.6-0.4 0.5-0.3 0.7-0.2 0.2 0.1 0.2 0.4c0 0.3-0.2 0.6-0.4 0.8q0.2 0 0.3 0.3zm-0.7-0.2c0.2-0.2 0.3-0.4 0.3-0.6q0-0.3-0.3-0.1-0.2 0.1-0.2 0.1v0.7z"/>
						</g>
					</g>
					<g id="Layer">
						<g id="Layer">
							<path id="Layer" class="s12" d="m61.7 55.6c0.8-0.5 1.5-0.1 1.5 0.8 0 1-0.7 2.2-1.5 2.7-0.9 0.5-1.6 0.1-1.6-0.9 0-1 0.7-2.1 1.6-2.6z"/>
						</g>
						<g id="Layer">
							<path id="Layer" class="s13" d="m62.4 55.7c0.3-0.1 0.5 0 0.5 0.3 0 0.4-0.2 0.7-0.5 0.9-0.3 0.2-0.5 0-0.5-0.3 0-0.3 0.2-0.7 0.5-0.9z"/>
						</g>
					</g>
					<g id="Layer">
						<path id="Layer" class="s12" d="m72.8 50c0.6-0.4 1.1-0.1 1.1 0.6 0 0.7-0.5 1.5-1.1 1.9-0.6 0.3-1.1 0-1.1-0.7 0-0.6 0.5-1.5 1.1-1.8z"/>
					</g>
					<g id="Layer">
						<path id="Layer" class="s13" d="m73.1 50.1c0.2-0.1 0.4 0 0.4 0.2 0 0.2-0.2 0.5-0.4 0.6-0.2 0.1-0.3 0-0.3-0.2 0-0.2 0.1-0.5 0.3-0.6z"/>
					</g>
					<g id="Layer">
						<path id="Layer" class="s12" d="m68 62.7c0.9-0.5 1.7-0.1 1.7 1 0 1.1-0.7 2.4-1.7 3-0.9 0.5-1.7 0.1-1.7-1 0-1.1 0.7-2.4 1.7-3z"/>
					</g>
					<g id="Layer">
						<path id="Layer" class="s13" d="m68.6 62.9c0.3-0.2 0.5 0 0.5 0.3 0 0.4-0.2 0.8-0.5 1-0.3 0.2-0.6 0.1-0.6-0.3 0-0.4 0.3-0.8 0.6-1z"/>
					</g>
					<g id="Layer">
						<path id="Layer" class="s12" d="m71.5 57.1c0.5-0.2 0.9 0 0.9 0.6-0.1 0.6-0.6 1.3-1.1 1.6-0.5 0.2-1 0-0.9-0.6 0-0.6 0.5-1.3 1.1-1.6z"/>
					</g>
					<g id="Layer">
						<path id="Layer" class="s13" d="m71.1 57.6c0.2 0 0.4 0 0.3 0.2 0 0.2-0.1 0.5-0.3 0.6-0.2 0-0.3 0-0.3-0.2 0-0.2 0.2-0.5 0.3-0.6z"/>
					</g>
				</g>
			</g>
			<g id="Layer">
				<path id="Layer" class="s0" d="m44.4 74.9c4.7 2.7 4.7 7.1 0.1 9.8-4.6 2.7-12.2 2.7-16.8 0-4.7-2.7-4.7-7.1-0.1-9.8 4.6-2.6 12.2-2.6 16.8 0z"/>
			</g>
			<g id="Layer">
				<path id="Layer" class="s14" d="m43.6 76.9q0 0 0 0.1-0.1 0.1-0.1 0.2-0.1 0-0.1 0.1 0 0.1-0.1 0.2 0 0.1-0.1 0.1-0.1 0.1-0.1 0.2-0.1 0.1-0.1 0.1-0.1 0.1-0.2 0.2 0 0-0.1 0.1-0.1 0.1-0.3 0.2 0 0.1 0 0.1-0.1 0.1-0.3 0.2 0 0-0.1 0-0.1 0.2-0.4 0.3-0.2 0.1-0.5 0.3 0 0-0.1 0-0.2 0.1-0.4 0.2-0.1 0-0.2 0.1-0.2 0-0.4 0.1-0.1 0-0.2 0-0.1 0.1-0.2 0.1-0.3 0.1-0.5 0.1-0.1 0.1-0.3 0.1-0.2 0-0.4 0.1-0.2 0-0.3 0-0.2 0-0.3 0-0.2 0.1-0.4 0.1-0.1 0-0.2 0-0.3 0-0.6 0-0.1 0-0.1 0-0.3 0-0.5 0-0.1 0-0.2 0-0.3 0-0.5-0.1-0.1 0-0.2 0-0.3 0-0.6-0.1 0 0 0 0-0.3 0-0.6-0.1-0.2 0-0.4-0.1-0.1 0-0.3-0.1-0.1 0-0.3-0.1-0.2 0-0.3-0.1-0.2 0-0.4-0.1-0.1-0.1-0.2-0.1-0.3-0.2-0.5-0.3c-1.2-0.7-1.9-1.6-2.1-2.5q0.5 2.3 0.9 4.7 0.1 0.1 0.1 0.2 0 0.1 0 0.1 0.1 0.1 0.1 0.1 0 0.1 0 0.2 0.1 0 0.1 0.1 0.1 0.1 0.1 0.1 0.1 0.2 0.2 0.3 0 0 0 0 0.5 0.6 1.2 1 0.3 0.1 0.5 0.3 0.1 0 0.2 0 0.2 0.1 0.3 0.2 0.1 0 0.2 0 0.2 0.1 0.4 0.2 0.1 0 0.2 0 0.2 0.1 0.3 0.1 0.1 0 0.1 0 0.2 0.1 0.4 0.1 0.1 0 0.1 0 0.2 0.1 0.5 0.1 0 0 0 0 0.1 0 0.2 0 0.2 0 0.4 0 0 0 0.1 0 0.1 0.1 0.2 0.1 0.1 0 0.3 0 0 0 0.1 0 0.2 0 0.4 0 0.1-0.1 0.1-0.1 0.1 0 0.2 0 0.2 0 0.3 0 0.1 0 0.2 0 0.1 0 0.2 0 0.1-0.1 0.1-0.1 0.2 0 0.4 0 0.1 0 0.3-0.1 0.2 0 0.3-0.1 0.1 0 0.2 0 0 0 0.1 0 0.1-0.1 0.1-0.1 0.2 0 0.4-0.1 0.1 0 0.1-0.1 0.2 0 0.4-0.1 0 0 0.1-0.1 0.2-0.1 0.4-0.2 0.2-0.1 0.3-0.2 0 0 0.1 0 0 0 0-0.1 0.2 0 0.3-0.1 0-0.1 0-0.1 0.2-0.1 0.3-0.2 0 0 0 0 0.1-0.1 0.1-0.1 0-0.1 0.1-0.1 0-0.1 0.1-0.1 0-0.1 0.1-0.2 0 0 0.1-0.1 0 0 0 0 0-0.1 0.1-0.2 0 0 0-0.1 0.1 0 0.1-0.1 0-0.1 0-0.1 0 0 0 0 0.1-0.2 0.1-0.3 0.2-0.9 0.4-1.9 0.2-0.9 0.4-1.8 0.1-0.5 0.2-0.9-0.1 0.1-0.1 0.3z"/>
				<path id="Layer" class="s15" d="m43.8 55.6q0 0 0 0.1 0 0 0 0.1 0 0 0 0.1-0.1 0-0.1 0.1 0 0 0 0.1 0 0 0 0.1 0 0-0.1 0.1 0 0 0 0.1 0 0 0 0.1-0.1 0-0.1 0.1 0 0 0 0.1-0.1 0-0.1 0.1 0 0.1-0.1 0.1 0 0.1 0 0.1-0.1 0.1-0.1 0.1 0 0.1-0.1 0.1 0 0.1-0.1 0.2-0.1 0-0.1 0.1-0.1 0.1-0.2 0.1 0 0.1 0 0.1-0.1 0-0.1 0.1-0.1 0-0.1 0.1-0.1 0-0.2 0.1 0 0-0.1 0 0 0.1-0.1 0.1 0 0.1-0.1 0.1-0.1 0-0.1 0.1-0.1 0-0.2 0.1-0.2 0.1-0.5 0.3 0 0-0.1 0-0.2 0.1-0.5 0.2 0 0 0 0-0.3 0.1-0.6 0.2-0.1 0.1-0.3 0.1-0.2 0.1-0.3 0.1-0.2 0-0.4 0.1-0.1 0-0.3 0-0.1 0-0.1 0.1-0.3 0-0.5 0-0.1 0-0.2 0-0.1 0.1-0.3 0.1-0.2 0-0.4 0-0.2 0-0.4 0-0.2 0-0.4 0-0.1 0-0.3 0-0.2 0-0.3 0-0.2 0-0.4 0-0.2-0.1-0.3-0.1-0.2 0-0.4 0-0.2-0.1-0.3-0.1-0.2 0-0.3-0.1-0.3 0-0.5-0.1-0.1 0-0.3 0-0.1-0.1-0.1-0.1-0.2-0.1-0.5-0.1 0-0.1-0.1-0.1-0.2-0.1-0.4-0.2-0.1 0-0.2 0-0.2-0.2-0.5-0.3c-1.4-0.8-2.1-1.9-2.1-3l-0.1 20.6c0 1.1 0.7 2.2 2.2 3q0.2 0.1 0.5 0.3 0.1 0 0.2 0 0.1 0.1 0.3 0.2 0 0 0.1 0 0 0 0.1 0.1 0.2 0 0.4 0.1 0.1 0 0.2 0 0 0.1 0.1 0.1 0.1 0 0.2 0 0.2 0.1 0.4 0.1 0.1 0 0.1 0.1 0.1 0 0.2 0 0.2 0 0.4 0.1 0.1 0 0.1 0 0.1 0 0.2 0 0.2 0 0.4 0 0 0.1 0.1 0.1 0.1 0 0.2 0 0.2 0 0.4 0 0 0 0.2 0 0 0 0.1 0 0.2 0 0.4 0 0.1 0 0.2 0 0 0 0.1 0 0.2 0 0.5 0 0.1 0 0.2 0 0-0.1 0.1-0.1 0 0 0.1 0 0.3 0 0.5-0.1 0.1 0 0.1 0 0.1 0 0.1 0 0.1 0 0.2 0 0.2-0.1 0.4-0.1 0.2-0.1 0.3-0.1 0.2 0 0.4-0.1 0 0 0.1 0 0.2-0.1 0.4-0.2 0 0 0.1 0 0.2-0.1 0.4-0.2 0.1 0 0.2-0.1 0.2-0.1 0.5-0.2 0 0 0-0.1 0.1 0 0.1 0 0.1-0.1 0.1-0.1 0.1 0 0.2-0.1 0 0 0.1-0.1 0 0 0.1 0 0-0.1 0.1-0.1 0-0.1 0.1-0.1 0.1-0.1 0.1-0.1 0 0 0 0 0.1-0.1 0.1-0.1 0.1-0.1 0.1-0.1 0.1-0.1 0.1-0.1 0.1-0.1 0.2-0.2 0 0 0 0 0 0 0-0.1 0.1 0 0.1-0.1 0.1 0 0.1-0.1 0-0.1 0.1-0.1 0 0 0-0.1 0 0 0 0 0-0.1 0.1-0.1 0-0.1 0-0.1 0-0.1 0.1-0.1 0 0 0-0.1 0 0 0 0 0-0.1 0-0.1 0-0.1 0.1-0.1 0-0.1 0-0.1 0 0 0-0.1 0 0 0 0 0-0.1 0-0.1 0-0.1 0-0.1 0-0.1 0-0.1 0 0 0-0.1 0 0 0 0 0.1-10.3 0.1-20.6 0 0 0 0.1z"/>
				<path id="Layer" class="s4" d="m43.8 55.6q0 0 0 0.1 0 0 0 0.1 0 0 0 0.1-0.1 0-0.1 0.1 0 0 0 0.1 0 0 0 0.1 0 0-0.1 0.1 0 0 0 0.1 0 0 0 0.1-0.1 0-0.1 0.1 0 0 0 0.1-0.1 0-0.1 0.1 0 0.1-0.1 0.1 0 0.1 0 0.1-0.1 0.1-0.1 0.1 0 0.1-0.1 0.1 0 0.1-0.1 0.2-0.1 0-0.1 0.1-0.1 0.1-0.2 0.1 0 0.1 0 0.1-0.1 0-0.1 0.1-0.1 0-0.1 0.1-0.1 0-0.2 0.1 0 0-0.1 0 0 0.1-0.1 0.1 0 0.1-0.1 0.1-0.1 0-0.1 0.1-0.1 0-0.2 0.1-0.2 0.1-0.5 0.3 0 0-0.1 0-0.2 0.1-0.5 0.2 0 0 0 0-0.3 0.1-0.6 0.2-0.1 0.1-0.3 0.1-0.2 0.1-0.3 0.1-0.2 0-0.4 0.1-0.1 0-0.3 0-0.1 0-0.1 0.1-0.3 0-0.5 0-0.1 0-0.2 0-0.1 0.1-0.3 0.1-0.2 0-0.4 0-0.2 0-0.4 0-0.2 0-0.4 0-0.1 0-0.3 0-0.2 0-0.3 0-0.2 0-0.4 0-0.2-0.1-0.3-0.1-0.2 0-0.4 0-0.2-0.1-0.3-0.1-0.2 0-0.3-0.1-0.3 0-0.5-0.1-0.1 0-0.3 0-0.1-0.1-0.1-0.1-0.2-0.1-0.5-0.1 0-0.1-0.1-0.1-0.2-0.1-0.4-0.2-0.1 0-0.2 0-0.2-0.2-0.5-0.3c-1.4-0.8-2.1-1.9-2.1-3l-0.1 20.6c0 1.1 0.7 2.2 2.2 3q0.2 0.1 0.5 0.3 0.1 0 0.2 0 0.1 0.1 0.3 0.2 0 0 0.1 0 0 0 0.1 0.1 0.2 0 0.4 0.1 0.1 0 0.2 0 0 0.1 0.1 0.1 0.1 0 0.2 0 0.2 0.1 0.4 0.1 0.1 0 0.1 0.1 0.1 0 0.2 0 0.2 0 0.4 0.1 0.1 0 0.1 0 0.1 0 0.2 0 0.2 0 0.4 0 0 0.1 0.1 0.1 0.1 0 0.2 0 0.2 0 0.4 0 0 0 0.2 0 0 0 0.1 0 0.2 0 0.4 0 0.1 0 0.2 0 0 0 0.1 0 0.2 0 0.5 0 0.1 0 0.2 0 0-0.1 0.1-0.1 0 0 0.1 0 0.3 0 0.5-0.1 0.1 0 0.1 0 0.1 0 0.1 0 0.1 0 0.2 0 0.2-0.1 0.4-0.1 0.2-0.1 0.3-0.1 0.2 0 0.4-0.1 0 0 0.1 0 0.2-0.1 0.4-0.2 0 0 0.1 0 0.2-0.1 0.4-0.2 0.1 0 0.2-0.1 0.2-0.1 0.5-0.2 0 0 0-0.1 0.1 0 0.1 0 0.1-0.1 0.1-0.1 0.1 0 0.2-0.1 0 0 0.1-0.1 0 0 0.1 0 0-0.1 0.1-0.1 0-0.1 0.1-0.1 0.1-0.1 0.1-0.1 0 0 0 0 0.1-0.1 0.1-0.1 0.1-0.1 0.1-0.1 0.1-0.1 0.1-0.1 0.1-0.1 0.2-0.2 0 0 0 0 0 0 0-0.1 0.1 0 0.1-0.1 0.1 0 0.1-0.1 0-0.1 0.1-0.1 0 0 0-0.1 0 0 0 0 0-0.1 0.1-0.1 0-0.1 0-0.1 0-0.1 0.1-0.1 0 0 0-0.1 0 0 0 0 0-0.1 0-0.1 0-0.1 0.1-0.1 0-0.1 0-0.1 0 0 0-0.1 0 0 0 0 0-0.1 0-0.1 0-0.1 0-0.1 0-0.1 0-0.1 0 0 0-0.1 0 0 0 0 0.1-10.3 0.1-20.6 0 0 0 0.1z"/>
				<path id="Layer" class="s16" d="m31.4 74q0.3 0.1 0.6 0.3 0 0 0.1 0 0.2 0.1 0.4 0.2 0 0 0 0 0.1 0 0.1 0.1 0.3 0 0.5 0.1 0.1 0 0.1 0 0.1 0.1 0.1 0.1 0.1 0 0.2 0 0.2 0.1 0.5 0.1 0 0.1 0.1 0.1 0.1 0 0.2 0 0.2 0 0.4 0.1 0 0 0.1 0 0.1 0 0.2 0 0.2 0 0.3 0 0.1 0.1 0.2 0.1 0.1 0 0.2 0 0.2 0 0.3 0 0.1 0 0.2 0 0.1 0 0.2 0 0.2 0 0.4 0 0.1 0 0.2 0 0 0 0.1 0 0.2 0 0.4 0 0.2 0 0.3 0 0-0.1 0-0.1 0.1 0 0.2 0 0.2 0 0.5-0.1 0.1 0 0.1 0 0 0 0.1 0 0.1 0 0.2 0 0.2-0.1 0.4-0.1 0.2-0.1 0.3-0.1 0.2 0 0.4-0.1 0 0 0 0 0.3-0.1 0.5-0.2 0 0 0 0 0.3-0.1 0.5-0.2 0.1 0 0.1-0.1 0.3-0.1 0.5-0.2 0.1 0 0.1-0.1 0 0 0.1 0 0-0.1 0.1-0.1 0.1 0 0.1-0.1 0.1 0 0.2-0.1 0 0 0.1 0 0-0.1 0.1-0.1 0-0.1 0.1-0.1 0-0.1 0.1-0.1 0 0 0 0 0-0.1 0.1-0.1 0-0.1 0.1-0.1 0-0.1 0.1-0.1 0.1-0.1 0.2-0.2 0 0 0 0 0 0 0-0.1 0.1 0 0.1-0.1 0-0.1 0.1-0.1 0-0.1 0-0.1 0 0 0.1-0.1 0 0 0 0 0-0.1 0-0.1 0.1-0.1 0.1-0.1 0-0.1 0-0.1 0 0 0-0.1 0.1 0 0.1 0 0-0.1 0-0.1c0 0 0.2-0.7 0.2-0.8 0-1.8-0.1-3.6-0.1-5.4q0 0 0 0 0-0.1 0.1-0.1 0-0.1 0-0.1c0-3.3 0-3.9 0-3.9q0-0.1 0 0c0 0-0.2 0.6-0.2 0.6q0 0.1 0 0.1 0 0.1 0 0.1 0 0-0.1 0.1 0 0 0 0 0 0.1 0 0.1 0 0.1-0.1 0.1 0 0.1 0 0.1 0 0 0 0.1-0.1 0-0.1 0 0 0.1 0 0.1-0.1 0.1-0.1 0.1 0 0.1-0.1 0.1 0 0.1 0 0.1 0 0 0 0-0.1 0.1-0.2 0.2-0.1 0.1-0.1 0.1-0.1 0.1-0.1 0.1-0.1 0.1-0.1 0.1 0 0 0 0-0.1 0.1-0.1 0.1-0.1 0-0.1 0.1-0.1 0-0.1 0.1-0.1 0-0.1 0.1-0.1 0-0.2 0 0 0.1-0.1 0.1-0.1 0.1-0.1 0.1-0.1 0-0.1 0 0 0.1-0.1 0.1-0.2 0.1-0.5 0.3 0 0-0.1 0-0.2 0.1-0.5 0.2 0 0 0 0-0.2 0.1-0.5 0.2 0 0 0 0-0.2 0.1-0.4 0.1-0.1 0.1-0.3 0.1-0.2 0-0.4 0.1-0.1 0-0.2 0-0.1 0-0.1 0 0 0.1-0.1 0.1-0.3 0-0.5 0-0.1 0-0.1 0.1-0.1 0-0.1 0-0.1 0-0.3 0-0.2 0-0.4 0-0.1 0-0.1 0-0.1 0-0.2 0-0.2 0-0.4 0-0.1 0-0.2 0-0.1 0-0.2 0-0.1 0-0.3 0-0.1 0-0.2 0-0.1 0-0.2 0-0.1-0.1-0.3-0.1-0.1 0-0.2 0-0.1 0-0.1 0-0.2-0.1-0.4-0.1-0.1 0-0.2 0-0.1 0-0.1 0-0.3-0.1-0.5-0.2-0.1 0-0.2 0 0 0-0.1 0 0-0.1-0.1-0.1-0.2-0.1-0.5-0.1 0-0.1-0.1-0.1 0 0 0 0-0.2-0.1-0.4-0.1-0.1-0.1-0.1-0.1-0.3-0.2-0.6-0.3c-1.1-0.7-1.8-1.5-2-2.4l-0.1 9.6c0.3 0.8 1 1.7 2.1 2.4z"/>
				<path id="Layer" class="s14" d="m43.8 55.6q0 0 0-0.1 0-0.1 0-0.2 0 0 0-0.1 0 0 0 0 0-0.1-0.1-0.2 0 0 0 0l-0.9-4.7q0 0.1 0 0.2 0 0.1 0 0.1 0 0.1 0 0.2 0 0 0 0.1 0 0.1 0 0.2 0 0 0 0 0 0.2-0.1 0.3 0 0 0 0 0 0.2-0.1 0.3 0 0 0 0-0.1 0.1-0.1 0.2-0.1 0.1-0.1 0.1-0.1 0.1-0.2 0.3 0 0 0 0.1-0.1 0-0.1 0.1-0.1 0-0.1 0-0.1 0.1-0.1 0.1 0 0.1-0.1 0.1-0.1 0.1-0.2 0.2 0 0-0.1 0-0.1 0.1-0.2 0.2-0.2 0.1-0.3 0.2-0.2 0.1-0.4 0.2-0.1 0-0.2 0.1-0.1 0-0.3 0.1-0.1 0-0.2 0.1-0.1 0-0.3 0.1-0.1 0-0.2 0-0.1 0.1-0.3 0.1-0.1 0-0.2 0.1-0.2 0-0.5 0.1-0.3 0-0.6 0.1-0.2 0-0.4 0-0.1 0-0.2 0-0.3 0-0.6 0 0 0-0.1 0-0.2 0-0.4 0-0.1 0-0.2 0-0.2 0-0.4 0-0.1 0-0.2-0.1-0.1 0-0.3 0-0.1 0-0.2 0-0.2-0.1-0.5-0.1 0 0 0 0-0.3-0.1-0.5-0.2-0.1 0-0.2-0.1-0.2 0-0.3-0.1-0.2 0-0.3-0.1-0.2 0-0.3-0.1-0.2-0.1-0.5-0.2-0.1-0.1-0.2-0.1 0-0.1-0.1-0.1 0-0.1-0.1-0.1 0 0-0.1-0.1-0.1 0-0.1-0.1-0.1 0-0.1 0-0.1-0.1-0.1-0.1-0.1-0.1-0.1-0.1-0.1-0.1-0.1-0.1 0-0.1-0.1-0.1 0 0-0.1-0.1 0 0 0-0.1-0.1 0-0.1-0.1-0.1 0-0.1-0.1 0 0 0-0.1-0.1 0-0.1-0.1 0 0-0.1-0.1 0 0 0-0.1 0 0 0-0.1-0.1 0-0.1-0.1 0 0 0 0 0-0.1 0-0.2-0.1 0-0.1 0 0-0.1 0-0.1 0-0.1 0-0.1 0-0.1 0-0.1 0-0.1 0-0.2 0 0 0 0 0-0.1 0-0.2 0 0 0 0 0-0.1 0-0.2-0.5 2.3-1 4.6 0 0.1 0 0.2 0 0 0 0 0 0.1 0 0.2 0 0 0 0.1 0 0 0 0.1 0 0 0 0.1 0 0.1 0 0.1 0 0.1 0 0.1 0 0.1 0 0.1 0.1 0.1 0.1 0.2 0 0 0 0.1 0 0 0 0.1 0.1 0 0.1 0.1 0 0.1 0 0.1 0.1 0.1 0.1 0.1 0 0.1 0.1 0.1 0 0.1 0 0.1 0.1 0.1 0.1 0.2 0 0 0.1 0.1 0 0 0 0.1 0.1 0 0.1 0.1 0.1 0 0.1 0.1 0.1 0 0.1 0.1 0.1 0 0.1 0.1 0.1 0 0.1 0.1 0.1 0 0.2 0.1 0 0 0.1 0.1 0 0 0.1 0.1 0.1 0 0.1 0.1 0.1 0 0.2 0.1 0 0 0.1 0.1 0.1 0 0.1 0 0.1 0.1 0.1 0.1 0.3 0.2 0.6 0.3 0 0 0 0 0.2 0.1 0.3 0.1 0.1 0.1 0.3 0.1 0 0.1 0.1 0.1 0.1 0 0.3 0.1 0.1 0 0.2 0 0 0.1 0 0.1 0.3 0 0.6 0.1 0 0 0 0 0.3 0.1 0.5 0.1 0.1 0 0.1 0 0.1 0 0.2 0.1 0.1 0 0.3 0 0.1 0 0.1 0 0.2 0 0.3 0 0.1 0.1 0.1 0.1 0.2 0 0.3 0 0.1 0 0.2 0 0 0 0.1 0 0.2 0 0.4 0 0.1 0 0.2 0 0 0 0 0 0.3 0 0.6 0 0 0 0 0 0.1 0 0.2 0 0.2 0 0.5-0.1 0 0 0 0 0.3 0 0.7-0.1 0 0 0 0 0.3 0 0.6-0.1 0.1 0 0.1 0 0.2-0.1 0.4-0.1 0 0 0.1 0 0.1-0.1 0.2-0.1 0.2-0.1 0.4-0.1 0.1-0.1 0.2-0.1 0.2-0.1 0.3-0.2 0.1 0 0.2 0 0.3-0.2 0.5-0.3 0.1-0.1 0.3-0.2 0 0 0 0 0.2-0.1 0.3-0.2 0.1 0 0.1-0.1 0.1-0.1 0.2-0.2 0.1 0 0.1 0 0 0 0 0 0.1-0.1 0.1-0.1 0.1-0.1 0.1-0.1 0.1-0.1 0.1-0.1 0.1-0.1 0.1-0.1 0 0 0-0.1 0 0 0.1 0 0-0.1 0.1-0.2 0 0 0 0 0-0.1 0.1-0.1 0 0 0 0 0.1-0.2 0.1-0.3 0 0 0 0 0.1-0.2 0.2-0.3 0-0.1 0-0.1 0 0 0 0 0-0.1 0.1-0.3 0 0 0 0 0 0 0 0 0-0.1 0-0.3 0 0 0 0z"/>
				<path id="Layer" class="s3" d="m41 48.2c-2.4-1.4-6.4-1.4-8.8 0-2.4 1.4-2.4 3.7 0 5.1 2.5 1.4 6.4 1.4 8.8 0 2.4-1.4 2.4-3.7 0-5.1z"/>
			</g>
		</g>
	</g>
</svg>