<svg version="1.2" xmlns="http://www.w3.org/2000/svg" viewBox="0 0 96 79" width="96" height="79">
	<title>Layer</title>
	<defs>
		<clipPath clipPathUnits="userSpaceOnUse" id="cp1">
			<path d="m22.14 23.09l0.04 15.28c0 0.94 0.62 1.88 1.86 2.6 2.48 1.44 6.52 1.44 9.02 0 1.25-0.73 1.89-1.69 1.88-2.64l-0.04-15.27c0.01 0.95-0.62 1.91-1.88 2.63-2.5 1.45-6.55 1.45-9.03 0-1.24-0.71-1.85-1.65-1.85-2.6z"/>
		</clipPath>
	</defs>
	<style>
		.s0 { fill: #8390cd } 
		.s1 { fill: #3998d8 } 
		.s2 { fill: #fe2456 } 
		.s3 { fill: #ff4d75 } 
		.s4 { fill: #def6ff } 
		.s5 { fill: #1d96cb } 
		.s6 { fill: #ea3e2d } 
		.s7 { fill: #32293a } 
		.s8 { fill: #ff5138 } 
		.s9 { fill: #c7e8f2 } 
		.s10 { fill: #433a4c } 
		.s11 { fill: #e29813 } 
		.s12 { fill: #c47f10 } 
		.s13 { fill: #feb623 } 
		.s14 { fill: #dcf3eb } 
		.s15 { fill: #1884aa } 
		.s16 { fill: #feb624 } 
		.s17 { fill: #b3bf19 } 
		.s18 { fill: #edf4f8 } 
		.s19 { fill: #ffca6c } 
	</style>
	<g id="Layer">
		<g id="-e-step_16">
			<g id="Layer">
				<path id="Layer" class="s0" d="m95.8 56.1l-30.7 17.8-35.6-20.5 30.7-17.8z"/>
			</g>
			<g id="Layer">
				<path id="Layer" class="s0" d="m45 65.2c-5.3 3.1-5.4 8-0.1 11.1 5.3 3 13.8 3 19.1 0 5.3-3.1 5.3-8 0.1-11.1-5.3-3-13.8-3-19.1 0z"/>
			</g>
			<g id="Layer">
				<path id="Layer" class="s1" d="m22.2 35.4c-5.3 3-5.3 8 0 11 5.2 3.1 13.8 3.1 19.1 0 5.3-3 5.3-8 0-11.1-5.2-3-13.8-3-19.1 0.1z"/>
			</g>
			<g id="Layer">
				<path id="Layer" class="s2" d="m70.8 13.9c0 0 3.6 16.1 6.4 24.5 2.2 6.7 4.6 20.8 1.5 24.8l-14.8 5.8c0 0-5.6-37.5 6.9-55.1z"/>
				<path id="Layer" class="s3" d="m70.8 13.9l-23.2-13.3c0 0-2.5 13.8-4.3 20-4 13.2-6.9 23.7-4.9 35l25.5 13.4c0 0-0.9-22.4 3.7-33.9 2.4-6 4.5-15.7 3.2-21.2z"/>
				<path id="Layer" class="s4" d="m67 19.8l-18.6-10.7c0 0-2.1 11.2-3.5 16.1-3.2 10.6-5.6 19.1-3.9 28.2l20.5 10.7c0 0-0.7-17.9 3-27.2 1.9-4.9 3.6-12.7 2.5-17.1z"/>
				<path id="Layer" class="s5" d="m41 53.4c-1.7-9.1 0.7-17.6 3.9-28.2 0.3-1.1 0.6-2.5 1-4 1.6 8 6.8 15.3 11.1 22.9 3 5.1 4.1 12.3 4.4 17.1 0 1.8 0.1 2.9 0.1 2.9z"/>
			</g>
			<g id="Layer">
				<path id="Layer" class="s6" d="m22.2 38.8q0.1 0.2 0.1 0.4 0.1 0 0.1 0.1 0.1 0.2 0.2 0.4 0.1 0.1 0.1 0.1 0 0.1 0.1 0.1 0.1 0.1 0.2 0.2 0 0.1 0 0.1 0 0 0.1 0 0.1 0.2 0.3 0.3 0 0.1 0.1 0.1 0.2 0.1 0.3 0.2 0.1 0.1 0.2 0.2 0.3 0.1 0.7 0.3 0.1 0 0.1 0.1 0.3 0.1 0.6 0.2 0.1 0 0.1 0 0.3 0.1 0.7 0.2 0 0 0.1 0 0.2 0.1 0.5 0.1 0.1 0 0.2 0 0.3 0.1 0.7 0.1 0.1 0 0.2 0 0.3 0.1 0.7 0 0.1 0 0.2 0 0.3 0 0.5 0 0.2 0 0.3 0 0.3 0 0.6-0.1 0 0 0.1 0 0.4-0.1 0.8-0.2 0.1 0 0.2 0 0.4-0.1 0.8-0.3 0.1 0 0.1 0 0.5-0.2 0.9-0.4c1.1-0.7 1.7-1.5 1.8-2.3q-0.2 1.7-0.5 3.4c-0.1 0.8-0.7 1.6-1.7 2.1q-0.4 0.2-0.8 0.4 0 0-0.1 0-0.3 0.2-0.7 0.3-0.1 0-0.1 0-0.1 0-0.1 0-0.3 0.1-0.7 0.2 0 0-0.1 0 0 0-0.1 0-0.2 0.1-0.5 0.1-0.1 0-0.1 0-0.1 0-0.1 0-0.3 0-0.5 0-0.1 0-0.2 0 0 0 0 0-0.3 0-0.7 0 0 0 0 0-0.1 0-0.1 0-0.4 0-0.7-0.1 0 0-0.1 0 0 0 0 0-0.3 0-0.5-0.1-0.1 0-0.1 0-0.3-0.1-0.6-0.2 0 0 0 0-0.1 0-0.1 0-0.3-0.1-0.5-0.2-0.1 0-0.2-0.1-0.3-0.1-0.6-0.3 0 0-0.1 0 0-0.1-0.1-0.1-0.1-0.1-0.2-0.2-0.1 0-0.2-0.1-0.1-0.1-0.2-0.2-0.1 0-0.1 0 0-0.1 0-0.1 0 0 0 0-0.1-0.1-0.2-0.2 0 0-0.1-0.1 0 0-0.1-0.1 0 0 0 0-0.1-0.2-0.2-0.4 0 0 0 0 0 0 0-0.1-0.1-0.1-0.1-0.3 0 0 0 0 0-0.1 0-0.1-0.3-1.8-0.6-3.5 0 0.1 0 0.1z"/>
				<g id="Layer">
					<path id="SVGID_1_" class="s7" d="m22.1 23.1l0.1 15.3c0 0.9 0.6 1.8 1.8 2.6 2.5 1.4 6.6 1.4 9.1 0 1.2-0.8 1.8-1.7 1.8-2.7v-15.2c0 0.9-0.6 1.9-1.9 2.6-2.5 1.4-6.5 1.4-9 0-1.2-0.7-1.9-1.7-1.9-2.6z"/>
					<g id="Clip-Path" clip-path="url(#cp1)">
						<g id="Layer">
							<path id="Layer" class="s7" d="m22.1 23.1l0.1 15.3q0 0 0 0l-0.1-15.2q0-0.1 0-0.1z"/>
							<path id="Layer" class="s7" d="m22.1 23.2l0.1 15.2q0 0.2 0 0.4v-15.3q-0.1-0.2-0.1-0.3z"/>
							<path id="Layer" class="s7" d="m22.2 23.5v15.3q0.1 0.2 0.1 0.3v-15.2q-0.1-0.2-0.1-0.4z"/>
							<path id="Layer" class="s7" d="m22.3 23.9v15.2q0.1 0.2 0.2 0.4v-15.3q-0.1-0.1-0.2-0.3z"/>
							<path id="Layer" class="s7" d="m22.5 24.2v15.3q0.1 0.2 0.3 0.4l-0.1-15.3q-0.1-0.2-0.2-0.4z"/>
							<path id="Layer" class="s7" d="m22.7 24.6l0.1 15.3q0.1 0.2 0.4 0.4l-0.1-15.2q-0.2-0.3-0.4-0.5z"/>
							<path id="Layer" class="s7" d="m23.1 25l0.1 15.3q0.3 0.3 0.8 0.6l-0.1-15.3q-0.4-0.2-0.8-0.6z"/>
							<path id="Layer" class="s7" d="m23.9 25.6l0.1 15.3q0 0 0 0.1 0.7 0.3 1.4 0.6v-15.3q-0.8-0.2-1.4-0.6 0 0-0.1-0.1z"/>
							<path id="Layer" class="s7" d="m25.4 26.3v15.3q0.6 0.2 1.2 0.3v-15.3q-0.6-0.1-1.2-0.3z"/>
							<path id="Layer" class="s7" d="m26.6 26.6v15.3q0.4 0.1 0.9 0.1l-0.1-15.3q-0.4 0-0.8-0.1z"/>
							<path id="Layer" class="s7" d="m27.4 26.7l0.1 15.3q0.3 0 0.7 0l-0.1-15.2q-0.3 0-0.7-0.1z"/>
							<path id="Layer" class="s7" d="m28.1 26.8l0.1 15.2q0.3 0.1 0.6 0v-15.2q-0.4 0-0.7 0z"/>
							<path id="Layer" class="s7" d="m28.8 26.8v15.2q0.3 0 0.7 0l-0.1-15.3q-0.3 0.1-0.6 0.1z"/>
							<path id="Layer" class="s7" d="m29.4 26.7l0.1 15.3q0.3 0 0.6-0.1l-0.1-15.2q-0.3 0-0.6 0z"/>
							<path id="Layer" class="s7" d="m30 26.7l0.1 15.2q0.3 0 0.6-0.1v-15.2q-0.4 0-0.7 0.1z"/>
							<path id="Layer" class="s7" d="m30.7 26.6v15.2q0.3 0 0.7-0.1l-0.1-15.3q-0.3 0.1-0.6 0.2z"/>
							<path id="Layer" class="s7" d="m31.3 26.4l0.1 15.3q0.4-0.1 0.7-0.3v-15.3q-0.4 0.2-0.8 0.3z"/>
							<path id="Layer" class="s7" d="m32.1 26.1v15.3q0.5-0.2 1-0.4c1.2-0.8 1.9-1.7 1.8-2.7v-15.2c0 0.9-0.6 1.9-1.9 2.6q-0.4 0.2-0.9 0.4z"/>
						</g>
					</g>
				</g>
				<path id="Layer" class="s6" d="m22.1 23.1q0 0 0 0 0-0.1 0.1-0.3 0 0 0 0 0.2-1.8 0.5-3.5 0 0.2 0 0.3 0 0.1 0 0.1 0 0.1 0 0.3 0 0 0 0.1 0.1 0.1 0.1 0.2 0 0 0 0.1 0.1 0.1 0.2 0.3 0 0 0 0 0.1 0.2 0.2 0.3 0.2 0.2 0.4 0.4 0.1 0.1 0.3 0.3 0.1 0 0.1 0 0.2 0.1 0.4 0.3 0.3 0.1 0.6 0.3 0.1 0 0.2 0 0.3 0.2 0.6 0.3 0.1 0 0.1 0 0.4 0.1 0.8 0.2 0 0 0.1 0 0.3 0.1 0.6 0.1 0.1 0 0.3 0 0.1 0 0.2 0 0.3 0.1 0.5 0.1 0.1 0 0.1 0 0.3 0 0.5-0.1 0.1 0 0.2 0 0.2 0 0.3 0 0.1 0 0.2 0 0.2 0 0.4-0.1 0.1 0 0.1 0 0.2 0 0.4-0.1 0.1 0 0.2 0 0.1-0.1 0.2-0.1 0.2 0 0.3-0.1 0.1 0 0.2 0 0.1-0.1 0.3-0.1 0.1-0.1 0.2-0.1 0.2-0.1 0.4-0.2 0.1-0.1 0.2-0.1c1.3-0.8 1.9-1.8 1.7-2.8l0.6 3.5c0.1 1.1-0.5 2.2-1.9 3q-0.1 0-0.1 0.1-0.1 0-0.1 0-0.3 0.1-0.5 0.2-0.1 0.1-0.1 0.1-0.1 0-0.1 0-0.2 0.1-0.3 0.1-0.1 0.1-0.2 0.1 0 0-0.1 0-0.1 0.1-0.2 0.1-0.1 0-0.2 0.1-0.1 0-0.1 0-0.1 0-0.2 0-0.1 0.1-0.2 0.1-0.1 0-0.2 0-0.1 0-0.2 0-0.1 0-0.1 0.1-0.1 0-0.2 0-0.2 0-0.3 0 0 0 0 0-0.2 0-0.4 0 0 0-0.1 0.1 0 0-0.1 0-0.2 0-0.5 0 0 0 0 0 0 0 0 0-0.3 0-0.6 0 0 0 0 0-0.2-0.1-0.4-0.1-0.1 0-0.2 0 0 0 0 0-0.3 0-0.7-0.1 0 0 0 0 0 0-0.1 0-0.4-0.1-0.8-0.2 0 0-0.1 0 0 0 0 0-0.4-0.2-0.8-0.3 0 0-0.1-0.1-0.4-0.1-0.7-0.3-0.1-0.1-0.2-0.1-0.1-0.1-0.2-0.2-0.1 0-0.1-0.1-0.2-0.1-0.4-0.2 0-0.1 0-0.1-0.2-0.1-0.3-0.3h-0.1q-0.1-0.2-0.2-0.4 0 0 0 0 0 0 0-0.1-0.1-0.1-0.2-0.2 0 0 0 0 0-0.1 0-0.1-0.1-0.1-0.1-0.2 0 0 0-0.1 0 0 0-0.1 0 0 0-0.1-0.1-0.1-0.1-0.2 0 0 0-0.1z"/>
				<g id="Layer">
					<path id="Layer" class="s8" d="m24.4 17.2c-2.3 1.3-2.3 3.4 0 4.8 2.2 1.3 5.9 1.3 8.2 0 2.3-1.4 2.3-3.5 0-4.8-2.2-1.3-5.9-1.3-8.2 0z"/>
				</g>
				<g id="Layer">
					<path id="Layer" class="s6" d="m26.3 17.9c-1.2 0.7-1.2 1.9 0 2.6 1.2 0.7 3.3 0.7 4.5 0 1.3-0.7 1.3-1.9 0-2.6-1.2-0.7-3.2-0.7-4.5 0z"/>
				</g>
				<path id="Layer" class="s6" d="m25.4 10.2h6.4v9.4h-6.4z"/>
				<g id="Layer">
					<path id="Layer" class="s9" d="m26.3 8.9c-1.2 0.7-1.2 1.9 0 2.6 1.2 0.8 3.3 0.8 4.5 0 1.3-0.7 1.3-1.9 0-2.6-1.2-0.7-3.2-0.7-4.5 0z"/>
				</g>
				<g id="Layer">
					<path id="Layer" class="s7" d="m25.7 9.1c-1.6 0.9-1.6 2.4 0 3.3 1.5 1 4.1 1 5.7 0 1.7-0.9 1.7-2.4 0.1-3.3-1.6-0.9-4.2-0.9-5.8 0z"/>
				</g>
				<path id="Layer" class="s7" d="m24.5 8.4h8.1v2.5h-8.1z"/>
				<g id="Layer">
					<path id="Layer" class="s10" d="m25.7 6.9c-1.6 0.9-1.6 2.4 0 3.4 1.5 0.9 4.1 0.9 5.7 0 1.7-1 1.7-2.5 0.1-3.4-1.6-0.9-4.2-0.9-5.8 0z"/>
				</g>
			</g>
			<g id="Layer">
				<g id="Layer">
					<path id="Layer" class="s0" d="m9.1 52.5c-8.4 4.8-8.4 12.7-0.1 17.5 8.4 4.9 22 4.9 30.4 0 8.4-4.8 8.4-12.7 0.1-17.5-8.4-4.9-22-4.9-30.4 0z"/>
				</g>
				<g id="Layer">
					<g id="Layer">
						<path id="Layer" class="s11" d="m13 54.7c-6.2 3.6-6.2 9.5 0 13.1 6.2 3.6 16.2 3.6 22.5 0 6.2-3.6 6.2-9.5 0-13.1-6.2-3.6-16.2-3.6-22.5 0z"/>
					</g>
					<path id="Layer" class="s11" d="m47.7 53.1l-8.3 11h-30.3l-8.3-11z"/>
					<g id="Layer">
						<path id="Layer" class="s12" d="m8.5 46.4c-8.8 4.1-8.8 10.6-0.1 14.6 8.7 4.1 22.8 4.1 31.6 0 8.7-4 8.8-10.5 0.1-14.6-8.7-4-22.9-4-31.6 0z"/>
					</g>
					<g id="Layer">
						<path id="Layer" class="s12" d="m7.5 41.2c-9.3 5.3-9.3 14-0.1 19.4 9.2 5.4 24.3 5.4 33.6 0 9.3-5.4 9.3-14.1 0.1-19.4-9.3-5.4-24.3-5.4-33.6 0z"/>
					</g>
					<g id="Layer">
						<path id="Layer" class="s13" d="m7.6 38.9c-9.3 5.4-9.3 14-0.1 19.4 9.2 5.3 24.1 5.3 33.4 0 9.3-5.4 9.3-14 0.1-19.4-9.2-5.3-24.2-5.3-33.4 0z"/>
					</g>
					<g id="Layer">
						<path id="Layer" class="s11" d="m9.1 39.7c-8.4 4.9-8.4 12.7-0.1 17.6 8.4 4.9 22 4.9 30.4 0 8.4-4.9 8.4-12.7 0.1-17.6-8.4-4.8-22-4.8-30.4 0z"/>
					</g>
					<path id="Layer" class="s14" d="m25.8 45.6c0 0-7.6-11.1-12.9-10.7-5.2 0.4-11.1 5.8-11.6 7.4-0.6 1.7 12 10.6 16.1 11.4 4.1 0.9 16.1 1.4 14.1-2.8-1.9-4.2-4-3-5.7-5.3z"/>
					<path id="Layer" class="s7" d="m31.7 38.7c0 0-0.9-1.1-2.6-1.6-1.7-0.4-3.1-0.5-5.7 0-2.7 0.6-3.7 0.8-5 1.6-1.3 0.9 1.6 5.3 2.9 5.9 1.3 0.7 12.1-2.5 10.4-5.9z"/>
					<path id="Layer" class="s8" d="m39.4 38.7c0 0-4.9-2.5-8.1-0.8-3.1 1.6-10 2.2-11.3 5.5-1.2 3.3-2.5 4.8-2.9 7.5-0.4 2.6 3.6 7.7 9.8 6 6.1-1.6 8.4-4.1 12.5-6.7 4.1-2.5 7.7-7.2 0-11.5z"/>
					<path id="Layer" class="s5" d="m42.8 50.9c0 0-1-4.3-4.6-4.5-3.6-0.2-6.6-0.6-9.6 0-3 0.6-7.3 1.6-9.6 3.3-2.4 1.8-7.2 3.5-7.4 4.6-0.2 1.1-1.7 6 13.8 5 15.5-1 18-6.9 17.4-8.4z"/>
					<path id="Layer" class="s7" d="m20.1 50.9c0 0-0.2-4.5-3.6-4.1-3.5 0.4-11.5-2.4-12.2-1-0.7 1.5-1.4 9.9 7.9 11.4 9.3 1.5 8.4-4.3 7.9-6.3z"/>
					<path id="Layer" class="s5" d="m42.8 50.9c0 0-1-4.3-4.6-4.5-3.6-0.2-6.6-0.6-9.6 0-3 0.6-7.3 1.6-9.6 3.3-2.4 1.8-7.2 3.5-7.4 4.6-0.2 1.1-1.7 6 13.8 5 15.5-1 18-6.9 17.4-8.4z"/>
					<path id="Layer" class="s15" d="m25.4 59.3c-12.1 0.7-13.9-2.1-13.9-3.8 10.5 4.9 23.1 0.3 27.2-1.8 2.9-1.4 3.2-3.8 3.1-5.1 0.7 1.2 1 2.3 1 2.3 0.6 1.5-1.9 7.4-17.4 8.4z"/>
				</g>
			</g>
			<g id="Layer">
				<path id="Layer" class="s16" d="m45.9 67.4q0 0.1 0 0.1 0.1 0.1 0.1 0.3 0.1 0 0.1 0.1 0.1 0.1 0.1 0.2 0.1 0.1 0.1 0.2 0.1 0.1 0.2 0.2 0.1 0 0.1 0.1 0.1 0.1 0.2 0.2 0 0.1 0.1 0.1 0.1 0.1 0.3 0.3 0 0 0.1 0 0.1 0.2 0.3 0.3 0 0 0.1 0 0.2 0.2 0.4 0.3 0.3 0.2 0.6 0.3 0.1 0.1 0.2 0.1 0.2 0.1 0.4 0.2 0.1 0 0.2 0.1 0.2 0 0.5 0.1 0.1 0 0.2 0.1 0.1 0 0.3 0.1 0.2 0 0.5 0.1 0.1 0 0.3 0.1 0.3 0 0.5 0 0.2 0.1 0.4 0.1 0.1 0 0.3 0 0.2 0.1 0.4 0.1 0.2 0 0.3 0 0.3 0 0.7 0 0 0 0.1 0 0.3 0 0.6 0 0.1 0 0.2 0 0.3 0 0.5-0.1 0.1 0 0.2 0 0.4 0 0.7-0.1 0.1 0 0.1 0 0.3-0.1 0.6-0.1 0.2-0.1 0.4-0.1 0.2-0.1 0.4-0.1 0.2-0.1 0.4-0.2 0.1 0 0.3-0.1 0.2-0.1 0.4-0.2 0.1 0 0.3-0.1 0.3-0.1 0.6-0.3c1.4-0.8 2.2-1.8 2.4-2.8q-0.6 2.7-1.1 5.3-0.1 0.1-0.1 0.3 0 0 0 0-0.1 0.1-0.1 0.2 0 0.1-0.1 0.2 0 0.1-0.1 0.2 0 0-0.1 0.1 0 0.1-0.2 0.3 0 0 0 0-0.5 0.6-1.4 1.1-0.2 0.2-0.5 0.3-0.1 0-0.2 0.1-0.2 0.1-0.4 0.2-0.1 0-0.3 0-0.1 0.1-0.3 0.2-0.2 0-0.3 0-0.2 0.1-0.4 0.1 0 0 0 0-0.3 0.1-0.5 0.1 0 0-0.1 0.1-0.3 0-0.5 0-0.1 0-0.1 0-0.1 0.1-0.1 0.1-0.3 0-0.5 0-0.1 0-0.2 0-0.1 0-0.1 0-0.2 0-0.4 0-0.1 0-0.1 0-0.3 0-0.5 0-0.1 0-0.1 0-0.1 0-0.2 0-0.2 0-0.4 0-0.1-0.1-0.3-0.1-0.1 0-0.1 0-0.1 0-0.2 0-0.2 0-0.4-0.1-0.2 0-0.3 0-0.2-0.1-0.4-0.2-0.1 0-0.2 0-0.1 0-0.1 0-0.1-0.1-0.2-0.1-0.2 0-0.4-0.1-0.1 0-0.2-0.1-0.1-0.1-0.3-0.1-0.1-0.1-0.2-0.1-0.2-0.1-0.5-0.3-0.1-0.1-0.3-0.2 0 0-0.1 0 0 0 0-0.1-0.2-0.1-0.3-0.2 0 0-0.1 0-0.1-0.1-0.2-0.3-0.1 0-0.1 0 0-0.1-0.1-0.1 0-0.1-0.1-0.1 0-0.1-0.1-0.1 0-0.1-0.1-0.2-0.1-0.1-0.1-0.2 0 0 0 0-0.1-0.1-0.1-0.1 0-0.1-0.1-0.1 0-0.2-0.1-0.3 0 0 0 0 0-0.1 0-0.1-0.1-0.1-0.1-0.3-0.2-1-0.4-2.1-0.3-1-0.5-2.1-0.1-0.5-0.2-1 0 0.1 0.1 0.3z"/>
				<path id="Layer" class="s17" d="m45.7 43.2q0 0.1 0 0.1 0 0.1 0 0.1 0 0.1 0 0.2 0 0 0 0.1 0.1 0 0.1 0.1 0 0.1 0 0.1 0 0.1 0 0.1 0.1 0.1 0.1 0.1 0 0.1 0 0.2 0.1 0 0.1 0.1 0 0 0 0.1 0.1 0 0.1 0.1 0 0.1 0.1 0.1 0 0.1 0 0.1 0.1 0.1 0.2 0.2 0 0 0 0 0.1 0.2 0.2 0.3 0.1 0 0.1 0.1 0.1 0.1 0.2 0.1 0 0.1 0.1 0.1 0 0.1 0.1 0.1 0 0.1 0.1 0.1 0.1 0.1 0.1 0.1 0.1 0.1 0.1 0.1 0.1 0.1 0.2 0.1 0 0.1 0.1 0.1 0.1 0 0.2 0.1 0.1 0.1 0.2 0.1 0.2 0.2 0.5 0.3 0.1 0 0.2 0.1 0.2 0.1 0.5 0.2 0 0 0 0 0.3 0.1 0.6 0.2 0.2 0.1 0.5 0.1 0.1 0.1 0.3 0.1 0.2 0.1 0.4 0.1 0.2 0.1 0.4 0.1 0 0 0.1 0 0.3 0.1 0.6 0.1 0.1 0 0.1 0 0.2 0 0.4 0 0.2 0.1 0.5 0.1 0.2 0 0.4 0 0.2 0 0.4 0 0.2 0 0.4 0 0.2 0 0.4 0 0.2-0.1 0.4-0.1 0.2 0 0.4 0 0.2 0 0.4-0.1 0.2 0 0.4 0 0.2-0.1 0.3-0.1 0.3-0.1 0.6-0.1 0.1-0.1 0.3-0.1 0.1-0.1 0.2-0.1 0.2-0.1 0.4-0.1 0.1-0.1 0.2-0.1 0.2-0.1 0.4-0.2 0.1 0 0.2-0.1 0.3-0.1 0.6-0.3c1.7-0.9 2.5-2.1 2.5-3.4v23.4c0 1.3-0.8 2.5-2.4 3.4q-0.3 0.2-0.6 0.3-0.1 0.1-0.2 0.1-0.2 0.1-0.4 0.2 0 0 0 0-0.1 0-0.2 0.1-0.2 0.1-0.5 0.1-0.1 0.1-0.2 0.1 0 0-0.1 0-0.1 0-0.2 0.1-0.2 0-0.5 0.1-0.1 0-0.1 0-0.1 0-0.2 0.1-0.2 0-0.5 0-0.1 0.1-0.1 0.1-0.1 0-0.2 0-0.2 0-0.4 0-0.1 0-0.2 0.1-0.1 0-0.2 0-0.2 0-0.4 0-0.1 0-0.2 0-0.1 0-0.2 0-0.2 0-0.5 0-0.1 0-0.2 0-0.1 0-0.1 0-0.3 0-0.6-0.1-0.1 0-0.2 0 0 0-0.1 0-0.1 0-0.2 0-0.2 0-0.5-0.1-0.1 0-0.2 0 0 0 0 0-0.2 0-0.3-0.1-0.2 0-0.5-0.1-0.1 0-0.3-0.1-0.2 0-0.4-0.1 0 0-0.1 0-0.2-0.1-0.5-0.2 0 0-0.1 0-0.2-0.1-0.5-0.2-0.1-0.1-0.1-0.1-0.3-0.1-0.6-0.3 0 0-0.1 0 0-0.1-0.1-0.1 0 0-0.1-0.1-0.1 0-0.2-0.1 0 0-0.1-0.1-0.1 0-0.1-0.1-0.1 0-0.1-0.1-0.1 0-0.2-0.1 0 0-0.1-0.1 0 0 0 0 0 0-0.1-0.1-0.1 0-0.1-0.1-0.1-0.1-0.1-0.1-0.1-0.1-0.2-0.3 0 0 0 0-0.1 0-0.1 0 0-0.1-0.1-0.2 0 0 0-0.1-0.1 0-0.1-0.1 0 0-0.1-0.1 0 0 0 0 0-0.1 0-0.1-0.1-0.1-0.1-0.1 0-0.1-0.1-0.2 0 0 0 0 0 0 0-0.1 0 0 0-0.1 0 0-0.1-0.1 0-0.1 0-0.1 0 0 0-0.1 0 0 0 0 0-0.1 0-0.1 0-0.1 0-0.2-0.1 0-0.1-0.1 0 0 0 0 0-0.1 0-0.1 0-11.7 0-23.4 0 0 0 0.1z"/>
				<path id="Layer" class="s7" d="m45.7 43.2q0 0.1 0 0.1 0 0.1 0 0.1 0 0.1 0 0.2 0 0 0 0.1 0.1 0 0.1 0.1 0 0.1 0 0.1 0 0.1 0 0.1 0.1 0.1 0.1 0.1 0 0.1 0 0.2 0.1 0 0.1 0.1 0 0 0 0.1 0.1 0 0.1 0.1 0 0.1 0.1 0.1 0 0.1 0 0.1 0.1 0.1 0.2 0.2 0 0 0 0 0.1 0.2 0.2 0.3 0.1 0 0.1 0.1 0.1 0.1 0.2 0.1 0 0.1 0.1 0.1 0 0.1 0.1 0.1 0 0.1 0.1 0.1 0.1 0.1 0.1 0.1 0.1 0.1 0.1 0.1 0.1 0.1 0.2 0.1 0 0.1 0.1 0.1 0.1 0 0.2 0.1 0.1 0.1 0.2 0.1 0.2 0.2 0.5 0.3 0.1 0 0.2 0.1 0.2 0.1 0.5 0.2 0 0 0 0 0.3 0.1 0.6 0.2 0.2 0.1 0.5 0.1 0.1 0.1 0.3 0.1 0.2 0.1 0.4 0.1 0.2 0.1 0.4 0.1 0 0 0.1 0 0.3 0.1 0.6 0.1 0.1 0 0.1 0 0.2 0 0.4 0 0.2 0.1 0.5 0.1 0.2 0 0.4 0 0.2 0 0.4 0 0.2 0 0.4 0 0.2 0 0.4 0 0.2-0.1 0.4-0.1 0.2 0 0.4 0 0.2 0 0.4-0.1 0.2 0 0.4 0 0.2-0.1 0.3-0.1 0.3-0.1 0.6-0.1 0.1-0.1 0.3-0.1 0.1-0.1 0.2-0.1 0.2-0.1 0.4-0.1 0.1-0.1 0.2-0.1 0.2-0.1 0.4-0.2 0.1 0 0.2-0.1 0.3-0.1 0.6-0.3c1.7-0.9 2.5-2.1 2.5-3.4v23.4c0 1.3-0.8 2.5-2.4 3.4q-0.3 0.2-0.6 0.3-0.1 0.1-0.2 0.1-0.2 0.1-0.4 0.2 0 0 0 0-0.1 0-0.2 0.1-0.2 0.1-0.5 0.1-0.1 0.1-0.2 0.1 0 0-0.1 0-0.1 0-0.2 0.1-0.2 0-0.5 0.1-0.1 0-0.1 0-0.1 0-0.2 0.1-0.2 0-0.5 0-0.1 0.1-0.1 0.1-0.1 0-0.2 0-0.2 0-0.4 0-0.1 0-0.2 0.1-0.1 0-0.2 0-0.2 0-0.4 0-0.1 0-0.2 0-0.1 0-0.2 0-0.2 0-0.5 0-0.1 0-0.2 0-0.1 0-0.1 0-0.3 0-0.6-0.1-0.1 0-0.2 0 0 0-0.1 0-0.1 0-0.2 0-0.2 0-0.5-0.1-0.1 0-0.2 0 0 0 0 0-0.2 0-0.3-0.1-0.2 0-0.5-0.1-0.1 0-0.3-0.1-0.2 0-0.4-0.1 0 0-0.1 0-0.2-0.1-0.5-0.2 0 0-0.1 0-0.2-0.1-0.5-0.2-0.1-0.1-0.1-0.1-0.3-0.1-0.6-0.3 0 0-0.1 0 0-0.1-0.1-0.1 0 0-0.1-0.1-0.1 0-0.2-0.1 0 0-0.1-0.1-0.1 0-0.1-0.1-0.1 0-0.1-0.1-0.1 0-0.2-0.1 0 0-0.1-0.1 0 0 0 0 0 0-0.1-0.1-0.1 0-0.1-0.1-0.1-0.1-0.1-0.1-0.1-0.1-0.2-0.3 0 0 0 0-0.1 0-0.1 0 0-0.1-0.1-0.2 0 0 0-0.1-0.1 0-0.1-0.1 0 0-0.1-0.1 0 0 0 0 0-0.1 0-0.1-0.1-0.1-0.1-0.1 0-0.1-0.1-0.2 0 0 0 0 0 0 0-0.1 0 0 0-0.1 0 0-0.1-0.1 0-0.1 0-0.1 0 0 0-0.1 0 0 0 0 0-0.1 0-0.1 0-0.1 0-0.2-0.1 0-0.1-0.1 0 0 0 0 0-0.1 0-0.1 0-11.7 0-23.4 0 0 0 0.1z"/>
				<path id="Layer" class="s18" d="m59.7 64.1q-0.3 0.2-0.6 0.3-0.1 0.1-0.2 0.1-0.2 0.1-0.3 0.2-0.1 0-0.1 0-0.1 0.1-0.2 0.1-0.2 0.1-0.5 0.2 0 0-0.1 0-0.1 0-0.1 0-0.1 0.1-0.3 0.1-0.2 0.1-0.5 0.1 0 0-0.1 0-0.1 0.1-0.2 0.1-0.2 0-0.4 0.1-0.1 0-0.2 0-0.1 0-0.2 0-0.2 0-0.4 0.1-0.1 0-0.2 0-0.1 0-0.2 0-0.2 0-0.4 0-0.1 0-0.2 0-0.1 0-0.2 0-0.2 0-0.4 0-0.1 0-0.3 0 0 0-0.1 0-0.3 0-0.5 0-0.1 0-0.3 0 0 0-0.1-0.1 0 0-0.1 0-0.3 0-0.6-0.1-0.1 0-0.1 0-0.1 0-0.1 0-0.1 0-0.3 0-0.2-0.1-0.4-0.1-0.2-0.1-0.3-0.1-0.3-0.1-0.5-0.1 0-0.1-0.1-0.1-0.2-0.1-0.5-0.2 0 0 0 0-0.3-0.1-0.5-0.2-0.1 0-0.2-0.1-0.3-0.1-0.5-0.3-0.1 0-0.1 0-0.1-0.1-0.1-0.1-0.1 0-0.2-0.1-0.1 0-0.1-0.1-0.1 0-0.2-0.1 0 0-0.1-0.1 0 0-0.1-0.1-0.1 0-0.1-0.1-0.1 0-0.1 0-0.1-0.1-0.1-0.1 0 0 0 0-0.1-0.1-0.2-0.2 0 0-0.1-0.1-0.1-0.1-0.2-0.2 0 0 0 0 0-0.1 0-0.1-0.1-0.1-0.2-0.2 0 0 0 0-0.1-0.1-0.1-0.2 0 0 0 0 0-0.1-0.1-0.1 0-0.1 0-0.1 0-0.1-0.1-0.1 0-0.1 0-0.1 0-0.1 0-0.1-0.1 0-0.1 0 0-0.1 0-0.2c0 0-0.2-0.8-0.2-0.8 0-2.1 0.1-4.1 0.1-6.2q-0.1 0-0.1 0 0-0.1 0-0.1 0-0.1 0-0.1c0-3.8 0-4.5 0-4.5q0 0 0 0c0 0 0.2 0.7 0.2 0.7q0 0.1 0 0.1 0 0.1 0 0.2 0 0 0.1 0 0 0 0 0.1 0 0 0 0.1 0.1 0 0.1 0.1 0 0.1 0 0.1 0.1 0 0.1 0.1 0 0 0 0 0 0.1 0.1 0.2 0 0 0 0.1 0.1 0 0.2 0.1 0 0 0 0.1 0 0 0 0 0.1 0.1 0.2 0.2 0.1 0.1 0.1 0.1 0.1 0.1 0.2 0.2 0 0 0 0 0 0 0.1 0.1 0 0 0.1 0.1 0 0 0.1 0.1 0.1 0 0.1 0.1 0.1 0 0.1 0 0.1 0.1 0.2 0.1 0 0.1 0.1 0.1 0.1 0.1 0.2 0.1 0 0.1 0 0.1 0.1 0 0.2 0 0.2 0.2 0.5 0.3 0.1 0.1 0.2 0.1 0.2 0.1 0.5 0.2 0 0 0 0.1 0.3 0.1 0.5 0.1 0.1 0 0.1 0.1 0.2 0 0.5 0.1 0.1 0 0.3 0.1 0.2 0 0.4 0.1 0.2 0 0.3 0 0 0 0.1 0 0 0 0.1 0.1 0.3 0 0.6 0 0.1 0 0.1 0.1 0.1 0 0.1 0 0.2 0 0.3 0 0.2 0 0.5 0 0.1 0 0.1 0 0.2 0 0.3 0 0.2 0 0.4 0 0.1 0 0.2 0 0.1 0 0.2 0 0.2 0 0.4 0 0.1 0 0.2 0 0.1 0 0.2 0 0.2-0.1 0.4-0.1 0.1 0 0.2 0 0.1 0 0.2 0 0.2-0.1 0.4-0.1 0.1 0 0.2 0 0.1-0.1 0.1-0.1 0.3 0 0.5-0.1 0.1 0 0.3-0.1 0 0 0.1 0 0.1 0 0.1 0 0.3-0.1 0.5-0.2 0.1 0 0.2-0.1 0 0 0.1 0 0.1-0.1 0.3-0.2 0.1 0 0.2 0 0.3-0.2 0.6-0.4c1.4-0.7 2.1-1.7 2.4-2.7v10.9c-0.2 1-1 2-2.4 2.7z"/>
				<path id="Layer" class="s16" d="m45.7 43.2q0 0 0 0 0-0.2 0-0.3 0 0 0-0.1 0 0 0 0 0-0.1 0-0.3 0 0 0 0l1.1-5.3q0 0.1 0 0.3 0 0 0 0 0 0.2 0 0.3 0 0 0 0 0 0.2 0 0.3 0 0.1 0 0.1 0 0.1 0.1 0.2 0 0.1 0 0.1 0.1 0.1 0.1 0.3 0 0 0 0 0.1 0.1 0.2 0.3 0 0 0 0 0.1 0.2 0.3 0.4 0 0 0 0.1 0.1 0 0.1 0.1 0.1 0 0.1 0.1 0.1 0 0.1 0.1 0.1 0 0.1 0 0.1 0.1 0.2 0.2 0.1 0.1 0.1 0.1 0.2 0.1 0.4 0.2 0.1 0.1 0.2 0.2 0.3 0.1 0.5 0.2 0.1 0.1 0.2 0.1 0.2 0.1 0.3 0.2 0.1 0 0.2 0 0.2 0.1 0.4 0.2 0.1 0 0.2 0 0.2 0.1 0.4 0.1 0.1 0.1 0.2 0.1 0.3 0.1 0.6 0.1 0.3 0.1 0.7 0.1 0.2 0 0.4 0 0.1 0.1 0.2 0.1 0.4 0 0.7 0 0.1 0 0.2 0 0.2 0 0.4 0 0.1 0 0.2-0.1 0.3 0 0.5 0 0.1 0 0.2 0 0.2 0 0.4-0.1 0.1 0 0.2 0 0.3 0 0.6-0.1 0 0 0 0 0.3-0.1 0.6-0.2 0.1 0 0.2-0.1 0.2 0 0.4-0.1 0.1 0 0.3-0.1 0.1-0.1 0.2-0.1 0.4-0.2 0.6-0.3 0.1-0.1 0.2-0.1 0.1-0.1 0.2-0.1 0-0.1 0.1-0.1 0.1-0.1 0.1-0.1 0.1-0.1 0.2-0.1 0-0.1 0.1-0.1 0-0.1 0.1-0.1 0-0.1 0.1-0.1 0-0.1 0.1-0.1 0-0.1 0.1-0.1 0-0.1 0.1-0.1 0-0.1 0.1-0.1 0-0.1 0-0.1 0.1-0.1 0.1-0.1 0.1-0.1 0.1-0.1 0-0.1 0.1-0.1 0-0.1 0-0.1 0-0.1 0.1-0.2 0 0 0-0.1 0 0 0.1-0.1 0 0 0-0.1 0 0 0-0.1 0.1-0.1 0.1-0.1 0-0.1 0-0.1 0-0.1 0-0.1 0-0.1 0-0.2 0 0 0-0.1 0 0 0-0.1 0 0 0-0.1 0-0.1 0-0.1 0-0.1 0-0.2 0.5 2.6 1.1 5.3 0 0.1 0 0.2 0 0 0 0 0 0.1 0 0.2 0 0 0.1 0.1 0 0-0.1 0.1 0.1 0.1 0 0.1 0 0.1 0 0.2 0 0 0 0.1 0 0.1 0 0.1 0 0.1 0 0.2-0.1 0-0.1 0.1 0 0.1 0 0.1 0 0.1-0.1 0.1 0 0.1 0 0.2-0.1 0-0.1 0.1 0 0.1-0.1 0.1 0 0.1 0 0.1-0.1 0.1-0.1 0.2-0.1 0-0.1 0.1 0 0.1-0.1 0.1 0 0.1-0.1 0.1-0.1 0.1-0.1 0.2-0.1 0-0.1 0.1-0.1 0-0.1 0.1-0.1 0.1-0.2 0.1 0 0.1-0.1 0.1-0.1 0.1-0.1 0.1-0.1 0.1-0.2 0.2-0.1 0-0.1 0.1-0.1 0-0.2 0.1-0.1 0-0.1 0.1-0.1 0-0.2 0 0 0.1-0.1 0.1-0.3 0.2-0.6 0.4-0.1 0-0.1 0-0.1 0-0.2 0.1-0.2 0.1-0.4 0.1-0.1 0.1-0.1 0.1-0.2 0-0.3 0.1-0.2 0-0.3 0.1 0 0-0.1 0-0.3 0.1-0.6 0.1 0 0.1 0 0.1-0.3 0-0.6 0.1 0 0-0.1 0-0.1 0-0.2 0-0.1 0.1-0.3 0.1-0.1 0-0.2 0-0.1 0-0.2 0-0.1 0-0.2 0-0.2 0.1-0.3 0.1-0.1 0-0.3 0 0 0-0.1 0-0.2 0-0.4 0-0.1 0-0.2 0 0 0 0 0-0.4 0-0.7 0 0 0 0 0-0.1 0-0.2 0-0.3-0.1-0.6-0.1 0 0 0 0-0.4 0-0.8-0.1 0 0-0.1 0-0.3-0.1-0.6-0.1-0.1-0.1-0.2-0.1-0.2 0-0.4-0.1 0 0-0.1 0-0.1-0.1-0.2-0.1-0.2-0.1-0.4-0.1-0.1-0.1-0.3-0.1-0.2-0.1-0.4-0.2-0.1 0-0.2-0.1-0.3-0.1-0.5-0.3-0.2-0.1-0.3-0.2-0.1 0-0.1 0-0.2-0.1-0.3-0.3-0.1 0-0.1 0-0.2-0.1-0.3-0.3 0 0-0.1 0 0 0 0 0-0.1-0.1-0.1-0.1-0.1-0.1-0.1-0.2-0.1 0-0.1-0.1-0.1 0-0.1-0.1 0 0 0 0-0.1 0-0.1-0.1-0.1-0.1-0.1-0.1 0-0.1-0.1-0.1 0-0.1 0-0.1 0 0 0 0-0.1-0.2-0.2-0.4 0 0 0 0-0.1-0.1-0.2-0.3 0 0 0-0.1 0 0 0 0 0-0.1-0.1-0.3 0 0 0 0 0 0 0 0 0-0.2 0-0.4 0 0 0 0z"/>
				<path id="Layer" class="s19" d="m48.9 34.8c2.7-1.6 7.2-1.6 10 0 2.7 1.6 2.7 4.2-0.1 5.8-2.7 1.6-7.2 1.6-10 0-2.7-1.6-2.7-4.2 0.1-5.8z"/>
			</g>
		</g>
	</g>
</svg>