<svg version="1.2" xmlns="http://www.w3.org/2000/svg" viewBox="0 0 139 107" width="139" height="107">
	<title>Layer</title>
	<defs>
		<clipPath clipPathUnits="userSpaceOnUse" id="cp1">
			<path d="m40.09 40.22l-0.02 5.55c0 0.34-0.23 0.68-0.68 0.95-0.9 0.52-2.37 0.52-3.27 0-0.46-0.27-0.69-0.62-0.69-0.96l0.02-5.55c-0.01 0.35 0.22 0.69 0.68 0.96 0.91 0.52 2.38 0.52 3.28 0 0.45-0.27 0.67-0.61 0.68-0.95z"/>
		</clipPath>
	</defs>
	<style>
		.s0 { fill: #8390cd } 
		.s1 { fill: #c1e8fa } 
		.s2 { fill: #acd9ea } 
		.s3 { fill: #82c2de } 
		.s4 { fill: #def6ff } 
		.s5 { fill: #1d374e } 
		.s6 { fill: #c5ced7 } 
		.s7 { fill: #e1eaf3 } 
		.s8 { fill: #60acc6 } 
		.s9 { fill: #ffaa83 } 
		.s10 { fill: #fefefd } 
		.s11 { fill: #e8e8e8 } 
		.s12 { fill: #120f1f } 
		.s13 { fill: #32293a } 
		.s14 { fill: #ff5138 } 
		.s15 { fill: #fe2456 } 
		.s16 { fill: #ff4d75 } 
		.s17 { fill: #ef916c } 
		.s18 { fill: #633521 } 
		.s19 { fill: #feb623 } 
		.s20 { fill: #ea3e2d } 
		.s21 { fill: #f77496 } 
		.s22 { fill: #1d96cb } 
		.s23 { fill: #feb624 } 
		.s24 { fill: #b3bf19 } 
		.s25 { fill: #edf4f8 } 
		.s26 { fill: #ffca6c } 
		.s27 { fill: #3998d8 } 
		.s28 { fill: #57b6ea } 
		.s29 { fill: #c7e8f2 } 
		.s30 { fill: #433a4c } 
		.s31 { fill: #e29813 } 
		.s32 { fill: #c47f10 } 
		.s33 { fill: #dcf3eb } 
		.s34 { fill: #1884aa } 
		.s35 { fill: #f2a00f } 
	</style>
	<g id="Layer">
		<g id="-e-step_15">
			<g id="Layer">
				<g id="Layer">
					<g id="Layer">
						<path id="Layer" class="s0" d="m58.1 51.6l25.9 15 30.1-17.4-25.9-15z"/>
					</g>
				</g>
				<g id="Layer">
					<path id="Layer" class="s1" d="m61.9 15.5l0.1 35.9 21.9 12.7-0.1-35.9z"/>
				</g>
				<g id="Layer">
					<g id="Layer">
						<path id="Layer" class="s2" d="m83.8 28.2l0.1 35.9 25.4-14.7-0.1-35.9z"/>
					</g>
				</g>
				<g id="Layer">
					<g id="Layer">
						<path id="Layer" class="s3" d="m83.8 28.2v5l25.4-14.8v-4.9z"/>
					</g>
				</g>
				<g id="Layer">
					<path id="Layer" class="s4" d="m61.9 15.5l21.9 12.7 25.4-14.7-21.9-12.7z"/>
				</g>
				<g id="Layer">
					<g id="Layer">
						<path id="Layer" class="s1" d="m97.6 30c4.6-2.7 8.4-0.5 8.4 4.8 0 5.3-3.7 11.8-8.3 14.4-4.7 2.7-8.4 0.6-8.4-4.7-0.1-5.4 3.7-11.8 8.3-14.5z"/>
					</g>
					<g id="Layer">
						<path id="Layer" class="s4" d="m97.6 32.4c3.5-2 6.4-0.4 6.4 3.7 0 4-2.8 8.9-6.3 11-3.6 2-6.4 0.4-6.5-3.7 0-4 2.9-9 6.4-11z"/>
					</g>
					<path id="Layer" class="s3" d="m97.6 32.4c-3.5 2-6.4 7-6.4 11 0.1 1.7 0.5 2.9 1.3 3.7 1 0.1 2.1-0.2 3.3-0.9 3.5-2 6.4-6.9 6.4-11 0-1.6-0.5-2.9-1.3-3.6-1-0.2-2.1 0.1-3.3 0.8z"/>
				</g>
				<g id="Layer">
					<path id="Layer" class="s1" d="m85.4 28.1v3.6l6.7-3.8v-3.7z"/>
				</g>
				<g id="Layer">
					<path id="Layer" class="s4" d="m93.1 23.8v1.3l6.7-3.7v-1.5z"/>
				</g>
				<g id="Layer">
					<path id="Layer" class="s5" d="m94.9 22.8v1.3l3.4-1.9v-1.4z"/>
				</g>
				<g id="Layer">
					<path id="Layer" class="s4" d="m103 19.8q0-0.1 0-0.2 0 0 0 0 0.1-0.1 0.1-0.2 0 0 0 0 0.1-0.1 0.2-0.3 0 0 0 0 0-0.1 0.1-0.2 0 0 0 0 0.1-0.1 0.2-0.2 0 0 0 0 0-0.1 0.1-0.1 0 0 0.1-0.1 0.1 0 0.2-0.1 0.1-0.1 0.1-0.1 0.1 0 0.1 0 0.1 0 0.1 0 0 0 0.1 0 0 0 0.1 0 0 0 0 0 0.1 0 0.2 0 0 0 0 0l-0.4-0.2-0.2-0.1q0 0 0 0 0 0 0 0-0.1 0-0.1 0 0 0 0 0 0 0 0 0 0 0-0.1-0.1 0 0 0 0 0 0-0.1 0 0 0 0 0 0 0 0 0 0 0-0.1 0 0 0.1 0 0.1-0.1 0-0.1 0 0 0 0 0 0 0-0.1 0 0 0-0.1 0.1-0.1 0-0.2 0.1 0 0 0 0.1-0.1 0-0.1 0 0 0.1-0.1 0.1 0 0 0 0 0 0 0 0-0.1 0.1-0.1 0.1 0 0.1 0 0.1-0.1 0-0.1 0 0 0 0 0 0 0.1 0 0.1-0.1 0.1-0.1 0.1 0 0 0 0 0 0 0 0 0 0.1 0 0.1-0.1 0-0.1 0.1 0 0 0 0 0 0.1 0 0.1 0 0 0 0 0 0-0.1 0 0 0.1 0 0.1 0 0.1 0 0.1 0 0 0 0 0 0 0 0 0 0.1-0.1 0.2 0 0 0 0 0 0 0 0.1 0 0 0 0 0 0.1 0 0.2 0 0.5 0.3 0.6l0.6 0.3q-0.3-0.1-0.3-0.6 0-0.1 0-0.2 0 0 0-0.1z"/>
					<g id="Layer">
						<path id="Layer" class="s1" d="m104 18.4c0.5-0.3 0.9-0.1 1 0.6 0 0.6-0.5 1.4-1 1.7-0.6 0.3-1 0-1-0.6 0-0.6 0.4-1.4 1-1.7z"/>
					</g>
				</g>
				<g id="Layer">
					<path id="Layer" class="s4" d="m106.1 18.2q0-0.1 0-0.2 0 0 0.1 0 0-0.1 0-0.3 0.1-0.1 0.2-0.2 0 0 0 0 0-0.1 0.1-0.2 0 0 0 0 0.1-0.1 0.2-0.2 0 0 0 0 0.1-0.1 0.1-0.2 0 0 0.1 0 0.1-0.1 0.2-0.1 0.1-0.1 0.1-0.1 0.1 0 0.1 0 0.1-0.1 0.1-0.1 0.1 0 0.1 0 0 0 0.1 0 0 0 0 0 0.1 0.1 0.2 0.1 0 0 0 0l-0.4-0.2-0.2-0.1q0 0 0 0 0 0 0-0.1-0.1 0-0.1 0 0 0 0 0 0 0 0 0 0 0 0 0-0.1 0-0.1 0 0 0-0.1 0 0 0 0 0 0 0 0 0 0 0 0 0-0.1 0-0.1 0-0.1 0-0.1 0 0 0.1 0 0.1 0 0-0.1 0 0 0-0.1 0-0.1 0.1-0.2 0.2 0 0 0 0-0.1 0.1-0.1 0.1 0 0-0.1 0 0 0.1 0 0.1 0 0 0 0-0.1 0.1-0.1 0.1 0 0 0 0 0 0.1-0.1 0.1 0 0 0 0 0 0 0 0.1-0.1 0-0.1 0.1 0 0 0 0 0 0 0 0 0 0 0 0.1-0.1 0-0.1 0 0 0.1 0 0.1 0 0 0 0 0 0 0 0 0 0.1-0.1 0.1 0 0.1 0 0.1 0 0 0 0.1 0 0 0 0 0 0 0 0 0 0.1 0 0.1 0 0.1-0.1 0.1 0 0 0 0 0 0 0 0.1 0 0.1 0 0.2 0 0.4 0.3 0.6l0.6 0.3q-0.3-0.2-0.3-0.6 0-0.1 0-0.3 0 0 0 0z"/>
					<g id="Layer">
						<path id="Layer" class="s1" d="m107.1 16.8c0.5-0.4 1-0.1 1 0.5 0 0.7-0.5 1.4-1 1.7-0.6 0.4-1 0.1-1-0.5 0-0.7 0.4-1.4 1-1.7z"/>
					</g>
				</g>
				<g id="Layer">
					<g id="Layer">
						<g id="Layer">
							<path id="Layer" class="s6" d="m93.5 26.8l-0.1-0.1v-1.3l0.1 0.1z"/>
						</g>
						<g id="Layer">
							<path id="Layer" class="s6" d="m93.5 25.5l-0.1-0.1 0.4-0.2h0.2z"/>
						</g>
						<g id="Layer">
							<path id="Layer" class="s7" d="m94 25.2v1.3l-0.5 0.3v-1.3z"/>
						</g>
					</g>
				</g>
				<g id="Layer">
					<g id="Layer">
						<g id="Layer">
							<path id="Layer" class="s6" d="m94.5 26.3l-0.2-0.1v-1.3l0.2 0.1z"/>
						</g>
						<g id="Layer">
							<path id="Layer" class="s6" d="m94.5 25l-0.2-0.1 0.5-0.2 0.1 0.1z"/>
						</g>
						<g id="Layer">
							<path id="Layer" class="s7" d="m94.9 24.8v1.3l-0.4 0.2v-1.3z"/>
						</g>
					</g>
				</g>
				<g id="Layer">
					<g id="Layer">
						<g id="Layer">
							<path id="Layer" class="s6" d="m98.4 24.1h-0.1v-1.3l0.1 0.1z"/>
						</g>
						<g id="Layer">
							<path id="Layer" class="s6" d="m98.4 22.9l-0.1-0.1 0.4-0.3 0.2 0.1z"/>
						</g>
						<g id="Layer">
							<path id="Layer" class="s7" d="m98.9 22.6v1.3l-0.5 0.2v-1.2z"/>
						</g>
					</g>
				</g>
				<g id="Layer">
					<g id="Layer">
						<g id="Layer">
							<path id="Layer" class="s6" d="m99.4 23.7l-0.2-0.1v-1.3l0.1 0.1z"/>
						</g>
						<g id="Layer">
							<path id="Layer" class="s6" d="m99.3 22.4l-0.1-0.1 0.4-0.2h0.2z"/>
						</g>
						<g id="Layer">
							<path id="Layer" class="s7" d="m99.8 22.1v1.3l-0.4 0.3-0.1-1.3z"/>
						</g>
					</g>
				</g>
			</g>
			<g id="Layer">
				<g id="Layer">
					<g id="Layer">
						<path id="Layer" class="s0" d="m29.4 68.2l25.9 15.1 30.1-17.4-25.9-15.1z"/>
					</g>
				</g>
				<g id="Layer">
					<path id="Layer" class="s1" d="m33.2 32.2l0.1 35.8 21.9 12.7-0.1-35.8z"/>
				</g>
				<g id="Layer">
					<g id="Layer">
						<path id="Layer" class="s2" d="m55.1 44.9l0.1 35.8 25.4-14.6-0.2-35.9z"/>
					</g>
				</g>
				<g id="Layer">
					<g id="Layer">
						<path id="Layer" class="s3" d="m55.1 44.9v4.9l25.4-14.7-0.1-4.9z"/>
					</g>
				</g>
				<g id="Layer">
					<path id="Layer" class="s4" d="m33.2 32.2l21.9 12.7 25.3-14.7-21.8-12.7z"/>
				</g>
				<path id="Layer" class="s4" d="m61.4 60.5q0-0.1 0-0.3 0-0.1 0-0.2 0-0.1 0.1-0.3 0-0.1 0-0.1 0-0.2 0-0.3 0-0.1 0.1-0.3 0-0.1 0-0.2 0-0.2 0.1-0.4 0-0.1 0-0.2 0-0.1 0.1-0.2 0-0.2 0-0.3 0.1-0.1 0.1-0.2 0-0.1 0-0.2 0.1-0.4 0.3-0.7 0-0.1 0-0.1 0.1-0.3 0.2-0.7 0.1-0.1 0.1-0.2 0.1-0.3 0.2-0.6 0.1 0 0.1 0 0.1-0.4 0.3-0.7 0-0.1 0-0.2 0.2-0.2 0.3-0.5 0 0 0.1-0.1 0.2-0.3 0.3-0.6 0.1-0.1 0.1-0.2 0.2-0.2 0.3-0.5 0.1-0.1 0.1-0.1 0.2-0.4 0.4-0.7 0.1 0 0.1-0.1 0.2-0.3 0.5-0.6 0 0 0.1-0.1 0-0.1 0.1-0.2 0.1-0.1 0.2-0.2 0.1-0.1 0.2-0.2 0-0.1 0.1-0.2 0.2-0.2 0.4-0.5 0 0 0.1 0 0.2-0.2 0.4-0.4 0.1-0.2 0.3-0.3 0 0 0-0.1 0.2-0.1 0.4-0.3 0.1 0 0.1-0.1 0.1-0.1 0.3-0.2 0.1-0.1 0.1-0.1 0.1-0.1 0.3-0.2 0-0.1 0.1-0.1 0.1-0.1 0.3-0.2 0-0.1 0.1-0.1 0.1-0.1 0.3-0.2 0.1 0 0.1-0.1 0.2-0.1 0.4-0.2 0.2-0.1 0.4-0.2 0.1-0.1 0.1-0.1 0.2-0.1 0.3-0.2 0.1 0 0.1 0 0.2-0.1 0.3-0.1 0.2-0.1 0.4-0.2 0.1 0 0.1 0 0.2-0.1 0.5-0.1 0.1-0.1 0.2-0.1 0.1 0 0.1 0 0.2-0.1 0.4-0.1 0 0 0 0 0.2 0 0.4 0 0-0.1 0.1-0.1 0.1 0 0.2 0 0.1 0 0.1 0 0.1 0 0.3 0 0 0 0.1 0 0.1 0 0.3 0.1 0 0 0 0 0.1 0 0.2 0 0.3 0 0.5 0.1 0 0 0 0 0.2 0.1 0.4 0.1 0 0.1 0.1 0.1 0.1 0.1 0.3 0.1 0 0.1 0.1 0.1-0.8-0.5-1.6-0.9 0 0 0 0-0.1-0.1-0.1-0.1-0.2-0.1-0.3-0.1 0 0-0.1-0.1 0 0 0 0-0.2 0-0.4-0.1 0 0 0 0 0 0 0 0 0 0 0 0-0.2-0.1-0.3-0.1 0 0-0.1 0 0 0-0.1 0-0.1 0-0.1 0-0.1 0-0.1 0-0.1-0.1-0.3-0.1 0 0 0 0-0.1 0-0.1 0-0.1 0-0.2 0-0.1 0-0.2 0 0 0 0 0-0.1 0-0.2 0 0 0-0.1 0-0.2 0.1-0.3 0.1-0.1 0-0.1 0-0.1 0-0.3 0.1-0.1 0-0.2 0-0.1 0-0.2 0 0 0 0 0.1-0.2 0-0.5 0.1 0 0-0.1 0-0.1 0.1-0.3 0.2-0.1 0-0.1 0-0.1 0-0.3 0.1 0 0 0 0-0.2 0.1-0.4 0.2 0 0-0.1 0.1-0.2 0.1-0.4 0.2-0.2 0.1-0.4 0.2 0 0.1-0.1 0.1-0.1 0.1-0.3 0.2 0 0-0.1 0.1-0.1 0.1-0.3 0.2 0 0-0.1 0.1-0.1 0.1-0.3 0.2 0 0-0.1 0.1-0.1 0.1-0.3 0.2 0 0-0.1 0.1-0.2 0.2-0.3 0.3-0.1 0.1-0.1 0.1-0.1 0.1-0.3 0.2 0 0.1 0 0.1-0.2 0.2-0.4 0.4 0 0 0 0-0.2 0.2-0.4 0.5 0 0-0.1 0 0 0.1-0.1 0.2-0.1 0.1-0.2 0.2-0.1 0.1-0.2 0.2 0 0.1-0.1 0.2 0 0 0 0-0.1 0.1-0.1 0.1-0.2 0.3-0.5 0.6 0 0.1 0 0.1 0 0 0 0-0.2 0.3-0.5 0.7 0 0 0 0 0 0.1 0 0.1-0.2 0.3-0.4 0.5 0 0.1 0 0.1 0 0 0 0.1-0.2 0.3-0.4 0.6 0 0 0 0 0 0.1-0.1 0.1-0.1 0.3-0.2 0.5-0.1 0.1-0.1 0.1 0 0.1 0 0.1-0.2 0.3-0.3 0.6 0 0.1 0 0.1 0 0 0 0-0.2 0.3-0.3 0.6 0 0.1 0 0.1 0 0.1 0 0.1-0.2 0.3-0.3 0.7 0 0 0 0 0 0 0 0.1-0.1 0.3-0.2 0.7 0 0-0.1 0.1 0 0 0 0 0 0.2 0 0.3-0.1 0.1-0.1 0.3 0 0.1-0.1 0.2 0 0 0 0.1 0 0.1 0 0.1-0.1 0.2-0.1 0.4 0 0.1 0 0.2 0 0.2-0.1 0.3 0 0.1 0 0.2 0 0 0 0.1 0 0 0 0.1 0 0.2-0.1 0.3 0 0.1 0 0.2 0 0.2 0 0.3 0 0.1 0 0.2 0 0.2 0 0.4c0 2.7 0.9 4.5 2.4 5.4q0.8 0.5 1.6 0.9c-1.5-0.9-2.4-2.7-2.4-5.4q0-0.2 0-0.4 0-0.1 0-0.2z"/>
				<g id="Layer">
					<path id="Layer" class="s1" d="m69.7 46.7c4.6-2.7 8.4-0.6 8.4 4.8 0 5.3-3.7 11.7-8.3 14.4-4.7 2.7-8.4 0.5-8.4-4.8 0-5.3 3.7-11.8 8.3-14.4z"/>
				</g>
				<g id="Layer">
					<path id="Layer" class="s4" d="m69.7 49.1c3.5-2.1 6.4-0.4 6.4 3.6 0 4.1-2.8 9-6.3 11.1-3.6 2-6.4 0.4-6.4-3.7-0.1-4.1 2.8-9 6.3-11z"/>
				</g>
				<path id="Layer" class="s3" d="m69.7 49.1c-3.5 2-6.4 6.9-6.3 11 0 1.6 0.4 2.9 1.2 3.6 1 0.2 2.1-0.1 3.3-0.8 3.5-2 6.4-7 6.4-11 0-1.7-0.5-2.9-1.3-3.7-0.9-0.1-2.1 0.2-3.3 0.9z"/>
				<path id="Layer" class="s8" d="m63.4 60.1q0 1.1 0.2 1.9 0.8-0.2 1.7-0.7c3.5-2 6.4-7 6.3-11q0-1.1-0.2-1.9-0.8 0.2-1.7 0.7c-3.5 2-6.4 6.9-6.3 11z"/>
				<g id="Layer">
					<path id="Layer" class="s1" d="m56.7 44.7v3.7l6.7-3.8v-3.7z"/>
				</g>
				<g id="Layer">
					<path id="Layer" class="s4" d="m64.4 40.5v1.3l6.7-3.7v-1.5z"/>
				</g>
				<g id="Layer">
					<path id="Layer" class="s5" d="m66.2 39.4v1.4l3.4-1.9v-1.4z"/>
				</g>
				<g id="Layer">
					<path id="Layer" class="s4" d="m74.3 36.5q0-0.1 0-0.2 0 0 0 0 0.1-0.1 0.1-0.3 0 0 0 0 0.1-0.1 0.1-0.2 0 0 0 0 0.1-0.1 0.2-0.2 0 0 0 0 0.1-0.1 0.1-0.2 0 0 0.1 0 0-0.1 0.1-0.2 0 0 0 0 0.1-0.1 0.2-0.1 0.1-0.1 0.2-0.1 0 0 0.1 0 0-0.1 0.1-0.1 0 0 0 0 0.1 0 0.2 0 0 0 0 0 0.1 0.1 0.1 0.1 0 0 0 0l-0.3-0.2-0.2-0.1q0 0 0 0 0 0-0.1-0.1 0 0 0 0 0 0-0.1 0 0 0 0 0 0 0 0 0 0 0 0 0-0.1 0-0.1 0 0 0 0 0 0 0 0 0-0.1 0-0.1 0 0 0-0.1 0 0 0 0 0.1 0 0 0 0-0.1 0-0.1 0 0 0-0.1 0-0.1 0.1-0.2 0.2 0 0-0.1 0 0 0.1-0.1 0.1 0 0 0 0 0 0.1 0 0.1 0 0-0.1 0 0 0.1 0 0.1-0.1 0-0.1 0.1 0 0 0 0 0 0 0 0 0 0.1-0.1 0.1 0 0 0 0.1 0 0 0 0 0 0 0 0 0 0-0.1 0.1 0 0 0 0 0 0.1 0 0.1 0 0 0 0 0 0 0 0-0.1 0.1-0.1 0.1 0 0.1 0 0.1 0 0 0 0.1 0 0 0 0 0 0 0 0-0.1 0.1-0.1 0.1 0 0.1 0 0.1 0 0 0 0 0 0.1 0 0.1 0 0.1 0 0.2 0 0.4 0.3 0.6l0.5 0.3q-0.2-0.1-0.3-0.6 0-0.1 0.1-0.2 0-0.1 0-0.1z"/>
					<g id="Layer">
						<path id="Layer" class="s1" d="m75.2 35.1c0.6-0.3 1-0.1 1 0.5 0 0.7-0.4 1.4-1 1.7-0.5 0.4-1 0.1-1-0.5 0-0.7 0.5-1.4 1-1.7z"/>
					</g>
				</g>
				<g id="Layer">
					<path id="Layer" class="s4" d="m77.4 34.9q0-0.1 0-0.2 0 0 0-0.1 0.1-0.1 0.1-0.2 0.1-0.1 0.1-0.2 0 0 0 0 0.1-0.1 0.2-0.2 0-0.1 0-0.1 0.1-0.1 0.1-0.1 0.1-0.1 0.1-0.1 0 0 0.1-0.1 0 0 0.1 0 0-0.1 0.1-0.2 0.1 0 0.2-0.1 0 0 0.1 0 0 0 0.1 0 0 0 0 0 0.1 0 0.2 0 0 0 0 0 0.1 0 0.1 0.1 0 0 0 0l-0.3-0.2-0.2-0.2q0 0 0 0 0 0-0.1 0 0 0 0 0 0 0 0 0-0.1 0-0.1 0 0 0 0 0 0 0 0 0-0.1 0-0.1 0 0 0 0 0 0 0 0 0 0 0-0.1 0 0 0-0.1 0 0 0 0 0 0 0 0 0 0 0-0.1 0 0 0.1-0.1 0.1-0.1 0.1-0.2 0.1 0 0.1-0.1 0.1 0 0 0 0.1-0.1 0-0.1 0 0 0 0 0 0 0.1-0.1 0.1 0 0 0 0.1 0 0-0.1 0 0 0 0 0 0 0 0 0.1 0 0-0.1 0.1 0 0 0 0 0 0 0 0 0 0 0 0 0 0.1-0.1 0.1 0 0.1 0 0.1 0 0 0 0.1 0 0 0 0 0 0 0 0-0.1 0-0.1 0.1 0 0 0 0.1 0 0 0 0 0 0 0 0 0 0.1 0 0.1-0.1 0-0.1 0.1 0 0 0 0.1 0 0 0 0 0 0 0 0 0 0.1 0 0.2 0 0.5 0.3 0.7l0.5 0.3q-0.2-0.2-0.2-0.7 0-0.1 0-0.2 0 0 0 0z"/>
					<g id="Layer">
						<path id="Layer" class="s1" d="m78.3 33.4c0.6-0.3 1 0 1 0.6 0 0.6-0.4 1.4-1 1.7-0.5 0.3-0.9 0.1-0.9-0.6-0.1-0.6 0.4-1.4 0.9-1.7z"/>
					</g>
				</g>
				<g id="Layer">
					<g id="Layer">
						<g id="Layer">
							<path id="Layer" class="s6" d="m64.8 43.4h-0.1v-1.3l0.1 0.1z"/>
						</g>
						<g id="Layer">
							<path id="Layer" class="s6" d="m64.8 42.2l-0.1-0.1 0.4-0.3 0.2 0.1z"/>
						</g>
						<g id="Layer">
							<path id="Layer" class="s7" d="m65.3 41.9v1.3l-0.5 0.2v-1.2z"/>
						</g>
					</g>
				</g>
				<g id="Layer">
					<g id="Layer">
						<g id="Layer">
							<path id="Layer" class="s6" d="m65.8 43l-0.2-0.1v-1.3l0.1 0.1z"/>
						</g>
						<g id="Layer">
							<path id="Layer" class="s6" d="m65.7 41.7l-0.1-0.1 0.4-0.2h0.2z"/>
						</g>
						<g id="Layer">
							<path id="Layer" class="s7" d="m66.2 41.4v1.3l-0.4 0.3-0.1-1.3z"/>
						</g>
					</g>
				</g>
				<g id="Layer">
					<g id="Layer">
						<g id="Layer">
							<path id="Layer" class="s6" d="m69.7 40.8l-0.1-0.1v-1.2h0.1z"/>
						</g>
						<g id="Layer">
							<path id="Layer" class="s6" d="m69.7 39.5h-0.1l0.4-0.3 0.1 0.1z"/>
						</g>
						<g id="Layer">
							<path id="Layer" class="s7" d="m70.1 39.3v1.3l-0.4 0.2v-1.3z"/>
						</g>
					</g>
				</g>
				<g id="Layer">
					<g id="Layer">
						<g id="Layer">
							<path id="Layer" class="s6" d="m70.6 40.3h-0.1v-1.3l0.1 0.1z"/>
						</g>
						<g id="Layer">
							<path id="Layer" class="s6" d="m70.6 39.1l-0.1-0.1 0.4-0.3 0.2 0.1z"/>
						</g>
						<g id="Layer">
							<path id="Layer" class="s7" d="m71.1 38.8v1.3l-0.5 0.2v-1.2z"/>
						</g>
					</g>
				</g>
			</g>
			<g id="Layer">
				<g id="Layer">
					<g id="Layer">
						<path id="Layer" class="s0" d="m-0.1 85.2l26 15.1 30.1-17.4-26-15z"/>
					</g>
				</g>
				<g id="Layer">
					<path id="Layer" class="s1" d="m3.7 49.2l0.2 35.9 21.8 12.7-0.1-35.9z"/>
				</g>
				<g id="Layer">
					<g id="Layer">
						<path id="Layer" class="s2" d="m25.6 61.9l0.1 35.9 25.4-14.7-0.1-35.9z"/>
					</g>
				</g>
				<g id="Layer">
					<g id="Layer">
						<path id="Layer" class="s3" d="m25.6 61.9v5l25.4-14.8v-4.9z"/>
					</g>
				</g>
				<g id="Layer">
					<path id="Layer" class="s4" d="m3.7 49.2l21.9 12.7 25.4-14.7-21.9-12.7z"/>
				</g>
				<path id="Layer" class="s4" d="m31.9 77.5q0.1-0.1 0.1-0.3 0-0.1 0-0.1 0-0.2 0-0.4 0 0 0-0.1 0-0.1 0.1-0.2 0-0.2 0-0.4 0-0.1 0.1-0.2 0-0.2 0-0.3 0-0.2 0.1-0.3 0-0.1 0-0.2 0.1-0.2 0.1-0.3 0-0.1 0-0.2 0.1-0.1 0.1-0.2 0.1-0.4 0.2-0.7 0 0 0-0.1 0.2-0.3 0.3-0.7 0-0.1 0.1-0.1 0.1-0.3 0.2-0.6 0-0.1 0-0.1 0.2-0.3 0.3-0.7 0.1-0.1 0.1-0.1 0.1-0.3 0.3-0.5 0-0.1 0-0.2 0.2-0.3 0.4-0.6 0-0.1 0.1-0.1 0.1-0.3 0.3-0.6 0 0 0.1-0.1 0.2-0.3 0.4-0.6 0-0.1 0.1-0.1 0.2-0.4 0.4-0.7 0.1 0 0.1-0.1 0.1-0.1 0.2-0.1 0.1-0.2 0.2-0.3 0-0.1 0.1-0.2 0.1-0.1 0.2-0.2 0.2-0.2 0.4-0.4 0 0 0-0.1 0.2-0.2 0.4-0.4 0.2-0.1 0.3-0.3 0.1 0 0.1 0 0.2-0.2 0.4-0.4 0 0 0.1-0.1 0.1-0.1 0.2-0.2 0.1-0.1 0.2-0.1 0.1-0.1 0.2-0.2 0.1-0.1 0.2-0.1 0.1-0.1 0.2-0.2 0.1 0 0.2-0.1 0.1-0.1 0.3-0.2 0 0 0.1-0.1 0.2-0.1 0.4-0.2 0.2-0.1 0.4-0.2 0 0 0.1-0.1 0.1-0.1 0.3-0.1 0 0 0-0.1 0.2 0 0.4-0.1 0.2-0.1 0.4-0.1 0-0.1 0.1-0.1 0.2-0.1 0.4-0.1 0.1-0.1 0.3-0.1 0 0 0.1 0 0.2-0.1 0.4-0.1 0 0 0 0 0.2 0 0.3 0 0.1 0 0.1 0 0.2 0 0.3 0 0-0.1 0.1-0.1 0.1 0 0.2 0.1 0.1 0 0.1 0 0.2 0 0.3 0 0.1 0 0.1 0 0.1 0 0.2 0 0.2 0.1 0.4 0.1 0 0 0 0 0.2 0.1 0.4 0.2 0.1 0 0.1 0 0.2 0.1 0.3 0.2 0.1 0 0.1 0-0.8-0.4-1.5-0.9-0.1 0-0.1 0 0 0 0-0.1-0.2 0-0.3-0.1-0.1 0-0.1 0 0 0-0.1-0.1-0.1 0-0.3-0.1 0 0 0 0 0 0 0 0-0.1 0-0.1 0-0.1 0-0.2-0.1-0.1 0-0.1 0-0.1 0-0.1 0-0.1 0-0.2 0 0 0 0 0-0.2 0-0.3-0.1 0 0-0.1 0 0 0 0 0-0.2 0-0.3 0 0 0-0.1 0 0 0-0.1 0-0.1 0-0.1 0-0.1 0.1-0.1 0.1-0.2 0-0.4 0 0 0 0 0-0.2 0-0.4 0.1 0 0-0.1 0-0.1 0-0.2 0.1 0 0-0.1 0-0.2 0-0.4 0.1-0.1 0-0.1 0-0.2 0.1-0.4 0.2 0 0 0 0-0.2 0.1-0.3 0.1 0 0-0.1 0.1-0.1 0-0.3 0.1-0.1 0-0.1 0.1-0.2 0.1-0.4 0.2-0.2 0.1-0.4 0.2-0.1 0.1-0.1 0.1-0.2 0.1-0.3 0.2-0.1 0-0.1 0.1-0.2 0.1-0.3 0.2-0.1 0-0.1 0.1-0.2 0.1-0.3 0.2-0.1 0-0.1 0.1-0.2 0.1-0.3 0.2-0.1 0.1-0.1 0.1-0.2 0.2-0.4 0.3 0 0.1 0 0.1-0.2 0.1-0.3 0.2 0 0.1 0 0.1-0.2 0.2-0.5 0.4 0 0 0 0-0.2 0.3-0.4 0.5 0 0 0 0-0.1 0.1-0.2 0.2 0 0.1-0.1 0.2-0.1 0.1-0.2 0.2-0.1 0.1-0.2 0.2 0 0 0 0 0 0.1 0 0.1-0.3 0.3-0.5 0.6 0 0.1 0 0.1-0.1 0-0.1 0-0.2 0.3-0.4 0.7 0 0 0 0-0.1 0.1-0.1 0.1-0.2 0.3-0.3 0.6 0 0-0.1 0 0 0.1 0 0.1-0.2 0.3-0.3 0.6 0 0-0.1 0 0 0.1 0 0.1-0.1 0.3-0.3 0.5 0 0.1 0 0.2 0 0 0 0-0.2 0.3-0.3 0.7 0 0 0 0-0.1 0-0.1 0.1-0.1 0.2-0.2 0.5 0 0.1-0.1 0.1 0 0.1 0 0.1-0.1 0.4-0.2 0.7 0 0 0 0 0 0-0.1 0.1-0.1 0.3-0.2 0.7 0 0 0 0.1 0 0 0 0.1 0 0.1-0.1 0.2 0 0.1 0 0.3-0.1 0.1-0.1 0.2 0 0.1 0 0.1 0 0.1-0.1 0.1 0 0.2 0 0.4 0 0.1-0.1 0.2 0 0.2 0 0.3 0 0.1 0 0.2 0 0 0 0.1 0 0-0.1 0.1 0 0.2 0 0.3 0 0.1 0 0.2 0 0.2 0 0.3 0 0.1 0 0.2 0 0.2 0 0.4c0 2.7 0.9 4.5 2.4 5.4q0.8 0.5 1.6 0.9c-1.5-0.9-2.5-2.7-2.5-5.3q0-0.3 0-0.5 0-0.1 0-0.2z"/>
				<g id="Layer">
					<path id="Layer" class="s1" d="m40.3 63.7c4.6-2.7 8.4-0.5 8.4 4.8 0 5.3-3.7 11.8-8.4 14.4-4.6 2.7-8.4 0.6-8.4-4.7 0-5.4 3.8-11.8 8.4-14.5z"/>
				</g>
				<g id="Layer">
					<path id="Layer" class="s4" d="m40.3 66.1c3.5-2 6.4-0.4 6.4 3.7 0 4-2.8 8.9-6.4 11-3.5 2-6.4 0.4-6.4-3.7 0-4 2.9-9 6.4-11z"/>
				</g>
				<path id="Layer" class="s3" d="m40.3 66.1c-3.5 2-6.4 7-6.4 11 0 1.7 0.5 2.9 1.3 3.7 0.9 0.1 2.1-0.2 3.3-0.9 3.5-2 6.4-7 6.3-11 0-1.6-0.4-2.9-1.2-3.7-1-0.1-2.1 0.2-3.3 0.9z"/>
				<path id="Layer" class="s8" d="m33.9 77.1q0 1.1 0.3 1.9 0.8-0.2 1.6-0.7c3.6-2 6.4-7 6.4-11q0-1.1-0.3-1.9-0.8 0.2-1.6 0.7c-3.5 2-6.4 7-6.4 11z"/>
				<g id="Layer">
					<path id="Layer" class="s1" d="m27.2 61.8l0.1 3.6 6.6-3.8v-3.7z"/>
				</g>
				<g id="Layer">
					<path id="Layer" class="s4" d="m35 57.5v1.3l6.6-3.7v-1.5z"/>
				</g>
				<g id="Layer">
					<path id="Layer" class="s5" d="m36.8 56.4l-0.1 1.4 3.4-1.9v-1.4z"/>
				</g>
				<g id="Layer">
					<path id="Layer" class="s4" d="m44.8 53.5q0-0.1 0.1-0.2 0 0 0 0 0-0.1 0.1-0.2 0 0 0 0 0-0.2 0.1-0.3 0 0 0 0 0.1-0.1 0.1-0.2 0 0 0 0 0.1-0.1 0.2-0.2 0 0 0 0 0.1-0.1 0.2-0.1 0-0.1 0-0.1 0.1-0.1 0.2-0.1 0.1-0.1 0.2-0.1 0 0 0 0 0.1 0 0.2 0 0 0 0 0 0.1 0 0.2 0 0 0 0 0 0 0 0.1 0 0 0 0 0l-0.3-0.2-0.3-0.1q0 0 0 0 0 0 0 0 0 0-0.1 0 0-0.1 0-0.1 0 0 0 0 0 0 0 0 0 0-0.1 0 0 0 0 0 0 0-0.1 0 0 0 0 0 0 0 0 0-0.1 0-0.1 0.1 0 0 0 0-0.1 0-0.1 0 0 0 0 0-0.1 0-0.2 0.1-0.1 0-0.1 0.1-0.1 0-0.1 0 0 0.1-0.1 0.1 0 0 0 0.1 0 0-0.1 0 0 0 0 0 0 0.1-0.1 0.1 0 0.1 0 0.1 0 0 0 0 0 0 0 0-0.1 0.1-0.1 0.1 0 0.1-0.1 0.1 0 0 0 0 0 0 0 0 0 0 0 0.1 0 0 0 0.1-0.1 0-0.1 0 0 0 0 0 0 0 0 0.1 0 0 0 0 0 0.1-0.1 0.1 0 0.1 0 0.1 0 0 0 0 0 0 0 0 0 0.1 0 0.1 0 0.1 0 0.1 0 0 0 0.1 0 0 0 0 0 0.1 0 0.2 0 0.5 0.2 0.6l0.6 0.3q-0.3-0.1-0.3-0.6 0-0.1 0-0.2 0 0 0-0.1z"/>
					<g id="Layer">
						<path id="Layer" class="s1" d="m45.8 52.1c0.5-0.3 1-0.1 1 0.6 0 0.6-0.5 1.4-1 1.7-0.5 0.3-1 0-1-0.6 0-0.6 0.4-1.4 1-1.7z"/>
					</g>
				</g>
				<g id="Layer">
					<path id="Layer" class="s4" d="m47.9 51.9q0.1-0.1 0.1-0.2 0 0 0 0 0-0.2 0.1-0.3 0-0.1 0.1-0.2 0 0 0 0 0.1-0.1 0.1-0.2 0 0 0.1 0 0-0.1 0.1-0.2 0 0 0 0 0.1-0.1 0.2-0.2 0 0 0 0 0.1-0.1 0.2-0.1 0.1-0.1 0.2-0.1 0 0 0 0 0.1-0.1 0.2-0.1 0 0 0 0 0.1 0 0.2 0 0 0 0 0 0 0 0.1 0.1 0 0 0 0l-0.3-0.2-0.2-0.1q0 0-0.1 0 0-0.1 0-0.1 0 0-0.1 0 0 0 0 0 0 0 0 0 0 0 0 0 0 0-0.1 0 0 0 0 0 0 0-0.1 0 0 0 0 0 0 0 0 0 0 0-0.1 0 0 0 0 0 0 0-0.1 0.1 0 0 0 0-0.1 0-0.1 0-0.1 0.1-0.2 0.2-0.1 0-0.1 0 0 0.1-0.1 0.1 0 0 0 0 0 0.1-0.1 0.1 0 0 0 0 0 0.1-0.1 0.1 0 0 0 0 0 0.1 0 0.1 0 0 0 0-0.1 0-0.1 0.1 0 0 0 0.1 0 0 0 0 0 0-0.1 0 0 0 0 0 0 0.1 0 0.1-0.1 0.1-0.1 0.1 0 0 0 0 0 0 0 0 0 0.1 0 0.1 0 0.1 0 0.1-0.1 0-0.1 0 0 0.1 0 0.1 0 0 0 0 0 0.1 0 0.1 0 0 0 0.1 0 0 0 0 0 0 0 0.1 0 0.1 0 0.1 0 0.5 0.3 0.7l0.5 0.3q-0.3-0.2-0.3-0.6 0-0.1 0-0.3 0 0 0 0z"/>
					<g id="Layer">
						<path id="Layer" class="s1" d="m48.9 50.5c0.5-0.4 1-0.1 1 0.5 0 0.6-0.4 1.4-1 1.7-0.5 0.3-1 0.1-1-0.5 0-0.7 0.5-1.4 1-1.7z"/>
					</g>
				</g>
				<g id="Layer">
					<g id="Layer">
						<g id="Layer">
							<path id="Layer" class="s6" d="m35.4 60.5l-0.2-0.1v-1.3l0.2 0.1z"/>
						</g>
						<g id="Layer">
							<path id="Layer" class="s6" d="m35.4 59.2l-0.2-0.1 0.5-0.2h0.1z"/>
						</g>
						<g id="Layer">
							<path id="Layer" class="s7" d="m35.8 58.9v1.3l-0.4 0.3v-1.3z"/>
						</g>
					</g>
				</g>
				<g id="Layer">
					<g id="Layer">
						<g id="Layer">
							<path id="Layer" class="s6" d="m36.3 60l-0.1-0.1v-1.3l0.1 0.1z"/>
						</g>
						<g id="Layer">
							<path id="Layer" class="s6" d="m36.3 58.7l-0.1-0.1 0.4-0.2 0.1 0.1z"/>
						</g>
						<g id="Layer">
							<path id="Layer" class="s7" d="m36.7 58.5v1.2l-0.4 0.3v-1.3z"/>
						</g>
					</g>
				</g>
				<g id="Layer">
					<g id="Layer">
						<g id="Layer">
							<path id="Layer" class="s6" d="m40.3 57.8h-0.2v-1.3l0.2 0.1z"/>
						</g>
						<g id="Layer">
							<path id="Layer" class="s6" d="m40.3 56.6l-0.2-0.1 0.5-0.3 0.1 0.1z"/>
						</g>
						<g id="Layer">
							<path id="Layer" class="s7" d="m40.7 56.3v1.3l-0.4 0.2v-1.2z"/>
						</g>
					</g>
				</g>
				<g id="Layer">
					<g id="Layer">
						<g id="Layer">
							<path id="Layer" class="s6" d="m41.2 57.4l-0.1-0.1-0.1-1.3 0.2 0.1z"/>
						</g>
						<g id="Layer">
							<path id="Layer" class="s6" d="m41.2 56.1l-0.2-0.1 0.5-0.2h0.1z"/>
						</g>
						<g id="Layer">
							<path id="Layer" class="s7" d="m41.6 55.8v1.3l-0.4 0.3v-1.3z"/>
						</g>
					</g>
				</g>
			</g>
			<g id="Layer">
				<path id="Layer" class="s0" d="m87.1 92.4c5.6 3.2 5.6 8.4 0 11.7-5.5 3.2-14.5 3.2-20.1 0-5.6-3.3-5.6-8.5-0.1-11.7 5.6-3.2 14.6-3.2 20.2 0z"/>
			</g>
			<g id="Layer">
				<g id="Layer">
					<path id="Layer" class="s0" d="m134.5 75c5.7 3.3 5.8 8.6 0.1 11.9-5.7 3.3-14.9 3.3-20.6 0-5.7-3.3-5.7-8.6 0-11.9 5.6-3.3 14.8-3.3 20.5 0z"/>
				</g>
				<path id="Layer" class="s9" d="m128.4 47.6c0 0-1.5 2.4-3.1 2.1-1.5-0.3-1.7-0.6-1.1-1 0.7-0.4 2.4-1.6 2.1-1.7-0.3-0.1-1.1 0.1-1-0.3 0.1-0.3 2.3-0.7 2.3-0.7l1.5 0.7z"/>
				<path id="Layer" class="s10" d="m129.4 78c0 0.1-4.7-0.1-3.7 1.6 0.7 1.1 1.6 1.3 2.3 1.3 0.7 0 2-0.4 2.3-0.2 0.4 0.2 1.9 1.3 2.8 0.2 0.2-0.2 0.4-0.8 0.2-1.2-0.1-0.4-3.3-1.8-3.9-1.7z"/>
				<path id="Layer" class="s11" d="m125.7 79.6c0.7 1.1 1.6 1.3 2.3 1.3 0.7 0 2-0.4 2.3-0.2 0.4 0.2 1.9 1.3 2.8 0.2 0.1-0.1 0.2-0.3 0.3-0.6-0.7 0.9-2.2 0.7-2.7 0.4-0.5-0.4-1.2-0.5-1.8-0.4-0.6 0.1-1.9 0-2.6-0.7-0.4-0.3-0.4-0.8-0.3-1.1-0.4 0.3-0.6 0.6-0.3 1.1z"/>
				<path id="Layer" class="s12" d="m130.7 42.6c0 0 5.6 2.2 2.1 12.1-0.6 1.9-1.9 5.8-1.5 7.7 0.5 2.3 1.3 1.6 1.8 9.2 0.5 6.7 0.4 5.3 0.6 8 0 0.7-2.9 1.6-3.4 0.4-1.9-5.3-4.6-16.3-4-22.4 0.5-6 0.9-11.7 0.9-11.7 0 0 1.5-1.5 3.5-3.3z"/>
				<path id="Layer" class="s10" d="m120.4 82.1c-0.1 0-4.9-1-4.1 0.9 0.5 1.3 1.4 1.7 2.1 1.8 0.8 0.2 2.1 0 2.4 0.3 0.3 0.2 1.8 1.6 2.9 0.7 0.2-0.2 0.5-0.8 0.4-1.2 0-0.5-3.2-2.5-3.7-2.5z"/>
				<path id="Layer" class="s11" d="m116.3 83c0.5 1.3 1.4 1.7 2.1 1.8 0.8 0.2 2.1 0 2.4 0.3 0.3 0.2 1.8 1.6 2.9 0.7 0.1-0.1 0.2-0.3 0.3-0.6-0.8 0.8-2.3 0.3-2.7-0.1-0.5-0.4-1.2-0.8-1.8-0.7-0.7 0-2-0.4-2.6-1.2-0.4-0.5-0.3-0.9-0.1-1.2-0.5 0.2-0.7 0.5-0.5 1z"/>
				<path id="Layer" class="s13" d="m130.4 47c0 0 3.3 3.4-2.6 12 0 0-2.9 6.2-2.8 8.1 0.1 2.4 1.1 2.6 0.1 10.3-0.8 6.6-0.5 6.8-1 7.3-0.5 0.6-3.3 0-3.4-1.1-0.6-6.6-1.6-16.2-1-22.2 0.7-7 1.2-12.7 1.2-12.7 0 0 7.3-0.3 9.5-1.7z"/>
				<g id="Layer">
					<path id="Layer" class="s14" d="m111.5 36.5c0 0 1 1.2-0.5 2.5 0 0-1-1.4 0.5-2.5z"/>
					<g id="Layer">
						<path id="Layer" class="s9" d="m111.8 37c0 0-0.3-0.4-1.4-0.9-1.1-0.4-1.5-0.3-2.2-0.3-0.8 0.1-1.2 0.2-1.4 0.5-0.1 0.4 0.4 1 2 1.1 1.5 0.1 2 1.3 2.3 1.4 0.4 0.1 1-1.5 0.7-1.8z"/>
						<path id="Layer" class="s9" d="m110.5 37.5c-0.1-0.2-0.6 0.3-2.2 0.1-1.3-0.1 0.2 0.6 0.5 0.7 0.3 0 2.4 0.5 2.4 0.5 0 0-0.2-0.9-0.7-1.3z"/>
					</g>
					<path id="Layer" class="s15" d="m126 29.6c-0.1-1.1-2-2.5-3.3-1.2-1.2 1.2-2.4 8.4-3.6 9.3-0.3 0.3-7.6-1.2-7.6-1.2 0 0 0.9 1-0.5 2.5 0 0 8.5 2.9 10 1.5 2.6-2.4 5.3-8 5-10.9z"/>
				</g>
				<path id="Layer" class="s16" d="m114.9 37.5c0 0-1.8-2.7 2.8-6.2 4.6-3.5 7.9-4.5 9-1.8 1.1 2.7 1.5 7.1 2 8.3 1.4 2.9 2 3.8 3.2 5.1 2.8 3.2 2.7 5.3-5 8.6-1.4 0.6-6.3 2.5-6.9-0.8-1.7-10.4-3.2-10.2-5.1-13.2z"/>
				<g id="Layer">
					<g id="Layer">
						<path id="Layer" class="s9" d="m116.9 27.9c0 0 1.5 1.8 1 3.5-0.3 0.9 5.8 0.1 4.4-1.8-1.1-1.6-1-3.5-0.1-5.2z"/>
						<path id="Layer" class="s17" d="m117.7 29.3c0 0 1.3-0.8 1.9-1.5h0.2 0.5 0.3c0 0 0.5 2.2-2.6 3 0 0 0-0.7-0.3-1.5z"/>
						<path id="Layer" class="s9" d="m113.6 19.7c0 0-0.8 1.7-0.7 4.4 0.2 2.7 0.5 4.8 2.3 5.4 0.9 0.3 6-0.3 6.1-6 0.1-3.6-3.9-7-7.7-3.8z"/>
					</g>
					<path id="Layer" class="s18" d="m112.7 20.1c-0.4 0.7-0.9 2.4 0.7 2.5 2.4 0.1 2.5 3.3 3.4 3.6 0.5 0.1 0.2-0.6 0.8-1.3 0.2-0.3 1-0.6 1.4 0.5 0.3 1.1-0.4 2.8 0.3 3 0.9 0.2 2.8-1.2 3.4-2.5 0.9-1.9 1.1-6.6-3.2-8-3.6-1.1-6.2 1.1-6.8 2.2z"/>
				</g>
				<path id="Layer" class="s19" d="m102.4 35.8c0 0 1.9-1.6 3.7-1.1 1.8 0.6 2.8 0.5 3.4 2.1 0.5 1.7 1.2 1.3 0.5 2.3-0.8 1-2 1.9-3.3 2.2-1.4 0.4-3.2 2.3-5.5 2.1-2.3-0.2-2.5-6.5 1.2-7.6z"/>
				<path id="Layer" class="s13" d="m105.7 38.1c0 0-0.7 2.7-3.1 3.3-2.4 0.7-1.5 3.7-2.8 4.5-1.3 0.8-5.9 0.2-4.8-2.5 1.2-2.7 3.7-7.1 6.5-6.9 2.8 0.2 4.4-0.7 4.2 1.6z"/>
				<g id="Layer">
					<path id="Layer" class="s20" d="m103.7 40.2c0 0 0.7 1.3-1.1 2.4 0 0-0.6-1.5 1.1-2.4z"/>
					<g id="Layer">
						<path id="Layer" class="s9" d="m102.9 42.4c0 0-0.6 0-1.7-0.4-1.1-0.5-1.2-0.9-1.7-1.4-0.4-0.6-0.6-0.9-0.5-1.2 0.3-0.4 1.1-0.4 2.2 0.6 1.1 1.1 2.5 0.6 2.7 0.7 0.3 0.2-0.6 1.7-1 1.7z"/>
						<path id="Layer" class="s9" d="m102.4 41.2c-0.2 0-0.1-0.7-1.3-1.7-0.9-0.8 0.7-0.2 0.9 0 0.2 0.2 2 1.3 2 1.3 0 0-0.9 0.4-1.6 0.4z"/>
						<path id="Layer" class="s21" d="m119.3 35.8c0.1-1.1-1.5-2.7-3.1-1.7-1.4 0.9-4 7.9-5.3 8.6-0.4 0.2-7.2-2.5-7.2-2.5 0 0 0.6 1.2-1.1 2.4 0 0 7.9 4.2 9.6 3.1 3-1.9 6.7-6.9 7.1-9.9z"/>
					</g>
				</g>
			</g>
			<g id="Layer">
				<path id="Layer" class="s4" d="m105.9 52q-0.1-0.1-0.1-0.3 0-0.1 0-0.2 0-0.1 0-0.3 0-0.1 0-0.1 0-0.2-0.1-0.3 0-0.1 0-0.3 0-0.1-0.1-0.2 0-0.2 0-0.4 0-0.1-0.1-0.2 0-0.1 0-0.2-0.1-0.2-0.1-0.3 0-0.1 0-0.2-0.1-0.1-0.1-0.2-0.1-0.4-0.2-0.7 0-0.1 0-0.1-0.2-0.3-0.3-0.7 0-0.1-0.1-0.2-0.1-0.3-0.2-0.6 0 0 0 0-0.2-0.4-0.3-0.7-0.1-0.1-0.1-0.2-0.1-0.2-0.3-0.5 0 0 0-0.1-0.2-0.3-0.4-0.6 0-0.1-0.1-0.2-0.1-0.2-0.3-0.5 0-0.1-0.1-0.1-0.2-0.4-0.4-0.7 0 0-0.1-0.1-0.2-0.3-0.4-0.6-0.1 0-0.1-0.1-0.1-0.1-0.2-0.2-0.1-0.1-0.2-0.2 0-0.1-0.1-0.2-0.1-0.1-0.2-0.2-0.2-0.2-0.4-0.4 0-0.1 0-0.1-0.2-0.2-0.4-0.4-0.2-0.2-0.3-0.3-0.1 0-0.1-0.1-0.2-0.1-0.4-0.3 0 0-0.1-0.1-0.1-0.1-0.2-0.2-0.1-0.1-0.2-0.1-0.1-0.1-0.2-0.2-0.1-0.1-0.2-0.1-0.1-0.1-0.2-0.2-0.1-0.1-0.2-0.1-0.1-0.1-0.2-0.2-0.1 0-0.2-0.1-0.2-0.1-0.4-0.2-0.2-0.1-0.4-0.2 0-0.1-0.1-0.1-0.1-0.1-0.3-0.2 0 0 0 0-0.2-0.1-0.4-0.1-0.2-0.1-0.4-0.2 0 0-0.1 0-0.2-0.1-0.4-0.1-0.1-0.1-0.3-0.1 0 0-0.1 0-0.2-0.1-0.4-0.1 0 0 0 0-0.2 0-0.3 0-0.1-0.1-0.1-0.1-0.2 0-0.3 0 0 0-0.1 0-0.1 0-0.2 0-0.1 0-0.1 0-0.2 0-0.3 0.1-0.1 0-0.1 0-0.1 0-0.2 0-0.2 0-0.4 0.1 0 0 0 0-0.2 0.1-0.4 0.1-0.1 0.1-0.1 0.1-0.2 0.1-0.3 0.1-0.1 0.1-0.1 0.1 0.8-0.5 1.5-0.9 0.1 0 0.1 0 0-0.1 0-0.1 0.2-0.1 0.3-0.1 0.1 0 0.1-0.1 0 0 0.1 0 0.1 0 0.3-0.1 0 0 0 0 0 0 0.1 0 0 0 0 0 0.1 0 0.2-0.1 0.1 0 0.1 0 0.1 0 0.1 0 0.1 0 0.2 0 0 0 0 0 0.2-0.1 0.3-0.1 0 0 0.1 0 0 0 0 0 0.2 0 0.3 0 0 0 0.1 0 0 0 0.1 0 0.1 0 0.1 0 0.1 0 0.1 0 0.2 0.1 0.4 0.1 0 0 0 0 0.2 0 0.4 0.1 0 0 0.1 0 0.1 0 0.2 0 0.1 0 0.1 0.1 0.2 0 0.4 0.1 0.1 0 0.1 0 0.2 0.1 0.4 0.2 0 0 0 0 0.2 0 0.3 0.1 0 0 0.1 0 0.1 0.1 0.3 0.2 0.1 0 0.1 0.1 0.2 0.1 0.4 0.2 0.2 0.1 0.4 0.2 0.1 0.1 0.1 0.1 0.2 0.1 0.3 0.2 0.1 0 0.1 0.1 0.2 0.1 0.3 0.2 0.1 0 0.1 0.1 0.2 0.1 0.3 0.2 0.1 0 0.1 0.1 0.2 0.1 0.3 0.2 0.1 0 0.1 0.1 0.2 0.2 0.4 0.3 0 0.1 0.1 0.1 0.1 0.1 0.2 0.2 0 0.1 0 0.1 0.2 0.2 0.5 0.4 0 0 0 0 0.2 0.2 0.4 0.5 0 0 0 0 0.1 0.1 0.2 0.2 0 0.1 0.1 0.2 0.1 0.1 0.2 0.2 0.1 0.1 0.2 0.2 0 0 0 0 0 0.1 0 0.1 0.3 0.3 0.5 0.6 0 0.1 0 0.1 0.1 0 0.1 0 0.2 0.3 0.4 0.7 0 0 0 0 0.1 0.1 0.1 0.1 0.2 0.3 0.3 0.5 0 0.1 0.1 0.1 0 0 0 0 0.2 0.4 0.3 0.7 0 0 0.1 0 0 0.1 0 0.1 0.1 0.3 0.3 0.5 0 0.1 0 0.1 0 0.1 0 0.1 0.2 0.3 0.3 0.6 0 0.1 0 0.1 0.1 0 0.1 0 0.1 0.3 0.2 0.6 0 0.1 0.1 0.1 0 0.1 0 0.1 0.1 0.3 0.2 0.7 0 0 0 0 0 0 0.1 0.1 0.1 0.3 0.2 0.7 0 0 0 0.1 0 0 0 0 0.1 0.2 0.1 0.3 0 0.1 0.1 0.2 0 0.2 0 0.3 0 0 0 0.1 0 0.1 0.1 0.1 0 0.2 0 0.4 0 0.1 0.1 0.2 0 0.2 0 0.3 0 0.1 0 0.2 0 0 0 0 0.1 0.1 0.1 0.2 0 0.2 0 0.3 0 0.1 0 0.2 0 0.2 0 0.3 0 0.1 0 0.2 0 0.2 0 0.4c0 2.7-0.9 4.5-2.4 5.4q-0.8 0.4-1.6 0.9c1.5-0.9 2.5-2.7 2.5-5.4q0-0.2 0-0.4 0-0.1 0-0.2z"/>
				<g id="Layer">
					<path id="Layer" class="s1" d="m97.5 38.2c-4.6-2.7-8.4-0.6-8.4 4.8 0 5.3 3.7 11.8 8.4 14.4 4.6 2.7 8.4 0.5 8.4-4.8 0-5.3-3.8-11.8-8.4-14.4z"/>
				</g>
				<g id="Layer">
					<path id="Layer" class="s4" d="m97.5 40.6c-3.5-2.1-6.4-0.4-6.4 3.6 0 4.1 2.8 9 6.4 11.1 3.5 2 6.4 0.4 6.4-3.7 0-4-2.9-9-6.4-11z"/>
				</g>
				<path id="Layer" class="s3" d="m97.5 40.6c3.5 2 6.4 7 6.4 11 0 1.6-0.5 2.9-1.3 3.7-1 0.1-2.1-0.2-3.3-0.9-3.5-2-6.4-7-6.3-11 0-1.7 0.4-2.9 1.2-3.7 1-0.1 2.1 0.2 3.3 0.9z"/>
				<path id="Layer" class="s8" d="m103.9 51.6q0 1.1-0.3 1.9-0.8-0.2-1.6-0.7c-3.6-2-6.4-7-6.4-11q0-1.1 0.3-1.9 0.8 0.2 1.6 0.7c3.5 2 6.4 7 6.4 11z"/>
			</g>
			<g id="Layer">
				<g id="Layer">
					<path id="Layer" class="s1" d="m13 46.9l11.1 6.5 13-7.5-11.2-6.5z"/>
				</g>
				<g id="Layer">
					<path id="Layer" class="s1" d="m31.5 50.2c1.9 1.1 1.9 2.9 0 4-1.9 1.1-5 1.1-6.9 0-2-1.1-2-2.9-0.1-4 1.9-1.1 5.1-1.1 7 0z"/>
				</g>
				<g id="Layer">
					<path id="Layer" class="s1" d="m40.1 44.7c1.9 1.1 1.9 2.9 0 4-1.9 1.1-5 1.1-7 0-1.9-1.1-1.9-2.9 0-4 1.9-1.1 5-1.1 7 0z"/>
				</g>
				<g id="Layer">
					<path id="Layer" class="s15" d="m22.1 31.5c0 0-1.3 5.9-2.3 8.9-0.8 2.5-1.7 7.6-0.6 9.1l5.4 2.1c0 0 2-13.7-2.5-20.1z"/>
					<path id="Layer" class="s16" d="m22.1 31.5l8.4-4.8c0 0 0.9 5 1.6 7.3 1.4 4.8 2.5 8.6 1.8 12.7l-9.3 4.9c0 0 0.3-8.2-1.4-12.4-0.8-2.1-1.6-5.7-1.1-7.7z"/>
					<path id="Layer" class="s4" d="m23.5 33.7l6.7-3.9c0 0 0.8 4.1 1.3 5.8 1.2 3.9 2 7 1.4 10.3l-7.4 3.9c0 0 0.2-6.5-1.1-9.9-0.7-1.8-1.3-4.6-0.9-6.2z"/>
					<path id="Layer" class="s22" d="m32.9 45.9c0.6-3.3-0.2-6.4-1.4-10.3-0.1-0.3-0.2-0.9-0.4-1.4-0.6 2.9-2.4 5.6-4 8.3-1.1 1.9-1.5 4.5-1.6 6.2 0 0.7 0 1.1 0 1.1z"/>
				</g>
				<g id="Layer">
					<path id="Layer" class="s23" d="m31.1 51q0 0 0 0 0 0.1 0 0.1 0 0 0 0.1-0.1 0-0.1 0 0 0.1 0 0.1-0.1 0-0.1 0.1 0 0 0 0-0.1 0.1-0.1 0.1 0 0 0 0-0.1 0.1-0.1 0.1-0.1 0-0.1 0.1 0 0-0.1 0 0 0.1 0 0.1-0.1 0-0.2 0.1-0.1 0-0.2 0.1 0 0 0 0-0.1 0-0.2 0.1 0 0-0.1 0-0.1 0-0.1 0.1-0.1 0-0.1 0-0.1 0-0.1 0-0.1 0-0.2 0.1-0.1 0-0.1 0-0.1 0-0.2 0-0.1 0-0.2 0 0 0 0 0-0.1 0-0.2 0.1-0.1 0-0.1 0-0.1 0-0.3 0 0 0 0 0-0.1 0-0.2 0-0.1 0-0.1 0-0.1 0-0.2-0.1 0 0-0.1 0-0.1 0-0.2 0 0 0 0 0-0.2 0-0.3-0.1 0 0-0.1 0-0.1 0-0.1 0-0.1 0-0.2-0.1 0 0-0.1 0-0.1 0-0.2-0.1 0 0-0.1 0-0.1-0.1-0.2-0.1c-0.5-0.3-0.8-0.7-0.8-1.1q0.2 1 0.4 2 0 0 0 0.1 0 0 0 0 0 0 0 0.1 0 0 0 0 0.1 0 0.1 0.1 0 0 0 0 0 0.1 0.1 0.1 0 0 0 0 0.2 0.3 0.5 0.5 0.1 0 0.2 0.1 0 0 0.1 0 0 0 0.1 0 0.1 0.1 0.1 0.1 0.1 0 0.1 0 0.1 0 0.1 0 0.1 0.1 0.2 0.1 0 0 0 0 0.1 0 0.2 0 0 0 0 0 0.1 0 0.2 0.1 0 0 0 0 0 0 0.1 0 0.1 0 0.1 0 0.1 0 0.1 0 0 0 0.1 0 0 0 0.1 0 0 0 0 0 0.1 0 0.2 0 0 0 0 0 0.1 0 0.1 0 0.1 0 0.2 0 0 0 0.1 0 0-0.1 0-0.1 0 0 0.1 0 0.1 0 0.1 0 0.1 0 0.1 0 0.1 0 0.2-0.1 0 0 0.1 0 0 0 0 0 0 0 0.1 0 0 0 0.1 0 0-0.1 0.1-0.1 0 0 0.1 0 0 0 0.1-0.1 0 0 0.1-0.1 0.1 0 0.2 0 0 0 0 0 0 0 0-0.1 0.1 0 0.1 0 0 0 0 0 0.1-0.1 0.1-0.1 0-0.1 0-0.1 0.1 0 0.1 0 0 0 0 0 0-0.1 0-0.1 0.1 0 0.1 0 0-0.1 0-0.1 0 0 0 0 0.1 0 0.1-0.1 0 0 0 0 0 0 0-0.1 0 0 0 0 0 0 0 0 0.1-0.1 0.1-0.1 0-0.4 0.1-0.8 0.1-0.4 0.2-0.8 0-0.1 0.1-0.3 0 0-0.1 0.1z"/>
					<path id="Layer" class="s24" d="m31.2 42.2q0 0 0 0 0 0.1 0 0.1 0 0 0 0 0 0 0 0.1 0 0 0 0 0 0 0 0.1 0 0 0 0-0.1 0-0.1 0 0 0.1 0 0.1 0 0 0 0 0 0 0 0.1 0 0 0 0-0.1 0-0.1 0 0 0.1 0 0.1 0 0 0 0 0 0.1-0.1 0.1 0 0 0 0.1 0 0-0.1 0 0 0 0 0 0 0.1-0.1 0.1 0 0 0 0 0 0 0 0-0.1 0.1-0.1 0.1 0 0 0 0-0.1 0-0.1 0.1 0 0 0 0-0.1 0-0.1 0 0 0 0 0.1-0.1 0-0.3 0.1 0 0 0 0-0.1 0-0.2 0.1 0 0 0 0-0.1 0-0.2 0.1-0.1 0-0.2 0 0 0-0.1 0-0.1 0.1-0.2 0.1 0 0-0.1 0 0 0 0 0-0.1 0-0.2 0-0.1 0-0.1 0-0.1 0-0.1 0-0.1 0.1-0.2 0.1-0.1 0-0.2 0 0 0-0.1 0-0.1 0-0.2 0 0 0-0.1 0-0.1-0.1-0.1-0.1-0.1 0-0.2 0-0.1 0-0.1 0-0.1 0-0.2 0 0 0-0.1 0-0.1-0.1-0.2-0.1-0.1 0-0.1 0 0 0-0.1 0-0.1-0.1-0.2-0.1 0 0 0 0-0.1-0.1-0.2-0.1 0 0 0 0-0.2-0.1-0.3-0.1c-0.5-0.4-0.8-0.8-0.8-1.3l-0.1 8.5c0 0.5 0.3 0.9 0.9 1.3q0.1 0 0.2 0.1 0.1 0 0.1 0 0.1 0 0.1 0.1 0.1 0 0.1 0 0 0 0 0 0.1 0 0.2 0.1 0 0 0.1 0 0 0 0 0 0 0 0.1 0 0.1 0 0.2 0.1 0 0 0 0 0.1 0 0.1 0 0.1 0 0.1 0 0.1 0 0.1 0 0 0 0.1 0 0.1 0 0.1 0 0.1 0.1 0.1 0.1 0 0 0.1 0 0 0 0.1 0 0.1 0 0.1 0 0 0 0.1 0 0 0 0.1 0 0.1 0 0.1 0 0 0 0 0 0.1 0 0.2 0 0.1 0 0.1-0.1 0 0 0.1 0 0 0 0 0 0.1 0 0.2 0 0.1 0 0.1 0 0 0 0 0 0.1 0 0.1 0 0.1 0 0.2-0.1 0 0 0.1 0 0.1 0 0.1 0 0.1 0 0.1 0 0.1-0.1 0.2-0.1 0 0 0 0 0.1-0.1 0.2-0.1 0 0 0 0 0.1-0.1 0.2-0.1 0 0 0.1-0.1 0 0 0 0 0 0 0 0 0.1 0 0.1 0 0-0.1 0-0.1 0.1 0 0.1 0 0 0 0 0 0.1-0.1 0.1-0.1 0 0 0 0 0 0 0 0 0 0 0.1-0.1 0 0 0 0 0 0 0 0 0.1-0.1 0.1-0.1 0 0 0 0 0 0 0-0.1 0.1 0 0.1 0 0 0 0 0 0-0.1 0-0.1 0 0 0 0 0 0 0.1 0 0-0.1 0-0.1 0 0 0 0 0 0 0-0.1 0 0 0 0 0 0 0 0 0 0 0 0 0-0.1 0.1-0.1 0 0 0 0 0 0 0-0.1 0 0 0 0 0 0 0 0 0 0 0-0.1 0 0 0 0 0 0 0 0 0 0 0 0 0-4.3 0-8.6 0 0.1 0 0.1z"/>
					<path id="Layer" class="s13" d="m31.2 42.2q0 0 0 0 0 0.1 0 0.1 0 0 0 0 0 0 0 0.1 0 0 0 0 0 0 0 0.1 0 0 0 0-0.1 0-0.1 0 0 0.1 0 0.1 0 0 0 0 0 0 0 0.1 0 0 0 0-0.1 0-0.1 0 0 0.1 0 0.1 0 0 0 0 0 0.1-0.1 0.1 0 0 0 0.1 0 0-0.1 0 0 0 0 0 0 0.1-0.1 0.1 0 0 0 0 0 0 0 0-0.1 0.1-0.1 0.1 0 0 0 0-0.1 0-0.1 0.1 0 0 0 0-0.1 0-0.1 0 0 0 0 0.1-0.1 0-0.3 0.1 0 0 0 0-0.1 0-0.2 0.1 0 0 0 0-0.1 0-0.2 0.1-0.1 0-0.2 0 0 0-0.1 0-0.1 0.1-0.2 0.1 0 0-0.1 0 0 0 0 0-0.1 0-0.2 0-0.1 0-0.1 0-0.1 0-0.1 0-0.1 0.1-0.2 0.1-0.1 0-0.2 0 0 0-0.1 0-0.1 0-0.2 0 0 0-0.1 0-0.1-0.1-0.1-0.1-0.1 0-0.2 0-0.1 0-0.1 0-0.1 0-0.2 0 0 0-0.1 0-0.1-0.1-0.2-0.1-0.1 0-0.1 0 0 0-0.1 0-0.1-0.1-0.2-0.1 0 0 0 0-0.1-0.1-0.2-0.1 0 0 0 0-0.2-0.1-0.3-0.1c-0.5-0.4-0.8-0.8-0.8-1.3l-0.1 8.5c0 0.5 0.3 0.9 0.9 1.3q0.1 0 0.2 0.1 0.1 0 0.1 0 0.1 0 0.1 0.1 0.1 0 0.1 0 0 0 0 0 0.1 0 0.2 0.1 0 0 0.1 0 0 0 0 0 0 0 0.1 0 0.1 0 0.2 0.1 0 0 0 0 0.1 0 0.1 0 0.1 0 0.1 0 0.1 0 0.1 0 0 0 0.1 0 0.1 0 0.1 0 0.1 0.1 0.1 0.1 0 0 0.1 0 0 0 0.1 0 0.1 0 0.1 0 0 0 0.1 0 0 0 0.1 0 0.1 0 0.1 0 0 0 0 0 0.1 0 0.2 0 0.1 0 0.1-0.1 0 0 0.1 0 0 0 0 0 0.1 0 0.2 0 0.1 0 0.1 0 0 0 0 0 0.1 0 0.1 0 0.1 0 0.2-0.1 0 0 0.1 0 0.1 0 0.1 0 0.1 0 0.1 0 0.1-0.1 0.2-0.1 0 0 0 0 0.1-0.1 0.2-0.1 0 0 0 0 0.1-0.1 0.2-0.1 0 0 0.1-0.1 0 0 0 0 0 0 0 0 0.1 0 0.1 0 0-0.1 0-0.1 0.1 0 0.1 0 0 0 0 0 0.1-0.1 0.1-0.1 0 0 0 0 0 0 0 0 0 0 0.1-0.1 0 0 0 0 0 0 0 0 0.1-0.1 0.1-0.1 0 0 0 0 0 0 0-0.1 0.1 0 0.1 0 0 0 0 0 0-0.1 0-0.1 0 0 0 0 0 0 0.1 0 0-0.1 0-0.1 0 0 0 0 0 0 0-0.1 0 0 0 0 0 0 0 0 0 0 0 0 0-0.1 0.1-0.1 0 0 0 0 0 0 0-0.1 0 0 0 0 0 0 0 0 0 0 0-0.1 0 0 0 0 0 0 0 0 0 0 0 0 0-4.3 0-8.6 0 0.1 0 0.1z"/>
					<path id="Layer" class="s25" d="m26.1 49.8q0.1 0.1 0.2 0.1 0.1 0 0.1 0 0.1 0.1 0.1 0.1 0 0 0.1 0 0 0 0 0 0.1 0.1 0.2 0.1 0 0 0.1 0 0 0 0 0 0 0 0.1 0.1 0.1 0 0.2 0 0 0 0 0 0 0 0.1 0 0.1 0 0.1 0 0.1 0.1 0.1 0.1 0 0 0.1 0 0 0 0.1 0 0.1 0 0.1 0 0 0 0.1 0 0 0 0.1 0 0 0 0.1 0 0 0 0 0 0.1 0 0.2 0 0 0 0.1 0 0 0 0 0 0.1 0 0.2 0 0.1 0 0.1 0 0 0 0.1 0 0 0 0 0 0.1 0 0.2-0.1 0 0 0.1 0 0 0 0 0 0 0 0.1 0 0.1 0 0.2 0 0 0 0.1-0.1 0.1 0 0.1 0 0 0 0.1 0 0.1 0 0.1-0.1 0.1 0 0.1 0 0.1 0 0.2-0.1 0 0 0 0 0.1 0 0.2-0.1 0 0 0.1 0 0 0 0 0 0-0.1 0-0.1 0.1 0 0.1 0 0 0 0 0 0.1-0.1 0.1-0.1 0 0 0 0 0 0 0.1 0 0-0.1 0-0.1 0 0 0 0 0 0 0 0 0.1 0 0.1-0.1 0 0 0 0 0.1 0 0.1-0.1 0 0 0 0 0 0 0 0 0 0 0.1-0.1 0 0 0 0 0 0 0-0.1 0 0 0 0 0 0 0 0 0.1 0 0.1 0 0-0.1 0-0.1 0 0 0 0 0 0 0 0 0-0.1 0-0.1 0 0 0 0c0 0 0.1-0.3 0.1-0.3q0-1.1 0-2.3 0 0 0 0 0 0 0 0 0 0 0 0c0-1.4 0-1.7 0-1.7q0 0 0 0c0 0-0.1 0.3-0.1 0.3q0 0 0 0 0 0.1 0 0.1 0 0 0 0 0 0 0 0 0 0 0 0.1 0 0 0 0 0 0-0.1 0 0 0.1 0 0.1 0 0 0 0 0 0 0 0 0 0.1 0 0.1-0.1 0-0.1 0 0 0 0 0 0 0.1 0 0.1 0 0-0.1 0 0 0.1 0 0.1 0 0-0.1 0 0 0 0 0 0 0.1 0 0.1 0 0 0 0-0.1 0-0.1 0 0 0.1 0 0.1 0 0-0.1 0 0 0 0 0 0 0.1-0.1 0.1 0 0 0 0 0 0-0.1 0 0 0 0 0-0.1 0.1-0.2 0.2 0 0 0 0-0.1 0-0.2 0.1 0 0-0.1 0 0 0-0.1 0-0.1 0-0.1 0 0 0.1-0.1 0.1-0.1 0-0.1 0-0.1 0-0.2 0.1-0.1 0-0.1 0 0 0 0 0-0.1 0-0.1 0-0.1 0-0.2 0 0 0 0 0-0.1 0-0.1 0 0 0-0.1 0-0.1 0-0.2 0 0 0 0 0-0.1 0-0.1 0-0.1 0.1-0.2 0 0 0.1 0 0.1-0.1-0.1-0.1-0.1-0.1 0-0.1 0-0.1 0-0.1 0 0 0-0.1 0-0.1 0-0.1 0-0.1 0-0.1 0 0 0-0.1 0 0 0-0.1 0-0.1 0-0.1 0 0-0.1 0-0.1-0.1 0-0.2 0-0.1 0-0.1 0 0 0 0 0-0.1 0-0.1-0.1-0.1 0-0.2 0 0 0 0 0-0.1 0-0.1 0 0-0.1-0.1-0.1 0 0-0.1 0-0.1-0.1-0.2-0.2-0.7-0.4-0.8-0.9l-0.1 3.9c0.1 0.4 0.4 0.7 0.9 1z"/>
					<path id="Layer" class="s23" d="m31.2 42.2q0 0 0 0 0-0.1 0-0.1 0 0 0 0 0 0 0-0.1 0 0 0-0.1l-0.4-1.9q0 0.1 0 0.1 0 0 0 0 0 0.1 0 0.1 0 0 0 0 0 0.1 0 0.1 0 0.1 0 0.1 0 0 0 0.1 0 0 0 0 0 0-0.1 0.1 0 0 0 0 0 0 0 0.1 0 0-0.1 0 0 0.1 0 0.1 0 0-0.1 0.1 0 0 0 0 0 0 0 0-0.1 0.1-0.1 0.1 0 0 0 0 0 0-0.1 0.1 0 0 0 0-0.1 0-0.1 0.1-0.1 0-0.1 0-0.1 0.1-0.2 0.1 0 0-0.1 0.1 0 0-0.1 0 0 0-0.1 0 0 0.1-0.1 0.1 0 0-0.1 0-0.1 0-0.1 0.1-0.1 0-0.1 0-0.1 0-0.2 0-0.1 0-0.3 0 0 0.1-0.1 0.1-0.1 0-0.1 0-0.1 0-0.2 0-0.1 0-0.1 0-0.1 0-0.2 0 0 0 0 0-0.1 0-0.2 0 0-0.1-0.1-0.1-0.1 0-0.1 0-0.1 0-0.1 0-0.1 0-0.2 0 0 0 0 0-0.1-0.1-0.2-0.1-0.1 0-0.1 0-0.1 0-0.1-0.1-0.1 0-0.2 0 0 0-0.1-0.1-0.1 0-0.2-0.1 0 0 0 0-0.1 0-0.1 0 0-0.1 0-0.1-0.1 0-0.1 0 0 0 0 0 0-0.1-0.1-0.1 0 0 0 0 0 0 0 0-0.1-0.1-0.1-0.1 0 0 0 0 0 0-0.1-0.1 0 0 0 0 0 0 0 0 0-0.1 0-0.1-0.1 0-0.1 0 0 0 0-0.1 0 0 0 0 0 0 0 0 0 0-0.1-0.1 0 0 0 0 0 0 0-0.1 0 0 0 0 0 0 0 0 0-0.1 0-0.1 0 0 0 0 0 0 0-0.1 0 0 0 0 0 0 0 0 0-0.1 0-0.1 0 0 0 0 0-0.1 0-0.1-0.2 1-0.4 1.9 0 0.1 0 0.1 0 0 0 0 0 0 0 0.1 0 0 0 0 0 0 0 0.1 0 0 0 0 0 0 0 0.1 0 0 0 0 0 0 0 0 0 0.1 0 0.1 0 0 0 0 0 0.1 0 0.1 0 0 0 0 0.1 0.1 0.1 0.1 0 0 0 0 0 0.1 0 0.1 0 0 0 0 0.1 0 0.1 0.1 0 0 0 0 0 0 0 0.1 0.1 0 0.1 0 0 0 0 0 0 0.1 0.1 0.1 0 0 0 0 0 0.1 0 0.1 0.1 0 0.1 0 0 0 0 0.1 0.1 0 0.1 0 0 0 0 0 0.1 0.1 0.1 0.1 0 0 0.1 0 0 0 0 0 0 0 0 0.1 0.2 0 0.3 0.1 0 0 0 0 0 0 0.1 0 0.1 0.1 0.1 0.1 0 0 0.1 0 0 0 0.1 0 0 0.1 0.1 0.1 0 0 0 0 0.1 0 0.2 0 0 0 0 0 0.1 0.1 0.3 0.1 0 0 0 0 0 0 0.1 0 0 0 0.1 0 0 0 0 0 0.1 0 0.1 0 0.1 0 0.1 0 0.1 0 0.1 0 0.1 0.1 0.1 0.1 0 0 0 0 0.1 0 0.2 0 0 0 0.1 0 0 0 0 0 0.1 0 0.2 0 0 0 0 0 0.1 0 0.1-0.1 0.1 0 0.2 0 0 0 0 0 0.2 0 0.3 0 0 0 0 0 0.1 0 0.3-0.1 0 0 0 0 0.1 0 0.2 0 0 0 0 0 0 0 0.1-0.1 0.1 0 0.1 0 0.1 0 0.1 0 0.1-0.1 0.2-0.1 0 0 0 0 0.2-0.1 0.3-0.1 0-0.1 0.1-0.1 0 0 0 0 0-0.1 0.1-0.1 0 0 0 0 0.1-0.1 0.1-0.1 0 0 0.1 0 0 0 0 0 0-0.1 0-0.1 0 0 0.1 0 0-0.1 0-0.1 0 0 0 0 0 0 0 0 0 0 0.1 0 0-0.1 0-0.1 0 0 0 0 0 0 0-0.1 0 0 0 0 0.1 0 0.1-0.1 0 0 0 0 0-0.1 0.1-0.1 0 0 0 0 0 0 0-0.1 0 0 0-0.1 0 0 0 0 0 0 0 0 0 0 0-0.1 0 0 0 0z"/>
					<path id="Layer" class="s26" d="m30.1 39.1c-1-0.5-2.7-0.5-3.7 0-1 0.6-1 1.6 0 2.1 1 0.6 2.7 0.6 3.7 0 1-0.5 1-1.5 0-2.1z"/>
				</g>
				<g id="Layer">
					<path id="Layer" class="s27" d="m40 45.9q0 0.1 0 0.2 0 0 0 0 0 0.1-0.1 0.1 0 0.1 0 0.1 0 0-0.1 0 0 0.1 0 0.1 0 0 0 0 0 0-0.1 0.1 0 0-0.1 0.1 0 0 0 0-0.1 0-0.1 0.1-0.1 0-0.1 0-0.1 0.1-0.2 0.1-0.1 0-0.1 0.1-0.1 0-0.2 0 0 0-0.1 0.1-0.1 0-0.2 0 0 0 0 0-0.1 0-0.2 0.1 0 0-0.1 0-0.1 0-0.2 0-0.1 0-0.1 0-0.1 0-0.3 0 0 0 0 0-0.1 0-0.2 0-0.1 0-0.1 0-0.1 0-0.2 0-0.1 0-0.1 0-0.1-0.1-0.3-0.1 0 0 0 0-0.2-0.1-0.4-0.1 0 0 0 0-0.1-0.1-0.3-0.2-0.6-0.3-0.7-0.8 0.1 0.6 0.2 1.2 0.1 0.5 0.6 0.8 0.2 0.1 0.3 0.1 0 0 0.1 0.1 0.1 0 0.2 0 0.1 0.1 0.1 0.1 0 0 0 0 0.1 0 0.3 0 0 0 0 0 0 0 0 0 0.1 0 0.2 0.1 0 0 0 0 0.1 0 0.1 0 0.1 0 0.2 0 0 0 0 0 0 0 0 0 0.2 0 0.3 0 0 0 0 0 0 0 0 0 0.2-0.1 0.3-0.1 0 0 0 0 0 0 0 0 0.1 0 0.2 0 0 0 0 0 0.1 0 0.3-0.1 0 0 0 0 0 0 0 0 0.1 0 0.2-0.1 0 0 0 0 0.2 0 0.2-0.1 0.1 0 0.1 0 0 0 0 0 0.1-0.1 0.1-0.1 0 0 0.1 0 0-0.1 0.1-0.1 0 0 0 0 0 0 0 0 0-0.1 0-0.1 0 0 0.1 0 0 0 0-0.1 0 0 0 0 0 0 0 0 0.1-0.1 0.1-0.2 0 0 0 0 0 0 0 0 0 0 0-0.1 0 0 0.1 0 0 0 0 0 0.1-0.7 0.2-1.3 0 0-0.1 0z"/>
					<g id="Layer">
						<path id="SVGID_00000088835038056964568620000009898833789466557056_" class="s13" d="m40.1 40.2v5.6c0 0.3-0.3 0.7-0.7 0.9-0.9 0.5-2.4 0.5-3.3 0-0.4-0.2-0.7-0.6-0.7-0.9v-5.6c0 0.4 0.3 0.7 0.7 1 0.9 0.5 2.4 0.5 3.3 0 0.5-0.3 0.7-0.6 0.7-1z"/>
						<g id="Clip-Path" clip-path="url(#cp1)">
							<g id="Layer">
								<path id="Layer" class="s13" d="m40.1 40.2v5.6q0 0 0 0v-5.6q0 0 0 0z"/>
								<path id="Layer" class="s13" d="m40.1 40.2v5.6q0 0.1 0 0.1v-5.5q0-0.1 0-0.2z"/>
								<path id="Layer" class="s13" d="m40.1 40.4v5.5q-0.1 0.1-0.1 0.2v-5.6q0.1-0.1 0.1-0.1z"/>
								<path id="Layer" class="s13" d="m40 40.5v5.6q0 0 0 0.1v-5.6q0 0 0-0.1z"/>
								<path id="Layer" class="s13" d="m40 40.6v5.6q-0.1 0.1-0.1 0.1v-5.5q0-0.1 0.1-0.2z"/>
								<path id="Layer" class="s13" d="m39.9 40.8v5.5q-0.1 0.1-0.2 0.2v-5.6q0.1 0 0.2-0.1z"/>
								<path id="Layer" class="s13" d="m39.7 40.9v5.6q-0.1 0.1-0.3 0.2v-5.6q0.2-0.1 0.3-0.2z"/>
								<path id="Layer" class="s13" d="m39.4 41.1v5.6q0 0 0 0-0.2 0.2-0.5 0.2v-5.5q0.3-0.1 0.5-0.2 0 0 0-0.1z"/>
								<path id="Layer" class="s13" d="m38.9 41.4v5.5q-0.2 0.1-0.5 0.1l0.1-5.5q0.2 0 0.4-0.1z"/>
								<path id="Layer" class="s13" d="m38.5 41.5l-0.1 5.5q-0.1 0.1-0.2 0.1v-5.6q0.1 0 0.3 0z"/>
								<path id="Layer" class="s13" d="m38.2 41.5v5.6q-0.2 0-0.3 0v-5.5q0.1 0 0.3-0.1z"/>
								<path id="Layer" class="s13" d="m37.9 41.6v5.5q-0.1 0-0.2 0v-5.5q0.1 0 0.2 0z"/>
								<path id="Layer" class="s13" d="m37.7 41.6v5.5q-0.2 0-0.3 0v-5.6q0.2 0.1 0.3 0.1z"/>
								<path id="Layer" class="s13" d="m37.4 41.5v5.6q-0.1 0-0.2 0v-5.6q0.1 0 0.2 0z"/>
								<path id="Layer" class="s13" d="m37.2 41.5v5.6q-0.1 0-0.2-0.1v-5.5q0.1 0 0.2 0z"/>
								<path id="Layer" class="s13" d="m37 41.5v5.5q-0.1 0-0.3 0v-5.6q0.2 0.1 0.3 0.1z"/>
								<path id="Layer" class="s13" d="m36.7 41.4v5.6q-0.1-0.1-0.2-0.1v-5.6q0.1 0.1 0.2 0.1z"/>
								<path id="Layer" class="s13" d="m36.5 41.3l-0.1 5.6q-0.1-0.1-0.3-0.2c-0.4-0.2-0.7-0.6-0.7-0.9v-5.6c0 0.4 0.3 0.7 0.7 1q0.2 0.1 0.4 0.1z"/>
							</g>
						</g>
					</g>
					<path id="Layer" class="s27" d="m40.1 40.2q0 0 0 0 0 0 0-0.1 0 0 0 0-0.1-0.6-0.2-1.3 0 0.1 0 0.2 0 0 0 0 0 0 0 0.1 0 0 0 0 0 0.1-0.1 0.1 0 0 0 0 0 0.1 0 0.1 0 0 0 0.1-0.1 0-0.1 0.1-0.1 0-0.1 0.1-0.1 0-0.2 0.1 0 0 0 0-0.1 0.1-0.1 0.1-0.1 0.1-0.3 0.1 0 0 0 0-0.1 0.1-0.3 0.1 0 0 0 0-0.1 0.1-0.3 0.1 0 0 0 0-0.1 0-0.2 0-0.1 0.1-0.1 0.1-0.1 0-0.1 0-0.1 0-0.2 0 0 0 0 0-0.1 0-0.2 0 0 0-0.1 0 0 0-0.1-0.1 0 0-0.1 0 0 0-0.1 0 0 0-0.1 0 0 0-0.1 0 0 0-0.1 0 0 0-0.1-0.1 0 0 0 0-0.1 0-0.1 0-0.1 0-0.1 0-0.1-0.1-0.1-0.1-0.1 0-0.1 0-0.1-0.1-0.1-0.1c-0.5-0.3-0.7-0.6-0.6-1l-0.2 1.3c-0.1 0.4 0.1 0.8 0.6 1.1q0.1 0 0.1 0 0 0 0 0 0.1 0.1 0.2 0.1 0 0 0 0 0 0 0.1 0 0 0 0.1 0.1 0 0 0 0 0.1 0 0.1 0 0 0 0.1 0 0 0 0 0 0 0 0.1 0.1 0 0 0.1 0 0 0 0 0 0 0 0.1 0 0 0 0.1 0 0 0 0 0 0 0 0.1 0 0 0 0.1 0 0 0 0 0 0 0 0.1 0 0 0 0.1 0.1 0 0 0 0 0.1 0 0.2 0 0 0 0 0 0.1 0 0.2 0 0 0 0 0 0.1-0.1 0.1-0.1 0.1 0 0.1 0 0 0 0 0 0.1 0 0.2 0 0.1 0 0.1 0 0 0 0 0 0.1 0 0.3-0.1 0 0 0 0 0 0 0 0 0.2 0 0.3-0.1 0 0 0.1 0 0.1-0.1 0.2-0.1 0.1-0.1 0.1-0.1 0 0 0.1 0 0 0 0-0.1 0.1 0 0.1-0.1 0 0 0 0 0.1 0 0.2-0.1 0-0.1 0-0.1 0 0 0.1 0 0 0 0-0.1 0 0 0 0 0 0 0-0.1 0 0 0 0 0 0 0.1-0.1 0 0 0 0 0 0 0 0 0 0 0-0.1 0 0 0 0 0-0.1 0-0.1z"/>
					<g id="Layer">
						<path id="Layer" class="s28" d="m39.3 38.1c0.8 0.5 0.8 1.2 0 1.7-0.9 0.5-2.2 0.5-3 0-0.9-0.5-0.9-1.2 0-1.7 0.8-0.5 2.1-0.5 3 0z"/>
					</g>
					<g id="Layer">
						<path id="Layer" class="s27" d="m38.6 38.3c0.4 0.3 0.4 0.7 0 1-0.5 0.2-1.2 0.2-1.7 0-0.4-0.3-0.4-0.7 0-1 0.5-0.2 1.2-0.2 1.7 0z"/>
					</g>
					<path id="Layer" class="s27" d="m36.6 35.5h2.3v3.5h-2.3z"/>
					<g id="Layer">
						<path id="Layer" class="s29" d="m38.6 35.1c0.4 0.2 0.4 0.7 0 0.9-0.5 0.3-1.2 0.3-1.7 0-0.4-0.2-0.4-0.7 0-0.9 0.5-0.3 1.2-0.3 1.7 0z"/>
					</g>
					<g id="Layer">
						<path id="Layer" class="s13" d="m38.8 35.1c0.6 0.4 0.6 0.9 0 1.2-0.6 0.4-1.5 0.4-2.1 0-0.6-0.3-0.6-0.8 0-1.2 0.6-0.3 1.5-0.3 2.1 0z"/>
					</g>
					<path id="Layer" class="s13" d="m36.3 34.9h2.9v0.9h-2.9z"/>
					<g id="Layer">
						<path id="Layer" class="s30" d="m38.8 34.3c0.6 0.4 0.6 0.9 0 1.3-0.6 0.3-1.5 0.3-2.1 0-0.6-0.4-0.6-0.9 0-1.3 0.6-0.3 1.5-0.3 2.1 0z"/>
					</g>
				</g>
			</g>
			<g id="Layer">
				<g id="Layer">
					<path id="Layer" class="s31" d="m85.8 93.8c4 2.3 4 6.1 0 8.4-4 2.3-10.5 2.3-14.5 0-4.1-2.3-4.1-6.1-0.1-8.4 4-2.4 10.5-2.4 14.6 0z"/>
				</g>
				<path id="Layer" class="s31" d="m63.4 92.7l5.3 7.1h19.6l5.4-7.1z"/>
				<g id="Layer">
					<path id="Layer" class="s32" d="m88.7 88.4c5.7 2.6 5.7 6.8 0.1 9.5-5.6 2.6-14.8 2.6-20.5 0-5.6-2.7-5.7-6.9 0-9.5 5.6-2.6 14.8-2.6 20.4 0z"/>
				</g>
				<g id="Layer">
					<path id="Layer" class="s32" d="m89.3 85c6 3.5 6.1 9.1 0.1 12.6-6 3.4-15.7 3.4-21.7 0-6-3.5-6.1-9.1-0.1-12.6 6-3.5 15.7-3.5 21.7 0z"/>
				</g>
				<g id="Layer">
					<path id="Layer" class="s19" d="m89.3 83.5c6 3.5 6 9.1 0.1 12.6-6 3.4-15.7 3.4-21.7 0-6-3.5-6-9.1 0-12.6 5.9-3.4 15.6-3.4 21.6 0z"/>
				</g>
				<g id="Layer">
					<path id="Layer" class="s31" d="m88.3 84.1c5.4 3.1 5.5 8.2 0.1 11.3-5.4 3.2-14.2 3.2-19.7 0-5.4-3.1-5.4-8.2 0-11.3 5.4-3.2 14.2-3.2 19.6 0z"/>
				</g>
				<path id="Layer" class="s33" d="m77.5 87.9c0 0 4.9-7.2 8.3-7 3.4 0.3 7.2 3.8 7.6 4.8 0.4 1.1-7.8 6.9-10.5 7.4-2.6 0.6-10.4 0.9-9.1-1.8 1.3-2.7 2.6-2 3.7-3.4z"/>
				<path id="Layer" class="s13" d="m73.7 83.4c0 0 0.6-0.7 1.7-1 1-0.3 2-0.4 3.7 0 1.7 0.3 2.4 0.4 3.2 1 0.8 0.6-1.1 3.4-1.9 3.8-0.8 0.4-7.8-1.6-6.7-3.8z"/>
				<path id="Layer" class="s14" d="m68.7 83.4c0 0 3.2-1.6 5.2-0.6 2 1.1 6.5 1.5 7.3 3.6 0.8 2.2 1.6 3.2 1.9 4.9 0.3 1.7-2.3 5-6.3 3.9-3.9-1.1-5.5-2.7-8.1-4.4-2.7-1.6-5-4.6 0-7.4z"/>
				<path id="Layer" class="s22" d="m66.5 91.3c0 0 0.7-2.8 3-2.9 2.3-0.1 4.2-0.4 6.2 0 1.9 0.4 4.7 1 6.2 2.1 1.5 1.2 4.7 2.3 4.8 3 0.1 0.7 1.1 3.8-8.9 3.2-10.1-0.6-11.7-4.5-11.3-5.4z"/>
				<path id="Layer" class="s13" d="m81.2 91.3c0 0 0.1-2.9 2.3-2.7 2.3 0.3 7.5-1.5 7.9-0.6 0.5 1 0.9 6.4-5.1 7.4-6 0.9-5.4-2.8-5.1-4.1z"/>
				<path id="Layer" class="s22" d="m66.5 91.3c0 0 0.7-2.8 3-2.9 2.3-0.1 4.2-0.4 6.2 0 1.9 0.4 4.7 1 6.2 2.1 1.5 1.2 4.7 2.3 4.8 3 0.1 0.7 1.1 3.8-8.9 3.2-10.1-0.6-11.7-4.5-11.3-5.4z"/>
				<path id="Layer" class="s34" d="m77.8 96.7c7.8 0.5 8.9-1.3 9-2.5-6.8 3.3-15 0.3-17.6-1.1-1.9-0.9-2.1-2.4-2-3.3-0.5 0.7-0.7 1.5-0.7 1.5-0.4 0.9 1.2 4.8 11.3 5.4z"/>
			</g>
			<path id="Layer" class="s19" d="m47.7 37.2c0.1 1-4.5 2.6-1.9 4.3 2.6 1.7 0 2.6 6.4 1.7 6.5-0.9 2.3-5.4 10.7-4.8 8.5 0.6 13.8 2.8 14.4-1.7 0.6-4.5-1.3-3.6-6.5-7.4-5.8-4.3-24.6-4.4-23.1 7.9z"/>
			<path id="Layer" class="s19" d="m47.7 37.2c0.1 1-4.5 2.6-1.9 4.3 2.6 1.7 0 2.6 6.4 1.7 6.5-0.9 2.3-5.4 10.7-4.8 8.5 0.6 13.8 2.8 14.4-1.7 0.6-4.5-1.3-3.6-6.5-7.4-5.8-4.3-24.6-4.4-23.1 7.9z"/>
			<path id="Layer" class="s35" d="m45.8 41.5c2.6 1.7 0 2.6 6.4 1.7l-6.7-3.8c-0.6 0.6-0.8 1.4 0.3 2.1z"/>
			<path id="Layer" class="s35" d="m77.3 36.7c0.3-2.3 0-3.2-1.1-4l-10.4 6c6.7 0.7 11 2 11.5-2z"/>
			<path id="Layer" class="s27" d="m53.5 30.2c0 0-4.6 3.6-0.4 4.4 4.2 0.8 2.4 2.4 4.6 3.5 2.3 1.1 3.9 2 5.2 0.9 1.2-1.1-0.7-2.3 3.6-4.5 4.4-2.2 9.9-3.3 8.3-4.3-3.2-2-5.1-1.1-9.2-1.3-4.1-0.3-8.1-2.7-12.1 1.3z"/>
		</g>
	</g>
</svg>