<svg version="1.2" xmlns="http://www.w3.org/2000/svg" viewBox="0 0 118 95" width="118" height="95">
	<title>Layer</title>
	<style>
		.s0 { fill: #5bb0ff } 
		.s1 { fill: #3d93ff } 
		.s2 { fill: #120f1f } 
		.s3 { fill: #32293a } 
		.s4 { fill: #ffaa83 } 
		.s5 { fill: #fe2456 } 
		.s6 { fill: #ff4d75 } 
		.s7 { fill: #f79f7c } 
		.s8 { fill: #994e17 } 
		.s9 { fill: #f77496 } 
		.s10 { fill: #8390cd } 
		.s11 { fill: #c1e8fa } 
		.s12 { fill: #acd9ea } 
		.s13 { fill: #def6ff } 
		.s14 { fill: #abbec5 } 
		.s15 { fill: #feb623 } 
		.s16 { fill: #e29813 } 
	</style>
	<g id="Layer">
		<g id="-e-step_2">
			<g id="Layer">
				<path id="Layer" class="s0" d="m21.7 68.6c0 0-0.9 1.9 0.4 2.5 1.4 0.6 1.4-0.3 4 1.8 2.5 2.1 4.8 1.2 5.2 0.8 0.2-0.3 0.3-2.4-5.4-5.3z"/>
				<path id="Layer" class="s1" d="m22.1 71.1c1.4 0.6 1.4-0.3 4 1.8 2.5 2.1 4.8 1.2 5.2 0.8q0-0.1 0.1-0.3c-2.4 0.9-3.7-0.3-4.8-1.1-1-0.9-1.9-1.2-3.6-1.5-1.6-0.4-1-1.7-1-1.7q-0.2-0.1-0.5-0.1c-0.1 0.6-0.4 1.7 0.6 2.1z"/>
				<path id="Layer" class="s0" d="m34.3 65c0 0-0.8 2 0.6 2.4 1.4 0.5 1.3-0.4 4 1.5 2.7 1.9 5 0.8 5.3 0.4 0.3-0.4 0.1-2.4-5.8-4.9z"/>
				<path id="Layer" class="s1" d="m34.9 67.4c1.4 0.5 1.3-0.4 4.1 1.5 2.7 1.9 4.9 0.8 5.2 0.4q0.1-0.1 0.1-0.3c-2.3 1-3.7-0.1-4.8-0.8-1.2-0.7-2.1-1-3.7-1.2-1.7-0.2-1.2-1.5-1.2-1.5q-0.2-0.1-0.5-0.1c-0.1 0.5-0.2 1.7 0.8 2z"/>
				<path id="Layer" class="s2" d="m38.9 25.7c0 0 0.9 14.1 0.8 19.3-0.2 5.1 0.6 14.9-0.2 19.7-0.3 1.5-6.2 2-6.5 0.3-0.9-4.7-0.1-15.7-0.1-15.7l-2.7-19.9c0 0 5.6 0.2 8.7-3.7z"/>
				<path id="Layer" class="s3" d="m35.9 30.7c0 0-3 15.1-4.2 20.1-1.2 4.9-1.8 13.3-3.9 18.5-0.5 1.5-6.5 0.9-6.6-0.6-0.2-4.4 3.7-16.6 3.7-16.6l0.7-18.7c0 0 6.5 0.4 10.3-2.7z"/>
				<path id="Layer" class="s4" d="m51.5 28.9c0 0 4.3 1 5.3-1.5 0.1-0.3-0.1-0.4-1.2-0.3-0.7 0.1-1.2 0.4-1.5 0-0.5-0.5 1-1.4 0.7-1.7-0.3-0.3-3.1 0.9-3.1 0.9l-0.8 0.2-0.6 2.3z"/>
				<path id="Layer" class="s5" d="m39 13.2c0 0 1.8-1.6 2.9 0.4 1.1 2 1.8 10.4 2.5 11.2 0.3 0.4 7.1 1.3 7.1 1.3 0 0-1.1 0.9-0.2 3 0 0-9.3 1.3-10.4-0.8-1.9-3.6-3.7-12.2-1.9-15.1z"/>
				<path id="Layer" class="s6" d="m30.5 14.4c0.3-0.1 9.9-2.8 10.8-1.7 0.8 1.1 2.4 5.6 0.2 11.2-1.5 4-2.1 10.5-2.1 10.5 0 0-10 4.3-14-1.1 0 0 0 0 1.2-3 3.1-8.3-0.3-14.2 3.9-15.9z"/>
				<g id="Layer">
					<path id="Layer" class="s7" d="m39.4 11.7c0 0-1.1 2.2-0.9 3.5 0.2 1.4-1.7 1.3-2.5 0.8-0.8-0.5-2.1-1.5-1.7-2.2 0.4-0.8 1.8-3.1 1.5-4.2-0.3-1 3.6 2.1 3.6 2.1z"/>
					<path id="Layer" class="s4" d="m36.7 3c0 0-2.6 1-2.5 3.9 0 1.6 1 3.9 1.9 4.9 0.8 1.1 3.6 3.8 5.1 2.2 1.5-1.5 3-6.7 1.4-9.6-1.7-2.9-5.9-1.4-5.9-1.4z"/>
					<path id="Layer" class="s8" d="m42.8 5.7c0 0-3.1 1-5.4 0.4-2.2-0.5-1.4 0.6-1.3 1 0.1 0.3 0.2 2.2-0.4 1.3-0.3-0.4-0.8-1.3-1.2-0.7-0.3 0.6 0.9 2.5 0.9 3-0.1 0.4-3.2-3.8-2.3-6.7 0.8-2.9 3.3-4.2 7.1-2.5 3.2 1.3 4.3 2.7 4.3 2.7 0 0-0.6 0.8-1.7 1.5z"/>
				</g>
				<path id="Layer" class="s4" d="m53.5 25.6c0 0 2.3-0.6 1.7-0.1-0.6 0.5-1.7 1.4-2.2 1.3-0.6-0.2 0.5-1.2 0.5-1.2z"/>
				<path id="Layer" class="s4" d="m35.2 34.2c0 0 3.6 2.7 5.4 0.9 0.3-0.3 0.2-0.5-0.9-0.9-0.7-0.2-1.2-0.1-1.4-0.6-0.2-0.6 1-0.7 0.8-1.1-0.1-0.5-2.6-0.6-2.6-0.6l-0.8-0.2-1.5 1.9z"/>
				<path id="Layer" class="s9" d="m30.3 14.4c0.6-0.3 2.3-0.3 2.4 1.9 0.2 2.3-2.6 10.2-2.2 11.2 0.1 0.5 5.9 4.2 5.9 4.2 0 0-1.4 0.3-1.4 2.7 0 0-9-2.7-9.1-5.1-0.3-4.1 1.3-13.4 4.4-14.9z"/>
			</g>
			<g id="Layer">
				<path id="Layer" class="s10" d="m0.1 78.4l27.7 16.1 89.9-51.9-27.7-16z"/>
			</g>
			<g id="Layer">
				<g id="Layer">
					<g id="Layer">
						<path id="Layer" class="s11" d="m76.2 19.6l0.1 24.6 15.1 8.8-0.1-24.7z"/>
					</g>
					<g id="Layer">
						<path id="Layer" class="s12" d="m91.3 28.3l0.1 24.7 15.2-8.8-0.1-24.6z"/>
					</g>
					<g id="Layer">
						<path id="Layer" class="s13" d="m76.2 19.6l15.1 8.7 15.2-8.7-15.1-8.8z"/>
					</g>
				</g>
			</g>
			<g id="Layer">
				<g id="Layer">
					<g id="Layer">
						<path id="Layer" class="s14" d="m25.9 62.3v2.5l14.8 8.6v-2.5z"/>
					</g>
					<g id="Layer">
						<path id="Layer" class="s11" d="m40.7 70.9v2.5l50.6-29.3v-2.4z"/>
					</g>
					<g id="Layer">
						<path id="Layer" class="s13" d="m25.9 62.3l14.8 8.6 50.6-29.2-14.8-8.7z"/>
					</g>
				</g>
			</g>
			<g id="Layer">
				<g id="Layer">
					<g id="Layer">
						<path id="Layer" class="s14" d="m25.9 56.2v2.5l14.8 8.6v-2.5z"/>
					</g>
					<g id="Layer">
						<path id="Layer" class="s11" d="m40.7 64.8v2.5l50.6-29.2v-2.5z"/>
					</g>
					<g id="Layer">
						<path id="Layer" class="s13" d="m25.9 56.2l14.8 8.6 50.6-29.2-14.8-8.6z"/>
					</g>
				</g>
			</g>
			<g id="Layer">
				<g id="Layer">
					<path id="Layer" class="s6" d="m96.3 28.6v8.5l5.3-3-0.1-8.5z"/>
				</g>
			</g>
			<g id="Layer">
				<g id="Layer">
					<path id="Layer" class="s6" d="m96.3 39.6v8.5l5.3-3-0.1-8.5z"/>
				</g>
			</g>
			<path id="Layer" class="s15" d="m44 65.4c0 0 4.1 2.4 3.8 10.5-0.2 5.4 1.3 8.3 4.8 10.6l41.4-25.1c0 0-6.5-4.4-5-12.1 1.3-7.1 0.5-6.7-2-8.7z"/>
			<path id="Layer" class="s16" d="m52.6 86.5l41.4-25.1c0 0-4.6-3.2-5.2-8.8l-41 23.7c-0.1 5.2 1.4 8 4.8 10.2z"/>
			<path id="Layer" class="s15" d="m74.2 28.3c0 0-6.4-2-9.4-7.6l-40.9 23.2 9.2 8.9z"/>
			<g id="Layer">
				<g id="Layer">
					<g id="Layer">
						<path id="Layer" class="s11" d="m13.7 55.9v24.7l15.1 8.8-0.1-24.7z"/>
					</g>
					<g id="Layer">
						<path id="Layer" class="s12" d="m28.7 64.7l0.1 24.7 15.2-8.8-0.1-24.7z"/>
					</g>
					<g id="Layer">
						<g id="Layer">
							<path id="Layer" class="s6" d="m33.7 65.6l0.1 8.5 5.2-3v-8.5z"/>
						</g>
					</g>
					<g id="Layer">
						<g id="Layer">
							<path id="Layer" class="s6" d="m33.7 76.6l0.1 8.5 5.2-3v-8.5z"/>
						</g>
					</g>
					<g id="Layer">
						<path id="Layer" class="s13" d="m13.7 55.9l15 8.8 15.2-8.8-15.1-8.7z"/>
					</g>
				</g>
			</g>
		</g>
	</g>
</svg>