<svg version="1.2" xmlns="http://www.w3.org/2000/svg" viewBox="0 0 131 95" width="131" height="95">
	<title>Layer</title>
	<style>
		.s0 { fill: #8390cd } 
		.s1 { fill: #c1e8fa } 
		.s2 { fill: #bfd4db } 
		.s3 { fill: #acd9ea } 
		.s4 { fill: #def6ff } 
		.s5 { fill: #615a8e } 
		.s6 { fill: #484475 } 
		.s7 { fill: #120f1f } 
		.s8 { fill: #32293a } 
		.s9 { fill: #ffaa83 } 
		.s10 { fill: #f29c79 } 
		.s11 { fill: #e29813 } 
		.s12 { fill: #feb623 } 
		.s13 { fill: #f79f7c } 
		.s14 { fill: #723e24 } 
		.s15 { fill: #ff4d75 } 
		.s16 { fill: #c47f10 } 
		.s17 { fill: #ff83a4 } 
		.s18 { fill: #ff5138 } 
		.s19 { fill: #feb624 } 
		.s20 { fill: #1d96cb } 
		.s21 { fill: #1884aa } 
		.s22 { fill: #ffc255 } 
	</style>
	<g id="Layer">
		<g id="-e-step_3">
			<g id="Layer">
				<g id="Layer">
					<path id="Layer" class="s0" d="m130.6 76.7l-30.6 17.8-99.6-57.4 30.6-17.8z"/>
				</g>
				<g id="Layer">
					<g id="Layer">
						<g id="Layer">
							<path id="Layer" class="s1" d="m16.1 41l-2.7-1.6v-16.4l2.7 1.6z"/>
						</g>
						<g id="Layer">
							<path id="Layer" class="s2" d="m16.1 24.6l-2.7-1.6 17.9-10.4 2.7 1.6z"/>
						</g>
						<g id="Layer">
							<path id="Layer" class="s3" d="m34 14.2l0.1 16.4-18 10.4v-16.4z"/>
						</g>
					</g>
				</g>
				<g id="Layer">
					<g id="Layer">
						<g id="Layer">
							<path id="Layer" class="s1" d="m103.2 90.1l-2.6-1.4v-15.5l2.5 1.5z"/>
						</g>
						<g id="Layer">
							<path id="Layer" class="s2" d="m103.1 74.7l-2.5-1.5 16.8-9.7 2.6 1.5z"/>
						</g>
						<g id="Layer">
							<path id="Layer" class="s3" d="m120 65v15.4l-16.8 9.7-0.1-15.4z"/>
						</g>
					</g>
				</g>
				<g id="Layer">
					<g id="Layer">
						<g id="Layer">
							<path id="Layer" class="s3" d="m120 62.7v3.7l-16.8 9.8v-3.7z"/>
						</g>
						<g id="Layer">
							<path id="Layer" class="s1" d="m103.2 72.5v3.7l-89.8-51.9v-3.7z"/>
						</g>
						<g id="Layer">
							<path id="Layer" class="s4" d="m120 62.7l-16.8 9.8-89.8-51.9 16.8-9.8z"/>
						</g>
					</g>
				</g>
			</g>
			<g id="Layer">
				<path id="Layer" class="s0" d="m35.4 62.8c-6.4 3.8-6.5 9.8-0.1 13.5 6.4 3.8 16.9 3.7 23.3 0 6.5-3.7 6.5-9.7 0.1-13.5-6.4-3.7-16.8-3.7-23.3 0z"/>
			</g>
			<g id="Layer">
				<path id="Layer" class="s5" d="m55.9 69.8c0 0 1 2-0.5 2.6-1.4 0.7-1.4-0.3-4.2 1.9-2.7 2.3-5.2 1.3-5.6 0.9-0.3-0.4-0.3-2.6 5.8-5.7z"/>
				<path id="Layer" class="s6" d="m55.4 72.4c-1.4 0.7-1.4-0.3-4.2 1.9-2.7 2.3-5.2 1.3-5.6 0.9q-0.1-0.1-0.1-0.3c2.6 0.9 4-0.4 5.1-1.2 1.1-0.9 2.1-1.3 3.9-1.7 1.7-0.3 1.1-1.7 1.1-1.7q0.2-0.1 0.5-0.2c0.2 0.7 0.4 1.9-0.7 2.3z"/>
				<path id="Layer" class="s5" d="m47.3 63.7c0 0 1 2-0.5 2.6-1.4 0.7-1.4-0.3-4.2 1.9-2.7 2.3-5.2 1.3-5.6 0.9-0.3-0.3-0.3-2.6 5.8-5.7z"/>
				<path id="Layer" class="s6" d="m46.8 66.3c-1.4 0.7-1.4-0.3-4.2 1.9-2.7 2.3-5.2 1.3-5.6 0.9q-0.1-0.1-0.1-0.3c2.6 0.9 4-0.4 5.1-1.2 1.2-0.9 2.1-1.3 3.9-1.6 1.7-0.4 1.1-1.8 1.1-1.8q0.2-0.1 0.5-0.1c0.2 0.6 0.4 1.8-0.7 2.2z"/>
				<g id="Layer">
					<path id="Layer" class="s7" d="m60.3 36.9c0 0-3.3-0.3-4.9-2 0 0-11.5 8.2-12.4 10.7-0.9 2.3-1.6 12.7-1.3 18.2 0.1 1.6 5.7 3.1 6.3 0.5 0.9-4.3 1.1-15.6 1.1-15.6 0 0 13.3-4.7 11.2-11.8z"/>
					<path id="Layer" class="s8" d="m69.4 36.2c0 0 2.2 5.5-1.9 8.6-4 3.2-11.2 7.5-11.2 7.5 0 0 0.4 3.8 0.3 10.2-0.2 5.9 0 5.4-0.3 7.8-0.1 1.5-5.4 1.8-6-0.4-1.4-5.2-1.4-18-0.2-20.5 1.1-2.4 9.7-9 9.7-9l-1.3-3.8c0 0 6.9 1.8 10.9-0.4z"/>
				</g>
				<g id="Layer">
					<path id="Layer" class="s9" d="m44.4 26.7c0 0-0.6-0.4-2-0.5-1.4-0.1-1.7 0.3-2.5 0.6-0.7 0.4-1.3 0.7-1.1 1.1 0.2 0.4 2 0.9 3.1 0.6 0.6-0.2 2.3 0.6 2.7 0.6 0.4 0 0.2-2.2-0.2-2.4z"/>
					<path id="Layer" class="s10" d="m44.6 29.1c-0.4 0-2.1-0.8-2.7-0.6-0.8 0.3-1.9 0-2.6-0.2q0-0.1 0-0.1c0.2-0.2 0.7-0.1 1.1-0.2 0.4-0.1 1.5-0.1 2.2-0.3 0.7-0.2 2.1 0.6 2.1 0.6h0.1c0 0.5 0 0.8-0.2 0.8z"/>
					<path id="Layer" class="s11" d="m59.7 12.9c0 0-1.7-2.1-3.7 1.2-1.3 2-3.2 10.8-4.1 11.5-0.4 0.4-7.8 0.6-7.8 0.6 0 0 1.1 1-0.2 3.2 0 0 9.9 2.5 11.3 0.4 2.5-3.5 6.1-13.6 4.5-16.9z"/>
				</g>
				<path id="Layer" class="s12" d="m69.6 16.6c-0.3-0.2-9.5-5.4-10.7-4.5-1.2 0.9-3.9 5.2-3.1 11.5 0.6 4.5-0.4 11.3-0.4 11.3 0 0 5.7 6.2 14.6 4.3 0 0 0.3-0.4-0.4-5.3-1.4-9.2 3.9-14.6 0-17.3z"/>
				<g id="Layer">
					<path id="Layer" class="s13" d="m61.1 11c0 0 0.6 2.5 0 3.9-0.5 1.3 1.5 1.7 2.4 1.4 1-0.3 2.5-1 2.3-1.9-0.2-0.8-1-3.6-0.5-4.6 0.6-1-4.2 1.2-4.2 1.2z"/>
					<path id="Layer" class="s9" d="m66 3.2c0 0 2.5 1.7 1.7 4.7-0.4 1.7-2.1 3.7-3.2 4.6-1.1 0.9-3.7 3.1-4.8 1.1-1.2-2.1-2.5-7.8 0-10.4 2.5-2.6 6.3 0 6.3 0z"/>
					<path id="Layer" class="s14" d="m59.8 3.7c0 0 2.2 2.6 4.7 2.6 2.5 0.1 1.4 0.9 1.1 1.3-0.2 0.3-0.7 2.3 0.2 1.4 0.3-0.3 1.1-1 1.3-0.4 0.3 0.7-1.6 2.4-1.6 3-0.1 0.4 4.2-3.2 4-6.4-0.1-3.2-2.4-5.7-6.8-5-3.6 0.5-4.1 1.3-4.1 1.3 0 0 0.2 1.2 1.2 2.2z"/>
				</g>
				<g id="Layer">
					<g id="Layer">
						<path id="Layer" class="s15" d="m48.5 36.9c-3.4 1.9-3.4 5.1 0 7 3.3 2 8.7 2 12.1 0 3.4-1.9 3.4-5.1 0.1-7-3.4-2-8.8-2-12.2 0z"/>
					</g>
					<path id="Layer" class="s15" d="m67.2 36l-4.5 5.9h-16.3l-4.5-5.9z"/>
					<g id="Layer">
						<path id="Layer" class="s16" d="m46 32.4c-4.7 2.2-4.7 5.7 0 7.9 4.7 2.2 12.3 2.2 17 0 4.8-2.2 4.8-5.7 0.1-7.9-4.7-2.2-12.3-2.2-17.1 0z"/>
					</g>
					<g id="Layer">
						<g id="Layer">
							<path id="Layer" class="s17" d="m45.5 29.5c-5 2.9-5 7.6 0 10.5 4.9 2.9 13.1 2.9 18.1 0 5-2.9 5-7.6 0.1-10.5-5-2.9-13.2-2.9-18.2 0z"/>
						</g>
					</g>
					<g id="Layer">
						<path id="Layer" class="s15" d="m45.6 28.3c-5 2.9-5.1 7.6-0.1 10.5 5 2.9 13.1 2.9 18.1 0 5-2.9 5-7.6 0-10.5-5-2.9-13-2.9-18 0z"/>
					</g>
					<g id="Layer">
						<path id="Layer" class="s17" d="m46.4 28.7c-4.6 2.7-4.6 6.9-0.1 9.5 4.5 2.7 11.9 2.7 16.4 0 4.6-2.6 4.6-6.8 0.1-9.5-4.5-2.6-11.9-2.6-16.4 0z"/>
					</g>
					<path id="Layer" class="s18" d="m55.4 31.9c0 0-4.1-6-7-5.7-2.8 0.2-6 3.1-6.3 4-0.3 0.9 6.6 5.7 8.8 6.1 2.2 0.5 8.6 0.7 7.6-1.5-1.1-2.3-2.2-1.6-3.1-2.9z"/>
					<path id="Layer" class="s8" d="m58.6 28.2c0 0-0.5-0.6-1.4-0.8-0.9-0.3-1.7-0.3-3.1 0-1.4 0.2-2 0.3-2.7 0.8-0.7 0.5 0.9 2.8 1.6 3.2 0.7 0.3 6.5-1.3 5.6-3.2z"/>
					<path id="Layer" class="s19" d="m62.8 28.2c0 0-2.7-1.4-4.4-0.5-1.7 0.9-5.4 1.2-6.1 3-0.7 1.8-1.4 2.6-1.6 4.1-0.2 1.4 2 4.1 5.3 3.3 3.3-0.9 4.5-2.3 6.8-3.7 2.2-1.3 4.1-3.9 0-6.2z"/>
					<path id="Layer" class="s20" d="m64.6 34.8c0 0-0.6-2.3-2.5-2.4-2-0.1-3.6-0.3-5.2 0-1.6 0.3-3.9 0.8-5.2 1.8-1.3 0.9-3.9 1.9-4 2.4-0.1 0.6-0.9 3.3 7.5 2.7 8.4-0.5 9.7-3.7 9.4-4.5z"/>
					<path id="Layer" class="s8" d="m52.3 34.8c0 0-0.1-2.4-1.9-2.2-1.9 0.2-6.3-1.3-6.6-0.5-0.4 0.7-0.8 5.3 4.2 6.1 5.1 0.8 4.6-2.3 4.3-3.4z"/>
					<path id="Layer" class="s20" d="m64.6 34.8c0 0-0.6-2.3-2.5-2.4-2-0.1-3.6-0.3-5.2 0-1.6 0.3-3.9 0.8-5.2 1.8-1.3 0.9-3.9 1.9-4 2.4-0.1 0.6-0.9 3.3 7.5 2.7 8.4-0.5 9.7-3.7 9.4-4.5z"/>
					<path id="Layer" class="s21" d="m55.2 39.3c-6.6 0.4-7.5-1.1-7.6-2 5.7 2.6 12.6 0.2 14.8-1 1.5-0.8 1.7-2 1.6-2.7 0.4 0.6 0.6 1.2 0.6 1.2 0.3 0.8-1 4-9.4 4.5z"/>
				</g>
				<g id="Layer">
					<path id="Layer" class="s9" d="m66.2 36.4c0 0-0.7 0.1-1.8 0.9-1.1 0.8-1.2 1.3-1.6 2-0.3 0.8-0.6 1.4-0.2 1.6 0.4 0.2 2.2-0.5 2.8-1.4 0.4-0.6 2.2-1 2.5-1.3 0.3-0.3-1.2-1.9-1.7-1.8z"/>
					<path id="Layer" class="s10" d="m67.9 38.2c-0.3 0.3-2.1 0.7-2.5 1.3-0.4 0.6-1.5 1.2-2.2 1.4q0-0.1 0-0.1c0-0.3 0.5-0.6 0.7-0.9 0.2-0.3 1.1-1 1.6-1.6 0.4-0.5 2-0.8 2-0.8h0.1c0.3 0.3 0.4 0.6 0.3 0.7z"/>
					<path id="Layer" class="s22" d="m70 16.9c-0.8-0.2-2.7-0.2-2.6 2.3 0.2 2.4 4.3 10.6 4.1 11.7-0.1 0.6-5.8 5.3-5.8 5.3 0 0 1.5 0.1 1.9 2.7 0 0 9.2-4.2 9.1-6.8-0.3-4.4-3.1-14.2-6.7-15.2z"/>
				</g>
			</g>
		</g>
	</g>
</svg>