<svg version="1.2" xmlns="http://www.w3.org/2000/svg" viewBox="0 0 70 90" width="70" height="90">
	<title>Layer</title>
	<style>
		.s0 { fill: #8390cd } 
		.s1 { fill: #c1e8fa } 
		.s2 { fill: #acd9ea } 
		.s3 { fill: #82c2de } 
		.s4 { fill: #def6ff } 
		.s5 { fill: #60acc6 } 
		.s6 { fill: #1d374e } 
		.s7 { fill: #c5ced7 } 
		.s8 { fill: #e1eaf3 } 
		.s9 { fill: #615a8e } 
		.s10 { fill: #484475 } 
		.s11 { fill: #120f1f } 
		.s12 { fill: #32293a } 
		.s13 { fill: #ffaa83 } 
		.s14 { fill: #f29c79 } 
		.s15 { fill: #e03b66 } 
		.s16 { fill: #f74c72 } 
		.s17 { fill: #633521 } 
		.s18 { fill: #f79f7c } 
		.s19 { fill: #723e24 } 
		.s20 { fill: #e29813 } 
		.s21 { fill: #c47f10 } 
		.s22 { fill: #feb623 } 
		.s23 { fill: #dcf3eb } 
		.s24 { fill: #ff5138 } 
		.s25 { fill: #1d96cb } 
		.s26 { fill: #1884aa } 
		.s27 { fill: #f7668b } 
		.s28 { fill: #3998d8 } 
		.s29 { fill: #bcbcb1 } 
		.s30 { fill: #ffffff } 
		.s31 { fill: #cecfc2 } 
		.s32 { fill: #fefefe } 
		.s33 { fill: #a0a095 } 
		.s34 { fill: #656f72 } 
		.s35 { fill: #41b1d8 } 
		.s36 { fill: #7cddf7 } 
		.s37 { fill: #feb624 } 
		.s38 { fill: #b3bf19 } 
		.s39 { fill: #edf4f8 } 
		.s40 { fill: #ffca6c } 
	</style>
	<g id="Layer">
		<g id="-e-step_10">
			<g id="Layer">
				<g id="Layer">
					<path id="Layer" class="s0" d="m7.4 74.6l26.3 15.3 30.4-17.6-26.2-15.2z"/>
				</g>
				<g id="Layer">
					<path id="Layer" class="s1" d="m11.3 38.2l0.1 36.2 22.1 12.9-0.1-36.3z"/>
				</g>
				<g id="Layer">
					<g id="Layer">
						<path id="Layer" class="s2" d="m33.4 51l0.1 36.3 25.7-14.8-0.1-36.3z"/>
					</g>
				</g>
				<g id="Layer">
					<g id="Layer">
						<path id="Layer" class="s3" d="m33.4 51v5l25.7-14.9v-4.9z"/>
					</g>
				</g>
				<g id="Layer">
					<path id="Layer" class="s4" d="m11.3 38.2l22.1 12.8 25.7-14.8-22.1-12.9z"/>
				</g>
				<path id="Layer" class="s4" d="m39.8 66.9q0-0.2 0.1-0.4 0-0.1 0-0.1 0-0.2 0-0.4 0 0 0-0.1 0-0.1 0.1-0.3 0-0.1 0-0.3 0-0.1 0-0.2 0.1-0.2 0.1-0.4 0-0.1 0.1-0.2 0-0.1 0-0.2 0.1-0.2 0.1-0.3 0-0.1 0-0.2 0.1-0.1 0.1-0.2 0.1-0.4 0.2-0.8 0 0 0 0 0.2-0.4 0.3-0.7 0-0.1 0.1-0.2 0.1-0.3 0.2-0.6 0 0 0-0.1 0.2-0.3 0.3-0.6 0.1-0.1 0.1-0.2 0.1-0.3 0.3-0.5 0-0.1 0.1-0.2 0.1-0.3 0.3-0.6 0.1-0.1 0.1-0.1 0.2-0.3 0.3-0.6 0.1 0 0.1-0.1 0.2-0.3 0.4-0.7 0.1 0 0.1-0.1 0.2-0.3 0.5-0.6 0 0 0.1-0.1 0-0.1 0.1-0.2 0.1-0.1 0.2-0.2 0.1-0.1 0.2-0.2 0.1-0.1 0.2-0.2 0.1-0.2 0.3-0.5 0.1 0 0.1 0 0.2-0.2 0.4-0.4 0.1-0.2 0.3-0.3 0 0 0.1-0.1 0.1-0.2 0.3-0.3 0.1-0.1 0.1-0.1 0.2-0.1 0.3-0.2 0.1-0.1 0.2-0.2 0.1-0.1 0.2-0.2 0.1 0 0.2-0.1 0.1-0.1 0.2-0.1 0.1-0.1 0.2-0.2 0.1 0 0.2-0.1 0.1-0.1 0.2-0.1 0.2-0.1 0.4-0.3 0.2-0.1 0.4-0.2 0 0 0.1 0 0.1-0.1 0.3-0.2 0 0 0.1 0 0.1-0.1 0.3-0.2 0.2 0 0.4-0.1 0 0 0.1 0 0.2-0.1 0.4-0.2 0.2 0 0.3-0.1 0.1 0 0.1 0 0.2 0 0.4-0.1 0 0 0 0 0.2 0 0.4 0 0 0 0.1 0 0.1 0 0.2 0 0.1 0 0.1 0 0.2 0 0.3 0 0 0 0.1 0 0.1 0 0.3 0 0 0 0 0 0.1 0 0.3 0.1 0.2 0 0.4 0.1 0 0 0 0 0.2 0 0.4 0.1 0 0 0.1 0 0.1 0.1 0.3 0.2 0 0 0.1 0-0.8-0.4-1.6-0.9 0 0 0 0-0.1 0-0.1 0-0.1-0.1-0.3-0.2 0 0-0.1 0 0 0 0 0-0.2-0.1-0.4-0.2 0 0 0 0 0 0 0 0 0 0 0 0-0.2 0-0.3 0-0.1-0.1-0.1-0.1 0 0-0.1 0-0.1 0-0.2 0 0 0 0 0-0.2 0-0.3 0 0 0 0 0-0.1 0-0.1 0-0.1 0-0.3 0 0 0-0.1 0 0 0-0.1 0 0 0-0.1 0-0.1 0-0.1 0-0.2 0-0.4 0 0 0 0 0-0.2 0-0.4 0.1 0 0-0.1 0-0.1 0-0.2 0.1 0 0-0.1 0-0.2 0-0.4 0.1-0.1 0-0.1 0.1-0.2 0-0.4 0.1 0 0 0 0-0.2 0.1-0.3 0.2-0.1 0-0.1 0-0.2 0.1-0.3 0.1-0.1 0.1-0.1 0.1-0.2 0.1-0.4 0.2-0.2 0.1-0.4 0.3-0.1 0-0.2 0-0.1 0.1-0.2 0.2-0.1 0.1-0.2 0.1-0.1 0.1-0.2 0.2-0.1 0.1-0.2 0.1-0.1 0.1-0.2 0.2-0.1 0.1-0.2 0.1-0.1 0.1-0.2 0.3-0.1 0-0.2 0.1-0.1 0.1-0.3 0.3-0.1 0-0.1 0.1-0.1 0.1-0.3 0.2 0 0 0 0-0.2 0.3-0.4 0.5 0 0 0 0-0.2 0.2-0.4 0.4-0.1 0.1-0.1 0.1-0.1 0.1-0.1 0.2-0.1 0.1-0.2 0.2-0.1 0.1-0.2 0.2-0.1 0.1-0.1 0.2-0.1 0-0.1 0 0 0.1 0 0.1-0.2 0.3-0.5 0.6 0 0.1 0 0.1 0 0 0 0-0.3 0.3-0.5 0.7 0 0 0 0 0 0.1-0.1 0.1-0.1 0.3-0.3 0.6 0 0-0.1 0 0 0.1 0 0.1-0.2 0.3-0.3 0.6 0 0-0.1 0.1 0 0 0 0.1-0.1 0.2-0.3 0.5 0 0 0 0.1 0 0-0.1 0-0.1 0.4-0.2 0.7 0 0-0.1 0 0 0 0 0.1-0.1 0.3-0.2 0.6 0 0-0.1 0.1 0 0 0 0.1-0.1 0.3-0.2 0.7-0.1 0-0.1 0 0 0 0 0-0.1 0.4-0.2 0.7 0 0.1 0 0.1 0 0.1 0 0.1-0.1 0.1-0.1 0.2 0 0.2-0.1 0.3 0 0.1 0 0.2 0 0.1-0.1 0.2 0 0.1 0 0.1 0 0.2 0 0.3-0.1 0.2-0.1 0.3 0 0.1 0 0.3 0 0.1-0.1 0.2 0 0 0 0 0 0.1 0 0.2 0 0.2 0 0.3 0 0.1 0 0.2 0 0.2-0.1 0.3 0 0.1 0 0.2 0 0.2 0 0.4c0 2.7 1 4.6 2.5 5.5q0.8 0.4 1.6 0.9c-1.5-0.9-2.5-2.8-2.5-5.4q0-0.3 0-0.5 0-0.1 0-0.1z"/>
				<g id="Layer">
					<path id="Layer" class="s1" d="m48.3 52.8c4.6-2.7 8.5-0.5 8.5 4.9 0 5.4-3.8 11.9-8.5 14.6-4.7 2.7-8.5 0.5-8.5-4.8 0-5.4 3.8-12 8.5-14.7z"/>
				</g>
				<g id="Layer">
					<path id="Layer" class="s4" d="m48.3 55.3c3.5-2.1 6.4-0.4 6.5 3.7 0 4.1-2.9 9.1-6.5 11.1-3.6 2.1-6.5 0.4-6.5-3.7 0-4.1 2.9-9.1 6.5-11.1z"/>
				</g>
				<path id="Layer" class="s3" d="m48.3 55.3c-3.6 2-6.5 7-6.5 11.1 0 1.7 0.5 2.9 1.3 3.7 1 0.1 2.1-0.1 3.3-0.8 3.6-2.1 6.5-7.1 6.5-11.2 0-1.7-0.5-2.9-1.3-3.7-1-0.1-2.1 0.2-3.3 0.9z"/>
				<path id="Layer" class="s5" d="m41.8 66.4q0 1.1 0.3 1.9 0.8-0.2 1.7-0.7c3.6-2 6.4-7 6.4-11.1q0-1.1-0.2-1.9-0.8 0.2-1.7 0.7c-3.6 2-6.5 7-6.5 11.1z"/>
				<g id="Layer">
					<path id="Layer" class="s1" d="m35.1 50.9v3.6l6.7-3.7v-3.8z"/>
				</g>
				<g id="Layer">
					<path id="Layer" class="s4" d="m42.9 46.6v1.3l6.7-3.8v-1.4z"/>
				</g>
				<g id="Layer">
					<path id="Layer" class="s6" d="m44.7 45.5v1.4l3.4-1.9v-1.5z"/>
				</g>
				<g id="Layer">
					<path id="Layer" class="s4" d="m52.9 42.6q0-0.2 0-0.3 0 0 0 0 0.1-0.1 0.1-0.2 0 0 0 0 0.1-0.1 0.1-0.3 0 0 0 0 0.1-0.1 0.2-0.2 0 0 0 0 0.1-0.1 0.1-0.2 0.1 0 0.1 0 0-0.1 0.1-0.1 0-0.1 0.1-0.1 0.1-0.1 0.2-0.1 0-0.1 0.1-0.1 0.1 0 0.1 0 0.1 0 0.1 0 0 0 0.1 0 0 0 0.1 0 0 0 0 0 0.1 0 0.2 0 0 0 0 0l-0.4-0.2-0.2-0.1q0 0 0 0 0 0 0 0-0.1 0-0.1 0 0-0.1 0-0.1 0 0 0 0-0.1 0-0.1 0 0 0 0 0-0.1 0-0.1 0 0 0 0 0 0 0 0 0 0 0-0.1 0 0 0-0.1 0.1 0 0 0 0 0 0 0 0 0 0-0.1 0 0 0-0.1 0.1-0.1 0-0.2 0.1 0 0-0.1 0.1 0 0 0 0-0.1 0-0.1 0.1 0 0 0 0 0 0-0.1 0 0 0.1 0 0.1-0.1 0.1-0.1 0.1 0 0 0 0 0 0 0 0 0 0.1-0.1 0.1 0 0.1 0 0.1 0 0 0 0 0 0 0 0 0 0.1-0.1 0.1 0 0 0 0.1 0 0 0 0.1 0 0 0 0 0 0 0 0-0.1 0-0.1 0.1 0 0 0 0 0 0.1 0 0.1 0 0 0 0 0 0 0 0.1-0.1 0-0.1 0.1 0 0 0 0 0 0.1 0 0.1 0 0 0 0 0 0.1 0 0.2 0 0.5 0.3 0.6l0.5 0.4q-0.2-0.2-0.3-0.7 0.1-0.1 0.1-0.2 0 0 0 0z"/>
					<g id="Layer">
						<path id="Layer" class="s1" d="m53.9 41.1c0.5-0.3 1-0.1 1 0.6 0 0.6-0.5 1.4-1 1.7-0.6 0.3-1 0.1-1-0.6 0-0.6 0.4-1.4 1-1.7z"/>
					</g>
				</g>
				<g id="Layer">
					<path id="Layer" class="s4" d="m56 40.9q0-0.1 0.1-0.2 0 0 0 0 0-0.2 0.1-0.3 0-0.1 0.1-0.2 0 0 0 0 0.1-0.1 0.1-0.2 0 0 0 0 0.1-0.1 0.2-0.2 0 0 0-0.1 0.1 0 0.1-0.1 0.1 0 0.1 0 0.1-0.1 0.2-0.2 0.1 0 0.2 0 0-0.1 0-0.1 0.1 0 0.2 0 0 0 0 0 0.1 0 0.2 0 0 0 0 0 0 0 0.1 0.1 0 0 0 0l-0.3-0.2-0.3-0.2q0 0 0 0 0 0 0 0 0 0-0.1 0 0 0 0 0 0 0 0 0 0 0 0 0 0 0-0.1 0 0 0 0 0-0.1 0-0.1 0 0 0 0 0 0 0 0 0-0.1 0-0.1 0 0 0 0 0-0.1 0-0.1 0 0 0 0 0-0.1 0.1-0.2 0.1-0.1 0.1-0.2 0.1 0 0.1 0 0.1-0.1 0-0.1 0.1 0 0 0 0-0.1 0-0.1 0 0 0.1 0 0.1 0 0-0.1 0.1 0 0 0 0 0 0 0 0 0 0.1-0.1 0.1 0 0 0 0.1 0 0-0.1 0.1 0 0 0 0 0 0 0 0 0 0 0 0 0 0.1-0.1 0.1 0 0.1 0 0.1 0 0 0 0 0 0 0 0 0 0.1 0 0.1-0.1 0-0.1 0.1 0 0 0 0 0 0.1 0 0.1 0 0 0 0 0 0.1 0 0.1 0 0 0 0.1 0 0 0 0-0.1 0-0.1 0 0 0.1 0 0.2 0 0.5 0.3 0.7l0.6 0.3q-0.3-0.1-0.3-0.6 0-0.1 0-0.3 0 0 0 0z"/>
					<g id="Layer">
						<path id="Layer" class="s1" d="m57 39.4c0.5-0.3 1 0 1 0.6 0 0.6-0.4 1.4-1 1.7-0.6 0.4-1 0.1-1-0.5 0-0.7 0.4-1.4 1-1.8z"/>
					</g>
				</g>
				<g id="Layer">
					<g id="Layer">
						<g id="Layer">
							<path id="Layer" class="s7" d="m43.3 49.6l-0.1-0.1v-1.3l0.1 0.1z"/>
						</g>
						<g id="Layer">
							<path id="Layer" class="s7" d="m43.3 48.3l-0.1-0.1 0.4-0.3 0.2 0.1z"/>
						</g>
						<g id="Layer">
							<path id="Layer" class="s8" d="m43.8 48v1.3l-0.5 0.3v-1.3z"/>
						</g>
					</g>
				</g>
				<g id="Layer">
					<g id="Layer">
						<g id="Layer">
							<path id="Layer" class="s7" d="m44.3 49.1l-0.2-0.1v-1.3l0.2 0.1z"/>
						</g>
						<g id="Layer">
							<path id="Layer" class="s7" d="m44.3 47.8l-0.2-0.1 0.5-0.2h0.1z"/>
						</g>
						<g id="Layer">
							<path id="Layer" class="s8" d="m44.7 47.5v1.3l-0.4 0.3v-1.3z"/>
						</g>
					</g>
				</g>
				<g id="Layer">
					<g id="Layer">
						<g id="Layer">
							<path id="Layer" class="s7" d="m48.3 46.9l-0.2-0.1v-1.3l0.2 0.1z"/>
						</g>
						<g id="Layer">
							<path id="Layer" class="s7" d="m48.3 45.6l-0.2-0.1 0.4-0.2 0.2 0.1z"/>
						</g>
						<g id="Layer">
							<path id="Layer" class="s8" d="m48.7 45.4v1.2l-0.4 0.3v-1.3z"/>
						</g>
					</g>
				</g>
				<g id="Layer">
					<g id="Layer">
						<g id="Layer">
							<path id="Layer" class="s7" d="m49.2 46.4l-0.1-0.1-0.1-1.2h0.2z"/>
						</g>
						<g id="Layer">
							<path id="Layer" class="s7" d="m49.2 45.1h-0.2l0.5-0.3 0.1 0.1z"/>
						</g>
						<g id="Layer">
							<path id="Layer" class="s8" d="m49.6 44.9v1.3l-0.4 0.2v-1.3z"/>
						</g>
					</g>
				</g>
			</g>
			<g id="Layer">
				<g id="Layer">
					<path id="Layer" class="s9" d="m10.9 56.3c0 0 0.5 2-1 2.3-1.5 0.3-1.3-0.6-4.2 0.8-2.9 1.5-5 0.1-5.2-0.4-0.2-0.3 0.2-2.4 6.4-3.9z"/>
					<path id="Layer" class="s10" d="m9.9 58.6c-1.5 0.3-1.3-0.6-4.2 0.8-2.9 1.5-5 0.1-5.2-0.4q-0.1-0.1 0-0.2c2.1 1.3 3.6 0.5 4.8-0.1 1.2-0.5 2.2-0.7 3.8-0.6 1.7 0 1.4-1.4 1.4-1.4q0.2-0.1 0.4 0c0.1 0.6 0.1 1.7-1 1.9z"/>
					<path id="Layer" class="s11" d="m28.1 34.9c0 0-2.3-1-3.4-2.9 0 0-12.6 5-14 7.1-1.2 1.9-3.9 12-4.9 16.1-0.3 1.5 5.1 3.6 5.6 1.8 1-4.2 4.2-13.8 4.2-13.8 0 0 12.9-1.5 12.5-8.3z"/>
				</g>
				<g id="Layer">
					<path id="Layer" class="s9" d="m27 65.1c0 0 1.2 1.7-0.1 2.5-1.2 0.8-1.4-0.1-3.5 2.3-2.2 2.5-4.6 2-5 1.7-0.3-0.3-0.7-2.3 4.4-6.1z"/>
					<path id="Layer" class="s10" d="m26.9 67.6c-1.2 0.8-1.4-0.1-3.5 2.3-2.2 2.5-4.6 2-5 1.7q-0.1-0.1-0.1-0.3c2.4 0.5 3.5-0.9 4.4-1.9 0.9-1 1.8-1.4 3.3-2 1.5-0.6 0.7-1.8 0.7-1.8q0.2-0.1 0.5-0.2c0.2 0.5 0.6 1.6-0.3 2.2z"/>
					<path id="Layer" class="s12" d="m34.2 32.4c0 0 2.8 4.7-0.4 8.2-3.3 3.4-9.1 8.5-9.1 8.5 0 0 0.9 3.4 1.8 9.3 0.7 5.4 1 4.9 0.9 7.1 0 1.4-5 2.4-5.5 0.6-1.4-5.3-4-16.3-3.4-18.7 0.7-2.4 7.5-9.7 7.5-9.7l-1.7-3.3c0 0 6.5 0.7 9.9-2z"/>
				</g>
				<g id="Layer">
					<path id="Layer" class="s13" d="m12.1 24.8c0 0-0.6-0.4-1.9-0.4-1.2-0.1-1.5 0.2-2.2 0.5-0.8 0.4-1.3 0.7-1.1 1 0.2 0.4 1.9 0.9 2.8 0.6 0.6-0.2 2.2 0.6 2.6 0.5 0.3 0 0.2-2-0.2-2.2z"/>
					<path id="Layer" class="s14" d="m12.3 27c-0.4 0.1-2-0.7-2.6-0.5-0.7 0.2-1.7 0-2.3-0.3q0 0 0 0c0.1-0.2 0.7-0.1 1-0.2 0.3-0.1 1.4-0.1 2-0.3 0.7-0.1 2 0.5 2 0.5l0.1 0.1c0 0.4-0.1 0.7-0.2 0.7z"/>
					<path id="Layer" class="s15" d="m26.7 13.2c0 0-2.2-2.5-4 0.5-1.2 1.9-2.9 9.4-3.7 10.1-0.4 0.4-7.2 0.5-7.2 0.5 0 0 1.1 1-0.2 3 0 0 9.1 2.3 10.5 0.4 2.3-3.3 6-11.5 4.6-14.5z"/>
				</g>
				<path id="Layer" class="s16" d="m34.6 15.5c-0.2-0.2-9.6-4-10.6-3.2-0.7 0.5-0.9 1.6-2 4.8-0.5 1.6-0.7 3.4 0.1 5.1 1.5 3.4 1.2 5.1 1.2 6-0.2 1.3-1.3 4.8-1.3 4.8 0 0 6.6 4.9 12.9 1.8 0 0 0.1 0.2-0.5-4.1-1.2-8.1 3.6-12.8 0.2-15.2z"/>
				<g id="Layer">
					<path id="Layer" class="s17" d="m29.9 2.2c0 0 0.3-2.6 3.7-1.8 2.7 0.7 3.3 4.8 1.9 7.9-1.6 3.7-2 6.9-2 6.9 0 0-1.5-0.9-2.3-3.7-0.8-2.7-2.2-7.2-1.3-9.3z"/>
					<path id="Layer" class="s16" d="m30.2 2.3c0 0 0.4-0.9 1.6-0.6 1.4 0.4 1.3 1.1 1.1 1.6-0.2 0.6-2.7-1-2.7-1z"/>
					<g id="Layer">
						<path id="Layer" class="s18" d="m27.1 11.3c0 0 0.4 2.2 0 3.4-0.5 1.1 1.2 1.5 2.1 1.2 0.8-0.3 2.2-0.8 2-1.6-0.2-0.7-0.9-3.2-0.5-4.1 0.5-0.9-3.6 1.1-3.6 1.1z"/>
						<path id="Layer" class="s13" d="m31.4 4.5c0 0 2.5 2.5 1.8 5.1-0.4 1.5-2.1 2.5-3 3.2-1 0.8-3.4 2.5-4.4 0.7-1-1.7-2.2-6.8 0-9 2.2-2.3 5.6 0 5.6 0z"/>
						<path id="Layer" class="s19" d="m27.1 5.7c0 0 0.1 0.4 2.3 2.1 0.8 0.6 0.8 3 1.5 2.3 0.3-0.3 1.1-0.8 1.2-0.4 0.4 2-2.5 3-1.1 2.7 1.1-0.1 3.8-2.1 3.5-5.7-0.1-2.3-2.3-5.1-6.2-4.2-3.2 0.7-3.7 4.3-3.7 4.3 0 0 1.8-0.2 2.5-1.1z"/>
					</g>
				</g>
				<g id="Layer">
					<g id="Layer">
						<path id="Layer" class="s20" d="m24.4 34.7c3.3 1.9 3.3 5 0 6.9-3.3 1.9-8.6 1.9-11.9 0-3.3-1.9-3.4-5-0.1-6.9 3.3-1.9 8.7-1.9 12 0z"/>
					</g>
					<path id="Layer" class="s20" d="m6 33.8l4.4 5.8h16l4.4-5.8z"/>
					<g id="Layer">
						<path id="Layer" class="s21" d="m26.8 30.3c4.6 2.1 4.6 5.6 0 7.7-4.6 2.2-12.1 2.2-16.7 0-4.7-2.1-4.7-5.6-0.1-7.7 4.6-2.2 12.1-2.2 16.8 0z"/>
					</g>
					<g id="Layer">
						<path id="Layer" class="s21" d="m27.3 27.5c4.9 2.8 4.9 7.5 0 10.3-4.9 2.8-12.8 2.8-17.8 0-4.9-2.8-4.9-7.5 0-10.3 4.9-2.8 12.8-2.8 17.8 0z"/>
					</g>
					<g id="Layer">
						<path id="Layer" class="s22" d="m27.2 26.3c4.9 2.8 5 7.4 0.1 10.3-4.9 2.8-12.8 2.8-17.7 0-4.9-2.9-4.9-7.5-0.1-10.3 4.9-2.8 12.8-2.8 17.7 0z"/>
					</g>
					<g id="Layer">
						<path id="Layer" class="s20" d="m26.4 26.7c4.5 2.6 4.5 6.8 0.1 9.3-4.4 2.6-11.6 2.6-16.1 0-4.5-2.5-4.5-6.7-0.1-9.3 4.5-2.5 11.7-2.5 16.1 0z"/>
					</g>
					<path id="Layer" class="s23" d="m17.6 29.9c0 0 4-5.9 6.8-5.7 2.8 0.2 5.9 3 6.2 3.9 0.3 0.9-6.4 5.6-8.6 6.1-2.1 0.4-8.5 0.7-7.5-1.6 1.1-2.2 2.2-1.5 3.1-2.7z"/>
					<path id="Layer" class="s12" d="m14.4 26.2c0 0 0.6-0.6 1.4-0.8 0.9-0.3 1.7-0.3 3.1 0 1.4 0.2 1.9 0.3 2.6 0.8 0.7 0.5-0.9 2.8-1.5 3.1-0.7 0.4-6.4-1.3-5.6-3.1z"/>
					<path id="Layer" class="s24" d="m10.4 26.2c0 0 2.6-1.3 4.3-0.5 1.6 0.9 5.3 1.2 5.9 3 0.7 1.7 1.4 2.5 1.6 3.9 0.2 1.5-1.9 4.1-5.2 3.3-3.2-0.9-4.5-2.3-6.6-3.6-2.2-1.3-4.1-3.8 0-6.1z"/>
					<path id="Layer" class="s25" d="m8.6 32.6c0 0 0.5-2.2 2.4-2.3 2-0.1 3.5-0.3 5.1 0 1.6 0.3 3.9 0.8 5.1 1.7 1.2 1 3.8 1.9 3.9 2.5 0.1 0.5 0.9 3.1-7.3 2.6-8.2-0.5-9.6-3.7-9.2-4.5z"/>
					<path id="Layer" class="s12" d="m20.6 32.6c0 0 0.1-2.3 1.9-2.1 1.9 0.2 6.1-1.3 6.5-0.5 0.4 0.7 0.7 5.2-4.2 6-4.9 0.8-4.5-2.3-4.2-3.4z"/>
					<path id="Layer" class="s25" d="m8.6 32.6c0 0 0.5-2.2 2.4-2.3 2-0.1 3.5-0.3 5.1 0 1.6 0.3 3.9 0.8 5.1 1.7 1.2 1 3.8 1.9 3.9 2.5 0.1 0.5 0.9 3.1-7.3 2.6-8.2-0.5-9.6-3.7-9.2-4.5z"/>
					<path id="Layer" class="s26" d="m17.8 37.1c6.4 0.4 7.3-1.1 7.4-2-5.6 2.6-12.3 0.2-14.4-0.9-1.6-0.8-1.7-2.1-1.7-2.7-0.4 0.5-0.5 1.1-0.5 1.1-0.4 0.8 1 4 9.2 4.5z"/>
				</g>
				<g id="Layer">
					<path id="Layer" class="s13" d="m29.2 33.4c0 0-0.7 0-1.8 0.6-1.2 0.7-1.3 1.2-1.7 1.8-0.4 0.7-0.7 1.3-0.3 1.5 0.3 0.2 2.1-0.3 2.7-1.1 0.5-0.5 2.3-0.8 2.6-1 0.3-0.2-1.1-1.9-1.5-1.8z"/>
					<path id="Layer" class="s14" d="m30.7 35.2c-0.3 0.2-2.1 0.5-2.6 1-0.5 0.6-1.5 1-2.2 1.1q0 0 0 0c0-0.3 0.6-0.5 0.8-0.8 0.2-0.3 1.1-0.9 1.6-1.4 0.5-0.5 2-0.6 2-0.6h0.1c0.2 0.3 0.4 0.6 0.3 0.7z"/>
					<path id="Layer" class="s27" d="m34.3 15.4c0 0-2.3-0.7-2.4 1.7-0.1 2.3 3.8 10.3 3.5 11.4-0.2 0.5-6.7 4.6-6.7 4.6 0 0 1.4 0.3 1.5 2.7 0 0 9.2-3.1 9.3-5.6 0.2-4.2-2.2-13-5.2-14.8z"/>
				</g>
			</g>
			<g id="Layer">
				<g id="Layer">
					<path id="Layer" class="s28" d="m52.9 77.6l6.2 3.6 10.3-5.9-6.2-3.6z"/>
				</g>
				<g id="Layer">
					<g id="Layer">
						<path id="Layer" class="s29" d="m60.4 81.9l-2.7-1.6v-13.2l2.7 1.6z"/>
					</g>
					<g id="Layer">
						<path id="Layer" class="s30" d="m60.4 68.7l-2.7-1.6 8.7-5 2.6 1.6z"/>
					</g>
					<g id="Layer">
						<path id="Layer" class="s31" d="m69 63.7l0.1 13.2-8.7 5v-13.2z"/>
					</g>
					<g id="Layer">
						<path id="Layer" class="s32" d="m68.3 65.2v10.9l-7.1 4.2-0.1-10.9z"/>
					</g>
					<path id="Layer" class="s20" d="m61.2 80.3l7.1-4.2v-7.9c0 0-1.6 1.4-1.7 3.7 0 2.3-2.1 5-3.4 6-1.4 0.9-2 2.4-2 2.4z"/>
					<path id="Layer" class="s25" d="m61.1 72.6c0 0 2 0.3 2.8 1.9 0.7 1.6 1.7 1.8 2.4 1.9 0.6 0.1 2-0.3 2-0.3l-7.1 4.2z"/>
					<path id="Layer" class="s33" d="m58 67.9c0 0 0.6 3.5 1.9 1.2z"/>
					<g id="Layer">
						<g id="Layer">
							<g id="Layer">
								<path id="Layer" fill-rule="evenodd" class="s34" d="m63.6 68.9l0.2 0.7-0.1 0.1-0.1-0.2-0.2 0.1-0.1 0.3-0.1 0.1 0.2-1zm-0.2 0.6l0.2-0.1-0.1-0.1q0-0.1 0-0.2 0 0.1-0.1 0.2z"/>
							</g>
							<g id="Layer">
								<path id="Layer" class="s34" d="m63.2 69.1l-0.2 1-0.2 0.1-0.1-0.3q0-0.1 0-0.3 0 0.2-0.1 0.3v0.4l-0.2 0.1-0.2-0.7 0.2-0.1v0.3q0.1 0.1 0.1 0.3 0-0.2 0-0.4l0.1-0.4 0.2-0.1v0.4q0.1 0.1 0.1 0.2 0-0.1 0-0.3l0.1-0.4z"/>
							</g>
						</g>
						<g id="Layer">
							<path id="Layer" class="s34" d="m64.2 68.5q0.2-0.1 0.2-0.1v0.2q-0.1 0-0.2 0.1-0.1 0-0.1 0.1 0 0.1 0.2 0 0.2 0 0.2 0.2c0 0.1-0.1 0.3-0.3 0.4q-0.2 0.1-0.3 0.1l0.1-0.2q0 0 0.2 0 0.1-0.1 0.1-0.2 0-0.1-0.1 0-0.2 0-0.3-0.2c0-0.1 0.2-0.3 0.3-0.4z"/>
						</g>
						<g id="Layer">
							<path id="Layer" fill-rule="evenodd" class="s34" d="m65.6 69.3q0.1 0.1 0.1 0.3 0 0.2-0.1 0.4-0.1 0.2-0.3 0.3-0.1 0.1-0.2 0.1v-0.8q0.1-0.1 0.2-0.2 0.2-0.1 0.3-0.1zm-0.3 0.8q0.3-0.1 0.3-0.4 0-0.3-0.3-0.2 0 0.1 0 0.1v0.6z"/>
						</g>
						<g id="Layer">
							<path id="Layer" class="s34" d="m65.2 67.9v0.9l-0.2 0.1v-0.4l-0.2 0.2v0.4l-0.2 0.1v-0.9l0.2-0.1v0.3l0.2-0.1v-0.4z"/>
						</g>
						<g id="Layer">
							<path id="Layer" class="s34" d="m65.5 67.8v0.8l-0.1 0.1v-0.8z"/>
						</g>
						<g id="Layer">
							<path id="Layer" class="s34" d="m66.3 67.3v0.9l-0.1 0.1-0.2-0.3q-0.1-0.1-0.1-0.2 0 0.2 0 0.4v0.2l-0.2 0.1v-0.8l0.2-0.2 0.2 0.3q0 0.1 0.1 0.2 0-0.2 0-0.4v-0.2z"/>
						</g>
						<g id="Layer">
							<path id="Layer" class="s34" d="m66.9 67q0.1-0.1 0.2-0.1v0.2q-0.1 0-0.2 0c-0.2 0.1-0.3 0.3-0.3 0.4q0.1 0.3 0.3 0.2 0 0 0.1-0.1v-0.1h-0.2v-0.1l0.3-0.2v0.5c0 0-0.1 0.1-0.2 0.2q-0.2 0.1-0.3 0-0.1 0-0.1-0.2c0-0.3 0.1-0.6 0.4-0.7z"/>
						</g>
						<g id="Layer">
							<path id="Layer" fill-rule="evenodd" class="s34" d="m63.1 70.8q0 0 0 0.1 0 0.2 0 0.3-0.1 0.1-0.3 0.2v0.3l-0.2 0.1v-0.8q0.1-0.1 0.2-0.2 0.2 0 0.3 0zm-0.3 0.5q0.2-0.1 0.2-0.3 0-0.1-0.2 0v0.3z"/>
						</g>
						<g id="Layer">
							<path id="Layer" fill-rule="evenodd" class="s34" d="m63.6 70.4c0.2-0.1 0.4 0 0.4 0.2 0 0.3-0.2 0.6-0.4 0.7-0.2 0.1-0.4 0-0.4-0.2 0-0.3 0.2-0.6 0.4-0.7zm0 0.7c0.1 0 0.2-0.2 0.2-0.4 0-0.1-0.1-0.2-0.2-0.2-0.1 0.1-0.2 0.3-0.2 0.4q0 0.3 0.2 0.2z"/>
						</g>
						<g id="Layer">
							<path id="Layer" class="s34" d="m65 69.6l-0.2 1-0.2 0.1-0.1-0.3q0-0.2 0-0.3 0 0.2 0 0.3l-0.1 0.4-0.2 0.1-0.2-0.7 0.2-0.1 0.1 0.3q0 0.1 0 0.2 0-0.1 0.1-0.3v-0.4l0.2-0.1 0.1 0.4q0 0.1 0 0.2 0-0.1 0-0.3l0.1-0.4z"/>
						</g>
						<g id="Layer">
							<path id="Layer" class="s34" d="m66.3 68.8v0.2l-0.3 0.1v0.2l0.3-0.1v0.1l-0.3 0.2 0.1 0.2 0.3-0.2v0.2l-0.5 0.2v-0.8z"/>
						</g>
						<g id="Layer">
							<path id="Layer" fill-rule="evenodd" class="s34" d="m67 69.1c0 0 0 0.1 0.1 0.2l-0.2 0.1q0-0.1-0.1-0.2 0-0.1-0.1-0.1v0.1 0.3l-0.2 0.1v-0.9q0.1 0 0.2-0.1 0.2-0.1 0.3-0.1 0 0 0 0.2c0 0.1 0 0.2-0.1 0.3q0.1 0 0.1 0.1zm-0.3-0.1q0.2-0.1 0.2-0.2 0-0.1-0.2-0.1 0 0.1 0 0.1v0.2z"/>
						</g>
					</g>
					<g id="Layer">
						<g id="Layer">
							<path id="Layer" class="s35" d="m62.6 72.9c0.3-0.2 0.6-0.1 0.6 0.3 0 0.3-0.3 0.7-0.6 0.9-0.3 0.2-0.5 0.1-0.5-0.3 0-0.3 0.2-0.8 0.5-0.9z"/>
						</g>
						<g id="Layer">
							<path id="Layer" class="s36" d="m62.9 72.9c0.1 0 0.2 0 0.2 0.1 0 0.1-0.1 0.3-0.2 0.3-0.1 0.1-0.2 0.1-0.2-0.1 0-0.1 0.1-0.2 0.2-0.3z"/>
						</g>
					</g>
					<g id="Layer">
						<path id="Layer" class="s35" d="m66.6 70.8c0.2-0.1 0.4 0 0.4 0.3 0 0.2-0.2 0.5-0.4 0.6-0.2 0.2-0.4 0.1-0.4-0.2 0-0.2 0.2-0.5 0.4-0.7z"/>
					</g>
					<g id="Layer">
						<path id="Layer" class="s36" d="m66.8 70.9q0.1-0.1 0.1 0c0 0.1-0.1 0.2-0.1 0.3q-0.2 0-0.2-0.1c0-0.1 0.1-0.2 0.2-0.2z"/>
					</g>
					<g id="Layer">
						<path id="Layer" class="s35" d="m64.9 75.4c0.3-0.2 0.6 0 0.6 0.4 0 0.4-0.3 0.9-0.6 1.1-0.3 0.2-0.6 0-0.6-0.4 0-0.4 0.2-0.9 0.6-1.1z"/>
					</g>
					<g id="Layer">
						<path id="Layer" class="s36" d="m65.1 75.5c0.1-0.1 0.2 0 0.2 0.1 0 0.2-0.1 0.3-0.2 0.4-0.1 0-0.2 0-0.2-0.1 0-0.2 0.1-0.3 0.2-0.4z"/>
					</g>
					<g id="Layer">
						<path id="Layer" class="s35" d="m66.2 73.4c0.2-0.1 0.3 0 0.3 0.2 0 0.3-0.2 0.5-0.4 0.6-0.2 0.1-0.4 0-0.3-0.2 0-0.2 0.2-0.5 0.4-0.6z"/>
					</g>
					<g id="Layer">
						<path id="Layer" class="s36" d="m66 73.6q0.1 0 0.1 0.1c0 0 0 0.1-0.1 0.2q-0.1 0-0.1-0.1c0-0.1 0.1-0.2 0.1-0.2z"/>
					</g>
				</g>
			</g>
			<g id="Layer">
				<path id="Layer" class="s0" d="m60.7 81.9c1.7 1 1.7 2.6 0.1 3.6-1.7 0.9-4.4 0.9-6.1 0-1.7-1-1.7-2.6 0-3.6 1.6-0.9 4.4-0.9 6 0z"/>
			</g>
			<g id="Layer">
				<path id="Layer" class="s37" d="m60.4 82.6q0 0 0 0.1 0 0 0 0 0 0.1 0 0.1 0 0-0.1 0.1 0 0 0 0 0 0 0 0.1-0.1 0-0.1 0 0 0 0 0.1-0.1 0-0.1 0 0 0.1-0.1 0.1 0 0 0 0 0 0-0.1 0.1 0 0 0 0-0.1 0.1-0.2 0.1 0 0-0.1 0.1-0.1 0-0.1 0-0.1 0-0.1 0.1-0.1 0-0.1 0-0.1 0-0.1 0-0.1 0.1-0.1 0.1-0.1 0-0.1 0-0.1 0-0.2 0 0 0-0.1 0.1-0.1 0-0.1 0-0.1 0-0.2 0 0 0 0 0-0.1 0-0.2 0 0 0-0.1 0-0.1 0-0.2 0 0 0 0 0-0.1 0-0.2 0-0.1 0-0.1 0-0.1 0-0.2 0 0 0 0 0-0.1 0-0.2 0-0.1 0-0.1 0-0.1 0-0.2-0.1 0 0-0.1 0-0.1 0-0.1 0-0.1-0.1-0.1-0.1-0.1 0-0.1 0-0.1 0-0.2-0.1 0 0 0 0-0.2 0-0.3-0.1-0.6-0.4-0.7-0.9 0.2 0.8 0.3 1.7 0.1 0 0.1 0.1 0 0 0 0 0 0 0 0.1 0 0 0 0 0 0 0.1 0.1 0 0 0 0 0 0 0 0.1 0 0 0.1 0 0.1 0.2 0.4 0.4 0.1 0 0.2 0 0 0.1 0 0.1 0.1 0 0.2 0 0 0 0 0.1 0.1 0 0.2 0 0 0 0 0 0.1 0 0.2 0 0 0.1 0 0.1 0.1 0 0.1 0 0 0 0 0 0.1 0 0.2 0 0 0 0 0 0.1 0 0.1 0 0.1 0 0.1 0 0.1 0 0.1 0 0 0 0 0 0.1 0 0.2 0 0 0 0 0 0.1 0 0.2 0 0 0 0 0 0 0 0.1 0 0 0 0.1 0 0 0 0.1 0 0 0 0 0 0 0 0.1 0 0 0 0.1 0 0 0 0.1 0 0.1-0.1 0.1-0.1 0.1 0 0.1 0 0 0 0 0 0 0 0.1 0 0 0 0.1-0.1 0 0 0.1 0 0 0 0.1 0 0 0 0-0.1 0.1 0 0.2 0 0-0.1 0.1-0.1 0 0 0 0 0 0 0 0 0.1-0.1 0.1-0.1 0 0 0 0 0.1-0.1 0.1-0.1 0 0 0 0 0.1 0 0.1 0 0-0.1 0-0.1 0 0 0 0 0 0 0.1-0.1 0 0 0 0 0 0 0 0 0-0.1 0-0.1 0 0 0.1 0 0 0 0-0.1 0 0 0 0 0 0 0 0 0-0.1 0-0.1 0.1-0.3 0.2-0.7 0-0.3 0.1-0.6 0-0.2 0.1-0.4 0 0.1-0.1 0.1z"/>
				<path id="Layer" class="s38" d="m60.5 74.9q0 0.1 0 0.1 0 0 0 0 0 0 0 0 0 0.1 0 0.1 0 0 0 0 0 0 0 0.1 0 0 0 0 0 0-0.1 0 0 0 0 0.1 0 0 0 0 0 0 0 0 0 0 0 0.1 0 0 0 0-0.1 0-0.1 0 0 0.1 0 0.1 0 0 0 0-0.1 0.1-0.1 0.1 0 0 0 0 0 0-0.1 0.1 0 0 0 0 0 0 0 0-0.1 0-0.1 0.1 0 0 0 0 0 0 0 0-0.1 0-0.1 0 0 0.1 0 0.1-0.1 0-0.1 0 0 0 0 0-0.1 0.1-0.2 0.1 0 0-0.1 0.1 0 0-0.1 0 0 0-0.1 0 0 0.1-0.1 0.1-0.1 0-0.2 0 0 0.1-0.1 0.1 0 0-0.1 0-0.1 0-0.1 0-0.1 0-0.1 0-0.1 0-0.2 0.1 0 0 0 0-0.1 0-0.1 0-0.1 0-0.2 0 0 0-0.1 0-0.1 0-0.1 0-0.1 0-0.2 0 0 0-0.1 0-0.1 0-0.1 0-0.1 0-0.1-0.1-0.1 0-0.2 0 0 0-0.1 0-0.1 0-0.1 0-0.1 0-0.2-0.1 0 0-0.1 0 0 0 0 0-0.1 0-0.2-0.1 0 0 0 0-0.1 0-0.2 0 0 0 0-0.1-0.1 0-0.2-0.1c-0.5-0.3-0.8-0.6-0.8-1v7.4c0 0.4 0.2 0.8 0.7 1.1q0.1 0 0.2 0.1 0.1 0 0.1 0 0.1 0 0.1 0.1 0 0 0 0 0.1 0 0.1 0 0.1 0 0.1 0 0.1 0.1 0.1 0.1 0 0 0 0 0.1 0 0.1 0 0.1 0 0.2 0 0 0 0 0 0 0.1 0.1 0.1 0 0 0.1 0 0 0 0.1 0 0 0 0 0 0.1 0 0.2 0 0 0 0 0 0.1 0 0.1 0 0.1 0 0.1 0 0 0 0.1 0 0 0 0 0 0.1 0 0.2 0 0 0 0 0 0.1 0 0.1 0 0.1 0 0.2 0 0 0 0 0 0.1 0 0.1 0 0 0 0 0 0.1 0 0.2 0 0 0 0 0 0.1 0 0.1 0 0 0 0.1-0.1 0 0 0.1 0 0.1 0 0.1 0 0.1 0 0.1 0 0.1-0.1 0.1-0.1 0 0 0.1 0 0 0 0 0 0.1-0.1 0.2-0.1 0 0 0.1 0 0.1-0.1 0.1-0.1 0.1 0 0.1 0 0 0 0 0 0-0.1 0-0.1 0.1 0 0.1 0 0 0 0 0 0 0 0.1-0.1 0 0 0 0 0 0 0 0 0.1 0 0.1-0.1 0 0 0 0 0 0 0 0 0 0 0.1 0 0-0.1 0-0.1 0 0 0.1 0 0 0 0 0 0-0.1 0-0.1 0 0 0 0 0 0 0 0 0-0.1 0.1-0.1 0 0 0 0 0 0 0 0 0 0 0-0.1 0 0 0 0 0 0 0 0 0 0 0 0 0-0.1 0-0.1 0 0 0.1 0 0 0 0 0 0-0.1 0-0.1 0 0 0 0 0 0 0 0 0 0 0 0 0-0.1 0-0.1 0 0 0 0 0 0 0 0 0-0.1 0-0.1 0-3.7 0-7.4 0 0 0 0z"/>
				<path id="Layer" class="s12" d="m60.5 74.9q0 0.1 0 0.1 0 0 0 0 0 0 0 0 0 0.1 0 0.1 0 0 0 0 0 0 0 0.1 0 0 0 0 0 0-0.1 0 0 0 0 0.1 0 0 0 0 0 0 0 0 0 0 0 0.1 0 0 0 0-0.1 0-0.1 0 0 0.1 0 0.1 0 0 0 0-0.1 0.1-0.1 0.1 0 0 0 0 0 0-0.1 0.1 0 0 0 0 0 0 0 0-0.1 0-0.1 0.1 0 0 0 0 0 0 0 0-0.1 0-0.1 0 0 0.1 0 0.1-0.1 0-0.1 0 0 0 0 0-0.1 0.1-0.2 0.1 0 0-0.1 0.1 0 0-0.1 0 0 0-0.1 0 0 0.1-0.1 0.1-0.1 0-0.2 0 0 0.1-0.1 0.1 0 0-0.1 0-0.1 0-0.1 0-0.1 0-0.1 0-0.1 0-0.2 0.1 0 0 0 0-0.1 0-0.1 0-0.1 0-0.2 0 0 0-0.1 0-0.1 0-0.1 0-0.1 0-0.2 0 0 0-0.1 0-0.1 0-0.1 0-0.1 0-0.1-0.1-0.1 0-0.2 0 0 0-0.1 0-0.1 0-0.1 0-0.1 0-0.2-0.1 0 0-0.1 0 0 0 0 0-0.1 0-0.2-0.1 0 0 0 0-0.1 0-0.2 0 0 0 0-0.1-0.1 0-0.2-0.1c-0.5-0.3-0.8-0.6-0.8-1v7.4c0 0.4 0.2 0.8 0.7 1.1q0.1 0 0.2 0.1 0.1 0 0.1 0 0.1 0 0.1 0.1 0 0 0 0 0.1 0 0.1 0 0.1 0 0.1 0 0.1 0.1 0.1 0.1 0 0 0 0 0.1 0 0.1 0 0.1 0 0.2 0 0 0 0 0 0 0.1 0.1 0.1 0 0 0.1 0 0 0 0.1 0 0 0 0 0 0.1 0 0.2 0 0 0 0 0 0.1 0 0.1 0 0.1 0 0.1 0 0 0 0.1 0 0 0 0 0 0.1 0 0.2 0 0 0 0 0 0.1 0 0.1 0 0.1 0 0.2 0 0 0 0 0 0.1 0 0.1 0 0 0 0 0 0.1 0 0.2 0 0 0 0 0 0.1 0 0.1 0 0 0 0.1-0.1 0 0 0.1 0 0.1 0 0.1 0 0.1 0 0.1 0 0.1-0.1 0.1-0.1 0 0 0.1 0 0 0 0 0 0.1-0.1 0.2-0.1 0 0 0.1 0 0.1-0.1 0.1-0.1 0.1 0 0.1 0 0 0 0 0 0-0.1 0-0.1 0.1 0 0.1 0 0 0 0 0 0 0 0.1-0.1 0 0 0 0 0 0 0 0 0.1 0 0.1-0.1 0 0 0 0 0 0 0 0 0 0 0.1 0 0-0.1 0-0.1 0 0 0.1 0 0 0 0 0 0-0.1 0-0.1 0 0 0 0 0 0 0 0 0-0.1 0.1-0.1 0 0 0 0 0 0 0 0 0 0 0-0.1 0 0 0 0 0 0 0 0 0 0 0 0 0-0.1 0-0.1 0 0 0.1 0 0 0 0 0 0-0.1 0-0.1 0 0 0 0 0 0 0 0 0 0 0 0 0-0.1 0-0.1 0 0 0 0 0 0 0 0 0-0.1 0-0.1 0-3.7 0-7.4 0 0 0 0z"/>
				<path id="Layer" class="s39" d="m56 81.6q0.1 0 0.2 0.1 0.1 0 0.1 0 0.1 0 0.1 0.1 0 0 0 0 0.1 0 0.1 0 0.1 0 0.1 0 0.1 0.1 0.1 0.1 0 0 0 0 0.1 0 0.1 0 0.1 0 0.2 0 0 0 0 0 0 0.1 0.1 0.1 0 0 0.1 0 0 0 0.1 0 0 0 0 0 0.1 0 0.2 0 0 0 0 0 0 0 0.1 0 0 0 0.1 0 0 0 0.1 0 0 0 0 0 0.1 0 0.2 0 0 0 0 0 0.1 0 0.1 0 0.1 0 0.2 0 0 0 0 0 0 0 0.1 0 0 0 0 0 0.1 0 0.2 0 0 0 0 0 0.1 0 0.1 0 0 0 0-0.1 0.1 0 0.2 0 0 0 0.1 0 0.1 0 0.1 0 0-0.1 0.1-0.1 0 0 0.1 0 0 0 0 0 0.1-0.1 0.2-0.1 0 0 0.1 0 0-0.1 0.1-0.1 0 0 0.1 0 0 0 0 0 0-0.1 0-0.1 0.1 0 0.1 0 0 0 0 0 0 0 0.1-0.1 0 0 0 0 0 0 0 0 0.1 0 0.1-0.1 0 0 0 0 0 0 0 0 0 0 0.1 0 0-0.1 0-0.1 0 0 0 0 0.1 0 0.1 0 0-0.1 0-0.1 0 0 0 0 0 0 0 0 0-0.1 0-0.1 0.1 0 0.1 0 0 0 0 0 0 0 0-0.1 0 0 0 0 0 0 0 0 0 0 0-0.1 0 0 0 0 0 0 0 0c0 0 0.1-0.3 0.1-0.3q0-1 0-1.9 0 0 0-0.1 0 0 0 0 0 0 0 0c0-1.2 0-1.4 0-1.4q0 0 0 0c0 0 0 0.2 0 0.2q-0.1 0-0.1 0 0 0 0 0.1 0 0 0 0 0 0 0 0 0 0 0 0 0 0.1 0 0.1 0 0 0 0 0 0 0 0 0 0-0.1 0 0 0.1 0 0.1 0 0 0 0 0 0 0 0.1 0 0 0 0 0 0-0.1 0 0 0 0 0.1 0 0 0 0-0.1 0-0.1 0 0 0.1 0 0.1 0 0 0 0 0 0-0.1 0 0 0 0 0 0 0.1 0 0.1-0.1 0-0.1 0 0 0 0 0 0 0-0.1 0.1 0 0 0 0 0 0 0 0-0.1 0-0.1 0-0.1 0.1-0.1 0.1-0.1 0-0.1 0-0.1 0.1-0.2 0.1 0 0 0 0-0.1 0-0.1 0.1-0.1 0-0.1 0 0 0-0.1 0-0.1 0-0.1 0-0.1 0.1-0.2 0.1 0 0 0 0 0 0-0.1 0 0 0 0 0-0.1 0-0.2 0 0 0 0 0-0.1 0-0.1 0 0 0 0 0-0.1 0.1-0.2 0.1 0 0-0.1 0 0 0 0 0-0.1 0-0.2 0 0 0 0 0-0.1 0-0.1 0-0.1 0-0.1 0-0.1 0-0.1-0.1 0 0 0 0-0.1 0-0.2 0 0 0 0 0-0.1 0-0.1 0-0.1 0-0.1 0-0.1 0-0.1 0 0 0 0 0-0.1-0.1-0.2-0.1 0 0-0.1 0 0 0 0 0 0 0-0.1 0 0 0-0.1-0.1 0 0-0.1 0 0 0 0 0 0 0-0.1-0.1 0 0-0.1 0-0.1 0-0.2-0.1-0.6-0.4-0.7-0.8v3.4c0.1 0.3 0.3 0.6 0.7 0.9z"/>
				<path id="Layer" class="s37" d="m60.5 74.9q0 0 0 0 0 0 0-0.1 0 0 0 0 0 0 0 0 0 0 0-0.1 0 0 0 0l-0.4-1.7q0.1 0.1 0.1 0.1 0 0 0 0 0 0.1 0 0.1 0 0 0 0 0 0.1 0 0.1 0 0-0.1 0 0 0.1 0 0.1 0 0 0 0 0 0.1 0 0.1 0 0 0 0 0 0.1-0.1 0.1 0 0 0 0 0 0.1-0.1 0.1 0 0.1 0 0.1 0 0 0 0 0 0 0 0-0.1 0-0.1 0.1 0 0 0 0 0 0-0.1 0 0 0.1 0 0.1 0 0-0.1 0 0 0.1-0.1 0.1-0.1 0-0.1 0.1-0.1 0-0.1 0-0.1 0-0.1 0 0 0.1-0.1 0.1 0 0-0.1 0 0 0-0.1 0 0 0-0.1 0.1 0 0 0 0-0.1 0-0.2 0-0.1 0-0.3 0 0 0.1-0.1 0.1 0 0-0.1 0-0.1 0-0.2 0 0 0 0 0-0.1 0-0.2 0 0 0 0 0-0.1 0-0.2 0 0-0.1 0-0.1-0.1 0-0.2 0 0 0 0 0-0.1 0-0.2 0 0 0 0 0-0.1 0-0.2-0.1-0.1 0-0.1 0 0 0-0.1 0-0.1-0.1-0.1-0.1 0 0-0.1 0-0.1-0.1-0.2-0.1 0 0 0 0-0.1-0.1-0.1-0.1 0 0 0 0 0 0-0.1 0 0 0 0-0.1 0 0 0 0-0.1 0-0.1 0 0 0 0-0.1 0 0 0 0-0.1 0-0.1 0 0 0 0-0.1 0 0 0 0 0 0-0.1 0 0 0 0-0.1 0 0 0 0 0 0 0 0 0 0 0-0.1 0 0-0.1 0 0 0 0 0 0 0 0-0.1 0 0 0 0 0 0 0 0 0 0 0-0.1 0 0 0 0 0 0 0 0 0-0.1 0-0.1 0 0 0 0 0 0 0 0 0-0.1 0-0.1 0 0 0 0 0-0.1 0-0.1-0.2 0.9-0.4 1.7 0 0 0 0.1 0 0 0 0 0 0 0 0 0 0 0 0.1 0 0 0 0 0 0 0 0 0 0.1 0 0.1 0 0 0 0 0 0 0 0.1 0 0 0 0 0 0 0 0 0.1 0.1 0.1 0.1 0 0 0 0 0 0.1 0 0.1 0 0 0 0 0 0 0 0.1 0 0 0.1 0 0 0 0 0 0 0.1 0 0.1 0 0 0 0 0.1 0 0.1 0 0 0.1 0 0.1 0 0 0 0 0.1 0 0.1 0.1 0 0 0 0 0 0 0.1 0 0 0.1 0 0.1 0 0 0.1 0 0 0 0 0 0 0.1 0 0.1 0.1 0 0.1 0 0 0 0 0 0.1 0 0.1 0 0.1 0.1 0.2 0.2 0 0 0 0 0 0 0.1 0 0 0 0.1 0 0 0.1 0 0.1 0.1 0 0.1 0 0.1 0 0.1 0 0 0 0 0 0.1 0.1 0.2 0.1 0 0 0 0 0.1 0 0.2 0 0 0 0.1 0 0 0 0 0 0.1 0 0.1 0.1 0.1 0 0.1 0 0 0 0.1 0 0 0 0 0 0.1 0 0.1 0 0.1 0 0.1 0 0 0 0 0 0.1 0 0.2 0 0 0 0 0 0 0 0 0 0.2 0 0.3 0 0 0 0 0 0 0 0 0 0.1 0 0.2 0 0 0 0 0 0.1 0 0.3-0.1 0 0 0 0 0.1 0 0.2 0 0 0 0 0 0.1 0 0.2-0.1 0 0 0 0 0 0 0.1 0 0 0 0.1 0 0.1-0.1 0.1-0.1 0.1 0 0.1 0 0.1 0 0.1-0.1 0.1 0 0.2-0.1 0 0 0.1 0 0 0 0 0 0-0.1 0.1-0.1 0 0 0 0 0.1-0.1 0.1-0.1 0 0 0 0 0 0 0 0 0.1 0 0.1-0.1 0 0 0 0 0 0 0 0 0.1 0 0.1-0.1 0 0 0 0 0 0 0 0 0 0 0 0 0-0.1 0-0.1 0.1 0 0.1 0 0 0 0 0 0-0.1 0-0.1 0 0 0 0 0.1-0.1 0.1-0.1 0 0 0 0 0 0 0 0 0-0.1 0-0.1 0 0 0-0.1 0 0 0 0 0 0 0-0.1 0 0 0 0z"/>
				<path id="Layer" class="s40" d="m59.5 72.2c-0.9-0.5-2.3-0.5-3.2 0-0.9 0.6-0.9 1.4 0 1.9 0.9 0.5 2.3 0.5 3.2 0 0.9-0.5 0.9-1.3 0-1.9z"/>
			</g>
		</g>
	</g>
</svg>