<svg version="1.2" xmlns="http://www.w3.org/2000/svg" viewBox="0 0 117 104" width="117" height="104">
	<title>Layer</title>
	<defs>
		<linearGradient id="g1" x2="1" gradientUnits="userSpaceOnUse" gradientTransform="matrix(1.116,24.801,-4.231,.19,14.783,8)">
			<stop offset="0" stop-color="#fa5fc8"/>
			<stop offset="1" stop-color="#b161cb"/>
		</linearGradient>
	</defs>
	<style>
		.s0 { fill: #8390cd } 
		.s1 { fill: #723e24 } 
		.s2 { fill: #ffaa83 } 
		.s3 { fill: #615a8e } 
		.s4 { fill: #484475 } 
		.s5 { fill: #120f1f } 
		.s6 { fill: #32293a } 
		.s7 { fill: #f29c79 } 
		.s8 { fill: #e29813 } 
		.s9 { fill: #feb623 } 
		.s10 { fill: url(#g1) } 
		.s11 { fill: #f79f7c } 
		.s12 { fill: #ff4d75 } 
		.s13 { fill: #acd9ea } 
		.s14 { fill: #c1e8fa } 
		.s15 { fill: #bfd4dc } 
		.s16 { fill: #def6ff } 
		.s17 { fill: #ef3566 } 
		.s18 { fill: #ffc255 } 
		.s19 { fill: #ea9d15 } 
		.s20 { fill: #3998d8 } 
		.s21 { fill: #2686bc } 
		.s22 { fill: #c47f10 } 
		.s23 { fill: #fe2456 } 
		.s24 { fill: #f77496 } 
		.s25 { fill: #c7e8f2 } 
		.s26 { fill: #bcbcb1 } 
		.s27 { fill: #ffffff } 
		.s28 { fill: #cecfc2 } 
		.s29 { fill: #fefefe } 
		.s30 { fill: #1d96cb } 
		.s31 { fill: #a0a095 } 
		.s32 { fill: #656f72 } 
		.s33 { fill: #41b1d8 } 
		.s34 { fill: #7cddf7 } 
	</style>
	<g id="Layer">
		<g id="-e-step_11">
			<path id="Layer" class="s0" d="m25 60.9l-0.2-0.1 42.4-24.7 49.3 28.5-24.5 14.2 0.2 0.1-42.4 24.7-49.3-28.5z"/>
			<g id="Layer">
				<path id="Layer" class="s0" d="m33.3 58.3c5.3 3.2 5.4 8.2 0 11.3-5.3 3.1-14 3.1-19.4 0-5.4-3.1-5.4-8.1-0.1-11.3 5.4-3.1 14.1-3.1 19.5 0z"/>
			</g>
			<path id="Layer" class="s1" d="m18.8 9.3c0 0-0.7 1.3-1.1 3-0.4 1.6 1.1 4.4 1.1 4.4 0 0 2.1-6.1 1.6-7.1-0.6-0.9-1.6-0.3-1.6-0.3z"/>
			<path id="Layer" class="s2" d="m27.6 31.8c0 0 1.1 11.4 0.7 13.9-0.4 2.4-1.4 15.1-1.4 15.1 0 0-0.2 0.4-0.9 0.5-1.3 0.1-1.5-0.3-1.5-0.3 0 0-2.3-10.5-0.9-14.2l-1.6-12.1v-1.7c0 0 4.1-0.5 5.6-1.2z"/>
			<path id="Layer" class="s3" d="m26.8 60.7c0 0-0.2-0.5-0.2-1.2 0 0-1.8 0.8-2.9 0.1 0 0 0.1 0.8-0.1 1.4-0.2 0.5 2.9 0.5 3.2-0.3z"/>
			<g id="Layer">
				<path id="Layer" class="s3" d="m24.5 60.9c0 0-1 1.6 0.2 2.1 1.1 0.5 1.1-0.3 3.2 1.6 2.1 1.8 4 1 4.3 0.7 0.7-1-0.4-1.9-5.1-4.4z"/>
				<path id="Layer" class="s4" d="m24.7 63c1 0.6 1.1-0.3 3.2 1.6 2.1 1.8 4 1 4.3 0.7q0.1-0.1 0.1-0.3c-2 0.8-3.1-0.3-3.9-1-0.9-0.7-1.7-1-3-1.3-1.4-0.3-0.9-1.4-0.9-1.4 0-0.2 0-1.3-0.2-1.3 0 1.3-0.8 2.4 0.4 3z"/>
			</g>
			<path id="Layer" class="s5" d="m28.5 29.2c0 0 1 10.2 0.4 16-0.6 5.8-1.2 12.3-1 15.6 0 1.1-4.1 2.3-4.4 0-0.3-2.8-1.6-10.5 0.1-14l-2.7-14.9c0 0 4.9-0.7 7.6-2.7z"/>
			<path id="Layer" class="s2" d="m21.6 32.7c0 0 1.1 12.1 0.7 14.7-0.3 2.6-1.3 16.2-1.3 16.2h-2.3c0 0-2.3-11.7-0.8-14.9l-1.5-13v-1.8c0 0 3.9-0.5 5.2-1.2z"/>
			<g id="Layer">
				<path id="Layer" class="s3" d="m18.5 63.1c0 0-1 1.7 0.2 2.2 1.1 0.6 1.1-0.3 3.2 1.6 2.2 1.8 4.1 1.1 4.4 0.7 0.7-1-0.5-2.5-5.2-5z"/>
				<path id="Layer" class="s4" d="m18.7 65.3c1.1 0.6 1.1-0.3 3.2 1.6 2.2 1.8 4.1 1.1 4.4 0.7q0.1-0.1 0.1-0.2c-2 0.7-3.1-0.3-4-1.1-0.9-0.7-1.6-1-3-1.3-1.4-0.3-0.9-1.4-0.9-1.4 0.1-0.2 0-1.3-0.1-1.4 0 1.3-0.9 2.5 0.3 3.1z"/>
			</g>
			<path id="Layer" class="s6" d="m15.8 30.8c0 0-1.9 2.9-0.5 9.8 1.4 6.9 1.9 8.9 1.9 8.9 0 0-0.3 0.9 0 6.4 0.3 5.2 0.3 4.9 0.5 7.4 0 1 4 1.4 4.2-0.6 0.3-4.5 0.7-16.1 0.7-16.1l1-11 4.9-6.4c0 0-10.1 3.4-12.7 1.6z"/>
			<g id="Layer">
				<path id="Layer" class="s2" d="m38.8 19.7c0 0 0.5-0.4 1.6-0.7 1.2-0.2 1.5 0 2.2 0.2 0.6 0.2 1.1 0.4 1 0.8-0.1 0.3-1.5 1-2.4 0.9-0.6-0.1-1.9 0.8-2.3 0.8-0.3 0-0.4-1.8-0.1-2z"/>
				<path id="Layer" class="s7" d="m38.9 21.7c0.4 0 1.7-0.9 2.3-0.8 0.6 0.1 1.6-0.3 2.1-0.6q0 0-0.1 0c-0.1-0.2-0.6 0-0.9-0.1-0.3 0-1.2 0.1-1.9 0.1-0.6-0.1-1.6 0.7-1.6 0.7l-0.1 0.1c0 0.3 0.1 0.6 0.2 0.6z"/>
				<path id="Layer" class="s8" d="m24.1 11.2c0 0 1.6-2.5 3.7 0 1.3 1.5 3.9 8.1 4.7 8.6 0.4 0.2 6.5-0.6 6.5-0.6 0 0-0.8 1 0.6 2.7 0 0-7.9 3.3-9.4 1.7-2.5-2.6-7-9.4-6.1-12.4z"/>
			</g>
			<g id="Layer">
				<path id="Layer" class="s9" d="m16.4 12.5c0.8-0.7 9.4-3.1 10.4-2.4 0.6 0.5 0.8 0.6 1.9 3.8 0.5 1.5 0.5 3.4-0.3 5-1.4 3.2-1.2 4.8-1.1 5.7 0.1 1.3 1.4 3.5 1.2 4.6-0.4 1.6-10.6 4.9-12.7 1.6 0-0.1-0.5-0.2 0.6-3.8 2.3-7.5-3-11.9 0-14.5z"/>
				<path id="Layer" class="s10" d="m15.8 30.8q0 0 0 0 0 0 0 0z"/>
			</g>
			<g id="Layer">
				<path id="Layer" class="s11" d="m23.6 8.5c0 0-0.4 2 0 3 0.5 1.1-1.1 1.4-1.8 1.1-0.8-0.2-2-0.7-1.8-1.4 0.1-0.7 0.8-2.8 0.4-3.6-0.5-0.8 3.2 0.9 3.2 0.9z"/>
				<path id="Layer" class="s2" d="m19.8 2.5c0 0-2.2 2.2-1.6 4.6 0.3 1.3 1.8 2.1 2.7 2.8 0.8 0.6 2.5 2.2 3.9 1.1 1.4-1.2 1.7-6.3-0.1-8.5-1.7-2.2-4.9 0-4.9 0z"/>
				<path id="Layer" class="s1" d="m24.7 3.5c0 0 0.3 1.5-3.2 2-0.8 0.1-0.6 2.6-1.3 2-0.3-0.3-0.9-0.7-1-0.4-0.4 1.8 1.4 1.3 1.2 2.5-0.5 3-3.9-1.9-3.4-5.2 0.4-2.4 2-4.5 5.5-3.8 3.4 0.6 3.2 4 3.2 4 0 0-0.4-1.2-1-1.1z"/>
			</g>
			<path id="Layer" class="s12" d="m18.6 9.7c0 0 0.9 0.1 1.7-0.6 0 0 0.3 0.3-0.1 1.3 0 0-1.2 0.3-1.9 0.1-0.7-0.1 0.1-0.6 0.3-0.8z"/>
			<g id="Layer">
				<g id="Layer">
					<g id="Layer">
						<g id="Layer">
							<path id="Layer" class="s13" d="m43.7 65.4v30.8l2.7 1.5v-30.7z"/>
						</g>
						<g id="Layer">
							<path id="Layer" class="s14" d="m46.4 67v30.7l2.8-1.5-0.1-30.8z"/>
						</g>
						<g id="Layer">
							<path id="Layer" class="s15" d="m43.7 65.4l2.7 1.6 2.7-1.6-2.7-1.6z"/>
						</g>
					</g>
				</g>
				<g id="Layer">
					<g id="Layer">
						<g id="Layer">
							<path id="Layer" class="s13" d="m9.3 50.5l0.1 26 2.7 1.5v-25.9z"/>
						</g>
						<g id="Layer">
							<path id="Layer" class="s14" d="m12 48.9l0.1 29.1 2.7-1.5v-29.2z"/>
						</g>
					</g>
				</g>
				<g id="Layer">
					<g id="Layer">
						<g id="Layer">
							<path id="Layer" class="s13" d="m102.6 36.3v30.8l2.7 1.6v-30.8z"/>
						</g>
						<g id="Layer">
							<path id="Layer" class="s14" d="m105.3 37.9v30.8l2.8-1.6-0.1-30.8z"/>
						</g>
						<g id="Layer">
							<path id="Layer" class="s15" d="m102.6 36.3l2.7 1.6 2.7-1.6-2.7-1.5z"/>
						</g>
					</g>
				</g>
				<g id="Layer">
					<g id="Layer">
						<g id="Layer">
							<path id="Layer" class="s13" d="m9.3 50.5v2.7l37.1 21.6v-2.8z"/>
						</g>
						<g id="Layer">
							<path id="Layer" class="s14" d="m46.4 72v2.8l61.7-35.6v-2.8z"/>
						</g>
						<g id="Layer">
							<path id="Layer" class="s16" d="m9.3 50.5l37.1 21.5 61.7-35.6-37.1-21.5z"/>
						</g>
					</g>
				</g>
			</g>
			<path id="Layer" class="s12" d="m25.2 28.9c0.4-2.2 3.3-5.6 7.8-5.9 4.5-0.3 3.3-1.9 7.4-2.7 4.2-0.8 2.2 8.4 10.8 11.1 3.2 1.1 28.1 3.9 24.7 7.4-3.4 3.5-14.1 7.2-22.9 5.7-8.8-1.4-6.9 2.2-9.4 2-2.4-0.2-20.2-8.1-18.4-17.6z"/>
			<path id="Layer" class="s17" d="m43.3 50c1.8-0.1 1.6-5.4 5-5.7-1.6-0.8-3.2-1.5-4.6-2-5-2-8.8-5.8-11.3-11.2-1.6-3.3-4.2-4.4-5.9-4.8-0.7 0.9-1.1 1.8-1.3 2.6-1.8 9.5 8.8 21.6 18.1 21.1z"/>
			<g id="Layer">
				<path id="Layer" class="s2" d="m23.6 27.4c0 0 0.6-0.1 1.7 0.3 1.1 0.4 1.2 0.8 1.7 1.3 0.5 0.5 0.8 0.9 0.5 1.2-0.2 0.2-1.8 0.1-2.5-0.5-0.5-0.4-2.1-0.3-2.4-0.4-0.3-0.2 0.6-1.8 1-1.9z"/>
				<path id="Layer" class="s7" d="m22.6 29.3c0.3 0.1 1.9 0 2.4 0.4 0.5 0.4 1.5 0.6 2.1 0.6q0 0 0-0.1c-0.1-0.2-0.6-0.3-0.8-0.5-0.3-0.2-1.1-0.5-1.6-0.9-0.5-0.4-1.8-0.2-1.8-0.2h-0.2c-0.1 0.3-0.2 0.6-0.1 0.7z"/>
				<path id="Layer" class="s18" d="m16.2 12.7c0 0 1.9-0.9 2.4 1.1 0.4 2-1 9.6-0.5 10.4 0.2 0.4 5.9 2.9 5.9 2.9 0 0-1.2 0.5-0.9 2.6 0 0-8.4-1.2-8.9-3.3-0.9-3.6-0.3-11.6 2-13.7z"/>
			</g>
			<path id="Layer" class="s9" d="m42.4 48.2c0.8 0.5-8.3 10.1-5.7 11.8 2.6 1.7 4.4-2.3 10.3-5.8 5.6-3.3 6.8-5.9 11.7-0.2 2.7 3.1 12.7-1.8 13.3-6.3 0.6-4.5 0.8-7.5-5.3-9.8-5.9-2.3-33.5 4.5-24.3 10.3z"/>
			<path id="Layer" class="s19" d="m42.4 48.2c1.4 0.9-13.9 5.6-7.8 7 3.1 0.7-2.3 7.9 4.1 7 6.4-0.8 17.8-16 17.4-7.5-0.3 6.1 15.3-2.5 15.9-7q0.1-0.5 0.2-1c-1.4 0-15.4 8.7-15.8 2.7-0.4-5.9-13.8 8.8-17.7 9.7-4 0.9 11.4-11.5 6.4-10.9-3.4 0.3-2.7-3.2-1.9-5.6-2.8 1.7-3.8 3.7-0.8 5.6z"/>
			<path id="Layer" class="s20" d="m60.6 47.4c0 0 5-8 10.2-8.3 5.2-0.3 6.9-10.2 9.2-10.3 2.3-0.1 2.8 1.1 3.7 3.7 0.9 2.7 2.1 4.8 1.9 6.4-0.1 1.6-9.4 16.1-22.4 15.8-13-0.3-3.4-5.7-2.6-7.3z"/>
			<path id="Layer" class="s21" d="m63.2 54.7c13 0.3 22.3-14.2 22.4-15.8 0.2-1.6-1-3.7-1.9-6.4 0.2 7.4-5.7 12-9.5 15.1-3.7 3.1-7.1 4.2-11.4 4.8-4.3 0.6-4.4-2.8-4.4-2.8-2.3 2.2-4.3 4.9 4.8 5.1z"/>
			<g id="Layer">
				<path id="Layer" class="s2" d="m74.3 42.3c0 0-2.9-0.7-3.3-2.4-0.3-1.7-0.1-2 0.6-1.5 0.7 0.5 2.5 1.9 2.5 1.5-0.1-0.4-0.5-1.1-0.2-1.1 0.3-0.1 1.6 2 1.6 2l-0.1 1.9z"/>
				<g id="Layer">
					<path id="Layer" class="s0" d="m86.4 82.4c-5.4 3.1-5.4 8.2-0.1 11.3 5.4 3.1 14.1 3.1 19.5 0 5.4-3.1 5.4-8.2 0.1-11.3-5.4-3.1-14.1-3.1-19.5 0z"/>
				</g>
				<path id="Layer" class="s9" d="m99.5 86.2c0 0-4.7-0.1-3.7 1.5 0.7 1.1 1.6 1.3 2.3 1.3 0.7 0 2-0.4 2.3-0.2 0.4 0.2 1.9 1.2 2.9 0.2 0.1-0.2 0.3-0.8 0.1-1.2-0.1-0.4-3.3-1.7-3.9-1.6z"/>
				<path id="Layer" class="s22" d="m95.8 87.7c0.7 1.1 1.6 1.3 2.3 1.3 0.7 0 2-0.4 2.3-0.2 0.4 0.2 1.9 1.2 2.9 0.2 0.1-0.1 0.1-0.3 0.2-0.6-0.7 0.9-2.2 0.6-2.7 0.4-0.5-0.4-1.2-0.5-1.8-0.4-0.6 0.1-1.9 0-2.6-0.6-0.4-0.4-0.4-0.8-0.3-1.1-0.4 0.2-0.6 0.5-0.3 1z"/>
				<path id="Layer" class="s9" d="m92.8 89.3c-3.4-0.5-6.9 0.1-5.6 1.8 0.8 1.1 2 1.3 2.9 1.3 0.9 0 2.6-0.4 3-0.2 0.4 0.2 2.4 1.3 3.6 0.2 0.2-0.3 0.6-1.3 0.4-1.7-0.1-0.4-3.6-1.3-4.3-1.4z"/>
				<g id="Layer">
					<path id="Layer" class="s2" d="m84.9 28.2c0 0-2.4-1.9-3.9-1.2-1.6 0.8-1.7 1.2-0.9 1.4 0.8 0.2 3 0.8 2.7 1.1-0.3 0.2-1.2 0.2-1 0.5 0.2 0.3 2.6 0 2.6 0l1.4-1.2z"/>
					<g id="Layer">
						<g id="Layer">
							<path id="Layer" class="s23" d="m101.6 33c0 0 2.9 0 2.8 2.9-0.2 3.1-6.2 1.7-6.2 1.7 0 0-5.2-0.8-6.8-1.5-2.1-1-7.4-5.7-7.4-5.7 0 0 0.5-1.7 1.7-2.1 0 0 5.1 3.8 7.1 4.3 2.2 0.6 8.3 0.3 8.8 0.4z"/>
						</g>
					</g>
				</g>
				<path id="Layer" class="s5" d="m102.6 50.8c0 0 2.9 5 0.3 11.8 0 0-2 5.8-1.6 7.7 0.6 2.3 1.3 1.7 1.9 9.3 0.5 6.8 0.5 5.7 0.4 8.2-0.1 0.8-3.2 1.5-3.7-0.5-1.3-5.1-4.5-15.7-3.9-21.8 0.6-6.1 0.9-11.8 0.9-11.8 0 0 3.7-1.1 5.7-2.9z"/>
				<path id="Layer" class="s6" d="m98.5 54.7c0 0 2.9 4.4-1 10.2 0 0-3 6.5-2.6 8.7 0.4 2.2 1.1 2.1 1.9 9 0.5 4.4 0.8 5.5 0.5 8.3-0.2 1.1-4.2 1.2-4.4-0.3-0.8-5.1-4.7-16.2-4.1-22.3 0.6-6.2 1.8-13.1 1.8-13.1 0 0 5.2 0.9 7.9-0.5z"/>
				<path id="Layer" class="s12" d="m90.5 39.8c0 0-0.7-3.3 4.8-5.2 5.4-2 8.8-1.9 8.8 1.1 0.1 3.1-1.3 7.1-1.5 8.5-0.1 1.1-0.7 3.7 0.7 6.8 1.3 3.2 1.9 6.1-6.7 6.6-1.6 0.1-7.2 0.1-6.4-3.4 1-4.4 1-10.8 0.3-14.4z"/>
				<g id="Layer">
					<g id="Layer">
						<path id="Layer" class="s24" d="m91.2 36.9c0 0 2.5-1.4 3.6 1.4 1.2 2.8-4.6 4.4-4.6 4.4 0 0-4.9 1.7-6.6 1.8-2.3 0.1-8.9-1.7-8.9-1.7 0 0-0.3-1.9 0.6-2.8 0 0 6.1 1.1 8 0.6 2.1-0.5 7.5-3.6 7.9-3.7z"/>
					</g>
				</g>
				<path id="Layer" class="s2" d="m95.6 31.1c0 0 0.5 2.3-0.6 3.7-0.6 0.7 1.8 1.5 3.8 0.5 0 0 0.2-3.9 1.6-5.3z"/>
				<path id="Layer" class="s11" d="m95.7 32.7c0 0 1.4-0.2 2.2-0.6l0.1 0.1 0.4 0.6 0.3-0.4c0 0-0.5 2.4-3.4 1.9 0 0 0.3-0.6 0.4-1.6z"/>
				<path id="Layer" class="s22" d="m87.2 91.1c0.8 1.1 2 1.3 2.9 1.3 0.9 0 2.6-0.4 3-0.2 0.4 0.2 2.4 1.3 3.6 0.2 0.1-0.2 0.3-0.6 0.3-0.8-0.8 0.9-2.9 0.8-3.4 0.5-0.6-0.3-1.5-0.5-2.3-0.3-0.8 0.1-2.5 0-3.4-0.7-0.5-0.3-0.6-1.1-0.5-1.4-0.5 0.3-0.6 0.9-0.2 1.4z"/>
				<path id="Layer" class="s2" d="m95.5 21.8c0 0-2.2 1.1-2.7 4-0.4 2.7-1.2 5.1 0.1 6.3 1.4 1.2 6.5 0.9 8.1-2.6 1.7-3.5-0.4-9.3-5.5-7.7z"/>
				<path id="Layer" class="s1" d="m98.5 31.8c0 0-0.7 4.7 1.6 7.9 1.3 1.9 1.3 3.3 1.2 4.1-0.2 0.8 3.6-2.6 1.9-6.5-1.6-3.9-3.2-5.5-3.2-5.5z"/>
				<path id="Layer" class="s1" d="m92.2 25.4c0 0.4 0.3 1.3 1.2 1.7 1.2 0.5 2.7 0.4 2.9 1.3 0.1 0.8 0.4 3.2 1.5 3.9 1.4 0.9 1.5-0.1 2.1-0.8 0.8-0.9 2.8-4.1 1.2-7.6 0 0-1.2-2.8-4.5-2.3 0 0-4.2 0.5-4.4 3.8z"/>
				<path id="Layer" class="s2" d="m97.3 30.5c-0.6 0.6-1.4 0.7-1.8 0.3-0.4-0.5-0.2-1.3 0.4-1.9 0.6-0.6 1.4-0.7 1.8-0.3 0.4 0.5 0.2 1.3-0.4 1.9z"/>
				<path id="Layer" class="s9" d="m98.4 31.5c0 0 1.9-1.1 2.2-0.2 0.2 0.7-1.7 1.6-2.4 1.5-0.6-0.2-0.1-1.1 0.2-1.3z"/>
			</g>
			<g id="Layer">
				<g id="Layer">
					<path id="Layer" class="s25" d="m56.5 27.1l6.2 3.6 10.4-5.9-6.2-3.6z"/>
				</g>
				<g id="Layer">
					<g id="Layer">
						<path id="Layer" class="s26" d="m64.1 31.4l-2.7-1.6v-13.2l2.6 1.6z"/>
					</g>
					<g id="Layer">
						<path id="Layer" class="s27" d="m64 18.2l-2.6-1.6 8.6-5 2.7 1.6z"/>
					</g>
					<g id="Layer">
						<path id="Layer" class="s28" d="m72.7 13.2v13.2l-8.6 5-0.1-13.2z"/>
					</g>
					<g id="Layer">
						<path id="Layer" class="s29" d="m72 14.7v10.9l-7.2 4.2v-10.9z"/>
					</g>
					<path id="Layer" class="s8" d="m64.8 29.8l7.2-4.2v-7.9c0 0-1.7 1.4-1.7 3.7-0.1 2.3-2.1 5-3.5 5.9-1.4 1-2 2.5-2 2.5z"/>
					<path id="Layer" class="s30" d="m64.8 22.1c0 0 2 0.3 2.7 1.9 0.8 1.6 1.8 1.7 2.4 1.9 0.7 0.1 2.1-0.3 2.1-0.3l-7.2 4.2z"/>
					<path id="Layer" class="s31" d="m61.7 17.4c0 0 0.5 3.5 1.9 1.2z"/>
					<g id="Layer">
						<g id="Layer">
							<g id="Layer">
								<path id="Layer" fill-rule="evenodd" class="s32" d="m67.3 18.4l0.2 0.7-0.2 0.1-0.1-0.2-0.2 0.1v0.3l-0.2 0.1 0.2-1zm-0.2 0.6l0.2-0.1v-0.2q-0.1 0-0.1-0.1 0 0.1 0 0.2z"/>
							</g>
							<g id="Layer">
								<path id="Layer" class="s32" d="m66.8 18.6l-0.2 1-0.2 0.1v-0.3q-0.1-0.2-0.1-0.3 0 0.2 0 0.3l-0.1 0.4-0.2 0.1-0.1-0.7 0.1-0.1 0.1 0.3q0 0.1 0 0.3 0.1-0.2 0.1-0.4v-0.4l0.2-0.1 0.1 0.4q0 0.1 0 0.2 0.1-0.1 0.1-0.3v-0.4z"/>
							</g>
						</g>
						<g id="Layer">
							<path id="Layer" class="s32" d="m67.9 18q0.1-0.1 0.2-0.1l-0.1 0.2q0 0-0.1 0.1-0.1 0-0.1 0.1 0 0.1 0.1 0 0.2 0 0.2 0.2c0 0.1-0.1 0.3-0.3 0.4q-0.1 0.1-0.2 0.1v-0.2q0.1 0 0.2 0 0.1-0.1 0.1-0.2 0-0.1-0.1-0.1-0.2 0.1-0.2-0.1c0-0.1 0.1-0.3 0.3-0.4z"/>
						</g>
						<g id="Layer">
							<path id="Layer" fill-rule="evenodd" class="s32" d="m69.3 18.8q0.1 0 0.1 0.3 0 0.2-0.1 0.4-0.2 0.2-0.4 0.3-0.1 0.1-0.2 0.1v-0.8q0.1-0.1 0.3-0.2 0.2-0.1 0.3-0.1zm-0.3 0.8q0.2-0.1 0.2-0.4 0-0.3-0.2-0.2-0.1 0.1-0.1 0.1v0.6z"/>
						</g>
						<g id="Layer">
							<path id="Layer" class="s32" d="m68.8 17.4v0.9l-0.1 0.1v-0.4l-0.3 0.2v0.4l-0.2 0.1v-0.9l0.2-0.1v0.3l0.3-0.1v-0.4z"/>
						</g>
						<g id="Layer">
							<path id="Layer" class="s32" d="m69.2 17.3v0.8l-0.2 0.1v-0.9z"/>
						</g>
						<g id="Layer">
							<path id="Layer" class="s32" d="m70 16.8v0.9l-0.2 0.1-0.2-0.3q0-0.1-0.1-0.2 0 0.2 0 0.4v0.2l-0.1 0.1v-0.8l0.1-0.2 0.2 0.3q0.1 0.1 0.1 0.2 0-0.2 0-0.4v-0.2z"/>
						</g>
						<g id="Layer">
							<path id="Layer" class="s32" d="m70.5 16.5q0.2-0.1 0.2-0.1v0.2q-0.1 0-0.2 0c-0.1 0.1-0.2 0.3-0.2 0.4q0 0.3 0.2 0.2 0.1 0 0.1-0.1v-0.2l-0.1 0.1v-0.1l0.3-0.2v0.5c-0.1 0-0.2 0.1-0.3 0.1q-0.2 0.2-0.3 0.1-0.1 0-0.1-0.2c0-0.3 0.2-0.6 0.4-0.7z"/>
						</g>
						<g id="Layer">
							<path id="Layer" fill-rule="evenodd" class="s32" d="m66.7 20.3q0.1 0 0.1 0.1 0 0.2-0.1 0.3-0.1 0.1-0.2 0.2h-0.1v0.3l-0.2 0.1v-0.8q0.1-0.1 0.3-0.2 0.1 0 0.2 0zm-0.2 0.5q0.1-0.1 0.1-0.3 0-0.1-0.1 0h-0.1v0.3z"/>
						</g>
						<g id="Layer">
							<path id="Layer" fill-rule="evenodd" class="s32" d="m67.2 19.9c0.3-0.1 0.4 0 0.4 0.2 0 0.3-0.2 0.6-0.4 0.7-0.2 0.1-0.3 0-0.3-0.3 0-0.2 0.1-0.5 0.3-0.6zm0 0.7c0.2 0 0.2-0.2 0.2-0.4 0-0.1 0-0.2-0.2-0.2-0.1 0.1-0.1 0.3-0.1 0.4q0 0.3 0.1 0.2z"/>
						</g>
						<g id="Layer">
							<path id="Layer" class="s32" d="m68.6 19.1l-0.2 1-0.2 0.1v-0.4q0-0.1-0.1-0.2 0 0.2 0 0.3l-0.1 0.4-0.2 0.1-0.1-0.7 0.1-0.1 0.1 0.3q0 0.1 0 0.2 0.1-0.1 0.1-0.3l0.1-0.4 0.1-0.1 0.1 0.3q0 0.2 0 0.3 0.1-0.1 0.1-0.3v-0.4z"/>
						</g>
						<g id="Layer">
							<path id="Layer" class="s32" d="m70 18.3v0.2l-0.3 0.1v0.2l0.3-0.1v0.1l-0.3 0.2v0.2l0.3-0.2v0.2l-0.5 0.2v-0.8z"/>
						</g>
						<g id="Layer">
							<path id="Layer" fill-rule="evenodd" class="s32" d="m70.6 18.6c0.1 0 0.1 0.1 0.1 0.2l-0.2 0.1q0-0.1 0-0.2 0-0.1-0.1-0.1l-0.1 0.1v0.3l-0.2 0.1v-0.9q0.1 0 0.3-0.1 0.1-0.1 0.2-0.1 0.1 0 0.1 0.2c0 0.1-0.1 0.2-0.2 0.3q0.1-0.1 0.1 0.1zm-0.2-0.1q0.1-0.1 0.1-0.2 0-0.1-0.1-0.1-0.1 0.1-0.1 0.1v0.2z"/>
						</g>
					</g>
					<g id="Layer">
						<g id="Layer">
							<path id="Layer" class="s33" d="m66.2 22.4c0.3-0.2 0.6-0.1 0.6 0.3 0 0.3-0.3 0.7-0.6 0.9-0.3 0.2-0.5 0.1-0.5-0.3 0-0.3 0.2-0.8 0.5-0.9z"/>
						</g>
						<g id="Layer">
							<path id="Layer" class="s34" d="m66.5 22.4c0.1 0 0.2 0 0.2 0.1 0 0.1-0.1 0.3-0.2 0.3-0.1 0.1-0.2 0-0.2-0.1 0-0.1 0.1-0.2 0.2-0.3z"/>
						</g>
					</g>
					<g id="Layer">
						<path id="Layer" class="s33" d="m70.3 20.3c0.2-0.1 0.4 0 0.4 0.2 0 0.3-0.2 0.6-0.4 0.7-0.3 0.2-0.4 0.1-0.4-0.2 0-0.2 0.1-0.6 0.4-0.7z"/>
					</g>
					<g id="Layer">
						<path id="Layer" class="s34" d="m70.4 20.4q0.1-0.1 0.1 0c0 0.1 0 0.2-0.1 0.3q-0.1 0-0.1-0.1c0-0.1 0-0.2 0.1-0.2z"/>
					</g>
					<g id="Layer">
						<path id="Layer" class="s33" d="m68.5 24.9c0.4-0.2 0.7 0 0.7 0.4 0 0.4-0.3 0.9-0.7 1.1-0.3 0.2-0.6 0-0.6-0.4 0-0.4 0.3-0.9 0.6-1.1z"/>
					</g>
					<g id="Layer">
						<path id="Layer" class="s34" d="m68.7 25c0.2-0.1 0.2 0 0.2 0.1 0 0.2 0 0.3-0.2 0.4-0.1 0-0.2 0-0.2-0.1 0-0.2 0.1-0.3 0.2-0.4z"/>
					</g>
					<g id="Layer">
						<path id="Layer" class="s33" d="m69.8 22.9c0.2-0.1 0.3 0 0.3 0.2 0 0.3-0.2 0.5-0.4 0.6-0.2 0.1-0.3 0-0.3-0.2 0-0.2 0.2-0.5 0.4-0.6z"/>
					</g>
					<g id="Layer">
						<path id="Layer" class="s34" d="m69.7 23.1q0.1 0 0.1 0.1c0 0-0.1 0.1-0.2 0.2q-0.1 0-0.1-0.1c0-0.1 0.1-0.2 0.2-0.2z"/>
					</g>
				</g>
			</g>
		</g>
	</g>
</svg>